<svg xmlns="http://www.w3.org/2000/svg" width="512" height="512"><path fill="#2C2C2C" d="M453.5 506.4c-13.4 0-26-5.2-35.8-14.7L286 362.7c-16.2 9-33.6 15.4-52 19.3-12.8 2.8-26 4-39 4-42.4 0-84-14.5-117.3-41-33.7-27-57.2-65.3-66.2-107.6C1 188.4 10.5 138 37.7 96 65 54 107 25 156 14.8c13-2.7 26.2-4 39.3-4 42.4 0 84 14.5 117.2 41 33.8 27 57.3 65.3 66.3 107.6 10 47 1.6 95.5-23 136l129.8 127c9.4 9.2 15 21.3 15.5 34.2 1 13.4-4 26.4-13 35.7-9 9.2-21 14.2-34.2 14.2zM195.3 87.7c-7.7 0-15.5.8-23.2 2.4-28.5 6.6-53.3 23.6-69.4 48-16 25-21.5 54.7-15.4 83.6C97.7 272 143 309 195 309c7.7 0 15.5-.8 23-2.4 29-6.2 53.8-23.2 70-48 16-24.8 21.5-54.3 15.4-83.2-10.8-50.8-56.3-87.7-108-87.7z"/></svg>