<?xml version="1.0" encoding="UTF-8"?><svg id="c" xmlns="http://www.w3.org/2000/svg" viewBox="0 0 940 799"><defs><style>.d{fill:#f7df4d;}.e{fill:#fff;}</style></defs><path class="d" d="m774.02,553.47c95.88-92.09,143.13-356.8.98-461.97-184.62-136.6-434.25-54.46-535,59-95.01,107-161,347-28.53,457.6,175.35,146.4,469.41,34.82,562.55-54.63Z"/><polygon class="e" points="220.74 668.93 150.68 638.87 158.26 632.08 157.89 593.29 118.22 562.16 118.22 536.14 120.14 514.26 129.21 513.8 107.22 503.48 105.18 497.17 123.62 493.28 121.02 447.07 101.9 437.13 100.82 428.58 181.43 417.59 180.32 404.79 188.3 389.48 208.23 344.85 308.02 138.35 322.01 129.5 658.01 134.5 679.01 142.5 692.47 146.87 693.01 159.5 610.01 360.5 626.01 356.5 669.01 427.5 675.01 435.5 680.14 439.02 724.61 455.3 730.12 457.66 733.04 492.66 729.27 525.55 706.83 530.33 736.18 550.35 739.48 554.59 731.78 556.44 727.54 584.65 738.71 592.84 734.68 596.29 707.05 603.83 712.16 621.42 712.75 637.89 712.01 654.2 472.01 788.5 220.74 668.93"/><g><g><path d="m587.6,434.19c17.96,1.26,35.92,2.59,53.89,3.58,2.47.14,4.94.24,7.41.4,2.27.15,4.55.44,6.83.59-5.55-6.5-10.82-13.26-16.22-19.87-6.23-7.63-12.45-15.26-18.64-22.92-3.52-4.36-7.04-8.71-10.56-13.07-1.28-1.59.78-2.3,1.83-1.01,12.54,15.39,25.03,30.81,37.49,46.27,3.47,4.31,7.05,8.56,10.36,13,.29.39.24.93-.21,1.13-.49.22-1.17-.19-1.48-.55-.29-.33-.56-.66-.85-.99-2.13-.08-4.3.05-6.43,0-2.22-.04-4.44-.14-6.65-.24-4.52-.19-9.04-.4-13.56-.63-8.97-.45-17.93-.99-26.89-1.59-5.09-.34-10.18-.75-15.26-1.2-.86-.08-1.79-.76-2.06-1.59-.25-.78.2-1.38,1.02-1.32Z"/><g><path d="m181.35,399.98s-.01.02-.02.03c-.02-.13-.04-.43-.01-.62,0,.1,0,.19,0,.29.01.15.02.24.02.3Z"/><path d="m168.01,430.5c3.27,5.03,17.94,8.92,18,9,.26.34,333.64,48.96,334,49,11.78,1.47,25.75-2.62,30-9,.17-.25,4.64-2.67,6-4,13.28.74,41.15,2.41,42,2,6.03-2.88,63.51-20.27,68-22,3.73-1.44,12.31-5.65,13-10,.06-.41-3.83-9.14-4-9-.69-3.28-5.9-5.95-6-6-.03-.09-8-13.79-12-19-7.03-9.16-35.1-49.05-41-59-.26-.44-1.46-.06-2,0-.26.03-6.97-.51-8,0,34.52-84.22,77.81-184.01,78.13-185,1.89-5.91,1.58-13.71,0-16.36-4.75-7.95-16.56-7.08-16.75-7.1-1.53-1.74-4.8-4.09-8.27-4.45-25.64-2.67-301.31-6.1-347.11-6.1-9,0-12.47,6.25-14,9-3.33,5.99-116.91,241.89-117,242-2.15,2.71-6.52,7.52-7,11-.27,1.93,1.01,4.03,1,4-2.59,3.57-5.99,8.4-7,12-.96,3.44-1.96,15.98,0,19Zm492.66-262.33c-.84,6.75-115.23,273.16-120.25,277.69-2.61,2.36-5.82,4.12-9.13,5.3-2.62.94-60.13-10.13-81.94-14-43.11-7.65-86.36-14.32-129.73-20.11-43.55-5.81-87.19-10.83-131-14.29-.03,0-.06,0-.09,0-.32-1.16-.28-2.52-.15-3.61.42-3.56,1.89-6.97,3.88-9.94.34-.51.26-1.12-.04-1.68,11.2-23.19,109.08-225.88,112.02-231.46,2.07-3.93,5.15-9.49,9.94-10.28.74,0,1.49-.01,2.23-.02,0,0,.01,0,.02,0,0,0,.02,0,.03,0,24.15-.21,48.31-.37,72.46-.42,45.58-.11,91.16.37,136.73,1.43,22.89.54,45.78,1.19,68.67,2,19.1.67,38.19,1.6,57.29,2.21.22.23,8.25-.67,9.63,7.22,1.32,7.54-.51,9.53-.56,9.95Zm-109.05,297.62c.27-.6.56-1.28.89-2.04.63.56,1.62.8,1.96.04,3.16-7.16,6.02-14.44,8.88-21.72,5.12-13.02,10.21-26.05,15.27-39.1,2.52-6.49,5.02-12.98,7.49-19.49,2.19-5.78,3.94-12.16,7.87-17.05.42-.52-.23-1.25-.9-1.46.35-.85.69-1.7,1.04-2.54.03.12.06.23.11.33.25.56.8.97,1.37,1.16,1.11.39,2.21.3,3.37.27,1.05-.02,2.1-.04,3.15-.06,1.05-.02,2.1-.04,3.15-.06.56,0,1.11-.04,1.67-.09.38-.03.78-.1,1.01-.38,2.66,5.4,5.94,10.47,9.45,15.36,6.73,9.37,14.29,18.07,21.67,26.92,7.46,8.94,14.54,18.15,20.76,28.01.33.53,1.05,1.11,1.74,1.16,1.91,2.15,4.3,4.57,3.9,7.71-.17,1.31-65.01,21.79-71.75,24.11-1.32-.27-2.79-.11-4.1-.1-1.68.02-3.35.04-5.03.05-3.51.04-7.02.08-10.52.14-3.14.05-6.28.1-9.42.15,4.2-2.13,7.46-6.34,9.71-10.51,3.62-6.73,6.46-13.89,9.1-21.06,2.73-7.41,5.28-14.88,7.9-22.33,5.39-15.36,11.11-30.65,16.02-46.17.4-1.26-2.24-2.93-2.81-1.47-3.24,8.32-6.13,16.77-9.11,25.18-5.15,14.57-10.13,29.22-15.53,43.71-2.58,6.91-5.32,13.87-8.91,20.33-3.07,5.53-8.24,11.65-15.3,10.74-.66-.08-3.04.07-4.11.24Zm-364.41-60.18c.15.12.29.24.44.35.06.04.13.08.19.12.31.7.77,1.24,1.26,1.29,24.57,2.53,49.12,5.15,73.66,7.93,43.44,4.92,86.78,10.74,130,17.45,21.71,3.37,43.4,6.91,65.06,10.69,21.15,3.69,42.23,7.91,63.43,11.25.18.15.36.27.49.32,3.79,1.26,8.06.85,11.88-.17,3.83-1.03,7.36-2.86,10.4-5.4,2.97-2.48,5.28-5.53,6.92-9.03,1.64-3.5,112.95-270.95,112.95-270.97.09-.18,1.74-5.63,1.07-11.3-.16-1.33-.56-2.47-1.1-3.48.94.29,1.9.51,2.85.78.81.22,1.81.47,2.42,1.08.75.74.88,2.02.96,3.01.23,2.99.03,6.02-.48,8.97-.31,1.81-47.22,117.39-82.7,204.6-.03.06-.06.13-.09.19-1.6,3.4-2.88,6.98-4.29,10.46-.72,1.8-1.43,3.6-2.15,5.4-16.69,41-29.7,72.92-32.08,78.68-2.93,4.81-5.77,6.48-9.66,8.66-3.9,2.18-8.79,1.51-13.39.78-4.53-.72-286.99-41.02-328.16-46,.05-.23-13.81-1.07-16.86-6.65-3.16-5.77,3.43-14.48,6.99-19.01Z"/></g></g><path d="m218.42,390.35c6.68-14.66,44.85-99.81,44.85-99.81,7.03-14.49,14.06-28.97,21.08-43.46,7-14.43,14.05-28.84,21.09-43.26,7.09-14.52,14.28-28.98,21.48-43.44.89-1.78,1.83-3.54,2.74-5.31.43-.83,2.35.48,1.98,1.28-6.68,14.66-13.61,29.21-20.57,43.73-7,14.59-13.98,29.19-21.02,43.77-7,14.5-14,29-21,43.5-7,14.5-37.93,85.04-45.12,99.47-.89,1.78-1.81,3.55-2.72,5.33-.6,1.16-3.29-.67-2.78-1.79Z"/><path d="m217.4,388.53c40.73,5.11,64.08,8.79,104.77,14.28,40.74,5.49,81.47,11.03,122.21,16.55,22.76,3.09,45.49,6.82,68.39,8.7,0-.1.02-.19.06-.28,6.68-17.12,13.74-34.02,20.77-50.94l21.19-51c7.03-16.92,14.06-33.84,21.08-50.75,7-16.86,14.05-33.69,21.09-50.52,7.09-16.95,14.28-33.85,21.48-50.73.81-1.9,1.67-3.78,2.5-5.67-17.6-.51-35.2-1.79-52.79-2.63-18.18-.87-36.36-1.7-54.55-2.4-36.38-1.41-72.79-2.42-109.19-3.04-20.46-.35-53.44-.65-73.91-.91-1.71-.02-3.69-3.28-1.17-3.29,36.4-.09,85.31.55,121.69,1.57,36.42,1.02,72.85,2.41,109.23,4.33,10.22.54,20.44,1.11,30.65,1.71,10.24.6,20.51,1.15,30.73,2.14,1.17.11,2.64,2.23,1.31,2.53.21.31.32.66.21.94-6.68,17.12-13.61,34.11-20.57,51.07-7,17.04-13.98,34.09-21.02,51.11-7,16.93-14,33.87-21,50.8-7,16.93-14,33.87-21,50.8-7.01,16.96-14.04,33.91-21.23,50.76-.89,2.08-1.81,4.15-2.72,6.22-.22.5-.72.52-1.25.29-.12.05-.26.07-.45.07-10.28-.15-20.49-1.5-30.67-2.81-10.11-1.31-20.22-2.67-30.33-4-20.26-2.67-40.51-5.42-60.76-8.13-40.73-5.46-81.46-10.92-122.17-16.45-22.99-3.12-28.66-4.3-51.61-7.61-.79-.11-1.66-.67-1.9-1.47-.21-.68.17-1.32.95-1.22Z"/><path d="m256.9,262.79c1.6-3.69,5.04-8.12,9.61-6.78.52.15,1.2,1.4.28,1.25-3.19-.53-5.8,2.03-7.29,4.56-1.76,2.99-2.62,6.55-2.41,10.01.17,2.8,1.67,7.08,5.32,6.21,1.6-.38,2.52-1.97,3.29-3.29.88-1.51,1.63-3.09,2.25-4.72,1.13-2.95,2.82-8.81-1.3-10.35-.34-.13-.84-.47-.82-.89.02-.39.36-.55.72-.42,3.88,1.41,4.88,5.68,4.04,9.36-.5,2.18-1.39,4.31-2.39,6.31-.87,1.75-1.87,3.87-3.58,4.95-3.24,2.05-7.1-.84-8.38-3.83-1.62-3.81-.94-8.68.65-12.38Z"/><path d="m568.51,331.03c6.55-17.09,13.97-33.83,22.26-50.15.19-.38.79-.14,1.13.25.46.02,1.08.54.94.98l-1.26,3.84c-.19.57-1.08.15-1.31-.36-7.34,14.93-14.02,30.19-19.97,45.73,1.63.52,3.69-1.24,4.67-2.32,1.45-1.6,2.64-3.41,3.67-5.3,2.24-4.08,3.91-8.49,5.74-12.77,3.97-9.27,7.94-18.54,11.92-27.8.35-.81,1.88.15,1.59.83-3.44,8.03-6.88,16.05-10.32,24.08-1.67,3.9-3.31,7.81-5.02,11.69-1.46,3.32-3.06,6.63-5.35,9.46-1.92,2.37-5.28,5.08-8.25,2.71-.21-.17-.55-.56-.43-.87Z"/><g><path d="m592.71,279.98c.22.18.63.32.85.07.03-.04.07-.07.1-.1,0,0,.05-.05.06-.05.08-.06.16-.12.25-.18.09-.06.18-.11.27-.15.04-.02.08-.03.12-.05-.13.05.02,0,.05-.01.09-.02.18-.04.28-.06.03,0,.06,0,.09,0h0s.07,0,.1,0c.05,0,.1,0,.15.02,0,0,0,0,.01,0,0,0,0,0,0,0,.04.01.08.02.13.04,0,0,0,0,0,0,.04.02.08.05.12.06,0,0,0,0,0,0,0,0,0,0-.01,0,.01,0,.02.02.04.03.02.02.04.04.06.06,0,0,.02.02.02.03.02.03.04.06.06.1.02.04.04.08.06.12-.11-.15-.01-.02.01.04.02.04.03.08.04.12,0,.02,0,.03.01.05.02.09.03.19.03.27,0,.05,0,.1,0,.15,0,.02,0,.04,0,.06-.02.1-.04.2-.07.3-.12.35.29.72.55.87.26.15.69.19.81-.15.16-.47.13-.99-.02-1.46-.33-1.01-1.24-1.76-2.28-1.93-.82-.13-1.79.2-2.18.96-.16.31.04.6.29.8Z"/><path d="m595.28,279.56s0,0,0,0c-.14-.05-.07-.05,0,0Z"/></g><path d="m397.5,184.21c12.86,21.02,25.19,42.38,36.96,64.03,11.65,21.45,22.74,43.2,33.28,65.22,5.98,12.48,11.78,25.05,17.37,37.71.18.41-.15.67-.52.68-.46,0-.88-.43-1.05-.82-10-22.44-20.48-44.66-31.57-66.59-11.02-21.78-22.58-43.28-34.68-64.47-6.82-11.95-13.82-23.8-20.98-35.55-.56-.92.83-.85,1.22-.21Z"/><path d="m361.51,177.98c8.09,14.73,16.18,29.47,24.27,44.2,8.13,14.8,16.26,29.61,24.39,44.41,8.09,14.73,16.18,29.47,24.26,44.2,8.08,14.73,16.17,29.47,24.25,44.2,8.12,14.81,16.25,29.61,24.37,44.41,1,1.82,2,3.65,3,5.47.56,1.02-.92.94-1.31.23-8.08-14.74-16.16-29.47-24.24-44.21-8.12-14.81-16.23-29.61-24.35-44.42-8.08-14.74-16.16-29.47-24.23-44.21l-24.22-44.21c-8.11-14.81-16.22-29.61-24.33-44.42l-3-5.47c-.48-.87.79-.81,1.12-.2Z"/></g><g><g><g><path d="m324.82,670.05c53.23-18.68,112.71-37.49,166.8-53.47,54.31-16.03,108.99-30.83,163.97-44.38,27.02-6.66,54.15-12.76,81.29-18.86.09-.67.19-1.33.29-2-10.25-6.26-20.59-12.37-31.01-18.35.57-.54,1.12-1.09,1.66-1.67,16.18,9.53,34.19,20.37,34.51,20.57.08.05-.47,3.25-1.86,3.69-.01.11-.02.21-.04.32-3.52.23-7.1.27-10.28,1.95-.12.06-.22.13-.3.2-47.85,11.17-95.49,23.57-142.9,36.38-54.65,14.77-108.93,30.81-163,47.55-29.49,9.13-64.22,20.15-93.9,29.92.27.27.45.59.45.91-.02,10.02-.06,20.05-.35,30.07-.05,1.88-3.08.45-3.07-.95.06-9.76.37-19.52.69-29.28-.26.08-.52.17-.78.26-1.29.43-3.69-2.35-2.17-2.88Z"/><path d="m121.14,515.26c2.09-.61,4.19-1.21,6.29-1.82.98.81,1.98,1.61,2.99,2.39-2.5.68-5,1.35-7.5,2.03-1.15.31-3.13-2.21-1.78-2.6Z"/><path d="m322.36,712.71c53.23-18.68,115.17-39.14,169.26-55.11,54.31-16.03,108.99-30.83,163.97-44.38,25.29-6.23,50.66-11.98,76.06-17.68,0,.01,0,.02,0,.04,1-.25,2.01-.42,2.99-.73.44-.14,1.07-.26,1.32-.7.39-.68-.29-.91-.86-1.3-2.25-1.55-4.96-2.97-6.73-5.08-.06-.07-.11-.15-.16-.23-.67-.28-1.33-.58-1.98-.91,1.61-12.02,2.82-18.92,4.53-30.68,1.37-.14,2.76-.36,4.13-.64-1.48,12.09-2.7,19.69-4.3,31.59,1.59.76,3.06,1.88,4.5,2.81,1.7,1.1,3.8,2.14,4.61,4.13,1.81,4.48-5.11,4.61-7.79,4.39.02.12.03.23.06.35-48.57,11.3-96.91,23.88-145.02,36.88-54.65,14.77-108.93,30.81-163,47.55-30.5,9.45-69.1,22.56-99.42,32.57-1.29.43-3.69-2.35-2.17-2.88Z"/><path d="m116.65,540.02c.01-7.64.54-15.42,2.54-22.81.31-1.15,1.63-.61,2.42.26.57-.29,1.42-.23,2.35.46,50.81,37.88,101.34,76.16,151.78,114.52,14.32,10.89,36.46,27.15,50.31,38.64,1.68,1.4.39,3.03-1.4,1.81-13.06-8.93-32.91-24.58-45.57-34.06-12.69-9.49-25.35-19.02-38.01-28.55-25.32-19.05-50.65-38.1-75.97-57.16-14.39-10.83-28.73-21.73-43.04-32.66-.63,7.21-1.34,14.38-1.19,21.63.07,3.68.31,7.35.7,11,.33,3.08,1.17,6.27,1.24,9.39.36.09.74.26,1.14.56,50.81,37.88,101.34,76.16,151.78,114.52,14.32,10.89,34,23.87,47.85,35.36,1.68,1.4.39,3.03-1.4,1.81-13.06-8.93-30.44-21.3-43.11-30.78-12.69-9.49-25.35-19.02-38.01-28.55-25.32-19.05-50.65-38.1-75.97-57.16-14.4-10.84-28.76-21.75-43.09-32.69-.29-.22-.52-.45-.69-.69-.87-.27-1.85-1.08-2.11-1.72-2.79-6.88-2.59-15.81-2.58-23.14Z"/><path d="m127.97,525.96c.42-1.58,2.9.19,2.96,1.23.38,5.85-.31,11.73-.24,17.6.07,5.78.65,11.53.85,17.3.07,1.95-2.77.24-3.02-.93-1.25-6.02-1.6-12.22-1.7-18.36-.09-5.57-.3-11.42,1.15-16.84Z"/><path d="m130.77,559.36c53.51,39.3,145.57,104.35,197.53,145.76,1.29,1.03.27,2.36-1.05,1.38-53.4-39.51-144.8-105.35-198.11-144.99-2.06-1.53-.43-3.66,1.63-2.15Z"/><path d="m327.68,703.64c76.96-34.82,297.37-96.31,400.86-117.99,1.18-.25,3.26,1.87,1.95,2.15-99.38,21.49-353.71,95.33-400.03,118.9-1.53.78-4.52-2.28-2.78-3.07Z"/></g><path d="m708.05,604.83c-.13-1.97,2.88-.47,3.2.64,3.61,12.52,4.88,34.82,2.33,47.51-.4,2-3.89-.28-3.69-1.94.8-6.68,1.42-13.37,1.36-20.1-.05-6.32-2.78-19.84-3.2-26.11Z"/><path d="m472.34,789.25s-.01,0-.02,0c.13-.03.26-.06.38-.12.57-.23,1.05-.55,1.41-.96.37-.22.72-.48,1.06-.78,14.13-9.31,29.16-17.47,43.74-26.01,15.38-9.01,30.83-17.93,46.31-26.77,31.21-17.82,62.6-35.29,94.19-52.43,17.82-9.67,35.84-18.95,53.84-28.29,1.05-.54,3.09,1.44,1.9,2.09-63.05,34.26-125.68,69.35-187.62,105.58-17.42,10.19-34.5,21.31-52.33,30.76-1.51.8-4.51-1.9-2.85-3.08Z"/><path d="m474.13,778.76c-.92-.35-1.8-.74-2.69-1.07.09-7.84.03-15.7.03-23.53,0-11.49-.87-23.16-.4-34.63.1-2.37,3.23-.46,3.38,1.16,1.05,11.38.5,23.2.4,34.63-.07,7.83-.39,15.63-.72,23.44Z"/><path d="m473.7,777.68c14.55-9.71,30.12-18.13,45.21-26.97,15.38-9.01,30.83-17.93,46.31-26.77,31.21-17.82,62.6-35.29,94.19-52.43,14.81-8.04,29.76-15.8,44.71-23.55-.43-6.15.03-12.42-.21-18.58-.26-6.54-1.63-17.98-2.25-24.49-.19-2.04,3.18-.43,3.38,1.04.91,6.75,2.2,18.48,2.31,25.29.1,5.7.38,11.78-.61,17.46.02.39.06.78.08,1.18-.11.06-.22.12-.33.18,0,.03-.01.06-.02.09-.11.5-.49.56-.91.42-59.82,32.61-119.25,65.96-178.05,100.36-17.42,10.19-34.5,21.31-52.33,30.76-1.51.8-4.51-1.9-2.85-3.08-.6-.25-1.17-.8-1.14-1.35"/><path d="m323.45,712.67c-1.1-2.52,83.68-25.25,83.19-23.93.92-.49,1.38-.64,2.62-.84.51.24,1.02.47,1.53.71l31.1,14.46c10.58,4.92,21.54,9.45,31.79,15.01.14.08.27.18.4.29,14.44-9.61,29.88-17.96,44.83-26.72,15.38-9.01,30.83-17.93,46.31-26.77,26.16-14.93,62.31-35.35,88.73-49.8,3.28-.37,55.1-12.86,58.39-13.16-2.27,1.26,3.14,31.53.82,32.82-.46.26-2.42,2.7-7.71,1.29-17.39-4.65-52.95-15.6-54.49-14.74-39.75,22.2-85.72,48.49-123.44,70.55-17.42,10.19-34.5,21.31-52.33,30.76-1.06.56-2.83-.6-3.23-1.75-10.01-3.99-19.74-8.97-29.51-13.49-10.62-4.92-21.24-9.83-31.85-14.75-1.63-.75-3.26-1.51-4.88-2.26-.86,1.39-3.3,5.08-6.39,9.72,6.1,2.96,12.19,5.93,18.29,8.9,8.95,4.37,17.9,8.73,26.85,13.11,5.03,2.46,10.05,4.94,15.09,7.4.25.12.22.49-.09.34-8.95-4.36-17.92-8.67-26.87-13.02-8.95-4.35-17.91-8.7-26.86-13.06-2.23-1.09-4.45-2.17-6.68-3.26-2.16,3.24-4.62,6.91-7.09,10.59,6.4,2.66,12.78,5.35,19.14,8.11,9.43,4.1,18.81,8.32,28.13,12.66,5.25,2.44,10.48,4.92,15.69,7.43.26.12.23.5-.09.35-9.23-4.42-18.53-8.72-27.87-12.91-9.31-4.18-18.66-8.25-28.06-12.22-2.4-1.01-4.82-1.99-7.22-2.99-1.77,2.64-3.55,5.28-5.2,7.74,4.39,1.95,8.78,3.92,13.14,5.94,7.07,3.27,14.09,6.62,21.08,10.07,7.02,3.46,14,7,20.92,10.65,6.89,3.63,13.74,7.35,20.54,11.14.87.48,1.73.97,2.6,1.46.23.13.21.5-.09.33-6.79-3.8-13.63-7.51-20.52-11.13-6.86-3.61-13.75-7.14-20.69-10.58-6.97-3.46-13.99-6.83-21.05-10.12-5.38-2.5-10.78-4.94-16.21-7.34-4.8,7.13-8.58,12.73-8.58,12.73l-21.33.82s-64.07-25.72-69.74-32c-.24-.27-4.92-15.59-4.92-15.59,3.75,1.57,41.9,27.21,41.84,27.07Z"/><path d="m333.66,713.9c.7-.54,1.4-1.08,2.09-1.62,34.77,16.87,66.13,32.09,75.03,36.22l31.1,14.46c10.58,4.92,21.54,9.45,31.79,15.01.14.08.27.18.4.29,1.08-.72,2.18-1.42,3.28-2.13-.82.84-1.64,1.68-2.45,2.54-.9.95-1.62,2.02-2.15,3.16-.36-.32-.66-.7-.79-1.09-10.01-3.99-19.74-8.97-29.51-13.49-10.62-4.92-21.24-9.83-31.85-14.75-9.28-4.3-42.34-20.33-78.4-37.87.5-.21,1-.45,1.48-.72Z"/><path d="m151.53,636.36c1.72-.41,3.13-2.42,4.37-3.53.79-.7,1.6-1.31,2.46-1.63-.05-6.68.76-13.36.61-20.07-.15-6.73-1.43-13.43-1.51-20.14-.02-1.87,2.73-.47,3.03.61,1.86,6.57,2.03,13.86,2.16,20.66.13,6.23.23,13.07-1.07,19.24.42.32.92.88,1.03,1.42,16.51,7.27,92.19,40.11,117.31,52.27,3.41,3.02,6.87,6,10.31,9-31.44-15.3-120.33-54.2-130.77-59.07-.64.43-1.23.95-1.81,1.45-.7.59-1.38,1.08-2.11,1.45,33.36,15.4,235.04,110.92,255.25,120.31l31.1,14.46c10.58,4.92,21.54,9.45,31.79,15.01.14.08.27.18.4.29,1.08-.72,2.18-1.42,3.28-2.13-.82.84-1.64,1.68-2.45,2.54-.9.95-1.62,2.02-2.15,3.16-.36-.32-.66-.7-.79-1.09-10.01-3.99-19.74-8.97-29.51-13.49-10.62-4.92-21.24-9.83-31.85-14.75-6.49-3.01-22.59-11.23-54.39-26.26-8.79,3.19-40.19,17.42-64.19,16.42-5.38-.22-4-34-2.81-44.25,0,0-.79-3.96-1.03-4.12-.29-1.4-122.09-57.41-136.47-64.25-2.08-.99-2.16-3.74-.15-3.51Z"/><path d="m100.33,438.11c-.51.88.59,2.94,2.01,3.45,6.5,2.34,13.08,4.48,19.68,6.51-.57,9.13.61,18.7,1.19,27.77.39,6.15.85,12.3,1.41,18.44-.1,0-.19-.01-.28,0-3.86.72-7.76,1.26-11.65,1.86-.69-.43-1.51-.62-2.29-.33-.86.33-2.13.66-3.09,1.24-.09.02-.18.03-.27.05-.71.14-.93.55-.86,1.05-.04.07-.09.13-.12.2-.51,1.21-.05,2.47.6,3.55-.11.84.42,1.98,1.56,2.56,17.85,9.17,236.24,116.94,239.16,117.22.75.5,1.57.81,2.17.69,14.54-2.96,28.81-7.22,43.12-10.99,13.7-3.61,27.41-7.19,41.12-10.75,48.89-12.67,97.87-25.02,146.97-36.98,49.07-11.95,98.08-24.31,147.35-35.5.69.56,1.65.78,1.83-.03.03-.15.06-.31.1-.46.45-.24.46-.68.23-1.13,4.7-22.5,5.47-45.24.85-67.89-.11-.55-.64-1.12-1.26-1.55-.14-.35-.28-.71-.41-1.06-1.26.09-2.65.15-3.84.26-.36.05-.72.11-1.07.16-.11-.58-.6-1.36-1.22-1.54-15.94-4.77-34.21-9.79-53.58-14.86-.53.6-1.27,1.07-2.24,1.33-.73.19-1.46.36-2.19.53,25.66,6.4,46.67,11.81,57.2,14.84-1.81.27-3.62.54-5.44.8-22.81,3.34-45.64,6.56-68.41,10.07-50.28,7.77-100.42,16.05-150.48,24.63-24.72,4.24-49.41,8.54-74.08,12.95-24.68,4.41-50,8.05-74.16,13.93-.33.08-.54.21-.67.38-15.37-5.95-31.28-10.7-46.93-15.86-55.24-18.22-110.35-36.95-165.82-54.48-11.19-3.72-22.36-7.53-33.62-11.05-.25-1.19-.19-4.29,1.35-4.62.68-.15.96-.62.96-1.16,0,0,.02,0,.03,0,9.02-1.05,30.11-4.6,70.53-9.16-1.04-1.59-2.16-3.12-3.34-4.6-40.56,4.79-61.32,8.73-69.31,10.33-.53.11-.78.35-.86.66-.14,0-.29,0-.44,0-4.1.42-2.66,6.1-1.52,8.48,0,.02.02.04.03.06Zm24.54,58.78c.32,3.36.67,6.71,1.08,10.06.22,1.83,4.38,3.77,4.15,1.28-.94-10.09-1.98-20.17-2.78-30.28-.75-9.53-.63-19.38-1.92-28.86,1.72.52,3.44,1.03,5.16,1.53.34.36.75.66,1.19.81,16.34,5.57,32.78,10.87,49.19,16.23,28.34,9.25,56.67,18.53,85.02,27.76,14.45,4.7,28.89,9.41,43.34,14.11,14.07,4.58,28.13,9.62,42.46,13.32.58.15.92.08,1.09-.12.08,0,.17,0,.25,0,14.63-1.95,29.03-5,43.45-7.64,13.81-2.53,27.62-5.03,41.45-7.52,49.27-8.84,98.63-17.41,148.08-25.64,45.39-7.55,90.75-15.4,136.28-22.5.74,4.01,1.55,8,2.11,12.04,1.1,7.95,1.56,16,1.39,24.03-.09,4.04-.35,8.07-.73,12.1-.38,4.04-.78,8.16-1.52,12.15-.03.17.03.36.14.53-16.6,3.66-33.24,7.14-49.82,10.91-31.99,7.28-199.99,45.67-231.81,53.55-15.72,3.89-31.42,7.83-47.1,11.85-14.42,3.69-29.2,6.92-43.39,11.38-.21,1.22-.49,2.42-.8,3.62,9.03-1.87,17.91-4.48,26.81-6.81,8.78-2.3,17.56-4.57,26.34-6.83,31.32-8.05,103.09-26.44,134.54-34.04,30.28-7.32,156.24-35.06,186.63-41.97-.13-.32-.28-.63-.42-.94.3.06.55-.01.62-.33.45-2.31,1.01-4.58,1.38-6.91.36-2.26.67-4.53.91-6.81.87-8.03.99-16.19.48-24.26-.49-7.89-1.42-15.96-3.49-23.61.19-.03.38-.06.57-.09.76-.12,1.52-.24,2.28-.36,3.62,21.94,4.13,44.63.2,66.57-28.29,6.36-56.69,12.29-84.95,18.77-49.94,11.45-99.72,23.51-149.41,35.9-24.53,6.12-49.04,12.33-73.52,18.64-22.82,5.89-46.22,11.02-68.65,18.19-.07-.03-.14-.06-.21-.1.24-.81-4.43-2.59-4.45-2.04-15.63-7.16-31.31-14.22-46.92-21.41-63.8-29.37-126.86-60.18-189.72-91.51.11-.24.28-.45.56-.61.5-.29,1.08-.45,1.59-.72.43-.22.84-.46,1.26-.7,3.87-.9,7.71-1.9,11.59-2.73Z"/><path d="m350.46,571.19c.4-15.39-.12-30.79-1.85-46.1-.19-1.68,2.67-.39,2.83.87,1.97,15.69,3.13,31.48,2.92,47.29-.1,7.31-2.35,38.48-2.45,38.45-.21-.06-.41-.12-.61-.2-.44-.17-.41-.16.11.05-.34-.01-.83-.47-1.13-.63-.02-.02-.03-.02-.05-.03-.07-.07-.15-.13-.22-.2-.41-.39-.87-.68-1.36-.88.48-3.02,1.62-30.76,1.82-38.61Z"/><path d="m127.5,505.96c62.07,26.64,164.18,73.1,224.65,103.18,1.49.74,1.35,2.96-.53,2.05-60.8-29.46-163.64-73.88-224.81-102.55-1.99-.93-1.79-3.75.69-2.68Z"/><path d="m156,493.69c11.05,3.98,22.11,7.97,33.16,11.95,11,3.97,22,7.93,33,11.9,11.05,3.99,22.11,7.98,33.16,11.97,11,3.97,22,7.94,33,11.91,11.06,3.99,22.11,7.99,33.16,11.99l4.15,1.5c.2.07.32.46.03.35-11.05-3.97-22.11-7.95-33.16-11.92-11-3.95-22-7.92-33-11.89-11.05-3.98-22.11-7.96-33.16-11.94-11-3.96-22-7.93-33-11.89-11.05-3.98-22.11-7.97-33.16-11.96-1.38-.5-2.76-1-4.15-1.5-.26-.09-.42-.6-.04-.47Z"/><path d="m137.61,473.78c11.89,4.41,23.81,8.75,35.75,13.04,11.88,4.27,23.78,8.48,35.7,12.63,11.98,4.17,23.98,8.28,36,12.34,11.96,4.03,23.95,8.01,35.95,11.93,12.06,3.94,24.14,7.85,36.24,11.67,1.5.47,3,.94,4.49,1.41.19.06.3.42.03.33-12.1-3.79-24.18-7.61-36.25-11.52-12.01-3.89-23.99-7.84-35.96-11.85-12.02-4.03-24.03-8.12-36.01-12.27-11.93-4.13-23.83-8.32-35.72-12.57-11.94-4.27-23.86-8.6-35.76-12.99-1.47-.54-2.95-1.09-4.42-1.63-.29-.11-.46-.67-.04-.51Z"/><path d="m166.44,511.44c9.58,3.4,19.15,6.83,28.71,10.3,9.56,3.47,19.11,6.98,28.64,10.51,9.49,3.52,18.97,7.07,28.44,10.66,9.51,3.6,19.02,7.23,28.51,10.89,9.49,3.66,18.97,7.35,28.44,11.07,1.17.46,2.33.92,3.5,1.38.2.08.32.47.03.36-9.46-3.72-18.94-7.4-28.43-11.06-9.49-3.66-18.99-7.28-28.5-10.88-9.47-3.58-18.94-7.13-28.43-10.65-9.53-3.54-19.08-7.05-28.63-10.53-9.56-3.48-19.13-6.94-28.7-10.37-1.18-.42-2.36-.85-3.54-1.27-.24-.08-.38-.54-.03-.42Z"/><path d="m366.88,545.03c20.81-5.15,41.7-9.95,62.62-14.62,20.82-4.65,41.69-9.1,62.59-13.36,21.01-4.28,42.06-8.37,63.14-12.26,20.98-3.87,42-7.54,63.05-11.02,21.15-3.5,42.34-6.8,63.55-9.91,2.61-.38,5.23-.76,7.84-1.14.18-.03.45.32.22.35-21.21,3.07-42.4,6.33-63.55,9.8-21.05,3.45-42.06,7.1-63.04,10.93-21.09,3.86-42.14,7.91-63.15,12.15-20.91,4.22-41.78,8.64-62.61,13.24-20.93,4.63-41.82,9.47-62.66,14.46-2.57.62-5.14,1.23-7.71,1.84-.24.06-.61-.4-.29-.48Z"/><path d="m433.94,550.78c17.14-4.54,34.32-8.93,51.55-13.15,17.14-4.2,34.32-8.24,51.53-12.13,17.3-3.91,34.64-7.66,52.01-11.25,17.37-3.59,34.77-7.02,52.2-10.3,17.43-3.28,34.9-6.38,52.39-9.34,2.14-.36,4.29-.72,6.43-1.07.17-.03.43.3.21.34-17.48,2.98-34.94,6.04-52.37,9.29-17.35,3.23-34.67,6.62-51.95,10.16-17.37,3.56-34.71,7.28-52.02,11.15-17.31,3.87-34.58,7.89-51.82,12.07-17.24,4.18-34.44,8.51-51.6,12.99-2.1.55-4.21,1.1-6.31,1.65-.2.05-.52-.33-.25-.4Z"/><path d="m400.99,567.67c18.69-4.21,37.39-8.33,56.11-12.37,18.73-4.04,37.47-7.99,56.23-11.86,18.76-3.87,37.54-7.67,56.34-11.37,18.8-3.71,37.61-7.34,56.44-10.87,18.83-3.54,37.68-6.99,56.54-10.38,2.35-.42,4.69-.84,7.04-1.26.17-.03.43.3.21.34-18.85,3.37-37.69,6.83-56.51,10.38-18.82,3.55-37.63,7.16-56.42,10.86-18.79,3.7-37.57,7.47-56.34,11.33-18.76,3.85-37.51,7.79-56.25,11.8-18.73,4.01-37.45,8.1-56.16,12.26-2.33.52-4.65,1.04-6.98,1.56-.2.04-.51-.34-.25-.4Z"/></g><path d="m160.1,564.8c10.55,7.14,21.04,14.38,31.44,21.74,10.36,7.33,20.66,14.75,30.88,22.27,10.22,7.52,20.38,15.13,30.46,22.84s20.09,15.51,30.03,23.41c9.94,7.9,19.79,15.89,29.57,23.98,1.23,1.02,2.45,2.03,3.67,3.06.24.2.05.46-.2.26-9.89-8.04-19.73-16.12-29.7-24.06-9.93-7.91-19.92-15.72-30-23.45-10.07-7.72-20.21-15.36-30.42-22.9-10.21-7.54-20.49-14.98-30.84-22.33-10.35-7.35-20.75-14.61-31.22-21.79-1.31-.9-2.63-1.8-3.94-2.7-.33-.23-.07-.55.26-.33Z"/><path d="m152.38,566.76c9.45,6.26,18.84,12.61,28.15,19.06,9.28,6.43,18.49,12.94,27.65,19.53,9.15,6.59,18.25,13.27,27.27,20.03,9.03,6.76,17.99,13.6,26.89,20.53,8.9,6.92,17.72,13.94,26.48,21.03,1.1.89,2.2,1.78,3.29,2.69.21.18.04.41-.18.23-8.85-7.05-17.67-14.14-26.59-21.1-8.89-6.94-17.84-13.79-26.86-20.56-9.02-6.77-18.09-13.47-27.23-20.08-9.14-6.61-18.35-13.14-27.61-19.59-9.26-6.45-18.58-12.82-27.95-19.11-1.18-.79-2.35-1.58-3.53-2.37-.3-.2-.06-.49.23-.29Z"/><path d="m347.32,680.16c23.92-7.55,47.86-15.02,71.84-22.37,23.87-7.31,47.77-14.54,71.69-21.68,24.04-7.18,48.11-14.28,72.19-21.29,24.09-7.01,48.2-13.94,72.34-20.78,24.03-6.81,48.07-13.54,72.16-20.15,3.06-.84,6.12-1.67,9.18-2.49.2-.05.53.33.25.41-24.12,6.87-48.31,13.49-72.44,20.33-24.02,6.81-48.01,13.7-71.98,20.66-24.09,7-48.16,14.08-72.2,21.25-24.04,7.17-48.06,14.42-72.05,21.75-23.88,7.3-47.75,14.64-71.59,22.07-3.02.94-6.05,1.88-9.07,2.83-.27.08-.69-.43-.34-.55Z"/><path d="m165.88,618.43c12.87,5.35,25.51,11.25,37.94,17.54,3.53,1.78,7.03,3.62,10.51,5.49.24.13.22.49-.09.33-12.35-6.44-24.88-12.54-37.62-18.18-3.61-1.6-7.23-3.17-10.87-4.72-.34-.15-.3-.63.12-.45Z"/><path d="m170.32,614.45c7.57,3.2,14.99,6.74,22.29,10.5,2.07,1.06,4.12,2.15,6.17,3.25.22.12.2.45-.08.31-7.24-3.88-14.61-7.5-22.1-10.88-2.12-.96-4.25-1.89-6.38-2.82-.27-.12-.24-.5.09-.36Z"/><path d="m493.25,735.42c11.5-7.12,23-14.24,34.51-21.34,11.46-7.08,22.92-14.15,34.37-21.23,11.46-7.08,22.92-14.15,34.37-21.23,11.51-7.11,23.02-14.21,34.53-21.32,11.51-7.11,23-14.25,34.54-21.31,1.41-.86,2.81-1.72,4.22-2.58.17-.11.53.23.33.36-11.47,7.16-22.98,14.26-34.48,21.37-11.45,7.08-22.91,14.16-34.36,21.25-11.45,7.08-22.91,14.16-34.36,21.24-11.5,7.11-23.01,14.22-34.51,21.33-11.51,7.11-23.02,14.22-34.53,21.32-1.4.86-2.8,1.73-4.2,2.59-.22.13-.66-.3-.41-.45Z"/><path d="m501.86,744.9c11.48-6.54,22.96-13.08,34.45-19.61,11.49-6.54,22.98-13.05,34.48-19.58,11.44-6.5,22.88-12.99,34.32-19.49,11.49-6.53,22.98-13.05,34.48-19.58,11.49-6.53,22.99-13.04,34.49-19.56,1.43-.81,2.86-1.62,4.29-2.43.18-.1.53.24.33.36-11.48,6.54-22.96,13.08-34.45,19.61-11.49,6.53-22.98,13.06-34.47,19.59-11.44,6.5-22.88,13-34.32,19.5-11.49,6.53-22.98,13.06-34.47,19.59-11.49,6.53-22.99,13.05-34.49,19.56-1.43.81-2.86,1.62-4.3,2.43-.19.11-.56-.26-.35-.38Z"/></g></svg>