<?xml version="1.0" encoding="UTF-8"?><svg xmlns="http://www.w3.org/2000/svg" viewBox="0 0 940 799"><defs><style>.d{fill:#fff;}.e{fill:#92cfe2;}</style></defs><g id="a"><g><path class="e" d="m404.14,61.61c-58.8,2.63-130.19,14.52-196.03,49.05l192.79,18.29,3.24-67.33Z"/><path class="e" d="m536.14,69.99l5.21,77.54,247.01,24.52c-58.85-46.74-140.43-84.51-252.22-102.06Z"/><path class="e" d="m346.21,761.66c18.66,4.76,37.89,8.81,57.65,12.09l-.33-11.18-57.32-.91Z"/><path class="e" d="m817.87,197.99l-20.23,19.98,36.36,39.53-11,2s-49.97-5.98-53-2c-3.03,3.98-63.72,39.94-63.72,39.94l-160.23,8.72v26.58l191.35-3.14-10.4,4.59-46.8,49.82,40.97,25.5-2.18,17.99,15.45,11.99-25.76,2.87-22.02,32.94-136.48,39.89.58,15.26,98.74-13.42,2.25,7.15-17.95,40.15,20.12,41.89-96.59,14.84,2.45,44.16,97.9,7.23,54.47,37.42-62.82,54.7-79.66-4.67,2.05,21.29c243.25-22.47,331.97-199.16,351.97-277.33,14.62-57.14,5.1-197.94-105.81-305.9Z"/><path class="e" d="m271.99,710.86l-59.62-37.81,183.36-6.01-.33-31.25-127.57,11.04-42.01-33.13s29.03-39.53,28.16-41.23,93.91-15.39,93.91-15.39l12.27-35.28-29.85-18.97,72.82-28.79-4.31-33.35-165.89-8.46-64.26-36.36,74.62-50.35,156.92-6.98,3.45-21.15-286.03,13.56-3.98-2.34,26.57-29.21-31.68-23.53,5.65-4.81,286.01-32.79.08-35.66-261.39-26.17-9.94-8.83c-27.45,26.58-51.94,59.51-71.52,100.24-96.58,200.95,1.52,376.85,195.33,461.89l19.22-18.87Z"/></g><path class="d" d="m406,778.5s92.83,11.08,163.92,6.04c.17-25.08-.26-24.62-.26-24.62l81.34,5.58,59-49,2-13-54-26-101.18-1.34-5.82-51.66,103-11,3.91-12.06-24.54-41.65,18.63-40.29-2.52-2.46-101.48,16.46v-15l140.71-41.56,19.96-34.58,19.13-1.28-8.81-11.63,5.16-13.97v-10.92l-43.16-15.07,56.39-59.9-9.39-4.1-183.38,5.45,1.42-24.79,155.96-9.66,72.59-40.65,57.42,4.75,1.99-3.11-32.59-41.85,37.4-33.67-4.36-3.04-296.6-36.55-4.84-87.9s-55.13-8-128.07,0c1.07,23-.79,72.95-.79,72.95l-262.14-22.95-57.77,30.02,57.42,45.71,260.81,24.82-3.37,28.9-295.13,38.5-1.33,6.18,31.48,24.44-25.57,31.22,7.46,1.21,284.95-17.98-.36,18.54-159.93,8.42-64.66,49.01,1,10,56.43,31.44,167.52,3.77v36.21l-70.64,27.93,29.85,18.97-12.27,35.28-95.83,16.39-17.29,39.65,2.66,6.66,34.65,24.22,123.33-8.2,2.6,36.71-177.87.54,3.87,5.46,41,31-43.76,48.29,185.85,3.87-1.09,16.84Z"/></g><g id="c"><path d="m237.04,287.47c-2.01-1.83-4.29-1.37-6.78-1.7-2.02-.26-3.84-.75-5.21-2.37-2.88-3.41-.53-8.1,4.04-6.31,2.36.92,7.01-3.25,4.17-4.9-8.85-5.15-20.81,6.67-14.31,15.31,1.46,1.94,3.63,3.17,6.01,3.58,4.1.71,7.24-1.55,9.33,3.67,1.73,4.35,2.19,12.19-3.1,13.61-4.92,1.33-8.5-2.96-10.47-6.89-1.2-2.4-5.21.49-4.67,2.64,2.9,11.39,19.05,13.19,23.27,1.66,1.7-4.64,1.57-14.78-2.3-18.3Z"/><path d="m265.39,308.06c-4.67-.84-9.27-1.12-13.98-.95-.57-4.92-1.06-9.85-1.53-14.77.25-.04.5-.09.74-.13,2-.34,3.99-.79,5.95-1.29,1.91-.49,4.01-4.43.81-4.31-2.6.1-5.47-.49-8.05-.02-.36-3.94-.73-7.89-1.11-11.83,2.13-.12,4.27-.44,6.38-.74,2.86-.4,5.74-.76,8.26-2.24.92-.54,2.32-2.23.99-3.11-1.89-1.26-4.58-.83-6.76-.73-2.84.13-5.8.19-8.58.79-.4.09-.8.21-1.18.38-1.15-1.08-4.14.82-4.12,2.54.16,13.2,1.47,26.35,3.08,39.45.1.85,1.18,1.02,1.82.97,4.92-.32,9.69-.08,14.56.69,2.29.37,5.79-4.14,2.7-4.7Z"/><path d="m288.2,292.19c-1.94-3.49-6.14-1.6-9.29-.69-1.68.49-3.59,3.86-.72,3.84,2.17-.02,3.99-.55,5.39,1.6.76,1.17,1.48,5.53,1.09,6.92-1.13,4-3.81,3.18-6.24,1.78-2.69-1.55-3.3-3.98-3.7-6.8-.6-4.24-.72-8.61-1.05-12.88-.16-2.09-.34-4.18-.49-6.28-.08-.93-.14-1.86-.17-2.79,4.21-4.52,6.68-4.81,7.41-.87.72,2.87,5.76-.55,5.3-3-1.8-9.54-13.86-5.11-17.05,1.03-2.41,4.64-.75,10.94-.37,15.9.39,5.09-.22,12.01,2.29,16.66,3.61,6.66,15.61,7.62,18.8.04,1.64-3.9.81-10.85-1.2-14.47Z"/><path d="m314.24,264.29c-.46-2.92-5.18.62-5.33,2.41-.51,6.21.39,12.72.74,18.94.3,5.47,2.61,14.72-1.23,19.37-.19.22-.31.43-.41.63,0,0,0,0,0,0-9.59,1.77-8.56-9.11-8.79-15.29-.25-6.67-.55-13.31-1.01-19.97-.18-2.69-4.31-.47-4.32,1.48-.01,9.73-.54,20.05.67,29.73.82,6.61,6.24,10.2,12.67,8.16.8-.25,1.7-1.32,2.09-2.32.64-.04,1.35-.35,1.88-.99,4.03-4.82,3.64-10.95,3.64-16.93,0-8.24.69-17.08-.6-25.22Z"/><path d="m345.24,301.08c-1.69-.82-3.26-1.25-4.62-2.68-1.63-1.71-2.4-4.03-3.11-6.23-1.17-3.57-2.42-6.22-4.89-8.82.02-.04.04-.08.06-.13.05-.1.09-.19.13-.29.05-.13.1-.26.14-.39.04-.12.07-.24.09-.35.02-.09.03-.17.05-.25.01-.09.03-.19.03-.28h0c3.51-3.2,5.87-7.74,5.24-12.51-.97-7.33-7.74-8.31-13.46-6.06-1.29-.62-3.84,1.14-3.84,2.73,0,7.02.21,14.03.41,21.05.17,5.96-.88,13.32,1.05,18.99.75,2.2,4.07-.14,4.4-1.52,1.35-5.6.58-11.86.24-17.69.11.02.22.04.34.05.22.03.45.05.71.04.21,0,.42-.04.62-.09.05-.01.09-.02.14-.03.08-.02.16-.06.24-.09,4.02,5.95,3.31,20.83,13.58,18.82,1.24-.24,4.84-3.12,2.46-4.27Zm-18.4-21.11c-.23-4.45-.56-8.9-.99-13.34,3.13-.27,6.07-.03,6.97,4.04.83,3.75-1.04,7.73-4.81,8.77-.44.12-.82.31-1.17.54Z"/><path d="m372.69,297.62c-1.54-7.61-2.96-15.24-4.41-22.87-1.05-5.54-2.7-10.76-6.91-14.73-1.78-1.68-4.85.59-5.41,2.48-3.79,12.68-8.12,27.53-7.3,40.88.15,2.47,3.63.53,4-.93,1.5-5.97,2.64-11.99,3.79-18,.1.04.2.07.33.09,2.05.23,4.13.56,6.19.56.43,0,.91-.21,1.38-.53,1.16,5.29,2.22,10.61,3.3,15.92.54,2.65,5.53-.44,5.04-2.85Zm-13.29-17.65c-.78-.06-1.56.21-2.21.66.76-3.92,1.56-7.83,2.51-11.72,1.74,3.2,2.64,6.82,3.49,10.47.07.28.12.56.19.83-1.32-.13-2.67-.16-3.98-.25Z"/><path d="m397.91,255.45c-.43-2.15-3.41-1.17-3.51.14-.58,7.49,2.2,34.16,2.25,34.81-3.61-9.05-13.49-34.33-14.6-34.81-.82-.86-3.29.05-3.37,1.12-.56,7.99,1.13,37.8,2.25,44.92.46,2.97,4.14.73,4.26-1.16.53-8.38-1.26-23.82-2.01-32.53,3.56,8.88,9.04,24.31,12.6,33.07.87,2.13,4.07.63,5.12-1.26.48-.53-1.63-37.64-2.97-44.3Z"/><path d="m425,296.5c3-2,3.86-9.56,3.24-13.15-.48-2.83-5.1.57-5.21,2.36-.16,2.59.62,6.45-3.93,8.05-2.01.71-6.06-2.97-6.74-4.49-2.03-4.56-1.89-25.7-1.12-30.32,1.12-6.74,6.51-7.44,9.16-3.93,1.46,1.93,1.33,4.83,1.76,7.13.47,2.52,4.23-.63,4.42-2,.96-7.15-6.48-14.27-13.1-11.3-8.98,4.02-6.66,16.32-6.74,24.71-.08,8.13-1.12,26.95,10.71,25.37,1.11-.15,2.13.16,3.07-.02.12.17.24.35.36.52.03.05,4.08,3.03,4.11,3.07-.28,1.42,6,.22,6-2,0-3-3.95-1.44-6-4Z"/><path d="m452.55,260.24c-1.08-5.57-2.36-16.28-10.51-12.38-.67.32-1.56,1.55-1.39,2.35-2.08,7.57-2.46,15.73-3.23,23.52-.73,7.37-2.5,15.9-1.26,23.21.4,2.36,4.11-.34,4.43-1.53,1.66-6.17,1.67-13.02,2.02-19.52,1.79.61,4.05.57,5.75.67.16,0,.32,0,.47-.01.97,6.38,1.78,13.04,3.86,18.98.97,2.79,5.51-.4,5.44-2.47-.39-10.83-3.53-22.17-5.59-32.82Zm-9.66,11.75c.54-6.18,1.52-12.58,1.57-18.83,1.12,2.11,1.27,5.17,1.61,7.2.61,3.72,1.27,7.43,1.94,11.15-1.73.01-3.46.05-5.11.48Z"/><path d="m498.85,241.19c-3.87-2.38-8.35-1.64-11.39,1.51-.35.37-.65,1.01-.75,1.63-1.28.12-3.28,1.84-3.37,2.9-1.27,15.13-.32,30.64-.22,45.8.02,3.59,5.93.71,5.89-2.02-.09-6.16-.04-12.39-.05-18.63,7.91,1.03,13.59-11.47,14-17.71.31-4.71.46-10.69-4.09-13.49Zm-1.98,13.17c.18,6.54-1.21,12.01-7.95,13.5-.07-7.31-.33-14.61-1.09-21.8.02,0,.03.01.05.01,1.86.14,3.67-.49,5.44.24,3.27,1.34,3.46,4.95,3.54,8.05Z"/><path d="m526.76,240.25c-.36,7.97-.82,15.93-1.42,23.89-.35,4.6.4,24.63-7.29,22.62-8.35-2.18-5.66-16.15-5.57-22.2.12-7.56.65-15.78-1.09-23.18-.5-2.12-3.54.52-3.7,1.68-.87,6.27-.54,12.74-.81,19.07-.25,5.87-1.13,11.9-.59,17.77.64,7.08,5.96,14.74,13.99,12.69,7.42-1.9,9.23-9.83,9.89-16.42,1.26-12.63,2.08-25.31,2.66-37.99.17-3.66-5.94-.71-6.06,2.08Z"/><path d="m548.45,257.26c2.45-2.95,3.65-6.86,2.96-10.95-1.27-7.51-8.31-11.93-15.32-8.46-.41.2-.83.69-1.09,1.22-.79.56-1.44,1.54-1.34,2.31,1.99,15.59,1.3,31.67,1.77,47.37.07,2.49,2.91,1.85,4.6.33.33.02.72-.02,1.21-.17,3.61-1.15,6.57-.65,9.61-3.42,2.59-2.35,3.98-5.52,4.44-8.95.89-6.65.36-16.62-6.83-19.29Zm-3.54-9.22c.5,1.87.87,4.71-.35,6.4-.91,1.25-2.89,2.01-4.38,2.92-.18-5.54-.4-11.31-2.32-16.44,3.58.49,6.1,3.63,7.05,7.13Zm4.37,27.22c0,4.2-.84,6.05-5.02,7.58-1.34.49-2.13.64-3.08,1.26-.24-7.34-.48-14.68-.82-22.02,1.44-.3,2.78-.8,4.01-1.47.06.1.14.19.23.28,4.28,3.82,4.67,8.88,4.67,14.38Z"/><path d="m577.74,283.07c-4.76-.27-10.25-.02-14.92.89-.08.02-.17.04-.27.08,1.36-6.77.28-14.35.07-21.16-.25-8.05-.37-16.07-1.25-24.08-.35-3.15-4.91-.5-5.01,1.72-.35,8.15.02,16.26.28,24.41.22,6.8-.89,15.74,1.82,22.07.36.84,1.14.87,1.89.54.17.13.41.22.74.27,4.51.7,10.02.51,14.53,0,1.77-.2,5.22-4.55,2.11-4.73Z"/><path d="m588.83,258.97c-.42-7.36.51-16.9-2.21-23.8-.7-1.78-3.43.04-3.69,1.27-1.74,8.05-.16,17.39.21,25.58.37,8.21-.08,17.19,1.66,25.22.61,2.8,4.87-.62,5.02-2.28.81-8.45-.5-17.52-.99-26Z"/><path d="m621.43,270.32c-.59-2.87-5.09.6-5.21,2.36-.23,3.17.66,6.39-2.27,8.22-3.08,1.92-6.1-.52-7.85-3.23-3.69-5.7-3.44-14.53-3.72-21.03-.28-6.43-.21-12.95.5-19.35.47-4.3,2.4-5.89,6.82-3.63,3.42,1.75,5.38,5.5,5.66,9.22.18,2.49,3.73.59,4.07-.95,2.18-9.68-6.44-18.57-16.32-14.31-4.24,1.83-5.95,5.77-6.49,10.09-.9,7.25-.73,14.8-.22,22.07.63,8.99.82,24.89,12.21,27.14,9.71,1.91,14.49-8.46,12.81-16.59Z"/><path d="m658.79,281.02c-2.2-9.98-4.9-19.77-8.1-29.47-2.64-7.99-4.94-17.88-10.53-24.42-1.67-1.96-5.49.73-5.87,2.69-1.67,8.59-3.34,17.19-4.79,25.83-1.46,8.75-3.59,18.03-3.27,26.93.08,2.28,3.15.35,3.55-.83,2.41-7.18,3.61-14.85,4.93-22.36,1.41.06,2.83.01,4.23.01,2.26,0,4.52.24,6.67-.53.1-.04.22-.1.35-.17,2.7,8.39,5.12,16.89,7.34,25.42.76,2.94,6.05-.55,5.49-3.1Zm-17.31-26.69c-1.98.12-3.97.19-5.93.47,1.06-5.62,2.11-11.25,3.17-16.88,2.58,5.02,4.21,10.95,5.8,16.18-1.01.03-2.04.17-3.04.23Z"/><path d="m525.97,233.5c-2.58-.22-4.41,2.15-5.96,3.89-1.38,1.56-2.94,3.26-3.6,5.27-.23.72-.02,1.45.73,1.71.85.29,1.76-.22,2.43-.7,1.52-1.1,2.69-2.65,4.02-3.97,1.3-1.29,3.66-2.75,3.53-4.81-.04-.69-.37-1.32-1.14-1.38Z"/><path d="m260.82,146.83c-2.54-2.93-6.37-3.34-9.5-5.3-2.27-1.42-4.26-3.88-4.32-6.69-.11-5.55,5.9-4.32,7.7-.69,1.34,2.7,5.81-.56,5.22-2.95-3.33-13.48-25.83-.37-16.48,12.06,2.42,3.22,5.8,3.87,9.2,5.58,3.93,1.98,5.51,5.32,6.2,9.58,1.05,6.5-1.58,14.66-9.76,13.01-5-1.01-7.76-5.54-8.71-10.17-.47-2.31-4.25.43-4.3,1.95-.53,16.08,21.04,16.65,27.01,4.09,2.77-5.82,2.06-15.47-2.26-20.46Z"/><path d="m294.28,152.59c-.95-7.47-1.41-14.84-4.89-21.67-1.1-2.15-4.18-.42-4.99,1.17-6.81,13.31-14.52,28.63-16.48,43.6-.34,2.63,3.57.17,4.04-.94,2.45-5.79,4.2-11.9,6.33-17.84,1.49.76,3.26.89,4.89,1.12,2.1.3,4.21.6,6.33.68,1.2,5.55,3.03,10.94,3.58,16.58.32,3.32,5.29.56,5.32-1.83.1-7.04-3.23-13.88-4.12-20.87Zm-14.87,1.3c2-5.11,4.22-10.12,6.61-15.05,1.49,4.74,2.02,9.68,2.61,14.7-3.1-.28-6.39-.32-9.21.35Z"/><path d="m329.25,136.01c.08-3.24-5.11-.55-5.26,1.81-.54,8.56-.59,17.17-.33,25.76-1.66-2.8-3.34-5.6-4.78-8.54-3.17-6.43-4.23-13.62-8.2-19.69-1.39-2.12-4.9,1.24-4.98,2.84-.72,13.39-1.23,26.77-1.37,40.18-.03,2.81,4.47.49,4.57-1.57.43-9.38.88-18.76,1.39-28.13,1.27,3.68,2.41,7.42,4.21,10.87,3.27,6.26,7.43,11.95,9.87,18.63.97,2.65,5.38-.35,5.26-2.38-.81-13.28-.69-26.48-.37-39.77Z"/><path d="m356.61,138.12c-1.49-1.81-4.54-2.36-6.76-2.78-1.39-.26-2.81-.41-4.21-.5-.71-.05-2.92.27-3.41-.24-1.58-1.66-5.66,1.25-4.74,3.27.08.18.17.34.27.48-.94,14.02-1.11,28.11-1.99,42.14-.05.78.46,1.31,1.2,1.45,4.26.83,8.59,1.94,12.92,2.37.3.17.71.27,1.26.25,2.68-.08,5.57-5.31,1.66-5.19-.41.01-.83.16-1.23.38-3.49-.97-7.12-1.53-10.68-2.2.35-5.44.64-10.87.86-16.32.3,0,.59,0,.83.03.91.08,1.81.23,2.72.32,1.13.11,1.95-.09,3.03-.39.59-.16,1.61-1.09,1.31-1.82-.79-1.92-2.49-2.25-4.39-2.76-1.1-.3-2.22-.54-3.33-.55,0-.34.02-.67.03-1.01.12-4.47,1.03-10.42.04-15.28.86-.02,1.72-.09,2.5-.04,3.39.2,7.03,1.3,10.39.82.85-.12,2.54-1.43,1.73-2.42Z"/><path d="m378.79,161.59c-1.2-7.25-1.97-14.71-4.8-21.54-1.08-2.61-4.67.19-5.22,1.8-4.62,13.47-9.76,27.27-12.39,41.29-.46,2.44,3.49.26,3.96-.92,1.98-5.06,3.73-10.21,5.41-15.4.56.18,1.17.31,1.74.45,2.07.51,4.44.97,6.57.7.77,5.58,1.64,11.13,3.36,16.44.7,2.17,4.23-.33,4.19-1.9-.19-6.98-1.67-14.03-2.81-20.91Zm-8.86,1.39c-1.03-.15-1.95-.34-2.85-.36,1.32-4.18,2.61-8.37,3.94-12.54,1.11,4.3,1.78,8.73,2.39,13.18-1.17-.07-2.35-.11-3.48-.28Z"/><path d="m411.12,146.27c-2.07,4.31-4.54,8.27-7.47,11.97-1.73-2.63-3.45-5.27-5.18-7.9-1.51-2.3-2.72-5.38-5.26-6.66-1.84-.93-4.54,1.33-4.61,3.2-.27,7.2-.44,14.42-.34,21.62.08,6.07-.81,13.77,1.52,19.47.52,1.27,2.4-.05,2.62-.9,1.69-6.42.87-13.71.99-20.33.08-4.29.17-8.57.29-12.86.43.77.83,1.48,1.19,2.03l5.54,8.42c.98,1.49,3.46-.21,4.17-1,2.36-2.6,4.49-5.35,6.39-8.24.35,11.21.67,22.41,1.24,33.61.14,2.81,4.55.51,4.54-1.56-.07-13.82-.51-27.63-.8-41.45-.06-2.93-4.11-.93-4.84.58Z"/><path d="m434.94,152.71c.98-.13,3.54-2.32,1.82-3.17-1.95-.96-4.12-1.29-6.22-1.76-2.36-.52-4.74-1.29-7.16-1.48-1.67-.14-5.92,3.45-3.23,4.56.09.04.2.07.29.11-.51,4.99-.51,10.1-.36,15.2-.45.67-.59,1.4-.02,2.02.02.03.05.04.08.07.14,4.08.35,8.15.44,12.14.06,2.56-.84,7.43.97,9.54.64.74,3.13.94,3.76,1.06,2.79.53,5.57,1.06,8.4,1.27,1.76.13,4.86-3.12,2.22-3.86-2-.56-4.17-.65-6.13-1.24-3.34-1.01-3.79-1.86-4.38-5.21-.65-3.67-.19-7.99-.28-11.71,0-.15,0-.29,0-.44.02,0,.05,0,.07,0,1.87.23,3.87.45,5.67-.18.78-.27,2.38-1.67,1.52-2.62-1.01-1.11-2.84-1.35-4.23-1.76-1.03-.3-2.06-.7-3.11-.91-.05-4.06-.13-8.16-.57-12.18,3.48.75,7.31.97,10.45.54Z"/><path d="m467.2,147.59c-.45-2.4-4.16.54-4.3,1.95-.68,6.79.14,13.89.18,20.72.02,3.71,0,7.41-.06,11.12-2.42-4.38-4.47-8.88-6.14-13.79-2.25-6.64-5.26-12.85-9.16-18.67-1.42-2.12-4.68,1.28-4.86,2.77-1.56,12.63-3.48,27.67.11,40.1.48,1.66,2.88-.36,2.98-1.35.7-6.75.16-13.66.4-20.44.13-3.55.34-7.09.65-10.63,2.37,4.68,4.24,9.52,6.02,14.62,2.32,6.65,5.9,12.18,10.07,17.79,1.31,1.76,4.33-1,4.38-2.5.25-7.23.39-14.47.39-21.7,0-6.55.53-13.54-.68-19.99Z"/><path d="m495.03,153.09c-3.13-1.07-6.65-.77-9.93-1.05-3.46-.3-6.89-.88-10.37-.8-1.17.03-3.79,2.6-1.99,3.46,2.24,1.07,4.73,1.57,7.2,1.93-.38,6.76-.3,13.55-.12,20.31.16,6.18-.17,12.8,1.38,18.83.33,1.27,2.08-.33,2.19-.99,1.12-6.68.68-13.67.92-20.43.2-5.68.51-11.36.68-17.05,2.56.31,5.17.51,7.64-.04,1.03-.23,4.89-3.32,2.4-4.17Z"/><path d="m503.46,156.09s-.03.02-.04.03c-1.81-.31-3.89.63-5.4,2.05-3.73,3.5-3.37,9.6-3.79,14.26-.69,7.74-2.89,25.35,10.03,24.3,10.53-.85,12.86-15.47,12.97-23.63.1-7.12-3.01-23.87-13.78-17.02Zm.27,35.22c-5.69-1.86-4.98-10.3-4.61-14.83.25-2.96.53-5.92.8-8.87.19-2.15-.1-8.41,3.51-6.74.93.43,2.21-.32,2.71-1.28,9.76,1.38,7.01,34.79-2.41,31.71Z"/><path d="m570.8,181.03c2.86-2.09,4.75-5.26,4.52-9.29-.43-7.42-8.36-11.76-15.21-10.57-.81.14-2.21,1.37-2.23,2.27-.3.32-.51.67-.55.92-.86,6.49-.4,13.21-.36,19.74.04,6.48-.24,12.99.03,19.47.04.86.47,1.22,1.05,1.25.04.24.2.46.52.64,2.58,1.42,6.11.4,8.54-.86,1.45-.75,3.43-2.07,4.73-3.67.27-.15.5-.31.65-.48,4.76-5.26,3.95-15.11-1.71-19.42Zm-.9-10.38c.71,1.52,1.11,3.8.47,5.41-1.18,2.95-4.22,2.55-6.87,2.93-.71.1-1.49.6-2.11,1.23-.06-5.13,0-10.42-.88-15.48,3.75.94,7.59,2.06,9.4,5.91Zm-3.84,30.28c-1.49.84-3.1,1.09-4.74,1.38.02-.08.04-.15.04-.23.37-6.06.2-12.19.08-18.28.16.02.32.04.51.04,1.81,0,3.62-.33,5.3-.93,1.79,2.48,3.23,4.95,3.66,8.04.33,2.39-.11,4.32-.82,6.33-1.49,1.12-2.36,2.71-4.03,3.65Z"/><path d="m594.91,180.6c-1.58-4.78-2.53-12.14-5.96-15.92-1.41-1.56-4.16.61-4.6,2.11-3.05,10.46-6.96,22.14-6.87,33.14.02,2.03,2.79.28,3.14-.73,1.38-4,2.48-8.11,3.48-12.25.85.34,1.94.39,2.69.52,1.59.27,3.13.74,4.68.19,1.43,4.33,2.8,8.64,3.49,13.17.38,2.52,5.2-.41,4.84-2.74-.91-6.02-3-11.73-4.9-17.49Zm-6.09,2.8c-1.35-.06-2.72-.09-3.97.36.74-3.21,1.45-6.43,2.22-9.62.2.71.38,1.4.59,2.02.8,2.43,1.61,4.85,2.41,7.28-.46-.02-.9-.02-1.26-.04Z"/><path d="m608.78,185.51c4.71,2.07,6.36,3.19,6.6,8.23.06.86.82,6.22-1.72,6.39-3.21.19-5.07.34-6.92-6.25-.3-1.08-3.81-.74-3.81.26.02,3.85,1.27,6.66,3.1,8.55,5.04-1.05,10.11-2.4,15.23-3.09.19-.97.21-2.04,0-3.22-.66-3.87-.41-10.29-3.99-13.27-2.44-2.03-4.95-2-7.32-4.19-2.31-2.13-.76-7.43-2.82-9.68-1.1-1.2-3.56-.68-3.81.26-1.35,5.08.23,13.72,5.45,16.02Z"/><path d="m604.03,178.17c1.43-.82,3.1-1.31,4.8-1.42-.21-.65-.32-1.43-.36-2.39-.04-.68-.65-4.91,1.62-5.07,2.87-.19,4.54-.32,6.11,4.87.26.85,3.4.55,3.41-.24.12-12.39-18.04-11.11-16.36-1.59.28,1.61.34,3.79.79,5.83Z"/><path d="m625.69,172.04c.51.24,1.04.31,1.6.23.36-.04.7-.14,1.03-.27-.33.32-.58.68-.62.92-1.06,6.07-1.23,18.31-1.23,27.58,1.56-.51,3.18-.72,4.82-.8.1-9.23.06-21.85-1.09-27.91-.07-.35-.24-.5-.46-.53.12-.09.25-.17.37-.27.44-.34.81-.75,1.11-1.22.31-.39.54-.82.69-1.3.05-.28.11-.56.16-.84.04-.53-.11-1-.43-1.42-.19-.15-.38-.31-.58-.46-.51-.24-1.04-.31-1.6-.23-.5.05-.97.2-1.41.43-.52.2-.98.48-1.4.86-.44.34-.81.75-1.11,1.22-.31.39-.54.82-.69,1.3l-.16.84c-.04.53.11,1,.43,1.42.19.15.38.31.58.46Z"/><path d="m599.07,162.21c-1.18.12-2.09.92-2.99,1.62-.7.54-1.4,1.06-1.98,1.75-.4.48-.8,1.26-.45,1.86.35.61,1.05.57,1.66.41.83-.22,1.55-.69,2.3-1.1,1.07-.59,2.02-1.17,2.69-2.24.7-1.12.19-2.43-1.23-2.29Z"/><path d="m635.66,194.89c-.08,1.29-.14,2.58-.18,3.87,1.48-.13,2.96-.26,4.44-.38,0-.22,0-.43,0-.64-.02-1.17-.04-2.35-.07-3.52,1.11-5.02.7-10.26,1.56-15.33.53-3.1,2.64-8.57,6.8-6.09,2.28,1.36,2.35,4.68,3.3,6.86.55,1.27,2.25-.09,2.54-.88,1.29-3.48,1.48-8.14-2.16-10.31-3.08-1.84-7.11-.86-9.84,1.13-3.02,2.2-4.8,5.65-5.5,9.25-.85,4.35-1.21,9.69-.79,14.38-.04.57-.07,1.12-.1,1.66Z"/><path d="m319.68,604.28c-.27-2.65-.62-5.3-.93-7.95-.32-2.71-.2-6-1.48-8.45-2.14-4.08-6.99-4.34-11.06-4.22-1.64.05-3.37,3.1-1.38,3.32.25,10.47,1.57,20.98,2.34,31.43.02.3.11.7.44.82,3.37,1.28,6.77.3,9.2-2.36,3.19-3.49,3.33-8.12,2.88-12.59Zm-3.94,9.9c-.33,1.5-1.34,1.94-3.05,1.32-2.11.91-2.96.4-2.56-1.54-.48-1.09-.25-2.97-.35-4.13-.24-2.75-.5-5.51-.77-8.26-.47-4.86-.88-9.78-1.74-14.6,2.26.06,4.63.5,6.13,2.25,1.64,1.92,1.59,5.03,1.93,7.4.64,4.53,3.56,13.63.4,17.56Z"/><path d="m327.53,587.24c-.21-1.21-1.89.28-1.95.98-.84,9.49-.02,19.56,1.02,29.02.13,1.18,2-.21,2.03-1.02.32-9.45.54-19.65-1.09-28.98Z"/><path d="m353.61,613.51c-4.17-.14-4.22-6.54-5.39-9.6-.88-2.27-2.05-4.72-4.03-6.19,2.34-1.72,3.77-4.4,4.24-7.9.33-2.45.65-5.67-1.18-7.65-2.09-2.25-5.61-1.34-8.28-1.27-.65.02-1.47.7-1.98,1.46-.54.31-1.08.93-1.13,1.3-.82,5.75-.24,11.75-.04,17.53.18,5.17-.26,10.8.9,15.86.38,1.66,2.79-.42,2.91-1.33.68-5.18.02-10.74-.25-16.01.77-.14,1.48-.34,2.16-.58,1.14,1.86,2.36,3.53,3.16,5.63.91,2.37,1.29,4.81,1.87,7.26.71,3.05,2.82,5.58,6.14,4.41.8-.28,2.85-2.85.92-2.91Zm-14.34-16.12c-.13-4.29-.08-8.76-.85-13,1.43-.08,3-.38,4.26-.02,2.3.66,2.29,3.09,2.26,5.03-.03,2.3.03,4.44-1.78,6.03-1.1.96-2.53,1.4-3.89,1.96Z"/><path d="m368.87,611.04c-1.67.14-3.32.39-4.98.63l-2.14.31c-1.21.65-1.86.3-1.94-1.04-1.64-2.33-1.02-8.12-1.24-10.99-.08-1.01-.14-2.03-.21-3.04,1.58.02,3.24-.5,4.49-1.28.57-.36,1.25-1.03,1.14-1.77-.1-.66-.84-.86-1.41-.6-.75.34-1.47.68-2.29.85-.69.14-1.39.16-2.09.2-.26-4.25-.54-8.52-1.18-12.71.82.04,1.69-.05,2.4-.1,1.55-.11,3.2-.34,4.66-.89.98-.37,2.47-2.82.47-2.58-1.43.17-2.82.54-4.26.69-1.39.14-2.82.03-4.16.46-.52.17-1.34.99-1.16,1.59-.14.18-.23.37-.23.52-.24,9.22.89,18.61,1.47,27.81.11,1.76-.32,4.78,1.56,5.73,2.23,1.13,7.9-.69,10.25-1.16,1.2-.24,2.89-2.8.83-2.63Z"/><path d="m326.87,581.98c-1.71.06-3.54,3.4-1.04,3.31,1.71-.06,3.54-3.4,1.04-3.31Z"/><path d="m377.48,595.23c-.22-4.95-.45-9.88-1.06-14.79-.14-1.1-2.05.21-2.09.96-.25,5.53-.08,11.04.07,16.56.13,4.97-.05,10.09.69,15.01.23,1.56,2.8-.33,2.87-1.31.37-5.42-.23-11-.48-16.42Z"/><path d="m375.95,573.83l-.26-.21c-.23-.11-.48-.14-.73-.1-.23.03-.44.09-.64.2-.24.09-.45.22-.64.39-.2.16-.37.34-.5.56-.14.18-.25.37-.31.59-.02.13-.05.26-.07.39-.02.24.05.46.2.65l.26.21c.23.11.48.14.73.1.23-.03.44-.09.64-.2.24-.09.45-.22.64-.39.2-.16.37-.34.5-.56.14-.18.25-.37.31-.59.02-.13.05-.26.07-.39.02-.24-.05-.46-.2-.65Z"/><path d="m393.06,573.51c-2.08.49-4.11,1.19-6.18,1.73-2.05.53-4.32.74-6.15,1.85-.35.21-1.34,1.33-.52,1.64,1.76.67,3.95-.12,5.72-.51,0,0,0,0,0,0-.34,11.35.37,22.78.63,34.13.04,1.67,2.75.31,2.73-.95-.25-11.22-.04-22.55-.88-33.75,1.4-.33,2.78-.71,4.11-1.22.71-.27,1.6-.96,1.66-1.79.05-.66-.33-1.31-1.13-1.12Z"/><path d="m411.04,591.13c-.4-5.34-1.25-10.61-2.45-15.83-.13-.56-.56-.71-1.07-.62-3.1-3.46-8.22-2.31-9.9,2.79-1.38,4.19-.64,9.23-.6,13.56.05,4.59-.16,9.26,1.9,13.49,1.3,2.67,3.6,5.56,6.94,5.15,2.49-.3,4.32-2.28,5.03-4.56,1.3-4.2.47-9.71.15-14Zm-2.98,11.02c-.09,1.51-.19,4.16-2.61,3.52-1.21-.32-2.27-2.54-2.75-3.52-2.35-4.73-1.75-10.42-1.8-15.56-.02-2.34-.55-5.65.14-7.93.4-1.31.65-2.53,2.57-2.05.47.12,1.32.87,1.98,1.45,1.24,5.48,2.1,11.02,2.4,16.64.13,2.47.22,4.96.07,7.43Z"/><path d="m558.77,574.39c-.49-6.62-1.51-13.15-2.96-19.62-.15-.69-.67-.88-1.28-.76-3.72-4.29-9.87-2.88-11.87,3.44-1.64,5.19-.76,11.43-.7,16.81.07,5.69-.17,11.47,2.3,16.73,1.56,3.32,4.33,6.89,8.33,6.4,2.98-.37,5.18-2.82,6.02-5.64,1.55-5.2.55-12.03.16-17.36Zm-3.56,13.66c-.11,1.88-.22,5.16-3.12,4.37-1.45-.4-2.73-3.16-3.31-4.36-2.83-5.87-2.11-12.92-2.18-19.29-.03-2.9-.67-7,.16-9.83.48-1.62.77-3.13,3.08-2.53.57.15,1.59,1.08,2.37,1.8,1.5,6.79,2.53,13.67,2.91,20.63.16,3.06.28,6.15.1,9.21Z"/><path d="m424.56,587.6c-2.52-1.77-5.8-1.15-7.01-4.49-.62-1.7-1.86-10.02,3.3-7.75,1.03.45,1.64,2.63,2.26,3.62.8,1.28,3.04-.85,2.8-1.94-.79-3.51-3.76-6.88-7.58-5.21-3.84,1.67-5.09,6.45-4.69,10.26.22,2.08.92,4.89,2.72,6.25,2.3,1.74,4.97.84,7.04,3.47.98,1.24,1.5,2.74,1.8,4.27.42,2.12,1.03,10.31-4.41,7.85-3.25-1.47-3.53-6.48-4.3-9.37-.27-1.01-1.79.12-1.94.68-1.1,4.18.41,10.71,5.21,12.04,3.81,1.06,7.43-2.24,8.52-5.67,1.44-4.54.37-11.14-3.72-14Z"/><path d="m580,567.99c-3.4-2.38-7.8-1.55-9.43-6.04-.83-2.29-2.5-13.48,4.44-10.43,1.38.61,2.21,3.55,3.04,4.88,1.08,1.72,4.09-1.15,3.76-2.62-1.06-4.72-5.06-9.26-10.21-7.02-5.17,2.25-6.86,8.68-6.31,13.81.3,2.81,1.23,6.58,3.66,8.41,3.1,2.34,6.69,1.13,9.48,4.67,1.31,1.67,2.01,3.69,2.43,5.74.57,2.85,1.39,13.89-5.93,10.57-4.38-1.98-4.75-8.72-5.79-12.62-.36-1.36-2.41.16-2.61.91-1.48,5.63.56,14.42,7.02,16.21,5.14,1.42,10.01-3.02,11.46-7.63,1.93-6.12.49-15-5.01-18.85Z"/><path d="m454.47,566.92c-.24-1.11-2.19.17-2.15.99.27,5.42.67,10.83,1.07,16.23-.14.04-.29.09-.44.17-1.64.85-3.66.79-5.54,1.1-.42-5.45-1.01-10.87-1.89-16.14-.18-1.11-2.07.2-2.09.96-.22,11.73.86,23.95,2.14,35.61.19,1.74,2.85.3,2.81-.98-.17-5.5-.4-11.12-.78-16.74.97-.01,1.95-.11,2.85-.18,1.16-.1,2.24-.41,3.14-1.07.47,6.35.91,12.7,1.12,19.08.07,2.04,3.35.37,3.32-1.15-.28-12.59-.91-25.53-3.56-37.88Z"/><path d="m476.34,563.41c-.4-1.64-3.48.3-3.11,1.78,1.49,5.94.89,12.75,1.04,18.84.07,3.12.14,6.25.19,9.37.02,1.28.1,2.59-.03,3.86.31,2.19-.64,3.47-2.82,3.82-1.14,1.42-2.28,1.64-3.41.66-5.21-2.59-4.1-13.58-4.43-18.32-.38-5.54-.47-11.34-1.63-16.78-.25-1.19-2.1.26-2.15.99-.6,9.08.31,19.05,1.35,28.1.57,5.01,3.96,11.59,10.13,9.61,6.23-2,6.05-9.44,5.98-14.7-.06-4.84-.14-9.68-.24-14.52-.09-4.23.15-8.59-.86-12.72Z"/><path d="m498.54,580.62c-.4-6.61-.36-13.47-1.63-19.98-.11-.57-.61-.52-1.09-.24-.71-.03-1.79.49-2.1,1.07-2.2,4.12-4.26,9.04-5.32,13.82-2.04-4.1-3.64-9.19-6.96-12.18-.71-.64-2.38.49-2,1.39.04.1.09.19.13.29,0,.04-.02.08-.02.12-.08,6.88-.1,13.75.17,20.63.25,6.07-.09,13.03,1.55,18.9.39,1.41,2.47-.31,2.54-1.16.54-6.38-.69-13.25-1.08-19.65-.28-4.62-.57-9.24-.82-13.87.37.77.73,1.55,1.07,2.34,1,2.39,2.03,4.79,3.47,6.95.35.53,1.01.45,1.61.1.49.19,1.54-.38,1.73-.8,1.75-3.93,3.32-8.06,4.83-12.15-.03,5.46.48,10.98.74,16.39.33,6.9.61,13.84,1.26,20.72.17,1.83,2.96.31,2.94-1.02-.1-7.21-.59-14.45-1.03-21.65Z"/><path d="m518.25,599.72c-1.84-7.56-3.34-15.19-5.01-22.79-1.39-6.28-2.51-12.61-5.65-18.29-.83-1.51-3.05.97-3.19,1.84-2.24,13.98-3.34,28.02-3.7,42.17-.03,1.29,2.03.2,2.09-.73.38-5.28.87-10.55,1.44-15.81,2.29.36,5.04.5,6.94-.71.1-.06.21-.15.32-.26,1.26,5.45,2.51,10.9,3.57,16.41.31,1.64,3.57-.26,3.19-1.82Zm-10.26-16.2c-1.17.2-2.34.33-3.53.39.68-5.98,1.46-11.96,2.32-17.92,1.68,4.64,2.53,9.62,3.61,14.39.19.85.39,1.7.58,2.55-.99,0-2.04.42-2.99.59Z"/><path d="m541.33,598.01c-1.87-13.95-2.39-28.33-5.15-42.13-.33-1.63-3.23.24-3.17,1.45.6,12.01,2.8,24.01,4.4,35.97-1.15-2.22-1.99-4.74-2.81-6.57-1.6-3.61-3.06-7.28-4.39-11-2.24-6.26-3.2-14.12-8.06-19-1.15-1.16-3.7.63-3.58,2.06,1.13,13.59,2.14,27.59,4.93,40.95.31,1.49,2.91-.23,2.87-1.31-.41-9.99-1.56-20.02-2.73-30,.11.35.22.7.34,1.06,1.34,4.27,2.8,8.49,4.46,12.65,1.56,3.91,3.25,7.77,5.09,11.56,1.32,2.72,2.36,5.08,5.09,6.59,1.26.7,2.88-1.08,2.72-2.26Z"/><path d="m298.75,363.01c-.28-2.31-3.74.36-4.13,1.28-2.49,5.91-5.03,11.74-8.41,17.16-3.46-3.97-6.73-8.09-9.82-12.37-1.19-1.65-4.2.77-4.23,2.24-.33,12.91.19,26.01,2.18,38.78.27,1.77,3.59-.1,3.52-1.46-.55-10.36-1.05-20.67-1.19-31.02,2.4,2.95,4.86,5.85,7.41,8.68,1.11,1.23,2.99-.19,3.68-1.16,3.1-4.36,5.55-9.07,7.76-13.9,2.05,13.93,2.92,28.11,3.33,42.15.07,2.53,4.21.62,4.16-1.28-.47-16.49-2.26-32.73-4.24-49.09Z"/><path d="m326.32,407.5c-2.68,0-5.37.11-8.05.19-2.37.07-4.81-.02-7.08.66-.72-7.48-1.21-14.99-1.47-22.51,2,.48,4.42.38,6.07-.26,1.06-.41,3.19-2.58,1.14-3.22-1.12-.35-2.32-.2-3.49-.18-1.26.02-2.56-.1-3.81.05,0,0-.02,0-.02,0-.14-6.02-.13-12.05.05-18.07,4.79-.03,9.73.09,14.36-.87,1.01-.21,2.86-2.56,1.03-2.91-5.33-1.03-11.35-.13-16.77,0-1.19.03-2.76,1.32-2.81,2.57-.55,16.12.25,32.09,2.65,48.04.17,1.1,1.53.66,2.41-.18,1.78.7,3.96.55,5.83.6,2.86.07,5.75.07,8.61-.13,1.9-.13,4.28-3.77,1.34-3.78Z"/><path d="m334.81,410.78c.63-.21,3.41.08,3.91,0,1.77-7.03,0-38.08-.61-43.44-.95.13-3.32.41-4.28.48,0,3.91.55,15.04.52,22.23-.01,3.79-.46,17.34.46,20.73Z"/><path d="m369.07,373.05c-.54-5.43-1.54-11.91-7.15-14.4-3.98-1.77-8.31-.11-11.04,3.09-3.84,4.51-3.73,11.07-3.93,16.66-.27,7.46-.21,15.13.82,22.54.51,3.69,1.52,7.47,4.23,9.7.06.26.21.5.48.71,3.66,2.83,8.84.54,11.8-2.31,3.84-3.7,4.66-9.05,5.01-14.14.51-7.27.5-14.6-.23-21.85Zm-12.91,35.02c-4.34-5.53-4.26-12.88-4.49-19.81-.15-4.4-.11-8.81.12-13.21.2-3.76-.16-15.38,7.31-12.24,7.25,3.05,5.92,18.54,5.85,24.63-.07,6.63.94,21.94-8.79,20.63Z"/><path d="m424.97,410.17c-1.77-9.81-3.57-19.62-5.4-29.43-1.51-8.11-2.01-17.5-6.17-24.77-.62-1.09-2.65-.27-3.28.29-6.27,5.53-6.3,15.34-7.63,23.05-.9,5.22-1.71,10.46-2.49,15.71-.71,4.84-1.97,9.98-1.35,14.86.19,1.49,2.46-.21,2.7-.84,2.61-6.72,3.24-14.54,4.37-21.75,1.13.1,2.4-.04,3.2-.05,2.15-.03,4.54.26,6.49-.68,1.61,8.7,3.2,17.4,4.77,26.11.45,2.49,5.19-.25,4.78-2.51Zm-14.18-26.98c-1.46.1-3.02.12-4.45.5.61-3.5,1.21-7,1.83-10.5.55-3.11.72-7.79,2.16-11.19,2.7,6.28,3.37,14.07,4.44,20.8-1.34-.04-2.83.31-3.97.39Z"/><path d="m456.43,353.86c.06-3.01-4.03-.46-4.62.93-2.95,6.99-6.35,13.72-10.16,20.26-3.16-6.14-6.27-12.47-10.22-18.1-.07-.37-.13-.75-.21-1.12-.13-.64-.57-.74-1.07-.57-1.01-.66-3.08.99-2.7,2.1.17.51.37,1.01.56,1.52-1.18,8.92-.27,18.55-.11,27.47.08,4.52.19,9.04.31,13.56.12,4.46-.41,9.47.97,13.75.61,1.91,3.18-.34,3.4-1.41,1.01-5.02.2-10.55.07-15.66-.12-4.52-.22-9.04-.32-13.56-.1-4.63.09-9.49.04-14.31,2.14,4.25,4.46,8.42,6.6,12.58.84,1.63,3.58-.45,4.1-1.29,3.07-4.92,5.89-9.99,8.46-15.17-.27,17.76-.14,35.7,1.57,53.32.22,2.24,4.6-.11,4.55-1.89-.59-20.83-1.65-41.54-1.22-62.41Z"/><path d="m481.36,381.06c2.7-2.93,4.33-6.79,4.39-11.21.07-4.5.83-10.01-2.68-13.42-2.99-2.91-7.54-4.78-11.55-3.43-.96.32-2.2,1.73-2.27,2.74-.33.33-.58.69-.63.96-1.63,9.83-.67,20.51-.59,30.46.08,10.06-.03,20.14.3,30.19.04,1.28,1,1.51,2.02,1.2.09.05.21.08.37.09,9.2.55,18.78-3.15,19.47-13.19.58-8.49,1.2-21.54-8.85-24.39Zm-2.36-21.16c2.79,2.53,2.15,6.93,2.19,10.42.05,3.58-.08,6.95-3.03,9.52-1.6,1.4-3.6,2.24-5.55,3.13.01-8.56.62-17.76-.89-26.15,2.67.2,5.26,1.25,7.27,3.07Zm6.62,45.41c-.08,2.85-.06,3.4-2.09,5.75-2.78,3.21-6.74,3.68-10.65,4.87.15-9.9-.11-19.82-.23-29.72,1.71-.45,3.29-1.12,4.74-1.97,1.76,1.64,4.15,2.41,5.76,4.31,2.65,3.14,2.46,7.53,2.5,11.38.02,1.79.02,3.59-.03,5.38Z"/><path d="m502.42,385.42c-.3-8.86-.2-18.85-2.7-27.4-.49-1.7-3.16.18-3.22,1.34-.46,9.37,1.03,19.04,1.32,28.44.28,9.37-.68,18.9-.06,28.22.18,2.71,3.94.44,4.21-1.3,1.46-9.49.78-19.73.46-29.3Z"/><path d="m532.21,353.34c-2.43-1.55-5.88-1.02-8.64-1.01-3.11.01-6.37-.18-9.19,1.25-.31.16-.69.53-.86.92-.48.37-.88.86-.91,1.24-.72,9.46.07,19.14.05,28.63-.02,9.37-1.04,19-.43,28.33.04.65.31.98.68,1.11.08.14.21.28.39.4,1.48.97,3.41,1.09,5.13,1.19,1.83.1,3.66.3,5.28-.69.91-.56,2.12-1.87,1-2.82-1.09-.92-3.1-.37-4.46-.44-1.36-.07-2.72-.27-4.08-.27,1.31-8.85.99-18.27.86-27.26.86.09,1.75.09,2.62.1,2.21.03,4.12,0,6.21-.79,1.05-.39,3.03-2.46,1.09-3.09-1.82-.59-3.55-.32-5.44-.26-1.53.05-3.03.07-4.52.33-.05-7.96.03-16.23-1.3-24.09,1.89.35,4.16.01,5.87.03,3.22.03,6.41.49,9.51-.53.73-.24,2.21-1.62,1.13-2.31Z"/><path d="m565.46,351.06c-.25-1.47-2.4.32-2.55,1.06-1.53,7.61-1.11,15.85-1.35,23.6-.22,6.78-.38,13.56-.56,20.35-3.17-7.74-6.3-15.5-9.58-23.2-2.95-6.95-5.53-14.66-10.84-20.21-.01-.08-.03-.16-.04-.24-.11-.58-.55-.6-1.02-.38-.94.04-2.04,1.18-1.57,2.05.04.08.09.16.13.24-1.38,8.58-.82,17.76-.9,26.42-.09,9.04.83,26.08.74,35.13-.02,2.49,4.09.61,4.1-1.27.06-9.35-.89-26.71-.83-36.06.03-5.7.44-11.76.22-17.66,6.17,12.86,16.21,39.5,21.58,52.62.64,1.57,2.96,1.38,3,0,.22-8.11-.58-31.88-.4-39.99.16-7.31,1.11-15.22-.14-22.44Z"/><path d="m573.12,353.16c3.51.93,7.37,1.28,11.26,1.4-1.56,7.25-1.48,15.07-1.64,22.41-.15,6.78-1.03,25.66.25,32.51,1.62-.6,3.25-1.16,4.9-1.7.81-7.33-.14-26.2-.08-33.5.05-6.4.8-13.22.18-19.67,2.6,0,5.17-.04,7.6-.04,2.02,0,5.12-4.52,2.25-4.64-7.6-.31-15.84-.91-23.35.42-.99.18-3.32,2.3-1.37,2.82Z"/><path d="m634.92,348c-6.93-.27-14.49-.95-21.33.18-.32.05-.76.29-1.14.61-.91.07-2.17,1.3-2.29,1.99-1.31,7.46-.58,15.55-.78,23.13-.18,6.78-1.48,18.9-.37,25.59.33,2.02,3.71,1.07,4,0,1.33-4.84,1.21-15.99,1.24-21.2.71.13,1.44.22,2.18.28,1.96.15,3.81.43,5.7-.2,1.03-.34,3.09-2.26,1.58-3.25-1.49-.97-3.55-.68-5.26-.72-1.43-.03-2.81.06-4.19.29,0-1.14,0-2.27.03-3.38.12-6.42.73-13.68-.58-20.1,5.96,1.54,13.12,1.2,19.13,1.09,1.84-.03,4.79-4.21,2.09-4.32Z"/><path d="m430.32,527.4c-2.58-.26-5.04.95-7.31,2.08-.79.39-1.68.8-2.56,1.27-.49-6.12-1.01-12.45-1.73-18.76,1.21-.32,2.36-.77,3.54-1.26,1.48-.62,3.07-1.11,4.07-2.43.66-.87,1.08-2.04-.24-2.49-1.76-.59-4.53,1.2-6.09,1.95-.35.17-1.01.47-1.69.87-.7-5.53-1.58-11.01-2.77-16.29,1.45-.9,2.93-1.75,4.5-2.45,1.91-.86,4.27-1.13,5.83-2.56.62-.57,1.79-2.04.59-2.74-1.87-1.09-4.91.65-6.68,1.46-2.39,1.09-4.65,2.54-6.59,4.31-.6.54-1.47,1.5-1,2.38.05.09.11.16.17.23-.03.66-.03,1.33-.06,1.99.6,7.45,1.34,14.89,2.24,22.32.47,3.89.9,7.8,1.57,11.67.41,2.37.89,4.79.96,7.2.07.03.13.06.21.08,2.32.47,4.81-1.84,6.74-2.89,2.3-1.26,4.56-2.38,6.47-4.19.45-.42.79-1.65-.17-1.75Z"/><path d="m452.12,499.75c-.7-5.19-.6-14.9-5.02-18.56-3.77-3.13-9.39-1.3-13.1.82-.98.56-1.61,2.22-.45,2.34-.02.06-.03.13-.03.19-.2,6.62.86,13.4,1.65,19.96.86,7.09,1.67,14.24,3.03,21.25.16.82.79.97,1.51.75.37.27.96.32,1.76-.06,4.08-1.91,8.07-5.3,10.09-9.38,2.67-5.38,1.33-11.62.56-17.3Zm-3.24,13.71c-.7,4.54-3.64,6.73-6.86,9.1-.71-6.41-1.78-12.79-2.71-19.17-.93-6.43-1.53-13.24-3.33-19.5,5.02-1.07,8.36-1.21,9.98,5.09,1.08,4.19,1.59,8.58,2.14,12.87.49,3.78,1.36,7.81.77,11.61Z"/><path d="m480.05,499.24c-.49-4.51-1.32-8.97-2.1-13.43-.78-4.48-.88-9.78-2.64-13.95-.44-1.05-2.07-.08-2.27.7-1.48,5.88.18,12.47,1.17,18.35.54,3.19,1.1,6.39,1.45,9.61.31,2.8,1.1,7,.33,10.32-.12.09-.23.18-.33.29-4.7,5.04-9.97-1.17-11.51-5.2-1.23-3.23-1.46-6.79-1.94-10.18-.87-6.16-1.2-13.46-4.08-19.04-.58-1.12-2.47.58-2.53,1.33-.45,5.96,1.21,12.15,2,18.05.7,5.19.93,10.93,3.83,15.46,2.8,4.38,8.53,6.37,12.83,4.36.49.24,1.26.2,1.93-.24,5.45-3.57,4.47-10.74,3.86-16.42Z"/><path d="m507.88,494.86c-.89-1.48-3.3.87-3.16,2.03.37,3.02.8,8.01-4.6,7.53-2.32-.2-3.79-2.42-4.51-4.39-1.08-2.95-1.18-6.45-1.63-9.55-.47-3.22-.92-6.45-1.37-9.67-.5-3.55-2.54-14.11,4.36-11.65.23.25.46.5.67.77.54.7.9,1.83,1.66,2.27.91.52,2.33-.62,2.4-1.55.07-1.06-.83-2.11-1.49-2.88-.26-.3-.54-.58-.83-.85-1.59-5.1-8.85-1.3-10.72,2.02-1.84,3.24-1.44,6.77-.93,10.3.79,5.45,1.71,10.89,2.52,16.34.95,6.37,2.85,14.63,11.39,12.4,5.45-1.42,9.31-8,6.25-13.1Z"/><path d="m535.66,493.71c-5.58-13.11-6.02-28.1-14.41-40.01-1.24-1.75-4.04.88-4.22,2.23-1.08,7.91-1.93,15.85-2.4,23.82-.4,6.92-1.58,15.14.33,21.89.33,1.16,2.17,0,2.34-.73,1.5-6.4,1.31-13.28,1.6-19.91,2.25-.57,4.43-1.49,6.74-1.9.21-.04.42-.1.63-.17,1.47,5.76,2.86,11.56,5.17,16.99.92,2.16,5-.39,4.22-2.21Zm-16.59-15.57c.38-5.33.88-10.66,1.48-15.97,2.17,4.26,3.61,8.83,4.87,13.48-2.19.49-4.45,1.27-6.34,2.48Z"/><path d="m563.41,491.1c-.49-.27-1.05-.33-1.55-.6-.62-.34-1.14-.89-1.67-1.35-.44-.38-.85-.72-1.26-1.01,3.22-3.33,3.51-9.68,3.21-14.4-.14-2.18-3.03-.26-3.3,1.02-.56,2.56-.27,5.35-.92,7.86-1.16,4.45-4.49,5.05-7.52,2.27-3.76-3.45-4.97-9.74-5.95-14.54-1.11-5.41-1.66-11.01-1.63-16.53.02-3.89,2.88-7.46,6.88-5.32,2.4,1.28,4.11,3.48,4.78,6.1.34,1.34,2.54-.13,2.56-1.06.14-7.47-7.42-12.73-14.18-8.55-7.48,4.62-4.46,17.82-3.3,24.87,1.19,7.23,3.55,19.96,12.9,20.55,1.46.09,2.7-.08,3.77-.47.78.78,1.41,1.92,2.09,2.57,1.22,1.17,2.76,1.75,4.32.81.55-.33,1.81-1.62.78-2.19Z"/><path d="m584.97,454.15c-2.54-5.67-5.17-11.9-9.89-16.1-1.49-1.33-3.79.55-4.06,2.14-2.42,14.3-4.01,30.03-1.42,44.41.28,1.56,2.88-.19,2.93-1.22.32-6.18.5-12.32.74-18.44,1.31-.51,2.58-1.18,3.89-1.69,1.81-.7,3.71-1.1,5.38-2.12.08-.05.17-.12.28-.22,2.21,5.63,3.65,12.23,6.97,17.18.96,1.43,3.23-.84,3.11-2-.81-7.31-4.92-15.27-7.92-21.95Zm-8.06,6.01c-1.21.51-2.4,1.08-3.51,1.75.25-5.8.59-11.6,1.21-17.42,3.2,4.1,5.32,9.42,7.25,14.08-1.72.16-3.36.92-4.94,1.59Z"/><path d="m619.32,454.95c-.63-6.33-.83-14.56-3.67-20.36-3.9-7.98-13.55-5.93-17.3,1.11-2.5,4.7-1.64,10.26-.85,15.29,1.09,6.93,2.47,13.8,3.65,20.71.02.43.09.83.21,1.18.02.11.04.23.06.34.04.24.15.38.31.45,2.75,4.2,14.33.8,16.7-3.35,2.52-4.41,1.38-10.58.9-15.38Zm-8.12,16.46c-1.97.85-5.89,0-6.26-2.52-.13-.91-.81-.95-1.55-.62-.59-5.43-1.1-10.86-1.74-16.29-.41-3.46-1.18-7.05-.99-10.54.29-5.32,5.55-11.89,10.13-5.85,3.43,4.53,3.4,13.15,4.05,18.58.45,3.71.86,7.48.75,11.23-.07,2.61-1.85,4.92-4.39,6.01Z"/><path d="m580.22,429.68c-.95,1.64-.71,2.93-3.13,2.4-.82-.18-1.58-.55-2.42-.68-2.13-.31-4.3.15-6.21,1.1-2.54,1.26-6.85,4.98-5.53,8.29.35.89,1.61.37,2.05-.18,1.75-2.2,2.57-4.8,5.73-5.34,2.44-.42,4.56,1.08,6.92.74,2.98-.43,5.38-3.61,5.27-6.56-.06-1.62-2.19-.58-2.67.23Z"/><path d="m334.99,710.42c-.6-6.14-.32-13.29-3.7-18.67-1.02-1.62-3.89.57-4.22,1.78-3.59,13.03-6.35,26.23-8.42,39.58-.35,2.29,3.6.5,3.9-1.2.74-4.18,1.56-8.35,2.44-12.51,2.09.16,4.17.13,6.25-.08.51,5.17,1,10.35,1.49,15.52.21,2.19,4.47-.22,4.29-2.25-.66-7.39-1.32-14.78-2.04-22.16Zm-9,5.7c-.1,0-.21,0-.31,0,1.14-5.19,2.39-10.37,3.72-15.52,1.01,4.54.94,9.69,1.37,13.88.05.49.1.99.15,1.48-1.64.17-3.28.24-4.93.15Z"/><path d="m361.73,716.28c-.09-.46-.48-.78-1.3-.76-1.83.04-3.69.27-5.5.52-.73.1-1.45.58-1.76,1.26-.24.52-.2,1.23.5,1.34,1.8.29,3.65.5,5.47.54.16,0,.33-.03.49-.07-.25,4.67-1.2,18.6-8.02,14-5.32-3.59-3.38-12.17-3.03-17.56.35-5.4.57-10.82,1.06-16.21.33-3.6,2.41-7.6,6.26-4.64,2.43,1.86,2.89,5.14,3.39,7.97.33,1.85,3.36-.25,3.45-1.43.54-7.16-5.66-15.75-13.18-10.26-2.95,2.16-3.93,5.62-4.3,9.1-.67,6.15-.81,12.39-1.2,18.56-.42,6.57-.9,21.03,9.89,18.97,8.59-1.64,8.97-13.77,9.32-20.4.05-1.01-.7-1.18-1.54-.93Z"/><path d="m390.34,731.05c-7.12,4.23-9.33-14.08-11.34-17.51-.03-.04-.06-.08-.09-.11,3.87-2.35,5.94-7.4,6.07-12.18.08-3.13.45-7.4-2.59-9.32-2.54-1.6-6.08-1.37-9.06-.78-.01-.06-.02-.12-.03-.18-.26-1.31-2.16.26-2.29.95,0,0,0,.02,0,.03-.64.61-1.05,1.63-.29,1.89-.99,6.91-.71,14.23-.98,21.16-.14,3.65-.28,7.3-.46,10.95-.16,3.35-.78,6.91-.02,10.2.36,1.57,2.76-.08,3.01-.93.39-1.28.68-2.62.89-3.99.35-.43.5-.96.17-1.21.63-4.97.42-10.32.44-15.23,1.05.03,2.02-.12,2.93-.38-.08.15-.13.3-.13.43,0,3.24.9,6.41,1.62,9.55.6,2.62,1.18,5.36,2.72,7.62,2.7,3.94,7.64,4.42,10.89.93,1.17-1.26.09-2.8-1.45-1.88Zm-15.48-19.89c-.33-.05-.68.02-1.03.17.18-5.71.6-11.8-.1-17.5,3.56-.03,7.12.49,7.44,4.91.31,4.28.24,13.47-6.32,12.42Z"/><path d="m410.87,702.03c-.23-3.39-.92-7.48-4.57-8.49-.06-.15-.16-.29-.34-.4-8.26-5.81-12.6,9.15-13.41,14.33-1.18,7.56-3.37,23.03,5.29,27.29,9.19,4.53,11.82-9.01,12.6-15.03.75-5.78.82-11.88.43-17.7Zm-3.9,10.69c-.08,3.93-.16,19.75-5.74,18.82-6.48-1.08-5.46-12.83-5.32-17.24.14-4.77.35-19.58,7.45-18.8-.01.24.06.47.26.68,4.24,4.52,3.47,10.65,3.35,16.55Z"/><path d="m432.61,699.81c-.28-3.75-1.19-8.52-5.08-10.17-2.77-1.18-6.24-.36-7.89,2.15-.87.31-1.79,1.15-1.84,1.94-.45,7.25-.25,14.59-.25,21.85,0,6.68-.56,13.63.21,20.27.22,1.91,3.41-.28,3.54-1.47.71-6.58.24-13.45.19-20.09,2.65.63,5.53-.78,7.5-2.65,3.23-3.06,3.94-7.59,3.62-11.84Zm-11.01,11.57s-.07,0-.11,0c.02-5.86.12-11.76-.2-17.6.14-.06.28-.14.42-.22,4.41-2.89,6.31,4.52,6.64,7.36.58,4.95-.45,10.75-6.75,10.45Z"/><path d="m451.17,732.92c-2.01.01-4.44.6-6.41.29-1.41.5-2.42.01-3.05-1.44l-.16-3.56c-.21-4.14-.45-8.28-.68-12.42,0-.12-.01-.25-.02-.37.72.15,1.44.22,2.25.26,1.5.07,3.09.36,4.5-.23,1.07-.44,3.42-2.43,1.72-3.54-1.17-.77-2.92-.36-4.26-.3-1.53.07-2.92.25-4.38.68-.27-6.4-.43-12.93-1.41-19.24,2.54.23,5.37-.03,7.77-.43,1.15-.19,2.36-.95,2.73-2.12.34-1.05-.27-1.81-1.36-1.76-3.11.15-6.64.74-9.58,1.75-.02,0-.04.02-.07.03-.57-.86-2.55.59-2.61,1.45-.55,7.7.21,15.57.58,23.27.17,3.55.35,7.11.52,10.66.16,3.17-.21,7.15.83,10.16.14.41.44.67.87.75,3.41.63,7.57-.15,11-.55,1.63-.19,3.84-3.38,1.19-3.36Z"/><path d="m479.09,724.24c-.3-1.99-3.5.32-3.64,1.51-.27,2.34.27,7.77-3.65,7.75-2.76-.01-4.61-3.43-5.45-5.56-1.48-3.77-2.04-7.96-2.23-11.98-.18-3.81.03-7.62.28-11.42.14-2.01-.06-4.9.73-6.77,2.44-5.82,7.44-2.31,9.76.13.98,1.02,3.39-.61,2.95-1.9-2.23-6.58-10.36-6.26-14.56-1.69-2.56,2.79-2.8,6.33-3.07,9.94-.37,4.95-.64,9.93-.26,14.88.49,6.37,2.17,18.34,10.84,18.21,6.72-.11,9.12-7.52,8.29-13.08Z"/><path d="m504.61,691.78c.02-2.4-3.94-.59-3.95,1.22-.03,6.64-.06,13.29-.1,19.93-.02,3.21.03,6.43-.1,9.63-.07,1.65-.16,3.41-.64,5-.86,2.86-4.98,5.71-7.79,3.81-5.46-3.69-4.23-12.96-4.26-18.61-.03-6.39.49-12.85.17-19.22-.1-2.01-2.91-.31-3.12.96-1.55,9.43-1.5,19.96-.77,29.49.44,5.77,3.67,13.01,10.68,11.87,6.17-1,9.13-7.36,9.59-12.94.85-10.26.23-20.85.3-31.14Z"/><path d="m533.41,732.43c-1.09-8.14-3.53-16.26-5.35-24.27-.91-4.02-1.65-8.13-2.75-12.1-.62-2.25-1.29-4.1-3.49-5.18-1.29-.62-3.17.61-3.53,1.89-3.94,13.91-7.58,27.85-10.99,41.9-.5,2.06,2.52,1.12,2.92-.25,1.82-6.36,3.64-12.72,5.47-19.08,1.16.22,2.38.2,3.54.16,1.58-.04,3.19-.09,4.57-.93.22-.13.64-.51.99-.95l.03.12c1.57,6.82,2.7,13.99,4.92,20.63.68,2.03,3.92-.33,3.7-1.94Zm-12.6-20.62c-1.4.16-2.82.15-4.21.31,1.45-5.05,2.89-10.1,4.34-15.14.84,2.03,1.07,4.64,1.48,6.41.63,2.73,1.26,5.46,1.88,8.19-1.16-.25-2.27.1-3.49.23Z"/><path d="m533.73,687.83c-.98-.86-2.47.14-3.19.83-.63.6-.81.9-1.44,1.56-.49.52-.97,1.03-1.46,1.55-.44.47-.86,1.39-.26,1.9.61.51,1.58.13,2.13-.3.57-.45,1.13-.9,1.7-1.34.26-.2.58-.39.8-.63.04-.04.05-.06.06-.07.05-.03.11-.07.2-.12.24-.16.44-.31.66-.5.71-.62,1.8-1.98.8-2.86Z"/><path d="m562.38,732.04c-2.49-1.39-4.81-2.13-6.77-4.39-1.82-2.1-2.61-4.65-3.28-7.29-.89-3.54-1.42-7.02-3.89-9.61,2.51-2.46,4.14-5.83,4.51-9.48.87-8.64-5.67-10.66-12.98-9.11-.86.18-1.82,1.58-1.44,2.23,0,.04-.02.08-.03.12-1.8,14.05-.95,29.02,1.25,42.98.29,1.86,3.7-.23,3.51-1.84-.82-7.13-1.26-14.17-1.49-21.22,1.29-.29,2.49-.77,3.6-1.39,3.61,7.94,3.2,21.43,14.65,22.12,1.13.07,4.21-2.08,2.36-3.12Zm-20.7-20.99c-.13-5.43-.16-10.87-.17-16.37,4.19.09,7.74,1.31,7.61,6.51-.11,4.79-2.35,8.52-7.1,9.72-.11.03-.23.08-.34.14Z"/><path d="m567.34,700.56c0-1.74-2.53-.26-2.71.84-1.86,11.01-1.97,22.59-1.26,33.71.15,2.33,3.84.55,3.81-1.17-.23-11.14.21-22.24.16-33.38Z"/><path d="m569.01,690.4c-.1-.37-.35-.62-.65-.84-.33-.24-.72-.31-1.12-.33-1.25-.04-2.44.6-3.29,1.48-.37.39-.69.87-.87,1.38-.15.42-.22,1-.05,1.42.08.3.26.53.53.69.3.15.62.21.96.17.37.01.75-.11,1.11-.28.14-.04.29-.09.43-.12.06-.02.13-.03.19-.05,0,0,.01,0,.02,0,.04,0,.08-.03.12-.05.13-.05.27-.09.4-.16,0,0,0,0,.01,0,.77-.38,1.44-1.01,1.84-1.65.28-.44.52-1.12.37-1.64Z"/><path d="m589.96,713.19c-1.01-6.22-1.11-13.63-4.02-19.3-.86-1.68-3.7.68-4.04,1.7-2.32,6.98-4.35,14.03-6,21.2-1.5,6.48-3.34,13.46-3.23,20.14.02,1.53,2.18.36,2.46-.49,1.46-4.55,2.41-9.3,3.4-14.02,2.45.51,5.2.49,7.68.45.21,0,.42-.06.63-.13.78,5.11,1.56,10.23,2.69,15.26.5,2.2,4.16-.34,3.98-2.09-.79-7.61-2.32-15.17-3.54-22.72Zm-10.4,6.5c-.14.03-.31.1-.5.21.32-1.44.64-2.88,1-4.3,1.1-4.32,2.31-8.61,3.61-12.88.24,1.54.42,3.09.66,4.58l1.63,9.96c.11.65.21,1.29.31,1.94-2.24,0-4.55.09-6.72.5Z"/><path d="m797,223.5c-14.46-5.25-30.74-8.06-45.51-12.27-14.56-4.15-46.04-15.86-47.49-15.73-19.93,1.85-584.14,69.85-606.68,74.03-1.19.22-2.81,3.62-2.8,3.89.29,6.35,25.91,25.47,31.48,30.08-1.3,1.48-26.39,29.7-24.45,32.58.35.52,1.18,3.62,1.58,3.62,35.62-.31,293.88-20.46,293.87-19.2-.01,1.21-.55,12.73,0,15,.19.79,4.23-1.22,4.79-1.46.78-.33,1.44-.99,1.57-1.85.36-2.36.37-4.8.43-7.18.03-1.18.15-3.34.21-4.52.05-1.16,90.82-6.55,137-9,40.44-2.14,117.93-6.44,158.28-10.06.18-.02.35-.05.53-.1.99,0,1.93-.16,2.72-.57,13.93-7.2,82.5-44.78,95.6-53.61,1.28-.87,3.03-4.68,3.25-5.44.88-2.96,1.67-16.01-4.37-18.21Zm-4.96,16.69c-2,2.48-80.39,42.49-93.74,50.79-.28.18-.47.38-.59.6-38.9,1.2-106.97,7.43-139.5,9.15-35.85,1.9-71.69,3.9-107.52,5.99-71.32,4.17-142.6,8.88-213.85,14.04-39.7,2.88-79.74,4.86-119.21,10.19.48-.91,22.93-26.29,22.73-27.17,1.19-.89.26-4.01-.14-4.39-1.9-2.4-31.46-23.12-31.68-23.53,28.77-3.08,134.07-15.93,238.66-28.68,54.67-6.66,147.68-17.49,225.56-26.44,59.16-6.8,109.59-12.52,127.83-14.51,14.3,5.07,89,24.12,89.07,24.17,5.02,3.52,4.38,7.29,2.38,9.78Z"/><path d="m660.95,196.21c-.1-1.56-.16-3.12-.13-4.68.04-2.07.26-4.07.06-6.11.48-4.35,1.63-8.65,5.38-7.68,3.85,1,4.45,6.68,4.58,11.32-.16.8-.3,1.61-.4,2.42-.13,1.09-.26,2.18-.4,3.27,1.52-.21,3.04-.41,4.56-.6.08-1.18.14-2.36.18-3.54,0-.03,0-.06,0-.09.18-.02.37-.05.55-.07.69-6.73-1.28-18.81-9.18-17.19-6.19,1.27-9.74,8.16-9.81,14.47-.77,3.05-.76,6.35-.58,9.5,1.73-.36,3.46-.7,5.19-1.02Z"/><path d="m841,174.5c-25.74-4.19-378.4-46.28-435-52,1.2-5.37-.28-65.53-1.38-70.81-.35-1.7-2.8.44-2.94,1.33-.51,3.27-.68,66.59-.73,69.89-.03,1.97-257.62-22.8-258.95-22.42-9.56,2.74-48.79,23.44-58,29-2.51,1.51-4.37,8.61-4,9,6.88,7.35,53.83,48.05,54,48,22.81,1.36,266.01,21.02,266,21,.37.04-.02,1.3.15,4.35.04.84-1.12,21.28-1.05,22.1,1.38-.2,2.75-.44,4.12-.69.17-.03,1.55-19.64,1.71-19.64.1-1.4.17-2.8.21-4.21.06-1.98.07.19-.13-1.9,4.14.39,131,11.4,146,13l34.06-5.4c-41.88-6.51-181.14-20.7-223.28-24.74-46.75-4.48-93.57-8.18-140.46-11.03-26.78-1.63-53.55-2.06-80.34-3.17-.23-.09-.52-.14-.9-.13-.4.01-.81.17-1.19.41.52-.78.64-1.62-.03-2.17-8.2-6.74-15.89-14.09-24.1-20.85-7.18-5.92-14.21-12.76-21.98-17.96,7.86-4,15.57-8.34,23.42-12.34,9.03-4.6,18.91-8.6,27.37-14.19.18.17.46.29.87.32,152.37,12.74,622.86,67.19,686.85,73.89-3.28,2.53-6.4,5.34-9.62,7.82-5.78,4.46-20.55,18.21-26.3,22.69-2.91,2.27,3.83,12,7.62,9.85,6.6-3.75,41-39.72,41-40,.43-1.17-1.35-8.73-3-9Z"/><path d="m838.66,259.58c-1.89-5.28-10.76-17.92-14.48-22.11-3.46-3.9-17.76-20.07-22.77-21.82-1.81-.63-6.18,1.74-4.95,4.08,2.27,4.32,30.81,33.95,32.54,36.77-13.31-1.8-43.93-3.79-43.93-3.79l-9.07,6.79s49.01,4.38,57.29,5.33c2.31.26,6.33-2.55,5.37-5.25Z"/><g><path d="m712,703.5c-8.04-7.2-50.49-36.13-51.99-36.21-34-1.77-100.24-2.06-100.24-2.06,0,0-.6-32.66-1.77-41.73,28.32-2.47,72.14-7.3,96-10,2.84-.32,7.59-5.92,3.91-12.06-1.31-8.3-20.85-44.16-20.85-44.16,0,0,19.26-34.27,19.63-34.35,2.06-.41,2.25-11.65-1.14-11.21-33.05,4.21-65.98,9.54-98.92,14.84l-.77,1.01s-194.77,27.45-212.38,29.82c-29.5,3.98-58.08,5.34-87.47,10.11-.58.09-6.22,1.21-7,2-6.18,6.28-26.57,39.51-26,42,.74,3.22.72,6.12,3,8,3.45,2.85,37.18,26.15,41,30,.22-.2,122.97-10.65,127-11-1.16,2.34.6,19.16.78,21.79.16,2.27.45,4.53.95,6.75-4.8.13-9.59.24-14.39.38.32-.1.62-.3.87-.53-.02,0-.04,0-.06,0-.31.08-.63.13-.96.14l-1.21.04s.08.11.13.15c.13.11.27.17.42.22-8.13.24-16.26.5-24.39.78-28.89,1-115.28-1.38-144.14.28-.76.04-4.17,5.26-3,6,8.98,5.68,42.96,30.22,51,37-8.35,6.38-43.63,40.02-46,44-.29.49,2.94,6.9,4,7,12.22,1.12,168.39,2.08,185,2,.78,0,.51,3.09.56,4.85.04,1.48.08,2.96.13,4.43.03.74.05,1.47.09,2.21.02.37-.01.81.08,1.17.1.4.48.72.62,1.07.32.82,1.22.81,1.93.51.89-.37,1.54-1.09,1.73-2.04h0c.3-.7.48-1.39.42-2.2-.05-.67-.1-1.34-.16-2.02-.14-1.85-.33-3.7-.49-5.55-.08-.93.11-2.25.09-2.46,41.87.54,157.71,1.98,157.74,2.9.06,1.96.15,3.92.3,5.87.2,2.48.41,4.95.72,7.42.12.91.07,2.28.58,3.08.57.89,1.62,1.17,2.58.78,1.12-.45,1.86-1.64,2.14-2.77.26-1.07-.06-2.22-.2-3.29-.27-2.1-.55-4.21-.8-6.32-.29-2.54-.06-5.66-.06-5.66,26.3.19,56.44-.05,76,0,1.13.38,2.88-.31,4-1,9.75-6.02,27.28-21.6,36-29,8.74-7.42,14.95-11.82,23-20,.91-.93,2.48-12.57,2-13Zm-440-65c-6.48-5.53-28.78-22.47-31-25-3.39-3.87,19.53-38.96,20-39,49.97-3.98,101.79-12.02,151.44-18.78,49.5-6.73,207.2-26.13,233.56-31.22-3.82,6.68-13,21-19.05,32.48-1.73.95.68,3.9,1.58,5.42,4.43,7.55,18.13,36.26,20.79,42.65-88.79,8.01-365.26,31.54-377.32,33.45Zm128-1c-.05-1.69,150.98-13.17,151-13,1.04,8.76,2.09,31.93,3.36,40.66-5.72,0-11.44.02-17.16.04-.74.23-1.49.22-2.21,0-8.85.03-17.7.07-26.54.1-36.06.13-72.11.69-108.16,1.61.05-.14.08-.28.08-.41-.02-2.88-.29-26.14-.37-29.01Zm298,77c-4.7,9.4-42.95,32.29-52,41-52.74-1.1-128.29,2.81-180.48,2.23-52.59-.58-233.15-3.81-232.52-4.23,8.85-5.89,46.24-40.85,45-42-7.92-7.37-42-32-42-32l422-2s33.43,21.99,43,28c2,3-2,7-3,9Z"/><path d="m741.36,322.4c-21.44-.56-452.38,13.8-499.36,17.1-1.42.18-5,0-7,2-.07.03-64.47,42.65-67,48-.31.66-3,5-3,7-.52.66,1.49,7.41,2,8,3.56,4.18,63.02,35.34,64.8,36,.15.06,165.2,3.02,165.2,3,.09,0,1.34,29.65-1,30-19.86,7.44-49.21,17.36-69,25-.75.29-4.45,7.24-3,8,10.54,5.52,31.96,14.99,32,15-2.62,4.61-12.74,31.2-15,36-1.83,3.89,10.33,1.82,11,1,2.97-3.64,9.9-32.53,11.53-37.7.13-.4.11-.68,0-.86.34-.67.31-1.35-.43-1.75-9.59-5.19-16.16-10.22-26.1-14.69,21.99-8.37,335-109,341-110,8,1,27.98,8.27,34,11l3,4c-7,10.15-34,45-43,55-.22.25-212.62,67.29-272.92,87.65l28.21-3.68c64.15-19.14,199.18-63.83,249.71-78.97,1.25-.37,37.84-49.52,44.17-58.99.12.16.23.33.33.49-.03.04-.47,5.46-.5,5.5-13.4,19.8-25.09,35.27-37,56-.25.43-1.35.44-1.43.76-2.51.6-190.4,57.84-246.69,73.98l30.31-2.45c10.21-2.82,71.88-20.73,77.93-22.67-.15,1.41,1.08,8.65,1.09,10.06l5.54-.72c.05-.33.12-.65.16-.98.21-1.45.06-9.48.09-10.98,45.21-14.29,90.99-28.26,136.65-41.2.39-.11.74-.22,1.06-.36.44.18,1.25-.07,1.55-.46,5.88-7.53,10.13-16.3,14.91-24.53,1.79-3.07,3.63-6.12,5.57-9.1,6.29,1.32,13.28,1.06,19.6,1.42,1.83.1,5.94-2.61,4.09-4.77-3.21-3.77-8.25-9.68-13.45-11.5,2.29-3.52,4.43-7.24,5.79-11.21.37-1.08.92-11.59.22-12.29-5.38-5.38-36.9-17.36-44.22-19.67-.22-.79-1-1.25-2.58-.82-66.37,17.71-93.02,26.65-158.2,48.49-32.8-1.1-282.76-2.97-284-4-8.34-6.89-56-29-57-31,1-4,44.55-38.06,54-45,3.15-2.31,5-4,7.46-4.75.06-.03,476.72-17.34,485.53-16.99-.02.02-.04.03-.06.05-1.19.85-38.88,39.7-45.28,49.19-1.27,1.88,4.77,7.56,6.36,6.51,7.96-5.26,40.31-39.32,51.32-51.6,2.37-2.64,3.75-4.28,3.68-4.4.18-.21.04-8.03-2.64-8.1Zm-17.2,115.99c-3.45-.2-6.92-.32-10.31-.12,1.19-1.7,2.4-3.39,3.6-5.09,1.61,1.48,3.7,2.6,5.31,3.96.48.41.94.83,1.41,1.25Zm-319.16,4.11c41.51-.09,74.66-1.52,90-2,.98-.03-86.09,28.55-90,30v-28Z"/></g><path d="m546.04,310.85c-.15-.07-.31-.11-.46-.12.23-.49.14-.97-.6-.97-.79,0-1.65,1.16-1.33,1.7-.09.08-.17.16-.24.24-1.2,1.36-.98,2.92-.97,4.61,0,1.37.02,2.74.09,4.11.07,1.36.16,2.72.26,4.08.05.7.1,1.4.21,2.09.05.27.08.56.14.83.1.39.25.61.46.94.24.38.89.26,1.21.13.49-.21.93-.6,1.12-1.11.51-1.38.51-2.85.54-4.31.03-1.35.08-2.7.14-4.05.06-1.34.07-2.68.11-4.03.02-.69.04-1.39.07-2.08.03-.8.07-1.64-.77-2.04Z"/><path d="m541.23,136.75c-.06-1.33-.17-2.66-.23-4-.06-1.33-.14-2.65-.19-3.98-.02-.58-.05-1.15-.01-1.72,0-.02,0-.03,0-.04.15-.29.4-.77.39-.75.4-1.11-5.23-75.47-6.34-75.45-2.2.05-3.78,2.34-3.89,4.37-.08,1.52,5.03,76.73,5.17,78.25.14,1.54.32,3.09.56,4.61.12.76.26,1.51.42,2.26.15.75.54,1.39.74,2.11.47,1.72,3.41-.13,3.37-1.4-.02-.72.15-1.44.13-2.17-.02-.69-.08-1.39-.11-2.08Z"/></g></svg>