<?xml version="1.0" encoding="UTF-8"?><svg id="b" xmlns="http://www.w3.org/2000/svg" viewBox="0 0 940 668"><defs><style>.c{fill:#fff;}.d{fill:#cfa2a7;}</style></defs><path class="d" d="M678,102C503.64-5.03,425,31,308,62,154.25,102.74,65,328,84,527c-27.66-6.83-50.04,49.65-26,57,278,85,770,21,770,21,0,0,96-352-150-503Zm-90.84,412.42l-424.98,10.52L417.61,85.98l285.6,496.02-116.05-67.58Z"/><path class="c" d="M523.35,119h29.39l-42.74-96,76.9,96h71.75c7.37,0,13.35,5.98,13.35,13.35v135.3c0,7.37-5.98,13.35-13.35,13.35h-135.3c-7.37,0-13.35-5.98-13.35-13.35V132.35c0-7.37,5.98-13.35,13.35-13.35h0Z"/><path class="c" d="M192.97,239.04V127.97c0-6.05,4.87-10.96,10.88-10.96h74.15S316,0,316,0l-22.16,117.01h20.28c6.01,0,10.88,4.91,10.88,10.96v111.07c0,6.05-4.87,10.96-10.88,10.96h-110.27c-6.01,0-10.88-4.91-10.88-10.96h0Z"/><path class="c" d="M201.89,417h-54.62l-80.28,110,54.58-110h-16.82c-5.29,0-9.58-4.29-9.58-9.58v-97.13c0-5.29,4.29-9.58,9.58-9.58h97.13c5.29,0,9.58,4.29,9.58,9.58v97.13c0,5.29-4.29,9.58-9.58,9.58Z"/><path class="c" d="M636.35,305h135.3c7.37,0,13.35,5.98,13.35,13.35v85.01l120,50.64-120-18.54v18.19c0,7.37-5.98,13.35-13.35,13.35h-135.3c-7.37,0-13.35-5.98-13.35-13.35v-135.3c0-7.37,5.98-13.35,13.35-13.35h0Z"/><path d="M687.21,587h-.05c-21.9-42.6-48.27-83.56-72.14-125.24-24.43-42.67-48.53-85.51-72.31-128.52-40.65-73.54-80.07-147.68-120.25-221.46,.07-.66-.16-1.21-.79-1.47-5.17-9.5-10.33-19.02-15.52-28.52,.12-.26,.26-.52,.37-.78,1.89-3.99-.49-4.84-3.3-4.11-1.87-1.26-5.66,1.99-5.94,4.49-23.14,35.67-42.34,73.97-63.05,110.9-21.51,38.3-43.01,76.61-64.52,114.93-40.72,72.52-81.28,145.12-120.81,218.23-.19-.07-.37-.17-.65-.17-2.13,0-5.05,4.65-2.06,4.65,.09,0,.21-.05,.3-.07-2.15,3.99,3.79,2.97,5.31,.4,28.52-48.61,189.48-332.1,236.79-416.02,7.76-13.77,12.46-22.16,13.02-23.27,.81,1.66,3.94,7.98,8.15,16.45,9.68,19.45,44.99,90.48,45.01,88.93,2.23,4.28,187.56,340.84,208.81,374.91-27.73-22.11-59.03-44.15-90.07-61.27-2.15-1.19-5.61,1.35-6.45,3.78-138.18,.59-276.41,14.63-414.29,21.47-2.27,.12-5.4,5.15-2.22,5.01,138.44-6.13,277.93-5.3,416.02-17.67,1.47-.14,3.3-1.54,4.61-3.18,27.54,23.56,60.34,45.76,91.59,64.38,2.06,1.23,5.21-.66,6.85-2.97,2.85,4.42,5.7,8.83,8.65,13.18,2.85,4.2,10.85-3.32,8.95-7.01Z"/><path d="M810.17,283.42c-35.73-88.2-77.22-127.7-80.16-130.2-35.05-41.11-92.81-74.78-96.99-77.13C546.41,27.24,442.14,9.72,344.61,39.07c-61.04,18.38-127.81,64.96-154.6,92.04-14.28,14.43-45.45,51.22-59.89,73.33-12.58,19.28-30.5,58.19-30.94,58.77-12.58,29.17-21.51,51.47-29.63,97.41-8.12,45.95-11.27,115.39-1.96,171.24-12.23-1.92-23.99,5.22-30.6,15.2-8.93,13.49-5.35,29.92,4.77,41.94,16.93,20.07,46.22,22.77,71.39,26.26,30.62,4.23,61.37,7.86,92.15,11.04,124.86,12.87,250.65,17.38,376.16,12.33,71.82-2.9,145.22-7.36,215.8-20.52,1.85-.36,4.42-2.56,6.12-4.94,.56,3.06,6.92,.48,8.25-2.94,39.74-103.61,39.02-222.77-1.47-326.8Zm-5.27,324.35c-.42-.56-1.28-.85-2.66-.75-65.81,4.49-131.15,12.06-197.14,15.08-67.42,3.06-134.93,3.54-202.4,1.38-68.1-2.18-136.06-6.79-203.76-13.96-32.66-3.47-65.46-7.08-97.9-12.02-15.27-2.33-31.68-5.22-44.02-14.56-5.77-4.37-10.85-10-13.37-16.62-6.2-16.31,7.71-30.8,25.39-26.79,.19,.05,.4,0,.61,0,1.87,.67,5.63-2.78,5.45-4.87-5.17-58.49-5.38-117.21,4.51-174.35,0,0,1.89-6.46,1.15-6.44,7.22-38.64,19.17-76.54,37.47-113.13,40.65-81.24,112.73-150.77,202.8-184.16,91.05-33.74,194.59-24.46,281.58,15.74,89.04,41.13,155.13,116.52,192.35,201.4,46.34,105.66,49.79,226.18,9.95,334.04Z"/><g><path class="d" d="M616.08,239.81c-3.74,0-7.43-.65-10.97-1.92-1.3-.47-1.98-1.9-1.51-3.21,.47-1.3,1.91-1.98,3.21-1.51,3,1.08,6.12,1.62,9.28,1.62,17.62,0,31.95-16.95,31.95-37.78v-39.83c-.72-.78-5.69-4.8-31.96-4.8s-31.23,4.02-31.94,4.8v16.25c0,1.38-1.12,2.51-2.51,2.51s-2.51-1.12-2.51-2.51v-16.69c0-.54,.17-1.76,1.45-3.08,4.03-4.17,15.97-6.28,35.5-6.28s31.41,2.1,35.48,6.24c1.33,1.35,1.49,2.61,1.49,3.12v40.28c0,23.59-16.58,42.79-36.96,42.79h0Zm-32.05-82.5h0Zm64-.62h0Zm-63.9-.04h0Zm0,0h0Zm49.56,60.45c-.32,0-.65-.04-.97-.13-3.2-.84-5.62-1.02-8.18-1.22l-.21-.02-4.19-.18-4.23-.06h-.03c-1.86,.02-3.21,.03-5.02,.13-1.39,.06-2.56-.99-2.63-2.37s.99-2.56,2.37-2.63c1.92-.1,3.31-.11,5.23-.13h.12l4.3,.07h.07l4.27,.19h.08l.25,.02c2.05,.16,4.16,.31,6.67,.81-.86-2.64-2.63-5.13-5.05-7.04,0,0-.02-.01-.03-.02-1.4-1.14-3.09-2.05-5.02-2.73-.83-.29-1.65-.46-2.71-.67-1.11-.14-1.9-.19-2.61-.22-2.04,.01-3.24,.36-4.61,.94-1.27,.54-2.75-.05-3.29-1.32s.05-2.74,1.32-3.29c2.22-.95,4.13-1.34,6.62-1.35h.13c.81,.04,1.79,.1,3.16,.27,.05,0,.1,.01,.15,.02,1.27,.24,2.33,.46,3.49,.87,2.47,.86,4.66,2.06,6.51,3.56,4.13,3.27,6.84,7.88,7.41,12.64,.14,1.18-.26,2.28-1.12,3.02-.62,.54-1.43,.83-2.27,.83h.02Zm-1.22-25.13c-3.37,0-6.72-1.29-9.25-3.82-4.63-4.63-5.11-12.02-1.12-17.2,.65-.84,1.62-1.36,2.68-1.43,1.09-.07,2.17,.34,2.96,1.12l12.98,12.98c.78,.78,1.2,1.86,1.12,2.96-.07,1.06-.59,2.04-1.43,2.68h0c-2.35,1.81-5.15,2.7-7.95,2.7h.01Zm-7.2-16.69c-1.54,3.05-1,6.84,1.49,9.34,2.49,2.49,6.29,3.04,9.34,1.49l-10.83-10.83Zm12.09,10.03h0Z"/><path class="d" d="M566.64,258.92c-20.38,0-36.96-19.19-36.96-42.77v-37.65c0-.22,.03-.43,.08-.64,.14-.52,.72-2.29,2.42-3.01,1.04-.44,2.19-.35,3.25,.25,8.15,4.62,24.55,5.11,31.22,5.11,20.45,0,28.83-3.69,31.49-5.27h0c.95-.57,2.06-.65,3.02-.21,1.7,.77,2.25,2.78,2.41,3.61,.03,.15,.04,.31,.04,.46v37.34c0,23.59-16.58,42.77-36.96,42.77h0Zm-31.95-78.56v35.8c0,20.82,14.33,37.76,31.95,37.76s31.95-16.94,31.95-37.76v-35.8c-4.74,2.18-14.2,4.88-31.95,4.88-8.23,0-22.86-.66-31.95-4.88Zm66.01-1.11h0Zm-34.22,64.15h-.12c-.86-.04-1.83-.09-3.19-.28-.04,0-.09-.01-.13-.02l-.14-.03c-1.13-.22-2.2-.43-3.37-.85-2.46-.86-4.65-2.05-6.49-3.54-4.12-3.26-6.83-7.88-7.41-12.65-.14-1.18,.26-2.28,1.12-3.02,.86-.75,2.07-1.01,3.24-.7,3.29,.87,5.77,1.04,8.39,1.23l4.2,.19,4.23,.07h.03c2.36-.01,5.29-.03,8.05-.22h.04c2.62-.19,5.09-.37,8.36-1.24,1.17-.31,2.38-.05,3.24,.69,.85,.74,1.26,1.85,1.12,3.03-.58,4.73-3.29,9.34-7.42,12.63,0,0-.02,.01-.03,.02-4.02,3.11-8.63,4.69-13.7,4.7h-.02Zm-2.55-5.24c1.07,.15,1.82,.18,2.6,.22,3.97-.02,7.43-1.22,10.57-3.64,2.41-1.92,4.17-4.39,5.03-7-2.59,.52-4.75,.68-6.86,.83h-.04c-2.93,.21-5.95,.22-8.38,.24h-.1l-4.29-.07h-.07l-4.27-.19h-.07c-2.14-.15-4.32-.31-6.94-.83,.86,2.65,2.63,5.13,5.05,7.05,1.42,1.14,3.11,2.06,5.04,2.73,.01,0,.02,0,.03,.01,.8,.29,1.64,.46,2.62,.64h.08Zm14.72-1.43h0Zm11.53-22.09h-18.36c-1.11,0-2.16-.47-2.89-1.3-.7-.8-1.02-1.86-.89-2.91,.84-6.48,6.41-11.37,12.96-11.37s12.11,4.89,12.96,11.37c.14,1.05-.19,2.11-.89,2.9-.72,.82-1.78,1.3-2.89,1.3h0Zm-1.2-3.55h0Zm-15.64-1.45h15.31c-1.06-3.25-4.13-5.55-7.66-5.55s-6.59,2.3-7.66,5.55h0Zm-11.88,5.01h-18.36c-1.11,0-2.16-.47-2.89-1.3-.7-.8-1.02-1.86-.89-2.91,.84-6.48,6.41-11.37,12.96-11.37s12.11,4.89,12.96,11.37c.14,1.05-.19,2.11-.89,2.91-.72,.82-1.78,1.3-2.89,1.3Zm-16.84-5.01h15.31c-1.06-3.25-4.13-5.55-7.66-5.55s-6.6,2.3-7.66,5.55h0Z"/></g><path class="d" d="M312.79,143.32h-15.9c-1.57,0-2.88,1.1-3.2,2.58-.01,.04-.02,.07-.03,.11l-2.63,10.58h-76.72c-2.02,0-3.66,1.42-3.66,3.17,0,.12,0,.24,.02,.35,0,.28,.03,.56,.09,.84l9.12,38.78c.41,1.76,2.04,2.9,3.76,2.73h55.99l-2.6,10.49h-52.9c-1.43,0-2.6,1.42-2.6,3.17s1.16,3.17,2.6,3.17h6.6c-2.02,1.02-3.41,3.1-3.41,5.52,0,3.41,2.77,6.18,6.18,6.18s6.18-2.77,6.18-6.18c0-2.42-1.39-4.5-3.41-5.52h34.59c-2.02,1.02-3.41,3.1-3.41,5.52,0,3.41,2.77,6.18,6.18,6.18s6.18-2.77,6.18-6.18c0-2.42-1.39-4.5-3.41-5.52h3.58c.92,0,1.72-.59,2.18-1.47,.21-.32,.38-.68,.47-1.07l16.6-66.87h13.56c1.81,0,3.28-1.47,3.28-3.28s-1.47-3.28-3.28-3.28h0Zm-94.4,19.61h12.79l1.49,13.27h-11.16l-3.12-13.27Zm7.75,32.98l-3.09-13.16h10.35l1.48,13.16h-8.74Zm11.63-32.98h12.6l.04,13.27h-11.15l-1.49-13.27h0Zm3.71,32.98l-1.48-13.16h10.44l.04,13.16h-9Zm23.92,0h-8.36l-.04-13.16h10.03l-1.63,13.16Zm2.44-19.71h-10.86l-.04-13.27h12.55l-1.64,13.27h0Zm13.44,19.71h-9.27l1.63-13.16h10.91l-3.27,13.16h0Zm4.89-19.71h-11.73l1.64-13.27h13.38l-3.29,13.27Z"/><path class="d" d="M655.51,414.4l.28-49.36h-5.57v62.8c7.66-1.98,15.34-3.24,23.08-3.29,7.15-.04,14.29,.95,21.45,3.38-4.45-3.6-9.41-6.26-14.7-7.98-6.67-2.17-13.88-2.89-21.26-2.26-1.67,.13-3.13-1.11-3.27-2.77-.02-.18-.02-.35,0-.52h-.01Zm81.77-51.94c-.02-.14-.04-.3-.04-.46,0-.15,0-.31,.04-.46v-9.99c-7.01-.67-14.24,.11-20.55,2.5-5.9,2.24-10.98,5.91-14.29,11.18v56.93c5.14-3.43,10.4-6.26,15.8-8.18,6.16-2.19,12.48-3.24,19.04-2.71v-48.8h0Zm6.07-3.5h8.21c1.67,0,3.03,1.36,3.03,3.03v69.8c0,1.67-1.36,3.03-3.03,3.03-.34,0-.67-.05-.98-.16-8.45-2.42-16.84-4.03-25.16-4.08-8.11-.05-16.2,1.38-24.34,4.96-.5,.33-1.11,.51-1.73,.5-.61,0-1.21-.17-1.73-.5-8.12-3.6-16.23-5.02-24.34-4.96-8.31,.05-16.7,1.66-25.16,4.08-.31,.11-.64,.16-.98,.16-1.65,0-3.01-1.35-3.01-3.02v-69.81c0-1.67,1.36-3.03,3.03-3.03h8.64l.05-10.12c0-1.46,1.03-2.66,2.41-2.95h0c7.97-1.66,17.66-1.25,26.15,2,5.87,2.25,11.2,5.83,15.09,11.01,3.93-4.83,9.18-8.3,15.08-10.53,8.07-3.06,17.38-3.8,26.14-2.52,1.51,.22,2.59,1.52,2.59,2.99h0v10.11h.04Zm-37.96,68.51c6.7-2.1,13.38-2.97,20.07-2.93,7.74,.04,15.42,1.31,23.08,3.29v-62.8h-5.19v49.63c0,1.67-1.36,3.03-3.03,3.03-.24,0-.48-.03-.7-.08-6.63-1.04-13.06-.18-19.33,2.06-5.05,1.81-10.01,4.5-14.9,7.8h0Zm-9-5.9v-56.43c-3.17-5.6-8.3-9.35-14.1-11.57-6.57-2.52-13.95-3.08-20.38-2.17l-.34,60.05c7.02-.25,13.89,.64,20.35,2.75,5.14,1.67,10.01,4.13,14.48,7.37h0Z"/><path class="d" d="M153.36,316.2c-16.45,0-30.62,10.01-36.67,24.3-.69,1.54,0,3.35,1.55,4.04,1.54,.69,3.35,0,4.04-1.55,.01-.03,.03-.07,.04-.1,5.11-12.07,17.06-20.56,31.03-20.56,8.24,0,15.76,2.95,21.61,7.85,1.3,1.09,3.23,.92,4.31-.38,1.09-1.3,.92-3.23-.38-4.31-6.91-5.79-15.84-9.28-25.55-9.28h.02Zm0,12.23c-3.21,0-6.31,.55-9.18,1.57-1.59,.56-2.43,2.31-1.87,3.91,.56,1.59,2.31,2.43,3.91,1.87h0c2.23-.79,4.63-1.22,7.14-1.22,11.87,0,21.43,9.56,21.43,21.43,0,9.03-3.03,29.6-3.03,29.6-.31,1.66,.78,3.26,2.44,3.58,1.66,.31,3.26-.78,3.58-2.44,.01-.08,.03-.15,.03-.23,0,0,3.1-20.18,3.1-30.51,0-15.18-12.37-27.55-27.55-27.55h0Zm32.15,6.8c-1.69,.03-3.04,1.42-3.01,3.11,0,.51,.14,1.01,.4,1.45,2.63,4.8,4.13,10.3,4.13,16.17,0,3.36-.49,6.58-1.41,9.64-.55,1.6,.31,3.34,1.91,3.89s3.34-.31,3.89-1.91c.02-.07,.04-.14,.06-.21,1.08-3.61,1.67-7.44,1.67-11.4,0-6.92-1.77-13.44-4.88-19.11-.54-1.02-1.6-1.65-2.76-1.63h0Zm-51.59,2.59c-.9,.05-1.73,.49-2.28,1.21-3.65,4.67-5.83,10.57-5.83,16.94,0,14.4-2.39,23.75-2.39,23.75-.46,1.63,.49,3.32,2.11,3.78s3.32-.49,3.78-2.11c.01-.05,.03-.1,.04-.15,0,0,2.58-10.17,2.58-25.26,0-4.98,1.69-9.54,4.53-13.18,1.06-1.32,.85-3.24-.47-4.3-.59-.47-1.33-.71-2.08-.67h.01Zm19.44,2.84c-8.42,0-15.3,6.89-15.3,15.3,0,21.48-2.96,32.71-2.96,32.71-.49,1.62,.42,3.33,2.04,3.82s3.33-.42,3.82-2.04c.02-.08,.04-.15,.06-.23,0,0,3.16-12.21,3.16-34.26,0-5.11,4.08-9.18,9.18-9.18s9.18,4.08,9.18,9.18c0,3.67-.16,7.49-.39,11.22-.12,1.69,1.15,3.15,2.83,3.27,1.69,.12,3.15-1.15,3.27-2.83v-.05c.24-3.82,.41-7.76,.41-11.6,0-8.42-6.89-15.3-15.3-15.3h0Zm-36.79,9.71c-1.57,.07-2.83,1.32-2.91,2.89-.06,.89-.09,1.79-.09,2.69,0,3.35,.42,6.6,1.2,9.71,.39,1.65,2.04,2.66,3.68,2.28,1.65-.39,2.66-2.04,2.28-3.68,0-.03-.01-.06-.02-.09-.66-2.63-1.02-5.38-1.02-8.21,0-.77,.03-1.53,.08-2.28,.14-1.69-1.12-3.16-2.8-3.3-.13-.01-.26-.01-.4,0h0Zm36.74,2.47c-1.69,.03-3.04,1.41-3.01,3.1,0,8.32-.45,15.19-1.03,20.6-.21,1.68,.97,3.21,2.65,3.42,1.68,.21,3.21-.97,3.42-2.65,0-.04,0-.08,.01-.11,.61-5.63,1.07-12.72,1.07-21.26,.02-1.69-1.33-3.08-3.02-3.1h-.09Zm10.63,25.25c-1.57,0-2.89,1.19-3.05,2.75-.71,6.13-1.38,10.28-1.38,10.28-.27,1.67,.87,3.24,2.54,3.51s3.24-.87,3.51-2.54h0s.69-4.29,1.41-10.54c.22-1.68-.96-3.21-2.64-3.43-.13-.02-.26-.03-.4-.03h.01Zm-13.56,8.09c-1.45,0-2.71,1.02-3,2.45-.47,2.13-.77,3.07-.77,3.07-.51,1.61,.38,3.33,1.99,3.84s3.33-.38,3.84-1.99v-.02s.4-1.28,.9-3.6c.38-1.65-.64-3.29-2.29-3.67-.23-.05-.46-.08-.69-.08h.02Z"/></svg>