<?xml version="1.0" encoding="UTF-8"?><svg xmlns="http://www.w3.org/2000/svg" viewBox="0 0 940 799"><defs><style>.d{fill:#fff;}.e{fill:#d0bed3;}</style></defs><g id="a"><polygon class="d" points="9.53 142.5 17.13 123.28 409.79 187.52 531.17 475.94 533.01 480.31 539.47 478.7 552.33 469.98 556.14 451.23 578.24 418.4 607.98 399.5 650.48 387.75 692.34 395.25 701.21 399.5 710.43 390.34 733.14 382.34 765.87 385.7 791.34 386.18 817.38 410.33 832 452.5 836 482.5 831 518.5 817.38 546.89 930.83 562.41 931.64 580.73 691 673.5 402.22 656.34 393.86 665.23 389.48 670.91 417.23 674.58 432.96 681.35 438.22 685.41 443.5 692.31 411.69 704.3 341 707.5 278.69 700.75 262.46 687.59 271.91 681.35 289.21 675.71 318.3 674.01 298.77 646.09 223.04 635.71 219.69 618.16 200.07 616.86 193 611.5 188.8 608.74 184.25 604.37 9.53 142.5"/><path class="e" d="m94.63,364.48c-45.51,63.05-73.32,136.93-72.84,220.85.02,3.64,46.63-7.44,147.3-22.23-4.72-9.98-55.76-141.09-74.46-198.61Z"/><path class="e" d="m755.27,127.34c-93.68-40.79-267.47-21.43-422.37,50.58.01,0,.02,0,.04,0,13.93.77,76.85,9.59,76.85,9.59,0,0,114.91,271.82,121.39,288.42,1.29-.17.54,4.56,1.84,4.37,4.29-.63,9.09-1.31,13.02-3.22,3.02-1.47,4.75-4.18,6.3-7.11,3.58-6.79,4.97-14.64,7.52-21.84,2.96-8.35,7.08-15.77,12.56-22.72,10.44-13.25,24.96-22.35,40.45-28.61,15-6.07,31.47-9.1,47.63-9.35,14.63-.23,28.43,3.24,41.65,8.62,13.41-14.37,39.52-14.92,57.41-13.32,25.64,2.29,48.82,12.94,62.06,36.03,13.68,23.86,17.46,55.17,15.72,82.19-.46,7.15-1.13,14.85-2.6,22.31,27.1.77,54.69,1.84,82.74,3.26,0,0,32.53-314.42-162.19-399.2Z"/><path class="e" d="m300.73,590.86s-7.14-4.95,34.36-10.14c14.85-1.86,72.42.13,68.47,8.3-3.95,8.17-47.72,9.34-57.79,9.69,0,0-36.86-2.9-45.04-7.85Z"/></g><g id="c"><path d="m293.06,633.51c-21.54-2.72-43.1-5.41-64.7-7.14-.53-.04-1.23.34-1.77.84.03-.1.07-.2.08-.29.2-2.16-1.16-4.12-2.05-6.04-.38-.83-.75-1.65-1.14-2.46,3.27,1.03,19,1.5,24.47,1.73,2.06.09,2.16-2.43-.66-2.62-9.9-.67-16.53-2.3-25.6-3.17-5.37-1.16-11.33-1.06-16.72-1.52-2.97-.26-7.23.51-8.07-2.95-.42-1.74-.17-3.52-.39-5.29.59-.83.73-1.77-.43-2.03-2.45-.55-5.06-.62-7.59-.79,0-.04,0-.08-.02-.12C178,568.3,22.11,159.06,14.53,144.16c-.07-.14-.17-.26-.27-.35.86-2.19,1.49-4.48,2.43-6.64.84-1.91,2.11-3.75,2.98-5.69,0,0,.64.1,1.83.28,27.8,69.87,54.9,140.02,82.99,209.79,8,19.87,84.49,227.53,92.52,247.4.58,1.44,3.27-.24,2.79-1.46-27.52-70.18-123.56-328.13-151.7-398.07-7.68-19.09-15.72-38.06-23.37-57.16,44.67,6.79,371.04,56.34,380.72,58.24.42.08.88,0,1.34-.19,7.12,16.52,15.13,32.72,22.66,49.06,8.01,17.38,15.9,34.82,23.65,52.31,15.63,35.29,30.95,70.73,45.67,106.41,8.45,20.47,24.23,60.39,32.41,80.97.73,1.85,4.75-3.61,4.15-5.19-27.78-72.76-109.65-271.51-119.31-289.46.18-.68-392.58-61.46-398.88-61.12-.75.04-2.61,1.56-2.36,2.47-1.68,2.09-8.69,15.66-9.61,18.19-.95,2.62,163.4,429.94,179.08,460.43.25.48.69.63,1.2.57,2.61.35.72,3.65,3.35,3.8-.9,3.79,4.4,11.35,8.3,12.45,4.18,1.18,18.44,1.02,21.79,1.04.31,1.73-1.71,8.1,0,9.34.57.42,3.42,4.02,4.15,4.15,22.69,4.21,52.75,7.7,75.74,10.37-.75-1.81-4.99-10.76-5.72-12.58Z"/><path d="m932.67,558.64c-.19-.13-38.07-5.35-56.52-6.88-18.2-1.51-36.66-3.14-54.93-2.24-.87.04-2.55,2.04-1.08,2.22,18,2.27,36.23,2.76,54.29,4.54,18.25,1.79,36.4,5.01,54.64,6.64.52.05,1.15-.17,1.75-.52-.21.9-.34,1.83-.48,2.74-.23,1.51-.55,3.16-.4,4.71-.1.04-.19.07-.3.12-60.81,29.33-122.81,56.08-185.75,80.49-9,3.49-18.03,6.9-27.05,10.36-7.17,2.75-14.66,5.14-21.69,8.34-.25-.06-.54-.09-.9-.07-15.72.87-31.39-.4-47.06-1.52-15.04-1.08-30.07-2.2-45.1-3.37-30.41-2.37-60.8-4.91-91.18-7.64-29.86-2.68-59.71-5.58-89.54-8.64-1.3,1.24-2.66,2.44-4.08,3.62-.47.39-10.18,6.61-10.64,7,58.49,6.17,121.89,11.93,180.52,16.6,16.73,1.33,38.25,1.9,54.99,3.11,16.81,1.22,35.35,2.47,52.2,1.55,1.12-.06,2.29-.95,3.07-2,6.22-1.67,216.53-88.56,234.18-97.08,2.14-1.03,6.19-18.72,5.19-19.71,1.05-1.76-3.1-3.22-4.16-2.37Z"/><path d="m922.31,564.13c-37.32,9.7-229.02,80.76-232.46,81.07-4.03.36-219.74-18.62-223.76-18.25-.62.06-2.52,1.64-1.31,2.12,3.35,1.33,219.11,20.48,223.25,20.3,4.72-.2,9.47-1.26,13.18-2.87.62-.27,178.95-66.77,223.19-81.34,1.54-.51-2.07-1.04-2.07-1.04Z"/><path d="m767.77,381.77c-10.69-2.82-23.82-.56-34.64.57-7.2.76-18.7.54-22.7,8-.63,1.17.43,2.05,1.56,1.34,7.53-4.75,16.76-4.7,25.43-5.44,9.53-.82,18.96-.04,28.45-.54,1.56-.08,4.48-3.25,1.91-3.93Z"/><path d="m838.27,498.77c2.21-17.91.4-34.05-3.69-51.57-3.77-16.14-10.1-32.07-21.19-44.62-10.61-12.01-28.08-23.41-44.68-18.06-1.09.35-2.74,3.07-.61,2.78,18.89-2.6,36.16,12.07,45.95,26.83,11.06,16.68,15.69,37.23,18.05,56.85,4.01,33.25-15.61,85.89-36.36,98.34-4.77.57-27.92,6.45-38.97,5.05-1.57-1.45-3.8-2.4-5.83-3.03,7.53-10.52,14.44-25.34,18.86-46.63,18.07-87.07-47.72-141.1-119.31-136.95-15.99.93-31.67,6.71-46.25,13.44-20.98,9.69-40.77,27.61-48.09,50.04-1.55,2.49-2.61,5.41-3.42,8.17-.92,3.12-1.07,6.41-2,9.51-.78,2.58-2.34,4.49-4.58,5.97-1.21.8-2.54,1.41-3.83,2.07-.57.29-1.91.84-2.46,1.6-.13.05-.25.1-.38.15-1.81.72-3.31,4.28-.27,3.45.64-.18,1.27-.36,1.91-.55-.21.33-.34.68-.3,1.01.14,1.34.27,2.68.41,4.02-.25.28-.44.6-.52.89-.66.14-1.31.31-1.93.43-1.58.29-3.12.59-4.68.96-.74-2.31-1.59-4.55-2.57-6.68-.33-.72-1.04-.67-1.64-.29-22.68,1.65-45.29,4.75-67.9,7.2-22.99,2.5-46.12,4.2-68.98,7.68-.18.03-.37.11-.55.22-.04-.71-.55-1.24-1.77-1.24-2.26,0-4.79,3.81-2.8,4.71-1.16.14-2.85,1.58-2.94,2.5-.96,9.68.26,19.72,1.88,29.26.85,5.02,1.94,10,3.28,14.91,1.04,3.82,1.84,8.35,4,11.77-.55.62-.83,1.43.07,1.53,3.09.35,9.06,1.09,8.93,1.17-.56.38-3.67,2.45-2.63,5.56.29.88,1.38,2.47,2.07,3.11.83.76,3.56,1,3.11,0-4.15-9.34,9.22-7.55,9.83-8.2,14.36.68,28.79.6,43.12.42,18.56.86,37.01,1.06,55.59,1.32,9.66.14,19.33.46,28.95,1.26,9.47.78,19.14,3.36,28.61,3.33.48,0,1.16-.3,1.82-.75,6.74,9.83,19.19,23.25,40.45,31.77-2.62.08-6.63-2.03-7.81.27-.34.66-5.52,2.73-3.14,5.98,19.97,27.19,131.45,19.57,154.27,12.31,28.01-11.41-20.75-14.52-42.88-16.49-2.41-.21-4.81-.17-7.21-.2,3.66-1.14,7.24-2.48,10.67-4.06,4-1.85,9.63-4.34,15.79-8.7.07.05.14.09.23.13,1.05.42,3.19,1.11,3.21,1.12.79.29,61.83,8.38,89.71-1.89,19.71-7.26-23.96-14.56-27.66-15.28,22.03-12.29,36.23-50.82,39.08-73.95Zm-259.1-38.37c6.28-5.96,10.87-13.3,16.55-19.77,6.06-6.9,13.64-12,21.71-16.27,17.31-9.16,35.63-12.39,54.92-8.68,16.27,3.13,32.21,9.9,44.59,21.11,6.91,6.26,12.63,13.94,16.47,22.44,4.07,9,4.87,17.99,5.58,27.69.09,1.28.86,1.54,1.75,1.28-1.06.56-2,1.58-2.02,2.57-.28,16.21-3.89,32.06-12.52,45.94-7.83,12.59-18.66,26.57-31.53,34.29-30.51,18.3-65.23-5.76-94.04-15.81-15.79-5.51-33.58-7.86-50.38-6.29,0-.04.02-.09.02-.13.57-22.49-2.8-45.77-6.01-67.97,0-.06-.03-.11-.05-.17,12.86-4.21,25.16-10.94,34.96-20.24Zm-37.53,30.36c.86,8.6,1.67,17.2,2.39,25.8.65,7.9.97,15.88,1.63,23.81-1.43.12-2.86.39-4.27.68-.22.05-.45.15-.67.29.01-6.61-.61-13.12-1.31-20.37-.91-9.39-1.88-19.99-4.57-29.57,2.24.21,4.75.12,6.8-.64Zm-10.7,64.35c-22.31.71-44.57,2.25-66.9,2.69-15.85.31-60.88.27-64.76.36.04-.16.07-.31.06-.46-.25-4.61-2.35-9.02-3.58-13.47-1.27-4.58-2.36-9.23-3.26-13.9-1.86-9.61-2.28-19.3-3.56-28.98-.04-.33-.17-.54-.34-.67.11.01.21.03.33.03.99,0,2.02-.72,2.71-1.62.13.05.3.08.52.08,22.77-.39,45.53-3.12,68.17-5.41,22.9-2.31,45.97-4.49,68.65-8.42.01,0,.02,0,.04,0,.81,5.89,2.46,11.72,3.49,17.57,1.07,6.07,1.9,12.18,2.51,18.31,1.18,11.84.86,20.66,1.2,31.9-.24.16-.47.31-.7.42-1.43.72-3.08,1.03-4.6,1.56Zm183.62,35.15c-13.45,6.02-32.81,11.65-47.49,11.99-8.51.2-16.28-.27-23.37-1.23-.23-.19-.56-.33-1.02-.4-1.91-.3-3.83-.51-5.76-.69-47.64-9.12-61.63-41.58-64.25-43.33-1.63-1.08-5.7-.63-4.58,1.71.38.8.86,1.75,1.43,2.8-7.14-1.88-15.36-2.02-22.31-2.51-3.8-.27-7.6-.44-11.4-.57.28-.1.55-.2.82-.32.69.97,2.65-.27,2.85-1.46.03-.18.06-.36.09-.54.53-.56.98-1.2,1.28-1.94.17-.41.23-1.25-.14-1.6-.19-.18-.38-.3-.57-.39.29-2.41.45-4.75.54-7.06,1.67,0,3.37-.13,5.01-.46.11-.02.22-.05.33-.08.17,1.73.36,3.45.58,5.16-1.2.32-3.58,2.96-1.44,3.2.8.09,1.6.15,2.4.22.08.17.28.29.64.29.19,0,.38-.07.56-.18,8.1.62,16.25.43,24.34,1.42,9.55,1.17,18.74,3.65,27.71,7.12,16.17,6.25,31.47,14.83,48.41,19,15.68,3.86,32.47,3.56,46.64-4.89,13.32-7.94,23.61-20.96,32.38-33.5,10.69-15.29,16.78-34.04,15.51-52.76-.1-1.44-1.19-1.68-2.33-1.31,1.01-.54,1.99-1.57,2.17-2.41,3.42-16.05-4.56-34.21-14.7-46.33-10.73-12.83-25.94-21.27-41.81-25.98-17.35-5.15-35.51-6.06-52.85-.45-16.7,5.41-33.02,15.02-44.16,28.74-6.58,8.1-12.36,16.28-20.94,22.49-5.21,3.77-10.87,6.72-16.7,9.34.98-1.24,1.77-2.64,2.33-4.15.58-1.57.91-3.21,1.2-4.86,0,0,0-.01,0-.02,6.67-26.89,24.95-48.08,50.17-59.37,13.45-6.02,32.81-11.65,47.49-11.99,53.61-1.23,82.16,28.82,94.09,45.89,4.14,5.92,6.28,10.29,6.77,11.24,3.98,7.68,17.18,40.18,8.07,73.59-9.34,34.24-26.15,56.82-47.98,66.59Z"/><path d="m811.16,456.16c-4.84-26.67-18.27-58.07-46.51-66.61-1.03-.31-3.12,1.83-1.82,2.41,26.55,11.81,39.35,40.38,43.92,67.57,5.75,34.17-3.25,67.78-13.21,100.26-.87,2.84,3.46,1.52,4.09-.36,11.21-33.23,19.91-68.11,13.53-103.27Z"/><path d="m776.63,442.75c-9.71-25.52-28.63-49.26-58.06-49.5-1.22,0-2.61,2.32-.83,2.33,29.31.24,47.79,27.94,56.21,52.76,9.37,27.61,10.32,57.71,3.22,85.95-.65,2.59,3.21,1.44,3.69-.32,8.08-29.97,6.84-62.14-4.23-91.23Z"/><g><path d="m431.58,599.19c-3.34,1.03-6.2,3.28-8.41,5.94-1.22,1.47-2.28,3.06-3.3,4.67-1.16,1.83-2.27,4.34-4.06,5.74.4-2.25.74-4.49.99-6.72.11-1-1.46-.18-1.63.37-2.45,7.96-4.25,16.38-5.76,24.59-.66.95-.92,2.16.51,1.86,8.5-1.77,17.63-5.45,25.14-9.83,6.06-3.53,11.83-9.52,11.64-17.02-.18-7.18-8.64-11.6-15.13-9.61Zm-19.89,33.18c1.44-4.81,2.74-9.79,3.73-14.79,4.2-1.38,6.53-7.47,9.01-10.61,2.64-3.34,6.47-6.37,11-5.46,3.8.76,7.78,3.4,8.27,7.44,1.85,15.23-20.92,19.59-32.02,23.42Z"/><path d="m445.68,587.88c-8.17-3.97-19.85-5.71-27.19.76-.47.42-.69.85-.72,1.22,0,0,0,0-.01,0-.06.04-.12.08-.18.12-.11.09-.2.2-.28.32-.05.1-.09.2-.14.29-.07.15-.15.32-.09.49.04.14.18.25.32.26.18.02.38-.03.54-.12l.18-.12c.11-.09.2-.2.28-.32,0,0,0-.01,0-.02.38.11.91.01,1.49-.41,7.2-5.26,20.08-2.85,26.76,2.35,7.4,5.76,10.42,16.31,6.9,24.41-4.1,9.42-14.66,16.37-23.13,21.57-8.81,5.4-18.27,9.65-26.93,15.28.87-1.75,1.66-3.53,2.3-5.36.4-1.12-1.29-.63-1.62-.02-3.1,5.82-6.14,11.48-10.3,16.64-3.97,4.94-8.67,8.89-13.19,13.28-.36.35-.43.72-.32,1.02-1.08.2-2.25.43-1.92.36-1,.22-2.01.41-3.01.6-2.22.4-4.45.72-6.69.98-4.29.49-8.61.73-12.92.85-4.61.13-9.23.16-13.84.07-4.07-.08-8.84-.1-12.69-1.78.13-.23.15-.47-.03-.64-5.9-5.82-11.65-11.45-16.5-18.22-5.1-7.13-9.46-14.85-12.97-22.88-6.99-15.98-10.79-33.51-11.06-50.95.04.03.07.07.12.1,9.84,5.96,21.86,8.47,33.14,9.84,11.73,1.43,23.68,1.86,35.5,1.72,11.92-.15,23.88-1.23,35.45-4.22,5.44-1.4,22.82-8.92,24.57-12.19-.01.37-.02.74-.03,1.11-.04,1.2-.14,2.39.05,3.58.15.95,1.7-.1,1.82-.61.51-2.16,1.85-7.54.04-8.96-7.18-5.67-17.88-7.18-26.68-8.9-10-1.95-20.17-3.02-30.34-3.62-18.83-1.11-38.11-.25-56.17,5.62-4.72,1.53-9.49,3.34-13.86,5.71-3.09,1.67-5.87,3.88-6.5,7.49-.11.64-.55,31.44,11.66,56.24,6.99,14.2,15.95,29.72,28.9,39.34-.01,0-.02.01-.04.02-.82.45-2.15,2.05-.92,2.82,4.83,3.01,11.5,2.87,17.01,2.97,5.71.1,11.43.07,17.13-.22,5.93-.31,11.86-.94,17.67-2.19,2.59-.55,8.56-1.09,8.02-5-.06-.46-.32-.68-.66-.76,4.33-3.38,8.14-7.76,11.38-12.04,2.24-2.96,4.39-6.11,6.24-9.41.17,0,.39-.05.65-.19,5.9-3.12,29.47-16.04,34.71-19.6,8.53-5.8,17.32-12.42,19.82-22.81,2.24-9.3-2.77-21.51-11.73-25.86Zm-143.41-12.77c5.26-1.94,10.69-3.43,16.19-4.51,10.87-2.14,22.01-2.8,33.07-2.59,11.2.22,22.45,1.16,33.51,2.94,5.7.91,11.36,2.08,16.93,3.61,5.28,1.45,15.42,4.17,15.24,6.2s-10.24,7.36-15.2,9.16c-5.01,1.82-10.17,3.21-15.41,4.22-10.65,2.06-21.54,2.68-32.37,2.64-10.79-.04-21.68-.49-32.38-1.91-10.89-1.44-23.09-4.82-31.39-10.01-5.19-4.15,7.01-8,11.8-9.77Z"/><path d="m402.35,584.9c-16.8-3.88-34.54-5.64-51.75-5.84-8.6-.1-17.2.3-25.74,1.35-7.2.89-16.33,1.33-22.43,5.69-1.07.76-.52,2.36.79,1.54,3.55-2.21,8.01-2.66,12.07-3.34,3.91-.65,7.85-1.16,11.8-1.54,8.42-.8,16.89-1.04,25.34-.76,16.3.52,32.12,3.27,48.18,5.87,1.43.23,3.72-2.51,1.74-2.97Z"/><path d="m389.26,690.29c-21.91,2.21-44.09,2.01-65.9-1.04-5.46-.76-10.86-1.77-15.97-3.84,2.78-2.34,6.18-3.26,9.87-3.52.67-.05,2.05-1.6.86-1.77-5.04-.75-10.29,1.89-13.7,5.44-.34.36-.75,1.28-.1,1.58,4.72,2.22,9.88,3.32,15.01,4.11,5.54.85,11.11,1.47,16.69,1.94,11.06.93,22.17,1.18,33.26.73,6.45-.26,12.88-.87,19.29-1.66.99-.12,2.2-2.12.7-1.97Z"/><path d="m442.74,686.34c-1.43-2.05-3.49-3.37-5.54-4.59-1.61-.96-12.34-8.44-47.72-10.84-.37.73-.76,1.45-1.17,2.15.53.06,1.06.11,1.58.17,27.81,3.18,46.98,11.21,48.34,12.18,1.43,1.03,3.15,2.65,2.12,4.68-.96,1.89-3.51,2.69-5.24,3.4-2.31.95-4.68,1.75-7.06,2.45-4.86,1.43-9.82,2.43-14.79,3.31-10.53,1.86-21.14,3.26-31.78,4.19-5.09.45-42.05.41-47.54-.02-11.47-.92-22.9-2.3-34.25-4.15-5.36-.87-10.7-1.86-15.95-3.29-2.57-.7-5.12-1.5-7.62-2.44-1.87-.71-4.62-1.5-5.65-3.4-1.11-2.02.74-3.65,2.28-4.68,1.35-.9,19.16-7.87,45.57-11.45-1.09-.66-1.97-1.45-2.65-2.34-44.88,4.51-51.51,14.38-53.18,15.93-5.33,4.91,4.32,23.29,85.07,22.82,4.84-.03,21.88-.23,26.97,0,22.82,1.04,54.35-8.47,60.17-11.41,1.8-.91,7.81-4.68,8.82-6.69,1-2.01.45-4.23-.76-5.97Z"/><path d="m402.5,678.35c-.5-1.68-2.46-2.05-3.97-2.19-.42-.04-.85.21-1.06.57-.16.27-.2.74.22.8,1.12.14,2.83.37,3.17,1.68.33,1.3-1.29,2.13-2.26,2.53-3.27,1.36-6.82,2.25-10.28,2.94-.55.11-1.12.44-1.3,1.01-.14.45.12.93.65.84,2.26-.41,4.48-.94,6.67-1.65,1.97-.63,4.11-1.26,5.86-2.4,1.29-.84,2.82-2.43,2.31-4.13Z"/></g><path d="m386.6,546.92c-10,.91-144.41,32.14-154.24,34.17-10.31,2.13-21.1,3.92-31.04,7.46-1.04.37-2.17,2.14-.07,1.51,10.37-3.11,19.92-5.3,30.09-7.26,9.95-1.92,144.73-31.88,154.59-34.24,1.55-.37,3.35-1.89.68-1.65Z"/><path d="m51.85,152.24c-4.15-2.07,1.04-2.07,1.04-2.07l351.71,49.8s3.4,2.46-4.01,2.27S51.85,152.24,51.85,152.24Z"/><path d="m212.66,580.73s-.02-.02-.03-.03c-.71-.74-.26-1.98.73-2.2l169.45-37.19s2.07,1.04-1.04,2.07c-7.03,2.34-169.11,37.35-169.11,37.35Z"/><path d="m51.47,149.81s.01.01.02.02c.24.19.36.49.36.8l161.85,428.03s-1.76,3.27-2.07,0c-.69-7.06-161.94-414.56-161.81-428,0-.84.99-1.37,1.65-.84Z"/><path d="m405.25,200.65s.01.01.02.02c.24.19.29.48,1.4.34,41.78,91.38,81.16,183.21,117.95,275.51-.81,1.24-.98,2.17-1.63,2.72-.48.41-2.45,1.43-2.19-.19,1.39-8.88-111.07-268.4-117.19-277.56-.47-.7.99-1.37,1.65-.84Z"/><path d="m258.04,172.02c-.15-.36-.32-.71-.61-.97-.18-.16-.37-.34-.59-.44-.16-.07-.36-.15-.51-.18-.33-.06-.7,0-1.02.12-.63.23-1.2.61-1.55,1.2-.15.24-.25.5-.28.78-.02.18.02.34.1.5-.06.22-.1.44-.12.65-.03.38.01.77.15,1.13.13.33.29.7.53.97.25.28.57.53.91.69.61.29,1.31.06,1.84-.28.29-.19.54-.41.75-.69.23-.31.36-.6.43-.98.07-.38.13-.76.14-1.14.01-.44,0-.93-.18-1.34Z"/><path d="m316.71,257.83c-5.8,21.89-11.85,43.71-17.67,65.6-5.79,21.78-11.59,43.55-17.38,65.33-3.26,12.25-6.47,24.52-9.7,36.79-.45,1.69,2.11.95,2.42-.21,5.83-21.85,11.63-43.71,17.41-65.58,5.75-21.77,11.51-43.53,17.18-65.31,3.19-12.26,6.31-24.53,9.56-36.77.34-1.28-1.6-.72-1.83.16Z"/><path d="m350.94,223.66c-5.15,16.91-10.37,33.81-15.4,50.75-5.05,17.01-9.95,34.07-14.77,51.15-4.79,16.99-9.5,34.01-14.11,51.05-4.61,17.04-9.13,34.11-13.55,51.2-4.42,17.08-8.72,34.18-12.82,51.33-.52,2.17-1.04,4.34-1.55,6.52-.37,1.54,1.92.86,2.19-.19,4.32-17.13,8.68-34.26,13.06-51.38,4.39-17.18,8.88-34.33,13.45-51.46,4.56-17.05,9.2-34.07,13.94-51.06,4.74-16.99,9.61-33.95,14.48-50.91,4.87-16.93,9.72-33.87,14.83-50.73.65-2.14,1.3-4.28,1.95-6.43.36-1.17-1.45-.65-1.69.15Z"/><path d="m281.89,581.71c-19.47,3.88-38.82,8.4-58.16,12.89-5.56,1.29-11.1,2.61-16.64,3.99-.65.16-1.35,1.65-.32,1.45,19.42-3.84,38.74-8.21,58.07-12.51,5.56-1.24,11.1-2.57,16.63-3.94.84-.21,1.74-2.13.41-1.87Z"/><path d="m631.81,610.81c-50.84,0-149.85-7.49-170.24-15.31-1.54-.59-4.69,2.18-2.82,3.11,19.21,9.61,152.31,23.61,191.73,18.42,2.2-.29-15.13-6.22-18.67-6.22Z"/></g></svg>