<?xml version="1.0" encoding="UTF-8"?><svg id="b" xmlns="http://www.w3.org/2000/svg" viewBox="0 0 940 668"><defs><style>.c{fill:none;stroke:#80b0b2;stroke-miterlimit:10;stroke-width:6px;}.d{fill:#fff;}.e{fill:#80b0b2;}</style></defs><path class="e" d="M679,107C504.64-.03,426,36,309,67,155.25,107.74,66,333,85,532c-27.66-6.83-50.04,49.65-26,57,278,85,770,21,770,21,0,0,96-352-150-503Zm-90.84,412.42l-424.98,10.52L418.61,90.98l285.6,496.02-116.05-67.58Z"/><path class="d" d="M524.35,119h29.39l-42.74-96,76.9,96h71.75c7.37,0,13.35,5.98,13.35,13.35v135.3c0,7.37-5.98,13.35-13.35,13.35h-135.3c-7.37,0-13.35-5.98-13.35-13.35V132.35c0-7.37,5.98-13.35,13.35-13.35h0Z"/><path class="d" d="M201.97,239.04V127.97c0-6.05,4.87-10.96,10.88-10.96h74.15S325,0,325,0l-22.16,117.01h20.28c6.01,0,10.88,4.91,10.88,10.96v111.07c0,6.05-4.87,10.96-10.88,10.96h-110.27c-6.01,0-10.88-4.91-10.88-10.96h0Z"/><path class="d" d="M202.89,417h-54.62l-80.28,110,54.58-110h-16.82c-5.29,0-9.58-4.29-9.58-9.58v-97.13c0-5.29,4.29-9.58,9.58-9.58h97.13c5.29,0,9.58,4.29,9.58,9.58v97.13c0,5.29-4.29,9.58-9.58,9.58Z"/><path class="d" d="M637.35,305h135.3c7.37,0,13.35,5.98,13.35,13.35v85.01l120,50.64-120-18.54v18.19c0,7.37-5.98,13.35-13.35,13.35h-135.3c-7.37,0-13.35-5.98-13.35-13.35v-135.3c0-7.37,5.98-13.35,13.35-13.35h0Z"/><path d="M688.21,587h-.05c-21.9-42.6-48.27-83.56-72.14-125.24-24.43-42.67-48.53-85.51-72.31-128.52-40.65-73.54-80.07-147.68-120.25-221.46,.07-.66-.16-1.21-.79-1.47-5.17-9.5-10.33-19.02-15.52-28.52,.12-.26,.26-.52,.37-.78,1.89-3.99-.49-4.84-3.3-4.11-1.87-1.26-5.66,1.99-5.94,4.49-23.14,35.67-42.34,73.97-63.05,110.9-21.51,38.3-43.01,76.61-64.52,114.93-40.72,72.52-81.28,145.12-120.81,218.23-.19-.07-.37-.17-.65-.17-2.13,0-5.05,4.65-2.06,4.65,.09,0,.21-.05,.3-.07-2.15,3.99,3.79,2.97,5.31,.4,28.52-48.61,189.48-332.1,236.79-416.02,7.76-13.77,12.46-22.16,13.02-23.27,.81,1.66,3.94,7.98,8.15,16.45,9.68,19.45,44.99,90.48,45.01,88.93,2.23,4.28,187.56,340.84,208.81,374.91-27.73-22.11-59.03-44.15-90.07-61.27-2.15-1.19-5.61,1.35-6.45,3.78-138.18,.59-276.41,14.63-414.29,21.47-2.27,.12-5.4,5.15-2.22,5.01,138.44-6.13,277.93-5.3,416.02-17.67,1.47-.14,3.3-1.54,4.61-3.18,27.54,23.56,60.34,45.76,91.59,64.38,2.06,1.23,5.21-.66,6.85-2.97,2.85,4.42,5.7,8.83,8.65,13.18,2.85,4.2,10.85-3.32,8.95-7.01Z"/><path d="M811.17,283.42c-35.73-88.2-77.22-127.7-80.16-130.2-35.05-41.11-92.81-74.78-96.99-77.13C547.41,27.24,443.14,9.72,345.61,39.07c-61.04,18.38-127.81,64.96-154.6,92.04-14.28,14.43-45.45,51.22-59.89,73.33-12.58,19.28-30.5,58.19-30.94,58.77-12.58,29.17-21.51,51.47-29.63,97.41-8.12,45.95-11.27,115.39-1.96,171.24-12.23-1.92-23.99,5.22-30.6,15.2-8.93,13.49-5.35,29.92,4.77,41.94,16.93,20.07,46.22,22.77,71.39,26.26,30.62,4.23,61.37,7.86,92.15,11.04,124.86,12.87,250.65,17.38,376.16,12.33,71.82-2.9,145.22-7.36,215.8-20.52,1.85-.36,4.42-2.56,6.12-4.94,.56,3.06,6.92,.48,8.25-2.94,39.74-103.61,39.02-222.77-1.47-326.8Zm-5.27,324.35c-.42-.56-1.28-.85-2.66-.75-65.81,4.49-131.15,12.06-197.14,15.08-67.42,3.06-134.93,3.54-202.4,1.38-68.1-2.18-136.06-6.79-203.76-13.96-32.66-3.47-65.46-7.08-97.9-12.02-15.27-2.33-31.68-5.22-44.02-14.56-5.77-4.37-10.85-10-13.37-16.62-6.2-16.31,7.71-30.8,25.39-26.79,.19,.05,.4,0,.61,0,1.87,.67,5.63-2.78,5.45-4.87-5.17-58.49-5.38-117.21,4.51-174.35,0,0,1.89-6.46,1.15-6.44,7.22-38.64,19.17-76.54,37.47-113.13,40.65-81.24,112.73-150.77,202.8-184.16,91.05-33.74,194.59-24.46,281.58,15.74,89.04,41.13,155.13,116.52,192.35,201.4,46.34,105.66,49.79,226.18,9.95,334.04Z"/><path class="e" d="M738.19,436.89l-23.17-23.17c-1.33-1.33-1.33-3.48,0-4.81l.05-.05-7.8-7.8c-5.69,4.54-12.71,7.01-20.09,7.01-8.51,0-16.54-3.28-22.61-9.25-6.15-6.04-9.59-14.12-9.67-22.74-.08-8.62,3.2-16.76,9.24-22.91,6.04-6.15,14.12-9.59,22.74-9.67,8.63-.09,16.76,3.2,22.91,9.24,6.15,6.04,9.59,14.12,9.67,22.74,.07,7.67-2.52,14.96-7.35,20.81l7.76,7.76,.05-.05c1.33-1.33,3.48-1.33,4.81,0l23.17,23.17-9.71,9.71h0Zm-51-86.57h-.24c-6.81,.06-13.18,2.77-17.95,7.63s-7.36,11.28-7.3,18.09,2.77,13.18,7.63,17.95c4.79,4.71,11.13,7.3,17.85,7.3s13.06-2.59,17.85-7.3l.25-.25s.05-.06,.08-.09c4.77-4.86,7.36-11.28,7.3-18.09s-2.77-13.18-7.63-17.95c-4.8-4.71-11.13-7.3-17.85-7.3h.01Z"/><path class="e" d="M170.92,366.64c-.37-1.23-.8-2.3-1.32-3.21-.52-.91-1.26-1.79-2.22-2.66-.97-.87-1.83-1.57-2.6-2.09s-1.82-1.12-3.17-1.78c-1.34-.66-2.4-1.14-3.18-1.47-.78-.32-1.92-.76-3.39-1.32-1.32-.5-2.29-.89-2.93-1.15-.64-.27-1.49-.64-2.53-1.13s-1.83-.92-2.35-1.3c-.52-.37-1.07-.84-1.66-1.38s-1-1.12-1.23-1.74c-.24-.62-.36-1.28-.36-2.01,0-1.9,.84-3.45,2.52-4.65,1.67-1.2,3.84-1.8,6.5-1.8,1.17,0,2.37,.16,3.58,.48,1.22,.32,2.26,.68,3.12,1.09,.87,.41,1.68,.85,2.45,1.34s1.32,.86,1.63,1.11c.32,.25,.53,.42,.61,.5,.37,.28,.74,.37,1.13,.29,.42-.02,.74-.25,.97-.67l3.39-6.11c.33-.56,.27-1.09-.21-1.59-.17-.17-.37-.37-.63-.58-.25-.23-.8-.63-1.63-1.22-.84-.58-1.72-1.11-2.66-1.57-.93-.46-2.15-.93-3.65-1.4-1.49-.48-3.04-.8-4.63-.97v-7.37c0-.39-.12-.71-.37-.97s-.58-.37-.97-.37h-5.66c-.37,0-.67,.13-.94,.4-.27,.27-.4,.58-.4,.94v7.54c-4.38,.84-7.95,2.71-10.69,5.61-2.74,2.91-4.11,6.28-4.11,10.14,0,1.14,.12,2.23,.36,3.26s.53,1.96,.88,2.79c.35,.83,.84,1.63,1.49,2.43,.64,.8,1.25,1.48,1.82,2.05,.58,.57,1.32,1.17,2.24,1.78,.93,.62,1.71,1.11,2.37,1.49s1.53,.81,2.61,1.3c1.09,.49,1.95,.86,2.57,1.11,.63,.25,1.49,.6,2.57,1.05,1.51,.58,2.62,1.04,3.35,1.36,.72,.32,1.65,.77,2.77,1.34,1.12,.57,1.93,1.1,2.45,1.57s.98,1.06,1.4,1.76,.63,1.44,.63,2.22c0,2.21-.86,3.91-2.57,5.11-1.72,1.2-3.71,1.8-5.97,1.8-1.03,0-2.07-.11-3.1-.33-3.63-.73-7.02-2.48-10.18-5.24l-.08-.08c-.25-.31-.58-.43-1.01-.37-.45,.06-.77,.23-.97,.5l-4.31,5.65c-.42,.56-.39,1.13,.08,1.72,.14,.17,.38,.42,.73,.76,.35,.33,1,.86,1.95,1.58,.95,.71,1.98,1.38,3.1,2.01,1.12,.63,2.53,1.25,4.25,1.87,1.72,.62,3.5,1.05,5.34,1.3v7.33c0,.37,.13,.67,.4,.94,.27,.27,.58,.4,.94,.4h5.66c.39,0,.71-.12,.97-.37s.37-.57,.37-.97v-7.33c4.44-.72,8.05-2.63,10.83-5.72,2.78-3.09,4.17-6.76,4.17-11.04,0-1.4-.18-2.71-.55-3.94h.02Z"/><path class="e" d="M234.28,148.91v-11.36c0-1.57,1.27-2.84,2.84-2.84s2.84,1.27,2.84,2.84v11.36c0,1.57-1.27,2.84-2.84,2.84s-2.84-1.27-2.84-2.84Zm48.28,2.84c1.57,0,2.84-1.27,2.84-2.84v-11.36c0-1.57-1.27-2.84-2.84-2.84s-2.84,1.27-2.84,2.84v11.36c0,1.57,1.27,2.84,2.84,2.84Zm31.24,51.12c0,12.55-10.17,22.72-22.72,22.72s-22.72-10.17-22.72-22.72,10.17-22.72,22.72-22.72,22.72,10.17,22.72,22.72Zm-5.68,0c0-9.4-7.64-17.04-17.04-17.04s-17.04,7.64-17.04,17.04,7.64,17.04,17.04,17.04,17.04-7.64,17.04-17.04Zm-62.48-34.08h-11.36v11.36h11.36v-11.36Zm-11.36,28.4h11.36v-11.36h-11.36v11.36Zm17.04-17.04h11.36v-11.36h-11.36v11.36Zm0,17.04h11.36v-11.36h-11.36v11.36Zm-22.72,5.11v-39.19h62.48v11.36h5.68v-22.15c0-3.45-2.75-6.25-6.15-6.25h-2.37v2.84c0,3.13-2.55,5.68-5.68,5.68s-5.68-2.55-5.68-5.68v-2.84h-34.08v2.84c0,3.13-2.55,5.68-5.68,5.68s-5.68-2.55-5.68-5.68v-2.84h-2.37c-3.4,0-6.15,2.8-6.15,6.25v49.99c0,3.44,2.75,6.25,6.15,6.25h33.61v-5.68h-33.61c-.26,0-.47-.27-.47-.57h0Zm51.12-22.16v-11.36h-11.36v11.36h11.36Zm19.88,22.72h-8.52v-8.52c0-1.57-1.27-2.84-2.84-2.84s-2.84,1.27-2.84,2.84v11.36c0,1.57,1.27,2.84,2.84,2.84h11.36c1.57,0,2.84-1.27,2.84-2.84s-1.27-2.84-2.84-2.84h0Z"/><path class="c" d="M613.34,145.2c-11.57,0-20.98,9.41-20.98,20.98v20.98h-35.96c-3.31,0-5.99,2.68-5.99,5.99v41.96c0,3.31,2.68,5.99,5.99,5.99h53.94c3.31,0,5.99-2.68,5.99-5.99v-41.96c0-3.31-2.68-5.99-5.99-5.99h-5.99v-20.98c0-4.96,4.03-8.99,8.99-8.99s8.99,4.03,8.99,8.99v14.98c0,3.31,2.68,5.99,5.99,5.99s5.99-2.68,5.99-5.99v-14.98c0-11.57-9.41-20.98-20.98-20.98h.01Z"/><path class="e" d="M586.61,220.29v6.54c0,1.66-1.34,3-3,3s-3-1.34-3-3v-6.54c-3.48-1.24-5.99-4.53-5.99-8.44,0-4.97,4.02-8.99,8.99-8.99s8.99,4.02,8.99,8.99c0,3.91-2.51,7.2-5.99,8.44Z"/></svg>