<?xml version="1.0" standalone="no"?>
<!DOCTYPE svg PUBLIC "-//W3C//DTD SVG 20010904//EN"
 "http://www.w3.org/TR/2001/REC-SVG-20010904/DTD/svg10.dtd">
<svg version="1.0" xmlns="http://www.w3.org/2000/svg"
 width="16.000000pt" height="16.000000pt" viewBox="0 0 16.000000 16.000000"
 preserveAspectRatio="xMidYMid meet">
<metadata>
Created by potrace 1.11, written by Peter Selinger 2001-2013
</metadata>
<g transform="translate(0.000000,16.000000) scale(0.006154,-0.006154)"
fill="#000000" stroke="none">
<path d="M1128 2383 c-10 -2 -18 -6 -18 -9 0 -4 77 -153 150 -289 37 -70 138
-263 244 -470 32 -60 89 -171 128 -245 39 -74 114 -218 167 -320 53 -102 101
-194 107 -204 11 -19 26 -20 314 -20 335 -1 313 -6 324 69 3 22 8 58 12 80 10
59 11 275 1 275 -4 0 -6 4 -3 9 8 13 -28 193 -54 271 -59 176 -151 328 -300
490 -45 49 -153 134 -233 184 -72 45 -235 122 -275 130 -9 1 -24 5 -32 9 -22
8 -100 27 -135 34 -39 7 -375 12 -397 6z"/>
<path d="M947 2335 c-255 -88 -472 -239 -630 -440 -26 -33 -51 -65 -56 -71
-45 -55 -162 -302 -175 -368 -3 -12 -12 -55 -21 -96 -32 -141 -23 -403 18
-555 48 -175 144 -358 260 -492 l45 -53 76 141 c42 77 76 145 76 149 0 5 3 10
8 12 4 2 19 28 35 58 15 30 48 93 73 140 25 47 91 173 146 280 55 107 115 222
133 255 49 90 121 228 235 449 79 152 101 203 93 215 -5 9 -43 79 -83 156
-112 216 -130 245 -148 244 -9 0 -48 -11 -85 -24z"/>
<path d="M1393 772 l-672 -2 -67 -128 c-99 -189 -154 -292 -181 -340 -12 -23
-23 -46 -23 -50 0 -4 395 -8 877 -7 l877 0 48 49 c89 90 189 260 247 419 l21
57 -78 0 c-42 0 -144 2 -227 3 -82 1 -452 1 -822 -1z"/>
</g>
</svg>
