<?xml version="1.0" encoding="UTF-8"?><svg xmlns="http://www.w3.org/2000/svg" viewBox="0 0 940 799"><defs><style>.d{fill:#ea9696;}.e{fill:#fff;}</style></defs><g id="a"><path class="d" d="m780,183.5c-78.47-77.58-164.42-103.99-228-111-2.07,16.63-5.58,32.07-3.13,45.82.11.45.18.6.18.6,0,0,24.58-7.42,18.27-.42s-5.63,12.14-5.63,12.14c0,0,18.95-4.37,19.13,2.25.18,6.61,0,10.51,0,10.51l6.18,7.1s24-6,18,1-5.63,15.05-5.63,15.05c0,0,26.63-5.05,20.63,1.95s-5.69,9.76-5.69,9.76l6.69,12.24.69,18.97,4.84,22.05,46.73,50.04,115.43-36.21,19.76,19.99-40.45,316-240.16,94.81c-.08,4.1-.17,8.19-.28,12.29-.87,33.45-2.39,66.92-3.47,100.38,407.56-10.65,426.51-436.63,255.91-605.31Z"/><polygon class="e" points="55 -.5 111 793.5 500.43 800.07 503.44 692.76 768 581.5 808.45 265.33 794.24 251.7 673.26 281.56 626.53 231.51 621 190.5 620 168.5 609 165.5 606.01 165.2 605 151.5 587 150.5 587 143.5 580.82 143.4 579.32 126.5 568.32 129.5 559.77 116.26 548.87 118.32 541.32 109.5 536.32 99.5 538 23.5 55 -.5"/></g><g id="c"><g><path d="m306,670.5c-26.03-33.58-214.52-262.67-229-282-.91-1.21-3.92,26.82,1.5,26.82,1.04,0,2.12-.57,3.01-1.38,50.54,68.64,102.77,135.97,157.12,201.64,15.42,18.63,46.1,55.03,62.64,72.67,1.97,2.1,6.51-15.47,4.72-17.77Z"/><path d="m286.84,704.28c-1.9,0-3.93,1.87-4.73,3.68.04-1.01-.64-1.69-2.49-1.16-57.36,16.53-113.56,37.16-170.29,55.74-5.13-82.58-16.78-197.68-23.51-282.03,8.94-1.77,18.64-2.5,27.18-5.61,1.95-.71,5.28-5.62,1.16-5.24-9.62.89-19.25,4.88-28.61,7.31-.97-12.24-1.82-23.8-2.54-34.48-6.33-94.94-10.77-187.02-15-282-2.38-53.55-3.61-81.66-5.08-135.21-.09-3.36-11.61,1.42-8.92,1.21,5.98,185.18,38.59,713.64,46,767,.88,6.34,11.28,6.46,11,0-.38-8.72-.88-18.02-1.48-27.8,56.54-17.95,113.82-34,169.7-53.94,1.09-.39,2.05-1.46,2.54-2.52-.09,1.19.59,2.14,2.56,2.14,3.71,0,7.93-7.1,2.52-7.1Z"/><path d="m503.44,692.76c-2.23,55.64-3.41,95.01-3.01,107.31.21,6.4,10.54,7.61,10.94,1.15,1.93-31.47,3.16-70.7,4.09-112.51-4,1.39-8,2.75-12.03,4.05Z"/><path d="m528,88.5c1.2.64,8.06,11.17,9.23,11.85.86.5,1.86,1.06,2.74,1.73,3.33-39.02,7.2-55.9,9.82-89.52.26-3.35-14.49-4.13-11.79-4.06-2.08,28.43-7.37,36.5-10,80Z"/><path d="m521.66,94.38c1.2.64,2.4,1.29,3.57,1.98.86.5,1.86,1.06,2.74,1.73,3.33-39.02,7.2-55.9,9.82-89.52.26-3.35-11.69.19-9,.26-2.08,28.43-4.51,42.06-7.14,85.56Z"/><path d="m299.22,459.24c-28.07-31.89-57.74-62.37-86.52-93.62-29.02-31.51-57.52-63.47-85.84-95.6-15.97-18.12-31.83-36.33-47.49-54.72-.98-1.15-2.71-.73-4.1.32-.4-.48-1.12-.77-2.27-.69-3.7.23-7.47,7.58-2.07,7.24,1.04-.07,2.08-.7,2.92-1.56,54.73,65.35,111.06,129.28,169.42,191.43,16.55,17.63,33.36,35.01,50.96,51.59,2.09,1.97,6.9-2.19,4.98-4.38Z"/><path d="m798,239.5c-1.94-.93-349.56,110.6-428.19,138.45-22.79,8.07-45.46,16.48-67.72,25.94-1.12.47-1.42,1.83-1.2,3.18-.15.47-.21.93-.15,1.34-.37.09-.51.15-.28.13-2.39,85.21-2.65,170.42-.2,255.63.69,24.17.56,53.24,2.74,77.33.04.49,18.19,17.26,21,17,.96-.09,454.83-165.71,455-167,5.48-42.13,38.5-308.11,42-332,.22-1.5-18.27-17.73-23-20Zm-373.41,129.1c40.51-13.91,81.23-27.17,122.04-40.18,22.31-7.12,214.92-66.79,247.61-76.72,1.21.74,2.41,1.49,3.59,2.28.55.37,4.7,3.17,6.56,4.57-84.31,24.69-342.12,105.25-421.58,133.4-21.74,7.7-43.36,15.71-64.62,24.64-.71-2.16-2.77-3.69-4.38-5.23-1.12-1.08-2.25-2.15-3.37-3.23,38.3-12.41,76.07-26.46,114.15-39.53Zm-111.44,370c-.14-.11-.31-.18-.48-.23-.07-.35-.24-.68-.6-.85-.43-.22-.87-.43-1.3-.65.01-.08.03-.16.03-.25.15-42.49-1.83-84.97-2.64-127.45-.81-42.82-.94-85.65-.82-128.48.06-22.18.26-44.36.66-66.54l.28.29c1.69,1.72,4.03,3.48,4.82,5.83.17.51.46.82.81.98.2,1.01.7,1.99,1.38,2.56-2.23,83.13-2.42,166.25-.04,249.38.66,23.08,1.66,46.15,3.64,69.16-2.04-1.03-3.94-2.33-5.74-3.73Zm454.84-157.1c-59.59,21.87-404.04,142.36-442,155,.04-41.42-2.05-76.93-2.84-118.34-.81-42.82-.94-85.65-.82-128.48.07-22.47.26-44.93.67-67.4,38.45-12.44,76.35-26.55,114.57-39.68,40.51-13.91,81.23-27.17,122.04-40.18,22.61-7.21,220.05-68.37,248.82-77.08-13.51,89.46-39.51,292.06-40.45,316.17Z"/><path d="m261.04,396.05c1.04-.39,2.18-1.37,2.17-2.21-.21-16.04-.42-32.07-.58-48.11-.07-7.32-.1-14.64-.12-21.96-.03-7.88-.63-16.09.3-23.92.4-3.39,1.22-6.8,4.02-9.03,2.83-2.26,6.78-3.19,10.16-4.31,2.54-.84,5.08-1.65,7.63-2.45-.06-1.43-.1-2.86-.14-4.29-2.67.82-5.34,1.64-8.02,2.42-5.62,1.63-11.45,3.63-15.27,8.34-4.38,5.41-4.43,12.47-4.49,19.1-.09,9.64-.1,19.28.06,28.91.31,18.56,1.07,37.08,2.48,55.59-14.19-15.15-28.46-30.24-42.52-45.51-29.02-31.51-57.52-63.47-85.84-95.6-15.97-18.12-31.83-36.33-47.49-54.72-.98-1.15-2.71-.73-4.1.32-.4-.48-1.12-.77-2.27-.69-3.7.23-7.47,7.58-2.07,7.24,1.04-.07,2.08-.7,2.92-1.56,54.73,65.35,111.06,129.28,169.42,191.43,16.55,17.63,33.36,35.01,50.96,51.59,2.09,1.97,6.9-2.19,4.98-4.38-13.78-15.65-27.94-30.96-42.19-46.19Z"/><path d="m627,183.5c-3-3-2-5-11-3-32.88,7.31-137.2,39.71-169.48,49.33-29.62,8.83-60,18.51-89.52,27.67.13,1.06,0,4,5,3,54.64-16.88,105.37-32.53,160.55-47.58,16.34-4.46,81.45-24.42,93.45-26.42,1.97-.33,4,1,5,4,1.97,5.91-4.51,93.06-3.56,103.76.28,3.22,6.57-.32,6.32-3.31-1.28-15.16,8.92-101.76,3.24-107.44Z"/><path d="m306.72,222.21c-13.68,4.26-27.35,8.53-41.03,12.79-7.74,2.41-15.45,4.93-23.24,7.18-5.62,1.63-11.45,3.63-15.27,8.34-4.38,5.41-4.43,12.47-4.49,19.1-.09,9.64-.1,19.28.06,28.91.31,18.56-.61,57.11-.75,56.97.1.37,4.67,5.75,6,5-.2-15.67.78-39.1.62-54.77-.07-7.32-.1-14.64-.12-21.96-.03-7.88-.63-16.09.3-23.92.4-3.39,1.22-6.8,4.02-9.03,2.83-2.26,6.78-3.19,10.16-4.31,7.11-2.36,14.3-4.51,21.46-6.76,13.67-4.29,27.34-8.56,41.01-12.81.17-1.6.56-3.27,1.27-4.73Z"/><path d="m593,143.5c-3-3-2-5-11-3-32.88,7.31-137.2,39.71-169.48,49.33-9.93,2.96-19.85,5.96-29.77,8.96.72.09,1.36.38,1.81,1.02.95.46,1.66,1.26,1.69,2.44,33.99-10.15,68.07-20,102.3-29.34,16.34-4.46,81.45-24.42,93.45-26.42,1.97-.33,4,1,5,4,.23.69.34,2.49.37,5.14,2.45-.48,4.9-.99,7.33-1.54-.13-5.68-.64-9.54-1.7-10.6Z"/><path d="m605,151.5c-3-3-2-5-11-3-32.88,7.31-137.2,39.71-169.48,49.33-14.49,4.32-28.97,8.7-43.43,13.12.23,1.44.41,2.88.42,4.33.17-.05.34-.1.51-.15,2.53-.91,5.01-1.97,7.7-2.31,36.82-11.06,73.73-21.78,110.83-31.9,16.34-4.46,81.45-24.42,93.45-26.42,1.97-.33,4,1,5,4,.31.92.41,3.8.37,8.05,2.21-.45,4.43-.89,6.64-1.34.24-.05.48-.1.73-.16-.02-7.28-.5-12.32-1.73-13.55Z"/><path d="m281.89,263.39c-4.14,1.3-8.28,2.58-12.44,3.79-5.62,1.63-11.45,3.63-15.27,8.34-4.38,5.41-4.43,12.47-4.49,19.1-.09,9.64-.1,19.28.06,28.91.31,18.56,2.16,63.6,2.25,63.97,1.39-.63,3.67,4.75,5,4-.2-15.67-1.84-46.33-2-62-.07-7.32-1.92-36.16-1-44,.4-3.39,3.02-7.45,5.82-9.68,2.83-2.26,6.78-3.19,10.16-4.31,3.35-1.11,6.71-2.17,10.07-3.22.44-1.68,1.07-3.32,1.84-4.9Z"/><path d="m620,168.5c-3-3-2-5-11-3-32.88,7.31-137.2,39.71-169.48,49.33-26.07,7.78-52.09,15.73-78.07,23.76.72,1.06,1.22,2.26,1.47,3.61.02.08.02.18.04.26,0,.01.01.02.02.03,50.65-15.56,101.45-30.63,152.58-44.58,16.34-4.46,81.45-24.42,93.45-26.42,1.97-.33,4,1,5,4,.15.46.25,1.4.31,2.76,2.53-.38,5.14-.23,7.38.63-.14-5.56-.65-9.34-1.69-10.39Z"/><path d="m357,248.5c.15.46-.06,8.64,0,10,2.53-.38,4.76-1.86,7-1-.14-5.56.04-14.96-1-16-3-3-2-5-11-3-32.88,7.31-44.77,12.42-52.55,14.68-5.62,1.63-11.45,3.63-15.27,8.34-4.38,5.41-4.43,12.47-4.49,19.1-.09,9.64.31,3.88.31,3.88l5-3s-1.92-2.16-1-10c.4-3.39,3.02-7.45,5.82-9.68,2.83-2.26,6.78-3.19,10.16-4.31,7.11-2.36,40.02-11.01,52.02-13.01,1.97-.33,4,1,5,4Z"/><path d="m387,199.5c-3-3-2-5-11-3-32.88,7.31-44.77,12.42-52.55,14.68-5.62,1.63-11.45,3.63-15.27,8.34-3.56,4.4-4.26,9.89-4.43,15.35-8.69,2.71-17.38,5.42-26.07,8.12-7.74,2.41-15.45,4.93-23.24,7.18-5.62,1.63-11.45,3.63-15.27,8.34-4.38,5.41-4.43,12.47-4.49,19.1-.09,9.64-.1,19.28.06,28.91.31,18.56,1.22,67.3,1.08,67.16.1.37,3.03-.2,4.36-.95-.2-15.67.34-73.65.31-80.97-.03-7.88-.63-16.09.3-23.92.4-3.39,1.22-6.8,4.02-9.03,2.83-2.26,6.78-3.19,10.16-4.31,7.11-2.36,14.3-4.51,21.46-6.76,9.08-2.85,18.17-5.68,27.25-8.51,0,0,0,.02,0,.03.74-.27,1.48-.52,2.22-.76.72-.24,1.44-.48,2.15-.74,0,0,0,0,0,0,0,0,0,0,.01,0-.06-.53-.12-1.06-.14-1.6,0,0,0,0,0,0-.01-.2-.02-.39-.03-.59-.01-.66.01-1.34.08-2.01-.07.02-.15.05-.22.07,0-1.16.06-2.52.25-4.12.4-3.39,3.02-7.45,5.82-9.68,2.83-2.26,6.78-3.19,10.16-4.31,7.11-2.36,40.02-11.01,52.02-13.01,1.97-.33,4,1,5,4,.07.21.06,2.07.04,4.14.26,1.56.45,3.12.46,4.68,2.15-.75,4.25-1.65,6.45-2.18-.07-5.52-.05-12.73-.96-13.64Z"/><path d="m346.03,177.21c-13.68,4.26-92.35,28.53-106.03,32.79-7.74,2.41-15.45,4.93-23.24,7.18-5.62,1.63-11.45,3.63-15.27,8.34-4.38,5.41-4.43,12.47-4.49,19.1-.09,9.64-.1,19.28.06,28.91.31,18.56-.61,57.11-.75,56.97.1.37,4.67,5.75,6,5-.2-15.67.78-39.1.62-54.77-.07-7.32-.1-14.64-.12-21.96-.03-7.88-.63-16.09.3-23.92.4-3.39,1.22-6.8,4.02-9.03,2.83-2.26,6.78-3.19,10.16-4.31,7.11-2.36,14.3-4.51,21.46-6.76,13.67-4.29,92.34-28.56,106.01-32.81.17-1.6.56-3.27,1.27-4.73Z"/><path d="m567.32,118.5c-3-3-2-5-11-3-32.88,7.31-77.2,21.71-109.48,31.33-9.93,2.96-19.85,5.96-29.77,8.96.72.09,1.36.38,1.81,1.02.95.46,1.66,1.26,1.69,2.44,33.99-10.15,8.07-2,42.3-11.34,16.34-4.46,81.45-24.42,93.45-26.42,1.97-.33,4,1,5,4,.23.69.34,2.49.37,5.14,2.45-.48,4.9-.99,7.33-1.54-.13-5.68-.64-9.54-1.7-10.6Z"/><path d="m579.32,126.5c-3-3-2-5-11-3-32.88,7.31-134.44,38.04-148.91,42.45.23,1.44.41,2.88.42,4.33.17-.05.34-.1.51-.15,2.53-.91,17.43-4.09,54.52-14.21,16.34-4.46,81.45-24.42,93.45-26.42,1.97-.33,4,1,5,4,.31.92.41,3.8.37,8.05,2.21-.45,4.43-.89,6.64-1.34.24-.05.48-.1.73-.16-.02-7.28-.5-12.32-1.73-13.55Z"/><path d="m425.32,154.5c-3-3-2-5-11-3-32.88,7.31-44.77,12.42-52.55,14.68-5.62,1.63-11.45,3.63-15.27,8.34-3.56,4.4-4.26,9.89-4.43,15.35-8.69,2.71-81.38,25.42-90.07,28.12-7.74,2.41-15.45,4.93-23.24,7.18-5.62,1.63-11.45,3.63-15.27,8.34-4.38,5.41-4.43,12.47-4.49,19.1-.09,9.64-.1,19.28.06,28.91.31,18.56,1.22,67.3,1.08,67.16.1.37,3.03-.2,4.36-.95-.2-15.67.34-73.65.31-80.97-.03-7.88-.63-16.09.3-23.92.4-3.39,1.22-6.8,4.02-9.03,2.83-2.26,6.78-3.19,10.16-4.31,7.11-2.36,14.3-4.51,21.46-6.76,9.08-2.85,82.17-25.68,91.25-28.51,0,0,0,.02,0,.03.74-.27,1.48-.52,2.22-.76.72-.24,1.44-.48,2.15-.74,0,0,0,0,0,0,0,0,0,0,.01,0-.06-.53-.12-1.06-.14-1.6,0,0,0,0,0,0-.01-.2-.02-.39-.03-.59-.01-.66.01-1.34.08-2.01-.07.02-.15.05-.22.07,0-1.16.06-2.52.25-4.12.4-3.39,3.02-7.45,5.82-9.68,2.83-2.26,6.78-3.19,10.16-4.31,7.11-2.36,40.02-11.01,52.02-13.01,1.97-.33,4,1,5,4,.07.21.06,2.07.04,4.14.26,1.56.45,3.12.46,4.68,2.15-.75,4.25-1.65,6.45-2.18-.07-5.52-.05-12.73-.96-13.64Z"/><path d="m375.03,136.21c-13.68,4.26-153.35,45.53-167.03,49.79-7.74,2.41-15.45,4.93-23.24,7.18-5.62,1.63-11.45,3.63-15.27,8.34-4.38,5.41-4.43,12.47-4.49,19.1-.09,9.64-.1,19.28.06,28.91.31,18.56-.61,57.11-.75,56.97.1.37,4.67,5.75,6,5-.2-15.67.78-39.1.62-54.77-.07-7.32-.1-14.64-.12-21.96-.03-7.88-.63-16.09.3-23.92.4-3.39,1.22-6.8,4.02-9.03,2.83-2.26,6.78-3.19,10.16-4.31,7.11-2.36,14.3-4.51,21.46-6.76,13.67-4.29,153.34-45.56,167.01-49.81.17-1.6.56-3.27,1.27-4.73Z"/><path d="m535.32,94.5c-3-3-2-5-11-3-32.88,7.31-63.33,18.29-73.25,21.3.72.09,1.36.38,1.81,1.02.95.46,1.66,1.26,1.69,2.44,33.99-10.15,57.75-16.76,69.75-18.76,1.97-.33,4,1,5,4,.23.69.34,2.49.37,5.14,2.45-.48,4.9-.99,7.33-1.54-.13-5.68-.64-9.54-1.7-10.6Z"/><path d="m547.32,102.5c-3-3-2-5-11-3-32.88,7.31-71.44,19.04-85.91,23.45.23,1.44.41,2.88.42,4.33.17-.05.34-.1.51-.15,2.53-.91,5.01-1.97,7.7-2.31,36.82-11.06,65.28-17.32,77.28-19.32,1.97-.33,4,1,5,4,.31.92.41,3.8.37,8.05,2.21-.45,4.43-.89,6.64-1.34.24-.05.48-.1.73-.16-.02-7.28-.5-12.32-1.73-13.55Z"/><path d="m456.32,111.5c-3-3-2-5-11-3-32.88,7.31-44.77,12.42-52.55,14.68-5.62,1.63-11.45,3.63-15.27,8.34-3.56,4.4-4.26,9.89-4.43,15.35-8.69,2.71-144.38,44.42-153.07,47.12-7.74,2.41-15.45,4.93-23.24,7.18-5.62,1.63-11.45,3.63-15.27,8.34-4.38,5.41-4.43,12.47-4.49,19.1-.09,9.64-.1,19.28.06,28.91.31,18.56,1.22,67.3,1.08,67.16.1.37,3.03-.2,4.36-.95-.2-15.67.34-73.65.31-80.97-.03-7.88-.63-16.09.3-23.92.4-3.39,1.22-6.8,4.02-9.03,2.83-2.26,6.78-3.19,10.16-4.31,7.11-2.36,14.3-4.51,21.46-6.76,9.08-2.85,145.17-44.68,154.25-47.51,0,0,0,.02,0,.03.74-.27,1.48-.52,2.22-.76.72-.24,1.44-.48,2.15-.74,0,0,0,0,0,0,0,0,0,0,.01,0-.06-.53-.12-1.06-.14-1.6,0,0,0,0,0,0-.01-.2-.02-.39-.03-.59-.01-.66.01-1.34.08-2.01-.07.02-.15.05-.22.07,0-1.16.06-2.52.25-4.12.4-3.39,3.02-7.45,5.82-9.68,2.83-2.26,6.78-3.19,10.16-4.31,7.11-2.36,40.02-11.01,52.02-13.01,1.97-.33,4,1,5,4,.07.21.06,2.07.04,4.14.26,1.56.45,3.12.46,4.68,2.15-.75,4.25-1.65,6.45-2.18-.07-5.52-.05-12.73-.96-13.64Z"/><path d="m401.03,95.21c-13.68,4.26-200.35,58.53-214.03,62.79-7.74,2.41-15.45,4.93-23.24,7.18-5.62,1.63-11.45,3.63-15.27,8.34-4.38,5.41-4.43,12.47-4.49,19.1-.09,9.64-.1,19.28.06,28.91.31,18.56-.61,57.11-.75,56.97.1.37,4.67,5.75,6,5-.2-15.67.78-39.1.62-54.77-.07-7.32-.1-14.64-.12-21.96-.03-7.88-.63-16.09.3-23.92.4-3.39,1.22-6.8,4.02-9.03,2.83-2.26,6.78-3.19,10.16-4.31,7.11-2.36,14.3-4.51,21.46-6.76,13.67-4.29,200.34-58.56,214.01-62.81.17-1.6.56-3.27,1.27-4.73Z"/><path d="m514.32,66.5c-3-3-2-5-11-3-32.88,7.31-27.32,8-24.44,9.32.95.46,1.66,1.26,1.69,2.44,33.99-10.15,10.75-3.76,22.75-5.76,1.97-.33,4,1,5,4,.23.69.34,2.49.37,5.14,2.45-.48,4.9-.99,7.33-1.54-.13-5.68-.64-9.54-1.7-10.6Z"/><path d="m526.32,74.5c-3-3-2-5-11-3-32.88,7.31-25.44,8.04-39.91,12.45.23,1.44.41,2.88.42,4.33.17-.05.34-.1.51-.15,2.53-.91,5.01-1.97,7.7-2.31,36.82-11.06,19.28-6.32,31.28-8.32,1.97-.33,4,1,5,4,.31.92.41,3.8.37,8.05,2.21-.45,4.43-.89,6.64-1.34.24-.05.48-.1.73-.16-.02-7.28-.5-12.32-1.73-13.55Z"/><path d="m481.32,72.5c-3-3-2-5-11-3-32.88,7.31-44.77,12.42-52.55,14.68-5.62,1.63-11.45,3.63-15.27,8.34-3.56,4.4-4.26,9.89-4.43,15.35-8.69,2.71-190.38,55.42-199.07,58.12-7.74,2.41-15.45,4.93-23.24,7.18-5.62,1.63-11.45,3.63-15.27,8.34-4.38,5.41-4.43,12.47-4.49,19.1-.09,9.64-.1,19.28.06,28.91.31,18.56,1.22,67.3,1.08,67.16.1.37,3.03-.2,4.36-.95-.2-15.67.34-73.65.31-80.97-.03-7.88-.63-16.09.3-23.92.4-3.39,1.22-6.8,4.02-9.03,2.83-2.26,6.78-3.19,10.16-4.31,7.11-2.36,14.3-4.51,21.46-6.76,9.08-2.85,191.17-55.68,200.25-58.51,0,0,0,.02,0,.03.74-.27,1.48-.52,2.22-.76.72-.24,1.44-.48,2.15-.74,0,0,0,0,0,0,0,0,0,0,.01,0-.06-.53-.12-1.06-.14-1.6,0,0,0,0,0,0-.01-.2-.02-.39-.03-.59-.01-.66.01-1.34.08-2.01-.07.02-.15.05-.22.07,0-1.16.06-2.52.25-4.12.4-3.39,3.02-7.45,5.82-9.68,2.83-2.26,6.78-3.19,10.16-4.31,7.11-2.36,40.02-11.01,52.02-13.01,1.97-.33,4,1,5,4,.07.21.06,2.07.04,4.14.26,1.56.45,3.12.46,4.68,2.15-.75,4.25-1.65,6.45-2.18-.07-5.52-.05-12.73-.96-13.64Z"/><path d="m121.94,196.73c-.07-7.32-.1-14.64-.12-21.96,0-2.44-.07-4.92-.13-7.41-1.94.61-3.85,1.28-5.73,2.04-.02,6.71,0,13.42.11,20.13.31,18.56-.61,57.11-.75,56.97.1.37,4.67,5.75,6,5-.2-15.67.78-39.1.62-54.77Z"/><path d="m133.81,182.77c-.02-6.42-.41-13.05-.06-19.52-1.9.62-3.81,1.21-5.69,1.89-.03,1.17-.04,2.34-.05,3.49-.09,9.64-.1,19.28.06,28.91.31,18.56,1.22,67.3,1.08,67.16.1.37,3.03-.2,4.36-.95-.2-15.67.34-73.65.31-80.97Z"/><path d="m99.94,173.73c0-.4,0-.79,0-1.19-1.96,1.25-3.91,2.52-5.8,3.87-.02,19.73-.7,47.21-.81,47.09.1.37,4.67,5.75,6,5-.2-15.67.78-39.1.62-54.77Z"/><path d="m111.79,166.79c-1.87,1.49-3.77,2.94-5.77,4.23.01,1.17.02,2.34.04,3.51.31,18.56,1.22,67.3,1.08,67.16.1.37,3.03-.2,4.36-.95-.17-13.17.19-56.19.29-73.95Z"/><path d="m673.26,281.56c-15.23-16.98-30.96-33.54-46.73-50.04.14,4.3.24,8.61.22,12.91,13.59,14.07,27.4,27.92,41.78,41.21,1.98,1.83,6.55-2.05,4.73-4.08Z"/><path d="m662.26,286.56c-11.91-13.29-24.13-26.3-36.44-39.24.17,4.37.4,8.74.66,13.1,10.14,10.28,20.43,20.41,31.05,30.22,1.98,1.83,6.55-2.05,4.73-4.08Z"/><path d="m526.52,46.37c-40.7,12.18-344.91,100.22-385.93,112.52-23.13,6.94-46.31,13.73-69.55,20.28-1.46.41-1.79,2.16-1.43,3.86-.61.16-1.17.7-1.58,1.78-1.34,3.46,3.76,9.96,5.71,4.9.38-.97.23-2.18-.2-3.31,82.24-22.42,432.45-124.61,454.87-133.68,2.66-1.08.89-7.19-1.9-6.35Z"/><path d="m656.14,373.27c1.59-11.51,2.2-23.77,2.2-35.35,0-1.62-1.36-1.43-2.53-.67-.4-.37-1.12-.51-2.27-.24-26.87,6.16-53.27,15.09-79.65,23.06-26.61,8.05-53.48,15.69-79.59,25.27-.85.31-1.6,1.2-1.9,2.02-.04-.48-.07-.97-.11-1.45-.17-1.95-3.71.2-3.8,1.58-.41,6.78-.46,13.57-.47,20.36-.01,6.19-.55,12.62.25,18.77.17,1.28,1.24,1.28,2.36.76.2.85.94,1.45,2.51,1.45,1.43,0,2.92-1.05,3.92-2.34.01,0,.02,0,.03,0,26.35-7.24,52.53-15.01,78.69-22.95,12.97-3.94,25.93-7.89,38.88-11.87,13.2-4.06,27.06-7.34,39.84-12.59,2.69-1.1,5.07-5.78,1.62-5.8Zm-79.88,24.45c-26.13,8.17-52.21,16.45-78.17,25.15-.3-.68-1.05-1.13-2.42-1.13-.7,0-1.42.25-2.09.67.35-5.96-.24-12.13-.39-18.06-.13-5.23-.32-10.46-.69-15.67.26.26.74.35,1.53.16,26.72-6.57,53.01-15.06,79.4-22.83,26.54-7.81,53.59-14.66,79.71-23.8.17-.06.33-.13.49-.22-2.04,10.54-3.48,21.85-3.53,32.54-11.78,2.95-23.4,7.42-34.93,11.03-12.97,4.05-25.94,8.12-38.9,12.17Z"/><path d="m304.68,755.96c-13.39,4.24-31.75,10.55-45.07,15.02-.23-.51-.8-.86-1.83-.86-.53,0-1.08.19-1.58.5.26-4.52-.18-9.19-.29-13.69-.1-3.96-.24-7.92-.53-11.87.2.19.56.27,1.16.12,14.43-3.55,23.69-7.83,37.93-12.13.08-1.5.2-2.99.35-4.48-14.46,4.34-23.91,8.78-38.07,13.98-.64.24-1.22.91-1.44,1.53-.03-.37-.05-.73-.08-1.1-.13-1.48-2.81.15-2.88,1.2-.31,5.14-.35,10.28-.36,15.43,0,4.69-.41,9.57.19,14.22.13.97.94.97,1.79.57.15.64.71,1.1,1.9,1.1,1.08,0,2.22-.8,2.97-1.77,0,0,.02,0,.02,0,13.72-3.77,35.37-10.73,48.99-14.79-.06-1.32-3.12-1.65-3.18-2.97Z"/><g><path d="m692.65,586.01c1.44-11.51,2-23.77,2-35.35,0-1.62-1.24-1.43-2.3-.67-.36-.37-1.02-.51-2.06-.24-24.43,6.16-110.3,36.09-134.29,44.06-24.21,8.05-48.64,15.69-72.39,25.27-.77.31-1.46,1.2-1.73,2.02-.03-.48-.06-.97-.1-1.45-.15-1.95-3.38.2-3.45,1.58-.37,6.78-.42,13.57-.43,20.36,0,6.19-.5,16.62.23,22.77.15,1.28,1.13,1.28,2.15.76.18.85.85,1.45,2.28,1.45,1.3,0,2.66-1.05,3.57-2.34.01,0,193.42-67.17,205.04-72.42,2.44-1.1,4.61-5.78,1.48-5.8Zm-205.6,74.6c-.27-.68-.96-1.13-2.2-1.13-.64,0-1.29.25-1.9.67.32-5.96-.22-16.13-.35-22.06-.12-5.23-.29-10.46-.63-15.67.23.26.67.35,1.39.16,24.3-6.57,48.21-15.06,72.21-22.83,24.14-7.81,110.59-35.66,134.34-44.8.15-.06.3-.13.45-.22-1.85,10.54-3.17,21.85-3.21,32.54-10.71,2.95-176.49,64.64-200.1,73.35Z"/><path d="m677.75,552.32c-10.21-8.34-20.56-16.48-30.78-24.81-1.26-1.03-4.04,1.84-2.55,3.09,10.11,8.45,20.09,17.08,30.2,25.51,1.53,1.28,4.97-2.28,3.12-3.79Z"/><path d="m491.63,619.63c-.01-.06-.04-.11-.05-.18-.1-.8.34-1.38.99-1.66.99-.43,2.02-.77,3.04-1.11-9.96-8.12-20.04-16.06-30-24.18-1.26-1.03-4.04,1.84-2.55,3.09,9.56,7.99,19,16.14,28.56,24.13,0-.03,0-.06.02-.09Z"/><path d="m461.24,630.47s.06-.11.1-.15c.53-.55,1.23-.52,1.85-.14.95.59,1.85,1.26,2.75,1.93-.33-13.26-.87-26.51-1.2-39.77-.04-1.68-3.91-2.35-3.89-.35.17,12.84.15,25.67.32,38.51.03-.01.05-.03.07-.04Z"/><path d="m646.56,560.32c.36.34.46.77.41,1.18.02.02.04.03.06.05,0-10.4-.09-20.81-.03-31.22,0-1.61-4-2.47-4.04-.55-.16,8.97-.42,17.93-.64,26.89,1.5,1.07,2.89,2.34,4.24,3.64Z"/><path d="m480.47,642.94c-5.57-4.46-11.14-8.92-16.68-13.43-1.26-1.03-4.04,1.84-2.55,3.09,6.27,5.24,12.49,10.55,18.73,15.84.05-1.83.27-3.67.5-5.49Z"/><path d="m642.42,555.5s-.04-.02-.06-.04c.09,1.81.17,3.61.24,5.42,1.79,1.5,3.58,3.01,5.36,4.52,1.59-.57,3.2-1.09,4.82-1.54-3.46-2.78-6.92-5.56-10.36-8.36Z"/></g><g><path d="m437.97,49.7c1.4-9,1.94-18.6,1.94-27.68,0-1.27-1.2-1.14-2.23-.57-.35-.29-.99-.42-2-.23-23.7,4.37-106.97,26.23-130.23,32.03-23.47,5.85-47.17,11.39-70.2,18.46-.75.23-1.42.91-1.68,1.55-.03-.38-.06-.76-.09-1.14-.15-1.53-3.28.1-3.35,1.17-.36,5.31-.4,10.63-.41,15.96,0,4.85-.48,9.89.22,14.72.15,1,1.09,1.03,2.08.63.17.67.83,1.15,2.21,1.18,1.26.02,2.58-.77,3.46-1.77.01,0,.02,0,.03,0,23.25-5.23,46.34-10.87,69.41-16.65,11.44-2.87,22.87-5.74,34.29-8.64,11.65-2.96,83.85-20.6,95.12-24.49,2.37-.82,4.47-4.45,1.43-4.52Zm-130.44,33.11c-23.05,5.96-46.05,12-68.95,18.39-.27-.54-.93-.91-2.14-.93-.62-.01-1.25.18-1.84.49.31-4.67-.21-9.52-.34-14.17-.12-4.1-.28-8.2-.61-12.3.23.21.65.29,1.35.15,23.57-4.69,46.75-10.9,70.03-16.54,23.41-5.67,107.25-25.88,130.29-32.61.15-.04.29-.1.43-.16-1.8,8.23-3.07,17.07-3.12,25.45-10.39,2.11-80.62,20.73-90.79,23.35-11.44,2.96-22.88,5.92-34.32,8.88Z"/><path d="m423.52,23c-9.9-6.73-19.94-13.31-29.85-20.03-1.22-.83-3.91,1.37-2.47,2.37,9.8,6.81,19.48,13.77,29.29,20.57,1.49,1.03,4.82-1.69,3.03-2.91Z"/><path d="m243.02,72.29s-.04-.09-.05-.14c-.09-.63.33-1.08.96-1.28.96-.32,1.96-.57,2.95-.81-9.66-6.56-19.43-12.97-29.1-19.52-1.22-.83-3.91,1.37-2.47,2.37,9.27,6.44,18.43,13.01,27.7,19.46,0-.02,0-.05.02-.07Z"/><path d="m213.55,80.21s.05-.08.09-.12c.51-.42,1.2-.39,1.79-.08.92.48,1.79,1.02,2.66,1.57-.32-10.4-.84-20.8-1.16-31.2-.04-1.32-3.79-1.92-3.77-.35.17,10.07.15,20.13.31,30.2.03,0,.05-.02.07-.03Z"/><path d="m393.27,28.69c.34.27.45.61.4.93.02.01.04.03.06.04,0-8.16-.08-16.32-.03-24.48,0-1.26-3.88-2.01-3.91-.51-.15,7.03-.41,14.05-.62,21.07,1.46.87,2.8,1.89,4.11,2.93Z"/><path d="m232.19,90.35c-5.4-3.6-10.81-7.2-16.18-10.85-1.22-.83-3.91,1.37-2.47,2.37,6.08,4.23,12.11,8.5,18.16,12.77.05-1.43.26-2.87.49-4.3Z"/><path d="m389.25,24.83s-.04-.02-.06-.03c.09,1.42.17,2.84.24,4.25,1.73,1.21,3.47,2.42,5.2,3.64,1.55-.41,3.1-.8,4.67-1.11-3.36-2.24-6.71-4.49-10.05-6.75Z"/></g></g></g></svg>