<?xml version="1.0" encoding="UTF-8"?><svg xmlns="http://www.w3.org/2000/svg" viewBox="0 0 940 799"><defs><style>.d{fill:#f1b3d1;}.e{fill:#fff;}</style></defs><g id="a"><path class="d" d="m489.63,437.24v65.66s-1.34,3.14-.75,4.65,0,0,0,0l1.33,2.58-.58,20.21s-29.56-34.05-37.52-37.02-28.27-2.15-25.01-6.5,14.78-12.08,14.78-12.08l20.32-12.85s15.05-10.22,20.18-15.51c5.13-5.29,7.25-9.12,7.25-9.12"/><path class="d" d="m259.28,379.8c6.22-16.31,12.67-32.05,20.82-47.51,8.19-15.53,16.21-32.25,28.92-44.67,11.65-11.39,26.19-18.66,39.61-27.61,14.95-9.97,28.6-21.83,43.92-31.27,6.16-3.8,12.74-7.3,19.59-9.7,6.3-2.21,12.01-1.91,18.48-.6,15.63,3.15,31.07,8.14,44.88,16.18,14.97,8.71,28.76,19.84,41.39,31.66,10.58,9.9,20.21,20.86,28.38,32.83,1.83-13.32,2.29-26.93,2.79-40.32.33-8.8,1.63-18.39,9.91-21.47v-.16c0-1.72,1.31-3.83,3.13-4.12,4.61-.71,9.8-4.14,12.74-7.76,2.58-3.18,5.09-5.47,8.41-8.03.21-.16.45-.42.71-.68.01-.07.03-.15.05-.24.27-1.14,1.61-2.62,2.23-3.65.14-.23.47-.92.73-1.4,0-.57.07-1.47.07-1.54,0-.78-.07-1.55-.07-2.33-.06-12.35,14.58-11.76,25.2-11.1-1.49-7.05.33-14.07,7.66-16.14.52-1.32,1.41-2.44,2.74-3.56.97-.81,1.66-1.5,2.93-1.81.05-.01.11-.02.16-.03-.16-2.23-.7-4.5.32-6.66,1.43-3.02,4.6-4.23,7.66-4.86,8.38-1.72,17.33-.52,25.73.32,9.89.99-59.38-134.07-286.38-143.07C196.14,13.53,56,117.5,29,263.5c-34.87,188.57,72.32,341.33,113,353,2.11-.97-9.56-20.41-5-34,3.2-9.54-11.1-4.89-6-16,8.51-18.52,19.04-60.09,29-80,3-6,29.76-6.12,32.13-6.28,28.02-28.83,52.77-62.71,67.15-100.42Z"/></g><g id="c"><path class="e" d="m138,570.5s-3.15,50.37,4.42,117.68,31.7,110.82,31.7,110.82l350.88,1.5,69.35-56.35,30.65-36.65,21.34-14.96,2.66-7.04,1.08-5.55,11-14.88,4.92-4.57-1-8,14.33-11.27,15.67-.73,12.69-5.98,5.01-.47,2.7-5.93,8.27-2.93,7.33-7.69,1.79-12.31,7.26-5.66,2.79-9.9-6.83-13.13-2.23-7.68-.25-3.87,10.15-7.81,7.13-7.48,4.2-7.15-1.24-3.66-13.38,1.23-4.37,3.42,1.51-27.33-1.76-28.93-12.97,2.39-8.88-5.84-12.4,7.74.59-8.52,5.52-11.84-42.03,27.1-44.07,31.43-32.17-12.63-63.06,66.83-27.29-41.4-31.51-36.16-18.95-12.43-25.77-5.86,13.5-11.29,22.73-14.27,19-15.61,11.67-11.76,2.77-4.89,2.56-13.74.76-4.2,8.85-8.6,4.45-8.07,1.95-5.14,6.99-7,4.36-5.72-3.6-3.05-1.72-1.87,7.34-5.9,12.61-15.69,7.65-11.59,4.45-19-1.64-11.64-5.77-11.81-49.42-48.31-34.25-21.69-32.76-11.31-40.9,17.38-42.36,28.18-33,28-29,36-19.74,50.07-14.74,32.92-25.52,42.01-27.87,29.72-26.42,5.67-5.71,4.61-9,23-11.23,31.66-11.77,21.34,10,4Z"/><g><path d="m812.67,492.32c-33.62-6.29-68.87-11.65-102.92-17.58-.75,1-1.46,2.03-2.13,3.08,13.66,2.5,27.32,5,40.98,7.46,20.59,3.71,43.47,8.27,64.07,11.97.03-.94-.04-3.99,0-4.93Z"/><path d="m699.06,472.86c-1.17-.21-2.35-.41-3.51-.62-41.68-7.59-83.35-15.19-125.04-22.73-23.32-4.21-57.47-10.46-80.84-14.37,0,.7-.02,1.41-.03,2.11,40.98,8.16,92.97,17.5,134.06,25.09,23.81,4.4,47.62,8.81,71.44,13.19,1.32-.87,2.61-1.79,3.93-2.67Z"/><path d="m695.54,455.77c-40.5-5.38-81-10.76-121.51-16.1.29-5.87.15-11.76.14-17.64,0-5.97-.02-11.93-.02-17.9-.01-11.94-.03-23.87-.04-35.81,0-3.35-.01-6.7-.04-10.05-.02-2.96,0-5.93-.25-8.88.71.11,1.46.54,2.09.72.94.27,1.93.3,2.9.24,1-.07,1.99-.24,2.99-.36.48-.06.96-.11,1.45-.13.57-.02,1.12.05,1.67-.09.44-.11,1.29-.98.66-1.36-.44-.27-1.05-.2-1.55-.19-.55.02-1.11.07-1.66.15-1.06.14-2.12.33-3.2.39-1.09.06-2.08-.06-3.12-.38-.83-.25-1.66-.4-2.46-.16-.25-.1-.75.23-.94.52-1.44-.48-3.08-.29-4.37.52-.37.14-.8.51-.82.79-.03.34-.05.67-.08,1.01-.43-.03-.86-.03-1.29-.02-.49,0-.97.02-1.46.03-.49,0-.97.02-1.46.03-.38,0-.75,0-1.12.06-.25-.56-1.41.07-1.43.67,0,.17,0,.34-.01.51-.64-.14-1.32-.14-1.96-.11-.8.03-1.58.14-2.36.31-.76.17-1.45.4-2.04.93-.45.42-.93,1.23-.39,1.77.1.1.23.13.36.13.15,10.56.56,21.11.69,31.67.14,10.7.14,21.41,0,32.12-.07,5.29-.16,10.57-.24,15.86-2.38-.12-4.77-.08-7.15-.07-2.46.01-5-.1-7.46.12-15.78-2.33-33.83-5.2-47.43-6.86,0,.52-.19,1.54-.19,2.05,14.43,2.1,298.99,42.54,320.23,45.32.09-.67-.15-3.27-.05-3.95-39.01-5.33-78.02-10.66-117.07-15.85Zm-148.28-19.68c2.47.02,4.93.05,7.4-.09,0,.37-.01.74-.02,1.11-2.34-.31-4.81-.65-7.38-1.02Zm8.7,1.19c.16-.16.27-.34.28-.53.79-21.39.67-42.84.14-64.23-.15-6.03-.32-12.07-.71-18.09,0-.1-.03-.17-.07-.24.37-.08.72-.15,1.12-.2.56-.06,1.12-.1,1.68-.1.61,0,1.22.07,1.83.05.11,0,.24-.05.37-.12-.27,10.39-.12,20.8-.11,31.19.01,11.05.03,22.1.03,33.15,0,6.21-.12,12.44.05,18.65.03,1.02,1.64.24,1.66-.51.28-11.04.03-22.12.04-33.17,0-11.05.05-22.11.02-33.16-.02-5.82.02-11.64-.15-17.46.14,0,.28,0,.42,0,.5,0,1,.02,1.49.03l1.44.03c.51,0,1.01.04,1.52-.03.09-.01.19-.04.28-.07-.28,4.93-.1,9.91-.12,14.84-.01,5.72-.02,11.44-.02,17.17v34.32c0,6.52-.14,13.06.13,19.57.01.25.11.39.26.46-3.86-.51-7.72-1.02-11.58-1.53Zm16.26-70.35c0,5.97,0,11.94-.01,17.91,0,11.94-.01,23.88-.03,35.83,0,6.25-.17,12.52.12,18.76-.6-.08-1.21-.16-1.81-.24-.88-.12-1.75-.23-2.63-.35.5-.06,1.14-.56,1.15-1.04.23-5.81.12-11.63.12-17.44,0-5.72,0-11.44,0-17.16,0-11.52.01-23.04-.02-34.56-.02-6.14.27-12.39-.26-18.51.07-.02.14-.04.22-.06.04-.01.08-.02.12-.03.01,0,.01,0,.03,0,.19-.03.37-.05.56-.06.1,0,.19,0,.29,0,.03,0,.07,0,.1,0,0,0,0,0,.03,0,.37.03.73.1,1.09.2.02,0,.27.09.17.05.09.03.18.07.27.11.18.08.35.17.51.27.06.03.12.03.19.05-.4,5.39-.2,10.87-.2,16.27Z"/><path d="m818.24,175.48c-.28-.93-1.46-.72-2.1-.36-17.53,9.82-35.06,19.64-52.57,29.49-17.44,9.82-34.86,19.68-52.29,29.53-17.51,9.89-35.03,19.77-52.55,29.64-17.44,9.83-34.88,19.66-52.32,29.5-17.53,9.89-35.12,19.68-52.53,29.79-1.41.82-2.83,1.62-4.25,2.42-.15,1-.33,1.98-.54,2.95,17.19-9.54,34.41-19.01,51.57-28.62,17.46-9.77,34.92-19.55,52.36-29.36,17.53-9.85,35.05-19.71,52.57-29.58,17.44-9.82,34.89-19.62,52.3-29.49,17.51-9.93,34.99-19.89,52.46-29.88,2.17-1.24,4.35-2.49,6.52-3.73.71-.41,1.64-1.38,1.36-2.3Z"/><path d="m813.55,198.24c-.36-.72-1.42-.61-2.01-.24-16.46,10.51-33.44,20.2-50.61,29.49-17.28,9.35-34.8,18.23-52.34,27.06-18.15,9.14-36.31,18.27-54.47,27.41-18.35,9.23-36.7,18.46-55.05,27.7-17.61,8.86-35.18,17.81-52.72,26.81-.51,1.09-1.08,2.16-1.71,3.22,16.2-7.96,32.37-15.95,48.53-24,18.38-9.15,36.72-18.38,55.08-27.58,18.26-9.15,36.52-18.3,54.79-27.44,17.56-8.8,35.11-17.62,52.44-26.86,17.34-9.24,34.42-18.94,51.01-29.49,2.07-1.32,4.13-2.64,6.18-3.98.6-.39,1.24-1.39.88-2.11Z"/><path d="m814.19,751.17c-8.09-6.32-69.41-53.29-136.52-104.7-.91.8-1.83,1.6-2.75,2.4,70.6,53.95,134.83,102.66,137.27,104.51.98.74,3.16-1.3,2-2.2Z"/><path d="m491.91,508.81c-.08-.07-.17-.11-.27-.14-.14-.19-.27-.39-.38-.59-.21-.39-.38-.94-.47-1.44-.02-.12-.04-.24-.05-.36,0-.03,0-.08,0-.1,0-.06,0-.13,0-.19,0-.11.02-.22.03-.33,7.02,6.3,29.88,24.36,60.37,48.04.64-.93,1.31-1.84,2.01-2.72-35.69-27.41-60.82-46.78-62.22-48.08-.69-.63-2.35.66-1.7,1.32.02.02.04.04.06.06-.54.98-.65,2.18-.41,3.27.13.6.41,1.18.77,1.67.13.17.28.33.43.47-.02.16,0,.31.12.43,4.16,4.21,26.01,22.72,56.51,48.17.8-.65,1.62-1.28,2.44-1.89-33.02-27.34-55.92-46.36-57.25-47.59Z"/><path d="m814.19,774.82c-8.49-6.64-75.45-61.77-146.15-120.14-.82.68-1.64,1.36-2.47,2.04,74.12,61.08,144.07,118.36,146.62,120.3.98.74,3.16-1.3,2-2.2Z"/></g><g><g><g><g><path d="m466.57,366.18c-2.38-.51-4.7.89-6.6,2.14-4.58,3.02-9.12,6.1-13.69,9.14-.59-.1-1.33.27-1.74.56-5.57,3.87-11.06,8.19-17.48,10.59-6.25,2.33-13.41,2.89-19.46-.31-12.17-6.44-14.62-21.69-12.21-34.06,1.38-7.06,4.6-13.96,8.99-19.64.96-1.24-.54-1.69-1.39-.77-9.83,10.49-14.71,26-11.28,40.16,1.63,6.69,5.42,12.89,11.25,16.69,6.23,4.07,14.03,4.24,21.02,2.29,8.31-2.32,15.52-7.54,22.1-12.93.19-.16.4-.37.58-.61.11-.04.23-.09.36-.17,3.76-2.41,7.52-4.82,11.28-7.23,1.59-1.02,3.32-2.49,5.17-2.97,1.3-.34,3.34.38,3.33,2.01,0,.77.7.95,1.34.78.76-.21,1.4-.89,1.53-1.66.36-2.04-1.22-3.57-3.11-3.98Z"/><path d="m547.73,304.56c-.59-1.37-3.17.25-2.68,1.41,3.83,9.13,3.02,19.29-.37,28.43-3.48,9.38-9.7,17.37-16.57,24.51-3.91,4.07-8.12,7.83-12.07,11.84-.48-.27-.94-.56-1.43-.81-.68-.36-1.37-.68-2.07-1,.71.29,1.43.51,2.27.49,1.18-.02,3.06-1.68,2.24-2.93-.01-.02-.03-.03-.04-.05,6.94-13.13,9.36-28.65,7.25-43.32-.62-4.31-1.58-8.51-3.28-12.52-.65-1.52-3.25.21-2.93,1.54,1.72,7.24,3.18,14.46,3.29,21.93.11,7.34-.85,14.74-2.86,21.8-.9,3.16-2.01,6.29-3.27,9.34-.47-.19-18.19-10.72-23.39-9.42-6.08,1.52-7.19,6.66-5.54,6.6,14.66-.52,23.67,5.36,24.85,5.9.09.04.17.08.26.12-6.3-2.71-13.17-4.04-20.03-3.84-3.97.11-7.96.79-11.68,2.18-.02-.02-.05-.05-.07-.07-1.49-1.64-3.04-3.23-4.8-4.59-1.75-1.35-3.72-2.33-5.87-2.84-2.37-.56-4.82-.79-7.21-1.23-.24-.04-.54.03-.85.19-.9-1.51-2.35-2.88-3.5-4.14-1.32-1.45-2.69-2.85-4.12-4.2-2.88-2.73-5.95-5.26-9.18-7.56-6.37-4.55-13.4-8.26-20.8-10.85-2.12-.74-4.27-1.41-6.45-1.98-2.37-.62-4.95-1.41-7.42-1.3-.65.03-2.23,1.39-1.2,1.94,1.82.98,4.16,1.21,6.14,1.75,1.9.51,3.78,1.09,5.64,1.74,3.64,1.28,7.19,2.79,10.62,4.54,6.94,3.55,13.37,8.05,19.07,13.36,1.56,1.46,3.07,2.97,4.51,4.55,1.49,1.62,2.79,3.61,4.48,5,.56.47,1.35.14,1.91-.43,2.88,1.44,6.3,1.43,9.15,3.04,1.4.79,2.63,1.82,3.77,2.95.59.58,1.15,1.19,1.7,1.81.26.29.52.58.77.88.16.18.32.36.48.55.02.03.05.06.07.08,0,.08,0,.17.03.25.56,1.66,2.71.46,3.4-.4.24-.3.44-.68.54-1.07,5.79-.9,11.56-1.25,17.41-.21,6.69,1.19,13.06,3.8,18.56,7.8.8.58,1.58,1.19,2.34,1.83.33.28.71.57.96.94.09.14.15.22.21.37.02.05.04.08.05.11-.24.64-1.41,1.41-1.94,1.79-.83.6-1.79,1.07-2.68,1.58-.61.35-1.35,1.01-1.38,1.79-.02.64.51,1.12,1.16,1.01,2.22-.38,4.14-1.52,5.82-3,1.44-1.27,3.74-3.4,3-5.57-.33-.99-1.23-1.65-2-2.29-.76-.63-1.55-1.23-2.35-1.81-.38-.27-.78-.52-1.17-.78,7.86-6.75,15.34-14.35,21.37-22.78,5.94-8.3,10.19-18.01,10.73-28.31.3-5.67-.6-11.41-2.86-16.62Z"/><path d="m511.01,390.5c-.92.04-1.75.82-2.09,1.62-2.31,5.46-5.3,10.63-9.49,14.86-4.28,4.33-9.77,7.7-15.77,8.96-5.74,1.2-11.7.16-16.43-3.38-2.1-1.57-3.93-3.73-5.01-6.13-.57-1.27-.92-2.6-1.13-3.96.02-.08.03-.16.04-.24.05-.26-.02-.45-.16-.59-.17-1.62-.14-3.27,0-4.9.32-3.92,1-7.86,1.95-11.68.48-1.95,1.06-3.86,1.67-5.77.29-.91.58-1.82.89-2.73.1-.3.52-1.94.85-2.01.47-.09.93-.35,1.13-.81.14-.31.15-.83-.32-.86-1.5-.12-2.74.93-3.43,2.2-.92,1.71-1.64,3.6-2.29,5.44-1.36,3.82-2.41,7.74-3.2,11.72-.8,4.08-1.34,8.4-.7,12.44-2.02,6.89-.48,14.69,3.37,20.63.5.78,1.11,1.56,1.23,2.51.06.5.06.17-.02.25-.18.2-.74.41-.97.52-1.77.88-3.69,1.51-5.63,1.9-4.13.81-7.99.12-12.1-.32-.9-.1-1.79.41-2.31,1.12-.39.53-.75,1.51.01,1.92,3.06,1.66,6.94,1.76,10.35,1.47,3.71-.31,7.37-1.36,10.67-3.06,1.54-.79,3.11-1.88,3.8-3.54.75-1.78.12-3.41-.86-4.95-1.88-2.94-3.34-5.89-4.1-9.32-.11-.51-.2-1.02-.28-1.54.2.26.39.52.61.77,4.36,5.01,10.96,7.35,17.5,7.03,5.2-.26,10.27-2.07,14.78-4.76-2.18,5.22-1.62,11.25-3.81,16.54-2.45,5.94-7.05,10.81-11.77,15.04-10.07,9.04-21.79,15.94-32.93,23.53-6.33,4.31-12.37,8.89-18,14.08-1.04.96,1.98,5.86,2.93,5,10.29-9.21,24.53-17.41,36-25,5.68-3.76,12.84-7.55,18-12,5.01-4.32,11.02-10.03,14-16,4-8,1.09-19.79,3-23,.22-.37-2.93-.86-3.04-1.22.43-.34.86-.69,1.28-1.05,5.9-5.05,10.93-11.75,12.8-19.38.19-.8-.18-1.38-1.04-1.34Z"/><path d="m471.2,348.8c-2.06-1.79-4.53-2.84-6.49-4.83-1.99-2.01-3.7-4.27-5.59-6.38-2.2-2.46-4.58-4.76-7.06-6.92-2.37-2.08-4.81-4.28-7.68-5.66-2.98-1.44-6.27-1.87-9.52-2.23-3.45-.38-6.92-.62-10.4-.74-3.41-.12-6.82-.13-10.23,0-3.55.14-6.97.77-10.49,1.17-1.36.15-3.12,2.88-.98,2.76,3.31-.18,6.69.12,10.01.19,3.18.07,6.36.29,9.53.61,3.23.33,6.45.78,9.65,1.36,3.07.55,6.08,1.16,8.72,2.91,5.07,3.36,9.14,8.54,12.94,13.2,1.64,2,3.24,4.05,5.1,5.86,1.94,1.88,4.42,4.15,7.21,4.48,1.66.2,3.35-.68,4.44-1.89.72-.8,1.95-2.91.83-3.88Z"/></g><path d="m494.72,382.98c-.79-.03-1.98.47-2.14,1.25-2.28,11.09-5.12,12.28-5.32,12.61-4.25-.67-9.12-1.52-13.8-7.9-.32-.39-.63-.79-.87-1.21-.48-.85-2.27.51-1.82,1.41.37.74.63,1.55,1.02,2.29.39.74.83,1.42,1.33,2.08,1.01,1.34,2.14,2.58,3.38,3.71,2.47,2.25,5.19,4.34,8.41,5.26,6.91,1.96,10.84,1.15,11.47.44.52-.58-2.22-2.51-3.04-3.04-.68-.45,0-6.08,2.25-15.54.17-.72-.11-1.33-.87-1.36Z"/><path d="m441.14,358.99c-.92-.18-1.91.54-2.37,1.27-1.17,1.82-2.39,3.6-3.36,5.54-.46.92-.93,1.85-1.39,2.77-.48.95-.57,2.21-1.4,2.87-.85.68-13.43-4.63-19.25-11.57-3.87-4.63-3.8-6.65-4.66-7.85-.99-1.39-3.17.82-3.06,1.97.16,1.57,1.09,3.27,1.78,4.68.68,1.38,1.49,2.7,2.39,3.95,1.87,2.63,4.14,4.91,6.69,6.89,4.9,3.81,11.51,6.84,17.82,6.87,1.06,0,6.93-.7,7.35-1.62.36-.79-4.39-2.12-5.45-2.29-.61-.1-1.21-.2-1.8-.29.11-.11.21-.23.29-.35,1.19-1.86,2.51-3.64,3.75-5.47,1.2-1.78,2.17-3.68,3.18-5.57.35-.66.43-1.6-.49-1.78Z"/><path d="m441.82,424.44c-1.72-2.98-4.93-5.02-8.24-5.76-1.24-.28-2.43.89-2.9,1.88-.45.95-.47,2.11.15,3,.35.49,1.2.39,1.75.44.52.05,1.03.24,1.53.37.36.1.76-.07,1.09-.31.18.13.37.27.54.41.29.26.58.54.85.82-.17.36-.26.81.02,1.09.63.66,1.43.99,2.28,1.26.39.12.89-.05,1.24-.19.45-.19.91-.48,1.23-.86.52-.61.9-1.4.46-2.16Z"/><path d="m425.42,417.7s0-.02-.02-.05c-.04-.11-.09-.21-.13-.32-.07-.19-.13-.38-.17-.57-.05-.22-.1-.45-.12-.67,0-.03,0-.12-.01-.15,0-.09,0-.18,0-.27,0-.2.01-.4.03-.6.01-.11.03-.23.05-.34,0-.04.02-.09.02-.13.05-.19.1-.38.17-.57.04-.11.08-.21.12-.32.01-.02.02-.05.03-.07,0-.01,0,0,.01-.02.13-.25.27-.55.18-.84-.07-.25-.3-.44-.55-.47-.66-.09-1.45.37-1.76.94-1.07,1.98-1.12,4.29,0,6.27.12.22.5.27.71.25.32-.02.7-.19.95-.4.47-.38.88-.97.56-1.57-.02-.04-.04-.07-.06-.11Z"/><path d="m450.83,452.13c-4.81-.76-9.53-1.62-14.12-3.32-4.58-1.7-8.95-3.95-13.09-6.52-7.58-4.71-32.99-27.79-37.73-31.32-.73-.54-2.44.89-1.8,1.67,1.61,1.95,3.45,3.74,5.28,5.5,3.32,10.8,7.64,21.71,13.46,31.42,2.45,4.09,5.62,7.92,9.99,10.02,3.81,1.83,8.19,2.45,12.37,1.91,4.85-.64,9.5-2.77,12.93-6.29.45-.46.79-1.39.12-1.81-.71-.45-1.65.22-2.14.68-5.7,5.33-14.69,6.25-21.54,2.62-4.08-2.16-6.95-5.85-9.26-9.75-2.6-4.39-4.8-9.05-6.86-13.71-1.52-3.43-2.92-6.91-4.25-10.42.75.73,1.51,1.47,2.26,2.2,1.42,1.36,10.04,9.2,11.26,10.24,2,1.69,4.04,3.33,6.14,4.91.27,1.97,1.14,3.9,2.44,5.4,1.35,1.56,3.24,2.91,5.29,3.33.68.14,1.43-.37,1.82-.88.22-.29.5-.95.24-1.32,3.07,1.77,6.24,3.35,9.56,4.65,5.17,2.02,10.71,3.52,16.29,3.56,1.13,0,3.13-2.48,1.34-2.76Zm-30.02-6.83c-.74-.46-1.27-.91-1.84-1.52,1.35.89,2.71,1.77,4.1,2.58-.74-.27-1.5-.58-2.26-1.06Z"/></g><path d="m546.19,295.95c-.35-.49-.82-.74-1.35-.85-1.58-4.12-4.1-8.25-6.84-11.6-2.96-3.61-6.81-8.59-10-12-6.26-6.69-10.14-9.93-17-16-13.82-12.22-27.53-24.69-44-33-21.47-10.84-35-11.76-40-13-1.51-.37-3.95,6.64-2.35,7.92,1.71,1.36,22.31,5.22,54.27,26.28,15.11,9.95,28.1,22.83,40.53,35.97,3.52,3.73,6.9,7.57,10.28,11.43,3.16,3.6,6.11,7.97,10,10.85,4.11,5.81,8.1,11.87,7.9,19.28-.18,6.84-2.36,13.76-5.3,19.89-5.79,12.08-15.19,19.94-24.13,29.46-1.06,1.13-1.04,2.34-.41,3.02,0,.03,0,.06,0,.09-.03.44.02.86.22,1.23.87,1.68,1.81,3.26,2.69,4.9.15.64-.4.79-1.83,1.75-1.23.84-2.37,1.76-3.41,2.83-.27.28-.64.72-1.01,1.16-1.02.74-2.05,1.49-3.07,2.23-1.11.81-2.52,2.81-1.47,4.16,0,.01.02.02.03.03-.25.41-.42.83-.47,1.25-.99,7.73-9.06,14.03-13.84,19.65-3.12,3.66,1.57,4.88,4.19,2.33,7-6.8,15.78-14.01,17.12-24.28.05-.4.02-.71-.05-.98,3.46-2.32,6.76-4.9,9.96-7.55,1.1-.92,2.14-2.26,1.86-3.78-.53-2.84-1.8-5.52-3.72-7.64,10.63-7.48,19.47-19.37,24.73-30.72,3.17-6.84,5.6-14.72,5.59-22.33-.02-8.45-4.4-15.29-9.12-21.96Z"/><path d="m532.05,304.4c-.4-1.38-2.09-1.02-3.04-.58-8.91,4.15-18.09,6.73-27.86,7.92-10.15,1.24-20.42,1.34-30.63,1.28-22.15-.12-44.24-1.72-66.37-2.49-5.98-.21-11.98-.46-17.96-.35-4.9.09-9.94.5-14.68,1.88-2.6.51-5.24,1.83-5.84,2.92-11.08,9.27-20.22,20.53-26.62,33.53-7.47,15.19-9.33,31.12-12.15,47.58-3.26,19.08-11.71,34.06-25.58,47.47-13.92,13.46-36.89,27.73-48.85,31.84-2.59.04-5.2-.48-7.87-1.34-.08-.03-.16-.05-.23-.07,6.35-5.29,17.22-18.25,27.99-30.47,19.84-22.49,21.87-75.44,25.6-91.4,3.68-15.76,8.3-31.39,15.15-46.09,3.58-7.68,7.9-15.16,13.09-21.87,5.31-6.85,19.43-20.61,18.1-20.14.92-.85,1.85-1.68,2.78-2.51,10.32-7.15,50.16-33.14,55.24-35.3,7.47-3.18,15.2-5.63,22.85-8.34.96-.34,5.78-3.26,5.82-4.38.05-1.14-3.13-4.19-4-4-7.23,1.61-16.17,3.16-23,6-6.83,2.85-15.52,8.42-22,12-8.85,4.89-17.98,7.84-26,14-8.85,5.62-17.59,10.73-26,17-16.06,11.97-29.93,25.96-42,42-12.76,16.97-21.52,39.27-29,59-7.5,19.78-16.64,40.48-27,59-10.17,18.17-42.84,54.67-45,56-.32.19-9.36,1.99-16.03,2.92-5.22.73-10.29,2.22-13.76,6.46-3.21,3.92-4.72,8.95-6.51,13.61-4.16,10.88-9.31,24.76-13.43,35.65-2.29,6.04-4.56,12.09-6.78,18.16-1.96,5.36-7.73,10.2-9.03,15.8-1.74,2.02.36,5.3,1.26,8.08,3.3,10.16,15.1,13.07,14.9,11.68-.76-5.2-2.36-20.84,1.82-19.78,6.04,1.52,10.19,7.2,13.98,11.73,9.49,11.31,18.84,22.51,29.81,32.38,28.84,25.96,47.57,32.02,61.55,38.86,2.13,3.04,4.34,6.02,6.56,8.99-.43.43-.71.98-.58,1.47,3.21,12.42,3.33,25.19,4.28,37.9.96,12.93,2.42,25.82,4.44,38.63,1.16,7.36,7.13,42.04,8.68,49.33.45,2.11,4.39-.23,4.01-2.1-2.56-12.81-9.23-53.08-10.87-66.04-1.62-12.82-2.4-25.67-3.42-38.54-.22-2.74-.49-5.49-.89-8.21,4.49-1.77,8.72-4.09,12.56-7.05,1.8-1.39,3.27-2.82,3.58-5.17.36-2.75-.58-5.72-1.28-8.35-1.91-7.13-4.89-13.91-7.38-20.85.21-.18.37-.39.41-.6,4.12-26.19,2.99-52.95-3.51-78.67-1.85-7.3-2.42-10.11-5.16-17.13-.48-1.23-4.54-4.17-4.14-3.11,9.28,24.69,13.85,50.98,13.01,77.36-.21,6.46-.73,12.93-1.58,19.35-.91-2.75-1.72-5.54-2.32-8.39-2.45-11.74-1.46-23.87-3.39-35.68-1.89-11.53-6.68-22.48-11.16-33.19-4.58-10.95-8.12-18.19-16.26-26.98-1.01-1.09-5.37-2.64-4.4-1.59,7,7.52,11.87,16.58,15.94,25.94,4.28,9.84,8.66,19.96,11.46,30.33,2.95,10.96,2.47,22.23,3.36,33.44.44,5.44,1.33,10.78,2.9,16.01,1.49,4.97,3.44,9.79,5.27,14.64,2.07,5.49,3.81,11,4.96,16.76.18.92.49,1.84.02,2.77-.39.77-1.44,1.39-2.11,1.9-1.06.83-2.16,1.62-3.28,2.35-2.46,1.61-5.08,3-7.77,4.18-.31-1.85-.67-3.69-1.14-5.51.82.27,1.91-.01,2.57-.38,2.69-1.52,5.14-4.27,5.54-7.44.07-.55-.22-1.18-.71-1.45-1.32-.72-2.53-1.69-3.79-2.52-1.31-.86-67.04-34.34-88.8-61.79-5.07-6.4-10.62-12.4-16.01-18.53-4.06-4.62-9.58-9.72-16.23-9.07-1.51.15-3.07.58-4.54,1.24,1.57-3.39,2.92-6.9,4.33-10.31,2.15-5.24,4.3-10.48,6.4-15.74,4.13-10.38,8.27-20.76,12.36-31.15,1.91-4.84,3.66-9.78,5.78-14.54.71-1.59,1.6-3.33,2.98-4.45,1.5-1.2,3.59-1.58,5.44-1.87,10.78-1.68,30.41-4.34,41.24-5.78,5.98-.8,1.52-4.56,3.04-4.56,6.08,0,16.83-2.04,24.91.6,1.67.51,3.31,1.14,4.98,1.62,2.36.68,4.78.9,7.15.7.31.09,5.63-2.21,8.82-3.43,27.31-12.52,55.44-33.35,66.46-61.58,6.62-16.97,5.98-35.69,11.55-52.95,1.31-4.06,2.9-8.02,4.74-11.85,0,.1,0,.19,0,.29.09,2.48.35,5.01,1.26,7.34.78,2,1.99,3.78,3.69,5.1,1.64,1.27,4.3,2.27,5.94.48.37-.41.51-1.43-.35-1.27-1.72.32-3.42-.9-4.57-2.1-1.37-1.42-2.24-3.18-2.77-5.07-.84-3.01-.99-6.17-.88-9.31,1.38-2.53,2.86-5.01,4.46-7.41.18-.6.48-1.22.91-1.84,2.6-3.75,5.71-7.48,9.13-11,.33,1.13.47,2.32.51,3.52-3.63,1.76-6.48,4.91-8.23,8.53-.92,1.91-1.58,3.99-1.8,6.11-.21,2.03-.36,4.81,1.25,6.33.98.93,3.19-.72,2.46-1.91-.89-1.46-.71-3.76-.52-5.4.2-1.76.65-3.45,1.37-5.07,1.2-2.69,3.14-4.86,5.46-6.6-.03.91-.1,1.82-.16,2.7-.25,3.58-.6,7.12-1.6,10.58-.51,1.78,2.13.92,2.53-.22,1.28-3.71,1.49-7.66,1.69-11.55.15-3.06.25-6.16-1.04-8.94,1.92-1.86,3.91-3.65,5.97-5.32.07-.13.14-.25.21-.38.19-.17.38-.34.58-.5.4-.34.67-.7.84-1.04,4.4-.72,8.79-1.18,13.27-1.24,5.43-.08,10.86.24,16.28.52,11.13.57,22.25,1.21,33.38,1.8,11.1.6,22.2,1.11,33.32,1.27,10.48.16,21.02.16,31.46-.92,10.96-1.14,22.48-3.41,32.2-8.83,1.04-.58,2.43-1.9,2.04-3.25Zm-324.5,168.45c-1.72.23-3.02,3.49-4.74,3.72-1.84.24-3.69.48-5.53.73,14.82-13.78,27.82-29.27,38.68-46.37,11.4-17.95,19.68-37.29,27.28-57.09,7.57-19.71,14.96-39.75,26.61-57.5,6.59-10.04,14.44-19.12,23.07-27.43-6.69,7.63-11.9,16.44-16.18,25.7-6.28,13.59-10.93,27.92-15.53,42.14-9.18,28.36-17.73,57.29-33.06,83.09-7.6,12.78-15.69,21.7-26.92,31.49-4.03.55-9.65.98-13.68,1.52Zm17.38-2.1c19.32-17.19,30.96-37.17,40.76-60.88,11.88-28.76,19.12-59.2,31.03-87.94,5.86-14.13,13.32-28.24,24.84-38.59.47-.42,1.18-1.25.68-1.91-.18-.24-.46-.32-.75-.32,2.68-2.31,5.41-4.56,8.18-6.74,1.3-1.03-13.86,17.48-17.75,24.27-8.09,14.14-13.47,29.64-17.64,45.34-8.43,31.78-7.15,67.39-24.82,95.41-13.85,21.96-22.01,26.46-28.47,31.94-3.04-1.52-10.22-1.35-16.06-.58Z"/><path d="m174.06,786.62c-8.9-33.55-18.55-66.58-24.44-100.87-2.89-16.82-5.12-33.74-6.84-50.72-1.76-17.34-.64-51.45-2.01-68.81-.22-2.79-7.45.24-7.53,2.3-1.3,34.13,1.63,86.06,7.19,119.66,5.65,34.19,16.92,69.25,29.64,101.58,1.23,3.12,4.71-.44,3.99-3.14Z"/><path d="m322.43,616.13c-6.57-23.38-14.86-47.48-26.83-69.23-.23-.33-.43-.68-.6-1.04-7.06-12.66-15.38-24.51-25.36-34.9-13.63-14.19-35.92-27.72-54.53-34.12-1.65-.57-4.36,2.67-2.12,3.44,47.18,16.21,79.47,67.01,95.01,111.24,8.73,24.87,17,51.29,15.83,77.95-1.08,24.69-13.42,86.75-7.06,111.5.65,2.52,5.26-.31,4.78-2.51-4.73-21.25,4.35-80.14,7.08-101.1,2.69-20.63-.61-41.35-6.2-61.24Z"/><path d="m556.3,689.68c-21.83.67-56.84-4.13-77.97-9.72-2.98-.79-5.93-1.7-8.91-2.52-1.5-.41-2.99-.84-4.48-1.29-1.59-.48-3.21-1.2-4.88-1.26-.84-.03-3.42,1.39-2.28,2.5,1.81,1.76,4.95,2.52,7.27,3.43,2.52.99,5.06,1.84,7.65,2.64,5.36,1.65,10.79,3.1,16.29,4.24,11.01,2.29,44.83,15.48,52.72,12.53,1.14-.43,15.66-7.5,16.04-8.67.36-1.13-.29-1.9-1.44-1.87Z"/><path d="m571.19,725.81c-15.49-.74-31.51-4.12-45.71-10.45-1.18-.53-3.41,1.67-2.08,2.29,7.27,3.37,14.58,6.27,22.38,8.17,7.84,1.91,15.8,2.9,23.86,3.17,1.41.05,3.49-3.09,1.54-3.18Z"/><path d="m502.24,693.08c-.19-1.21-2.09-.06-2.38.48-.65,1.2-1.34,2-1.63,3.36-.31,1.46-.6,2.92-.88,4.39-.51,2.72-.94,5.45-1.31,8.19-.74,5.47-1.24,10.98-1.48,16.5-.24,5.41-.24,10.83,0,16.24.12,2.6.44,5.21.45,7.81,0,2.51-.83,3.74-2.83,5.14-5.03,3.52-33.8,23.2-95.03,24.67-14.03.34-34.19.27-48.22.25-6.08-26.04.51-49.83,3.14-73,2.26-20.01,2.18-40.24-.13-60.23-4.66-40.34-18.97-80.1-42.38-113.39-4.89-6.95-10.16-13.45-15.8-19.58,17.19,10.75,34.75,21.08,53.8,28.15,10.37,3.85,21.29,6.98,32.33,8.07,9.11.9,20.13-1.13,23.25-11.13,3.68-11.76-5.69-21.9-14.22-28.53-.67-.52-1.92.11-2.61.93-.12-.8-.22-1.61-.28-2.41-.6-8.56,2.21-16.95,5.32-24.93,2.51,2.47,8.1,7.27,8.39,7.43,4.9,2.71,10.19,3.2,15.6,1.72,2.76-.75,5.35-2.06,7.69-3.7,2.18-1.53,6.02-3.66,6.74-6.33.43-1.6-.4-.76-1.32,0-5.26,4.35-11.99,6.27-13.23,6.61-5.53,1.53-9.26,0-13.23-2.65-4.76-2.23-27.38-32.59-31.28-38.87-7.08-11.39-16.76-30-18.76-33.88-2.06-3.99-4.45-8-5.63-12.36-1.49-5.53.28-10.74,1.72-16.07.71-2.61,1.41-5.22,2.1-7.84.71-2.69,1.58-5.38,1.97-8.13.1-.68-.6-.85-1.11-.78-.71.1-1.3.69-1.57,1.32-2.13,4.82-3.45,10.11-5.05,15.14-1.51,4.75-4.52,14.83-4.66,19.91-.99,35.47,38.73,83.88,42.37,87.69-1.97,3.94-.99,11.82-.44,18.02s2.72,12.91,7.18,17.43c5.23,3.4,7.87,2.08,6.93.21-4.69-3.78-7.67-9.28-9-15.13,6.48,6.34,14.29,13.17,13.19,23.16-.48,4.3-3.04,7.64-7.17,8.98-4.14,1.35-8.69,1.1-12.95.54-21.08-2.74-40.85-11.16-59.51-21.01-10.64-5.62-21-11.76-31.35-17.89-.34-.2-.78-.12-1.2.11-8.05-8.02-26.8-23.46-36.14-30.29-1.45-1.06-6.37.39-4.56,1.52,73.43,45.83,112.67,149.26,100.33,235.63-3.04,21.28-6.08,44.09-3.04,65.37-15.54,0-24.83.34-40.34,1.34-17.29,1.11-34.51,3.31-51.34,7.46-1.55.38-2.45,3.09-.21,2.62,30.52-6.51,61.87-7.22,92.96-7.16,30.88.07,51.9,1.64,82.55-2.74,31.92-4.56,57.13-17.07,56.93-17.18,2.71-1.71,5.38-3.46,8.05-5.24,2.09-1.4,4.24-2.86,5.58-5.06,1.37-2.23,1.46-4.75,1.27-7.29-.87-11.61-.88-23.21.36-34.8.34-3.16.76-6.31,1.26-9.45.26-1.67.54-3.34.85-5,.13-.72.34-1.45.41-2.18.09-.88-.32-1.35-.45-2.18Z"/><path d="m730.14,500.49c-.95,14.94-1.9,29.88-2.85,44.81-.1,1.65,2.68.41,2.76-.85l2.73-44.78c.1-1.59-2.57-.39-2.64.81Z"/><g><path d="m738.72,518.24c-.24-10.33-.98-20.85-2.96-31-.28-1.45-2.25-.55-3.12.66-.03-.2-.12-.39-.3-.54-.33-.28-.72-.29-1.13-.3-1.19-.03-2.38.24-3.54.47-.59.12-1.19.25-1.78.35-.46.08-.86.23-1.24.52-.14.11-.29.25-.42.41-2.51-1.93-5.09-3.79-7.61-5.71.34-.45.56-.99.29-1.5-.41-.78-1.39-.54-2.04-.24-.1.05-.2.1-.3.15-.01,0-.02-.02-.03-.03-.73-.58-2.14.45-2.3,1.38-.41.26-.83.52-1.24.77-1.34.8-2.7,1.56-4.08,2.29-1.5.79-3.03,1.52-4.57,2.25.32-1.15.66-2.31,1.05-3.45,1.96-5.81,4.71-11.3,8.21-16.34.42-.61.31-1.42-.45-1.62-.84-.22-1.74.55-2.17,1.16-4.71,6.66-8.11,14.13-10.24,21.96-.04.02-.09.04-.13.06-.63.31-1.38,1.09-1.28,1.85.06.46.38.68.75.74-3.07,13.21-2.52,27.29,1.78,40.16,2.03,6.08,4.97,11.79,8.84,16.9.14.18.31.29.51.35-.66.21-1.27.75-1.5,1.38-1.17,3.2.27,6.21,1.26,9.23.36,1.1.62,2.27.68,3.43.01.28.02.56,0,.84,0,.14-.02.27-.04.41,0,.01-.03.17-.03.19-.07.26-.19.51-.19.52-.01.02-.09.13-.13.19-.06.06-.27.27-.26.26-.51.49-.93,1.56-.28,2.1.67.55,1.77.15,2.36-.34.17-.14.3-.29.45-.44.02.12.03.25.07.37.27.91,1.03,1.62,1.84,2.07.6.34,1.43-.08,1.87-.5.09-.09.21-.21.31-.36.56,1.34,1.35,2.6,2.11,3.85,1.14,1.88,2.63,3.92,4.6,5,2.16,1.18,4.72.46,5.96-1.69,1.08-1.87.92-4.26.58-6.31-.43-2.57-1.48-5.02-3.09-7.06-.77-.97-2.93.71-2.24,1.74,1.05,1.58,1.88,3.31,2.37,5.14.44,1.66.75,3.57.41,5.28-.05.25-.12.51-.23.74-.03.05-.2.33-.15.26-.01.02-.02.03-.03.04-.74.21-1.55-.25-2.15-.65-1.55-1.04-2.65-2.63-3.69-4.14-1.21-1.75-2.63-3.61-3.27-5.66-.23-.74-1.16-.32-1.61.28,0-.01,0-.03,0-.04.03-.8.22-1.13.66-1.76-.09.14.11-.1.24-.26.02,0,.04-.02.06-.03.03-.01.07-.02.12-.04.67-.28.81-.34.44-.18.07-.03.15-.05.22-.08.31-.08.61-.18.92-.26.1-.02.14-.04.17-.04.02,0,.06,0,.17-.02.61-.08,1.21-.16,1.82-.21,2.41-.21,4.71-.46,6.95-1.46,1.2-.54,2.34-1.35,3.25-2.3.85-.89,2.37-2.85,1.25-4.08-.83-.91-2.13-.28-2.96.26-.25.15-.48.35-.67.58-.09.08-.18.17-.31.29-.2.24-.39.49-.57.74-.03.05-.07.1-.1.15-.02.02-.03.03-.05.05-.03.03-.04.04-.06.06-.05.04-.1.07-.14.11-.11.06-.22.12-.34.18-.1.05-.21.1-.31.15-.47.16-.93.32-1.41.43-.08.02-.16.04-.24.06-.03,0-.09.02-.16.03-.31.04-.63.09-.94.13-.58.07-1.16.14-1.74.21-1.33.17-2.7.38-3.98.82-1.35.47-2.69,1.25-3.76,2.29-.05-.67-.17-1.34-.39-2-.47-1.42-1.23-2.72-1.85-4.08-.65-1.45-1.32-3.14-.89-4.74.15-.54-.04-1.01-.48-1.17,1.12-.36,2.26-1.71,1.65-2.66-10.6-16.49-14.52-36.69-10.22-55.73,2.09-.83,4.12-1.8,6.12-2.82,1.39-.7,2.75-1.44,4.1-2.22.34-.19.68-.4,1.03-.6.16,10.77,1.23,21.61,2.06,32.34.84,10.92,1.74,21.83,3.06,32.71.14,1.12,2.35-.04,2.28-.95-.85-10.95-1.9-21.88-2.8-32.82-.46-5.55-.88-11.09-1.3-16.64-.34-4.51-.57-9.04-.98-13.54.28-.08.56-.26.75-.5,3.88,3.39,7.69,6.89,11.91,9.84.62.43,1.63-.14,2.08-.55.38-.36,1.1-1.34.54-1.86-1.25-1.17-2.55-2.26-3.88-3.34.44-.06.89-.12,1.33-.18.06.15.16.29.33.37.33.17.73.15,1.08.04.84-.28,1.72-.55,2.44-1.09.21-.16.41-.35.57-.57,1.11,10.35,2.12,20.63,2.24,31.05.12,10.28-.49,20.56-1.48,30.78-.11,1.11,1.08,1.35,1.92,1.11,1.05-.29,2.05-1.28,2.2-2.38,1.4-10.43,1.84-20.95,1.6-31.47Z"/><path d="m727.8,556.2s0,0,0,0c.35-.32.36-.33,0,0Z"/></g><path d="m723.33,494.44c-.02-1.1-1.81-.27-1.81.56.09,19.38-.03,38.77.45,58.14.03,1.25,2.04.3,2.05-.63.09-19.35-.4-38.72-.69-58.07Z"/><path d="m758.7,533.31c-4.68-1.84-10.37.52-15.06,2.31,1.03-8.58-.1-17.67-.59-26.22-.24-4.11-.47-8.23-.83-12.33-.3-3.39-.17-7.29-1.72-10.38.08-.19.17-.37.22-.57.52-1.88-.43-3.98-2.75-3.55-3.06.56-7.69,2.24-10.72,1.71-3.04-.54-6.95-4.67-9.4-6.52-1.14-.86-2.99-.13-4.09.36-1.79.8-3.59,1.52-5.42,2.18,1.59-3.66,3.64-7,6.28-10.23,2.95-3.61.46-7.73-4.03-5.21-16.31,9.18-32.27,19-47.73,29.54-7.67,5.22-15.22,10.61-22.65,16.17-6.1,4.56-12.54,9.02-17.97,14.42-6.59-2.81-13.43-5.16-20.24-7.38-4.64-1.51-11.46-5.02-16.32-2.75-4.85,2.26-8.94,8.56-12.53,12.4-5.03,5.38-10.01,10.81-14.95,16.28-9.45,10.47-18.55,21.3-27.83,31.93-.5.58-1.01,1.15-1.51,1.72-3.75-7.04-14.8-24.93-16.86-27.67-4.66-6.16-11.14-14-16-20-9.47-11.69-19.83-25.04-32-34-3.27-2.41-6.34-3.2-9.89-5.18-3.71-2.08-20.85-5.49-25.01-6.5-1.57-.38-7.15,4.93-4.88,6.3,3.12,1.89,19.78,4.56,22.96,6.38,3.03,1.73,5.96,3.63,8.79,5.67,5.95,4.28,11.44,9.18,16.59,14.39,10.42,10.56,19.49,22.37,28.49,34.14,2.59,3.38,5.16,6.78,7.54,10.31,2.24,3.32,10.97,17.27,14.4,22.85-5.78,6.57-11.51,13.16-16.9,20.05-4.68,4.7-9.38,9.38-14.11,14.03-.83.82-1.68,1.62-2.51,2.44,0-.31-.06-.62-.23-.91-2.64-4.36-5.6-8.53-8.59-12.69,10.51-6.42,15.78-8.95,21.82-19.91,1.68-3.04.56-9.07-.64-6.99-5.68,9.84-13.5,18.22-22.95,24.44-.21-.29-2.38-3.81-5.35-8.63,1.94-4.39,2.68-9.21,3.01-13.98.43-6.16.47-12.35.19-18.51-.56-12.25-1.13-20.81-4.66-32.57-.4-1.33-3.28-1.13-3.04,0,2.55,11.77,3.9,21.14,4.51,33.18.48,9.59.91,19.97-1.52,29.43-.93-1.5-1.91-3.09-2.91-4.71.22-9.52-1.79-19.39-4.68-28.33-3.24-10.02-5.59-18.22-12.12-26.52-.79-1-5.48-.88-4.78.18,5.88,8.82,10.78,18.08,14.06,28.2,1.6,4.94,2.85,10.02,3.7,15.14.36,2.16.61,4.33.82,6.5-4.21-6.8-8.37-13.46-10.55-16.76-1.07-1.62-4.57.95-3.97,2.55,3.54,9.44,9.08,18.46,14.38,27,2.36,3.81,15.14,22.52,18.91,26.37.42.43.97.56,1.55.49-2.7,2.62-5.38,5.26-8.1,7.86-2.25,2.15-4.5,4.31-6.73,6.48-2.36,2.29-4.88,4.47-6.98,7-.57.69-.46,1.22-.07,1.45.03.86.06,1.64.23,2.5.16.78.32,1.56.48,2.34.36,1.75.76,3.48,1.16,5.22.49,2.14.97,4.28,1.53,6.4-3.63,3.26-7.37,6.47-10.72,10.01-.5.53-.95,1.54-.29,2.12.68.6,1.77.1,2.38-.34,4.07-2.96,7.84-6.38,11.66-9.64.47-.4.94-.81,1.41-1.22.32-.17.64-.36.98-.6,1.33-.98,2.57-2.07,3.83-3.14,2.28-1.93,4.56-3.87,6.83-5.81,4.62-3.96,9.23-7.94,13.76-11.99,9.11-8.14,18.11-16.41,27.01-24.78,17.67-16.65,34.87-33.79,51.6-51.38,9.39-9.87,18.62-19.89,27.71-30.03.64.61,1.3,1.18,2.1,1.71,1.41.93,2.87,1.75,4.37,2.52,2.83,1.46,5.74,2.76,8.69,3.98,6.22,2.58,12.59,4.77,18.92,7.05,13.36,4.81,26.74,9.57,40.12,14.32,7.61,2.7,15.26,5.67,23.15,7.43.08.02.16.02.25.02-.47.45-.87,1.02-.84,1.6.33,5.72.89,11.4,1.88,17.05.49,2.78,1.05,5.55,1.67,8.3.65,2.86,1.56,5.63,2.27,8.47.34,1.37,2.88-.16,2.6-1.36-1.28-5.46-1.96-11.22-2.61-16.79-.25-2.08-.46-4.16-.66-6.25.86,1.91,1.92,3.72,3.38,5.28,1.37,1.46,3.3,3.21,5.47,2.72,2.45-.55,3.53-3.24,3.87-5.48.01-.08.01-.16.02-.24.64,1.03,1.32,2.05,2.04,3.07,4.37,6.15,9.33,12.3,9.69,19.92-.59,2.37-.72,4.89-1.26,7.28-.89,1.87-2.28,3.44-4.33,4.39-.76.35-1.3,1.26-1.35,1.98-.04,0-.07,0-.11,0-.14.03-.28.06-.43.08-.32.1-.61.25-.87.46-.04.03-.08.06-.13.09-.07.04-.13.07-.21.12-.3.19-.36.24-.66.54-.02.02-.04.04-.06.06-.08.08-.16.16-.24.25l-.49.49c-.06.06-.09.15-.14.22-1.29.31-2.63,1.07-3.23,1.8-.06.07-.11.14-.17.21.33-2.57-.17-5.32-1.31-7.81-2.58-5.61-7.94-8.83-11.86-13.39-.98-1.14-1.91-2.38-2.58-3.73-.7-1.42-.97-3.02-1.76-4.4-1.47-2.57-4.58-2.94-7.19-2.11-3.06.97-5.53,3.46-6.45,6.53-1.03,3.42-.16,6.91.85,10.22,2.46,8.06,6.5,15.23,10.93,22.35.66,1.07,3.04-.7,2.34-1.81-3.29-5.29-5.48-11.21-7.24-17.16-.31-1.06-.62-2.13-.91-3.2.42.76.9,1.48,1.46,2.15,1.79,2.12,4.58,3.85,7.45,3.4,1.91-.3,4.09-2.01,4.39-4.01,1.68,1.48,3.31,3,4.66,4.79,2.32,3.08,5.25,9.91,1.35,12.94-.51.39-1.14,1.18-1.1,1.91-4.76,1.91-9.57,3.6-14.67,4.36-4.31.64-8.56.55-12.86.45,3.13-2.91,6.19-5.88,9.15-8.98,1.89-1.98-.56-3.7-2.41-2.05-9.49,8.51-18.75,17.26-28.49,25.5-9.74,8.24-19.61,16.3-29.86,23.89-5.14,3.81-10.31,7.52-15.6,11.09-.16-.02-.33-.05-.53-.05-1.07,0-2.19.8-2.93,1.78-2.45.27-4.9.83-7.31,1.26-1.42.25-2.84.52-4.26.81-.73.15-1.46.28-2.18.5-.38.12-.73.26-1.1.41-.43.16-.83.23-1.28.3-.71.11-1.46.6-1.69,1.31-.05.15-.06.29-.04.43-.16-.04-.31-.08-.47-.12,1.2-1.28,2.34-2.62,3.53-3.87,1.99-2.1,4.01-4.17,6.06-6.22,4-3.98,8.1-7.87,12.32-11.63,8.57-7.64,17.59-14.78,26.95-21.42,5.35-3.79,10.92-7.25,16.31-10.96.55-.38.79-.91.77-1.36,1.17-2.37,1.22-6.89.8-8.74-.46-2.08-1.91-3.55-3.59-4.58-.5-.31-1.17,0-1.61.34-.19-.34-.62-.57-1.39-.57-4.27,0-8.8,1.38-12.86,2.63-4.07,1.25-8.05,2.82-11.88,4.66-7.95,3.82-15.2,8.92-21.59,14.99-6.83,6.49-12.77,13.83-19.88,20.04-6.84,5.98-14.26,11.19-21.85,16.16-8.61,5.64-17.48,10.96-26.49,15.94-1.41.78-1.27,2.98.52,2,7.95-4.35,16.06-8.41,23.88-13.01,7.67-4.51,15.1-9.46,22.08-15,7.24-5.76,13.54-12.31,19.88-19.01,6.09-6.43,12.71-12.11,20.51-16.38,4.13-2.26,8.44-4.15,12.91-5.61,3.46-1.14,7-1.79,10.53-2.58-3.09,1.1-5.98,2.91-8.33,4.95-2.23,1.94-4.54,4.34-5.39,7.25-.4,1.36-.6,3.03.18,4.3.72,1.16,2.33,1.69,3.6,1.94.44.09.89.13,1.33.16-4.23,2.88-8.39,5.85-12.45,8.96-9.3,7.12-18.21,14.78-26.6,22.95-2.35,2.29-4.66,4.62-6.93,6.99-2.3,2.4-4.93,4.79-6.8,7.56-.79,1.18-.24,2.39,1.18,2.37,1.61-.02,3.32.36,4.92.56,1.46.18,4.07-2.5,1.92-3.11-.06-.02-.13-.03-.19-.05.04,0,.08-.01.12-.01.36,0,.73.12,1.11.13.66.02,1.29-.03,1.94-.1,1.44-.16,2.88-.33,4.31-.52,2.97-.39,6.02-.63,8.93-1.35.19-.05.37-.12.56-.22.03,0,.04,0,.07,0,1.76,0,3.66-2.16,3.73-3.7,16.32-10.88,32.19-22.32,47.32-34.76.43.79.66,1.6.74,2.42-.01.62-.02,1.22-.05,1.81-.36,2.27-1.73,4.47-3.36,6.18-3.37,3.54-7.22,6.7-10.85,9.97-3.79,3.41-7.62,6.78-11.48,10.11-4.03,3.48-8.15,6.82-11.94,10.57-.59.59-1,1.68-.32,2.33.73.69,1.96.08,2.61-.37,4.71-3.28,8.98-7.14,13.3-10.91,1.33-1.16,2.64-2.33,3.96-3.5-.65,2.52-1.02,4.89-2.18,7.18-1.37,1.29-2.88,2.42-4.22,3.42-4.67,3.49-9.32,6.92-13.72,10.74-8.89,7.7-17.08,16.2-24.39,25.43-2.06,2.6-4.06,5.25-5.98,7.95-.98,1.37-1.94,2.76-2.88,4.16-.84,1.26-1.88,2.49-2.09,4.02-3.35,2.45-6.55,5.15-9.77,7.74-4.15,3.34-8.32,6.66-12.5,9.95-8.46,6.65-16.98,13.22-25.57,19.69-2.38,1.79-4.71,3.66-7.07,5.48-2.45,1.89-4.66,4.1-7.14,5.91-1.41,1.03-.53,2.4.81,1.82.19.86,1.06,1.34,2.56.57,14.25-7.36,27.2-17.69,40.19-27.03,6.21-4.47,12.41-8.97,18.27-13.9,4.01-3.37,10.43-7.63,10.31-7.9,3.51-4.77,9.91-14.62,14-19,5.12-5.49,8.78-12.41,14.79-16.87,6.05-4.49,11.47-9.46,16.61-14.97,4.3-4.62,8.85-10.99,7.39-17.69,5.19-2.84,9.58-7.71,13.38-12.08,3.22-3.7,6.8-9.05,4.68-13.95.89-.83,1.75-1.71,2.65-2.55,2.04-1.89,4.5-3.58,6.24-5.74.1-.12.2-.26.3-.39,8.11,1.93,17.31.85,24.93-2.01,5.22-1.96,12.8-5.93,15.92-11.51,4.2-1.53,8.54-4.77,10.55-6.89,4.05-4.26,7.1-11.81,6.52-17.99,11.93-7.62,9.48-30.87-.52-39.47,8.65-6.82,17.69-13.28,21.85-23.93,1.37-3.5,2.88-8.4-1.59-10.16Zm-56.23,80.07c.24.69.16,1.53-.44,2.04-.69.59-1.9.38-2.68.14-2.01-.61-3.68-2.21-4.84-3.91-1.28-1.87-2-4.05-2.44-6.26-.22-1.12-.39-2.26-.51-3.4-.07-.65-.14-1.49.1-2.16,1.58-.9,3.11.35,3.73,1.87.97,2.39,1.85,4.55,3.52,6.57,1.2,1.46,2.58,2.74,3.99,4-.35.31-.57.73-.44,1.11Zm-48.08,14.74c.19.25.38.49.54.76.02.03.09.18.13.25,0,.04,0,.07,0,.11-.75.01-1.5.08-2.24.2.56-.23,1.15-.74,1.57-1.32Zm-14.73,17.04c-2.69-1.4.25-5.27,1.53-6.65,1.85-1.99,4.03-3.58,6.46-4.78,2.55-1.26,5.29-1.98,8.05-2.61.09.41.17.83.24,1.24.03.19.05.39.08.58,0,.02,0,.02,0,.05,0,.09,0,.18,0,.27,0,.42-.02.85-.09,1.27-.02.11-.04.22-.06.33,0,.02,0,.03,0,.04,0,.03-.01.06-.02.11-.01.06-.03.12-.04.17,0-.01,0-.02,0-.04-.04.06-.05.18-.07.25-.14.48-.4,2.93-.35,4.16-2.41,1.34-4.78,2.79-7.11,4.29-.53-.13-1.21.15-1.59.47-1.89,1.6-4.81,2-7.04.84Zm44.91-83.17c-6.71-2.36-13.41-4.73-20.12-7.09-12.98-4.58-26.04-8.97-39-13.6-3.42-1.22-6.81-2.52-10.12-4.01-1.65-.74-3.26-1.56-4.9-2.34-1.67-.8-3.32-1.47-5.01-2.16.03-.74-.23-1.42-1-1.87-1.91-1.1-4.4.51-5.7,1.82-1.38,1.4-2.72,2.85-4.1,4.25-.33.33-.63.79-.86,1.28-14.37,16.06-29.09,31.81-44.2,47.17-16.75,17.03-33.91,33.65-51.53,49.79-5.03,4.6-10.06,9.2-15.12,13.76-2.45,2.21-4.92,4.42-7.39,6.61-1.28,1.14-2.85,2.27-4.17,3.57-.38-1.59-.77-3.18-1.17-4.77-.41-1.65-.82-3.3-1.27-4.94-.21-.75-.42-1.5-.63-2.26-.23-.84-.53-1.52-.89-2.28,4.1-3.09,7.84-6.85,11.58-10.31,4.22-3.9,8.42-7.82,12.6-11.77,8.27-7.82,16.44-15.74,24.5-23.78,16.18-16.14,31.97-32.65,47.35-49.55,8.15-8.94,16.48-17.85,24.17-27.2.57.16,1.16.48,1.97.81,3.02,1.25,6.02,2.48,9.1,3.58,5.94,2.13,11.84,4.31,17.92,6.04.55.16,1.19.09,1.86-.13,0,0,.02,0,.02,0,.4.34.98.3,1.5.1,5.56,2.4,11.12,4.78,16.7,7.11,7.52,3.15,15.09,6.17,22.68,9.17,3.89,1.54,7.79,3.05,11.7,4.56,3.51,1.35,7.41,2.39,10.62,4.37,1.92,1.18,3.3,2.88,4.58,4.66-.57-.2-1.14-.4-1.7-.6Zm31.5,25.14c-.08.63-.24,1.25-.49,1.83-.08.19-.15.32-.26.5-.03.06-.07.1-.12.15-.01,0,0,0-.03,0-.97.11-2.02-.76-2.71-1.33-3.8-3.12-5.56-8.06-7.11-12.56-.03-.46-.06-.91-.09-1.37,1.27-.6,2.61-1.08,4-1.19,2.45-.2,3.97,1.3,4.8,3.48.41,1.07.85,2.12,1.31,3.14,0,.02,0,.04,0,.06.44,2.4.99,4.83.68,7.28Zm28.26-33.34c-4.41,3.74-9.06,7.32-12.64,11.88-.61-.73-1.22-1.46-1.86-2.15-.86-.92-1.85-1.53-2.8-2.34-.95-.82-3.16.71-2.37,1.83.58.82.97,1.74,1.55,2.55.57.8,1.25,1.54,1.86,2.32,1.22,1.57,2.38,3.18,3.53,4.79,2.22,3.13,4.34,6.39,6.1,9.8.61,1.18,1.17,2.42,1.63,3.7.34,3.22.35,9.16-1.3,12.78-.54.6-1.17,1.12-1.91,1.49-.72.36-1.15.96-1.28,1.53-.25.08-.48.19-.71.31-.06-.24-.11-.49-.18-.72-1.51-5.1-4.87-9.49-7.95-13.74-1.67-2.31-3.34-4.63-4.77-7.11-1.43-2.48-2.15-5.18-3.41-7.72-2.76-5.58-9.2-3.93-13.82-1.64.5-.66.64-1.39-.15-1.79-2.69-1.37-5.48-2.55-8.31-3.64-3.75-2.6-5.14-7.96-8.4-11.09-2.67-2.57-6.65-3.53-10.03-4.82-3.82-1.45-7.63-2.91-11.43-4.39-13.62-5.3-27.17-10.77-40.65-16.4,6.37-3.93,12.16-8.84,18.19-13.25,3.14-2.3,6.31-4.56,9.49-6.8,5.81-4.04,11.66-8.02,17.54-11.94,10.16-6.67,20.5-13.05,31.02-19.15-1.22,2.6-2.25,5.3-3.08,8.09-.82,2.75,1.33,4.05,3.83,3.32,3.56-1.03,7.03-2.27,10.45-3.68,2.88,2.41,6.27,5.77,9.77,6.41,3.77.68,8.66-.97,12.47-1.74-1.45,7.07-.02,15.53.26,22.38.36,9.06.94,18.04.36,27.1-.17,2.66,1.94,2.73,4.05,1.73.07.52.57.83,1.52.41.91-.39,1.94-.47,2.92-.75,1.13-.32,2.28-.55,3.44-.71,2.01-.28,4.01-.26,6-.01-.73,5.59-4.75,9.59-8.94,13.14Z"/></g><path d="m390.49,316.13c-3.5,2.23-6.66,4.77-10.45,6.54-3.5,1.63-7.21,2.68-11,3.38-.04-.05-.08-.11-.14-.14-.04-.03-.1-.03-.14-.04,0-.14-.05-.26-.08-.4-.06-.31-.03-.71-.04-1.05-.02-.85-.05-1.7-.07-2.55s-.05-1.7-.07-2.55c-.02-.85-.02-1.81-.2-2.64-.12-.51-.77-.45-1.13-.3-.52.22-.91.64-1.02,1.19-.22,1.1-.19,2.28-.22,3.4-.03,1.15-.07,2.3-.11,3.46-.02.54-.03,1.09-.05,1.63-.02.55-.06,1.23.46,1.57.15.1.32.2.49.27.11.16.31.25.59.24,4.45-.3,8.82-1.52,12.9-3.27,4.02-1.72,8.42-4.05,11.29-7.42.75-.88.08-2.02-1.02-1.32Z"/><path d="m516.21,286.21c-3.76,3.08-8.61,3.84-13.33,4.03-5.16.21-10.33.26-15.49.26-11.03.01-22.05-.11-33.07-.19-21.84-.16-43.77-.18-65.47,2.64-12.25,1.59-24.38,4.11-36.11,8-1.06.35-2.32,1.35-2.37,2.57-.05,1.19,1.11,1.49,2.07,1.2,21.24-6.54,43.34-9.1,65.48-9.98,22.42-.88,44.86.02,67.28-.66,5.87-.18,11.85-.17,17.67-.97,5.17-.71,10.3-2.16,14.34-5.61,1.18-1.01.22-2.3-1-1.3Z"/><path d="m407.38,233.23c-15.26,6.9-30.58,14.02-44.23,23.85-13.76,9.91-24.99,22.6-31.42,38.42-3.62,8.92-5.87,18.31-7.98,27.68-2.18,9.69-4.36,19.37-6.85,28.98-5.03,19.37-11.19,38.62-20.1,56.58-9.02,18.17-20.79,35.11-36,48.64-1.17,1.04-.21,2.38,1.02,1.32,28.6-24.54,44.84-59.81,55.24-95.33,2.89-9.85,5.39-19.82,7.73-29.81,2.18-9.31,4.09-18.7,6.86-27.85,2.7-8.91,6.29-17.53,11.62-25.2,4.55-6.53,10.19-12.26,16.37-17.25,14.48-11.71,31.59-19.69,48.41-27.41,1.95-.9,1.74-3.72-.68-2.63Z"/><path d="m451.68,252.16c-30.93,3.74-63.31,8.91-89.54,26.92-6.64,4.56-12.66,9.9-17.86,16.04-1.18,1.4.65,2,1.63.9,19.8-22.16,49.23-31.59,77.64-36.62,9-1.59,18.05-2.88,27.09-4.28.87-.13,1.82-.73,2.09-1.62.23-.76-.18-1.45-1.04-1.34Z"/><path d="m499.89,270.09c-23.6,4.93-47.79,7.12-71.89,6.33-6.95-.23-13.88-.6-20.79-1.35-1.12-.12-2.88,2.07-1.39,2.25,24.42,2.86,48.94,2.92,73.3-.61,6.9-1,13.74-2.28,20.54-3.8,1.69-.38,2.64-3.32.22-2.82Z"/><path d="m540.36,311.02c-.47-1.3-2.87.19-2.5,1.31,3.04,9.33-.79,19.14-4.6,27.64-3.85,8.61-8.69,16.69-14.26,24.3-.43.59-.29,1.4.44,1.59.84.22,1.68-.55,2.13-1.14,5.91-7.87,10.84-16.51,14.74-25.54,3.75-8.7,7.4-18.77,4.05-28.17Z"/></g><path d="m577.93,353.86c-.05-.27-.09-.53-.11-.8-.03-.29-.05-.46-.06-.71-.01-.29,0-.56-.08-.84-.06-.23-.34-.25-.53-.19-.26.09-.49.28-.59.54-.22.56-.25,1.23-.23,1.83,0,.31.03.62.06.93.03.29.11.57.19.86.11.38.61.32.88.17.34-.19.65-.53.59-.94-.04-.28-.06-.56-.11-.83Z"/><path d="m585.94,354.06c-.03-.11-.09-.19-.19-.24-.05-.04-.1-.07-.15-.1-.17-.08-.33-.08-.52-.08-.13,0-.27.04-.39.07-.07.02-.13.04-.19.06-.25.1-.47.23-.68.39-.67-.11-1.47.15-2.05.38-.5.2-.96.43-1.34.56-.48.17-.87.18-1.41.3-1.14.25-2.05,1.15-2.46,2.22-.3.79-.3,1.69-.08,2.51-.18,2.29-.16,4.62-.18,6.9-.03,2.72-.05,5.43-.08,8.15-.05,5.5-.04,11.01-.06,16.51-.04,10.82,0,21.65.04,32.47.02,6.08-.58,10.87,0,16.92.08.86,1.92,1.25,1.97.68.49-5.5.3-11.06.31-16.58.01-5.5.03-11,.03-16.5,0-10.82-.01-21.64-.06-32.46-.01-3.11-.06-6.22-.09-9.32-.03-2.61.03-5.3-.25-7.91-.01-.48,0-.96.15-1.38,0-.02.09-.22.06-.16-.01.03.08-.15.11-.19.02-.03.06-.08.07-.1.02-.02.04-.05.06-.06.03,0,.16-.06.18-.06.14-.03.29-.05.48-.08.89-.13,1.68-.49,2.49-.85.05-.02.07-.03.07-.03.01,0,.02,0,.07-.02.08-.03.16-.06.24-.09.09-.03.19-.06.28-.09.02,0,.08-.02.11-.03.2-.03.39-.03.59-.01.02.07.05.12.12.17.07.04.15.05.23.04-.08.1-.14.21-.14.32-.04,10.83-.24,21.66-.25,32.5,0,10.81-.03,21.62-.02,32.43,0,6.05-.09,12.1.09,18.15.03,1,1.61.23,1.63-.5.3-10.8.08-21.63.06-32.44-.01-10.8-.02-21.6-.07-32.4-.03-6.04-.19-12.07-.22-18.11,0-.24-.14-.34-.32-.34.13-.09.24-.2.32-.31.03-.04.06-.09.09-.14.02,0,.04,0,.05,0-.02,0-.03,0-.05,0,0,0,0,0,0,0,.06,0,.11,0,.17,0,.05,0,.1,0,.15,0-.05,0-.11,0-.16,0,.1.02.19.01.28-.01.11-.01.21-.05.31-.11.17-.1.32-.22.45-.38.09-.12.19-.29.2-.45,0-.05,0-.11-.01-.17Z"/><path d="m621.23,328.06c-.61-.1-1.24-.1-1.86-.1-.61,0-1.23,0-1.84.04-.49.03-.99.07-1.45.22-.37.12-.7.33-.98.6-.36.18-.7.51-.71.85-.1,4.2-.15,8.39-.18,12.59-.02,0-.03-.02-.05-.02-2.97-.21-6.05.1-9.03.19-.27,0-.54.02-.81.02-.93,0-1.85.01-2.78.02-2.33.02-4.67,0-6.99.23-.02,0-.04.01-.07.02,0,0,0,0-.01,0-.09-.04-.19-.07-.31-.06l-.76.08c-.8.02-1.61.04-2.41.05-1.35.02-2.92-.16-4.23.2-2.07.57-2.32,2.79-1.86,4.64-.59-.1-1.21-.09-1.8-.13l-1.95-.11c-1.33-.07-2.67-.15-4-.22-1.32-.07-2.7-.23-3.83.6-.11.08-.24.18-.35.29-.06-.03-.13-.06-.2-.08-.29-.09-.64-.1-.95-.13-.32-.03-.64-.05-.97-.06-.38-.01-.75-.03-1.13-.02-.35,0-.71,0-1.05.06-.64.13-1.23.51-1.59,1.06-.18.27-.23.55-.21.84-.12-.02-.24-.03-.4-.04-.24,0-.48.01-.73.02-.53.01-1.05.03-1.58.04-.52.01-1.05.03-1.58.04-.51.01-1.08-.04-1.58.06-.65.13-1.63.73-1.5,1.54-.82.1-1.64.23-2.45.42-1.15.27-2.55.57-3.46,1.37-.75.66-.9,1.47-.83,2.42.13,1.61.26,3.21.36,4.82.17,2.9.3,5.79.34,8.69.02,1.44.05,2.89.06,4.33,0,.68-.03,1.38-.01,2.07-1.5.08-2.99.17-4.49.25-3.46.03-7.18.07-8.31.28-1.43.27-3.42.58-4.32,1.8-.26.35-.43.75-.57,1.18-.05.06-.11.12-.16.19-1.23,1.61-1.5,3.62-1.49,5.6.02,5.19.2,10.39.2,15.58,0,5.39-.19,10.78-.23,16.18-.05,5.98-.21,11.97.23,17.94.05.67.63.63,1.12.34.19.25.84-.1.84-.45.02-.82.03-1.67.05-2.5.74-9.07.58-18.28.42-27.36-.03-1.81-.05-3.63-.07-5.44-.01-4.54-.07-9.02-.17-13.4,0-.86,0-1.72.04-2.57.11-1.95.61-3.68,2.62-4.33,2.19-.72,4.73-.58,7-.7,2.54-.14,5.08-.29,7.63-.43.2.4.74.16,1.08-.15.93-.43,1.71-1.94.64-2.08.26-1.75.2-3.6.23-5.33.04-2.5-.03-5.01-.13-7.51-.09-2.34-.25-4.67-.45-7.01-.02-.28-.22-1.02-.16-1.4.07.22,1.27-.22,1.39-.25,1.24-.33,2.51-.49,3.79-.57.08,0,.17-.03.25-.05.06-.01.12-.03.17-.05.2-.08.37-.22.51-.38.29-.29.52-.65.57-.96.51,0,1.02,0,1.54-.01,1.1,0,2.27.1,3.33-.23.29-.09.55-.27.76-.5.1.1.26.13.39.12.25-.02.53-.17.69-.37.06-.07.11-.15.17-.22.01-.02.01-.02.01-.02.02-.03.05-.06.07-.1.08-.12.14-.26.18-.4.02-.07.03-.15.04-.23.08,0,.16,0,.24,0,.01,0,.03,0,.04,0,.07,0,.13,0,.2.01.13,0,.27.02.4.03.63.05,1.26.17,1.89.18.21,0,.47-.1.69-.23.08.16.17.32.28.47.41.55,1.45-.32,1.33-.85,0-.02-.01-.02-.02-.03.04-.04.1-.1.18-.2.28-.03.84-.04.89-.03.96.07,1.93.14,2.89.21s1.93.14,2.89.21c1.02.07,2.07.23,3.1.18.58-.03,1.17-.47,1.46-.97.28.51.95.37,1.42,0-.08,1.61-.15,3.23-.17,4.84-.04,3.19,0,6.39,0,9.59,0,6.23,0,12.45,0,18.68,0,12.53.03,25.06.03,37.59,0,7.04-.08,14.08.04,21.12,0,.53.42.61.85.45,0,0,0,.01.01.02.28.28.64.44,1.02.51.41.07.84,0,1.25-.03.1,0,.19-.02.29-.02.05,0,.1,0,.14,0,0,0,0,0,0,0,.07,0,.14,0,.21,0,.03,0,.07,0,.1,0,.16.01.31,0,.47,0,.31-.01.63-.25.81-.48.15-.2.27-.49.11-.72-.43-.63-1.41-.38-2.05-.31-.08,0-.16.01-.23.02-.02,0-.04,0-.06,0-.06-.01-.26-.05-.31-.06-.02,0-.04-.02-.06-.02-.05-.02-.1-.05-.16-.08-.07-.04-.14-.09-.21-.14-.05-.05-.09-.09-.13-.15-.05-.08-.04-.09-.16-.17,0,0,0,0-.01,0,0-.09-.04-.16-.1-.21.18-12.25.03-24.52.06-36.78.03-12.53-.02-25.06-.03-37.59,0-3.44,0-6.88,0-10.32,0-3.2-.22-6.4-.32-9.59.01,0,.02,0,.03,0,.65-.02,1.31-.05,1.96-.08,2.53-.11,5.05-.18,7.58-.26,2.52-.07,5.04-.15,7.57-.22,1.04-.03,2.09-.03,3.14-.04-.05.07-.1.14-.15.21-.02.04-.04.09-.07.13-.03.06-.04.13-.02.19,0,.04,0,.08.03.11.01.04.05.06.08.09-.15.13-.25.29-.25.43.3,6.01.52,12.02.71,18.03-1.87.02-3.75.03-5.62.05-1.92.02-3.93-.13-5.83.24-1.48.28-2.92.98-3.84,2.22-.97,1.3-.88,62.82-.63,72.43-.35.25-.56.81,0,.81,0,0,.02,0,.03,0,0,.22.02.38.03.43,0,.01.01.02.02.03.04.73.35,1.42.99,1.9,1.34,1.02,3.5.52,5.05.42,1.98-.12,3.96-.19,5.94-.28,2.03-.09,4.11-.06,6.12-.31.35-.04.71-.28.85-.61.01-.03.02-.07.03-.1.01.34.02.55.02.62.01.55.6.45.99.15.04,0,.07,0,.11,0,.15,0,.3.02.45.02.16,0,.33,0,.49,0-.06,0-.12,0-.17,0,.11,0,.23.01.34.01.03.56.06,1.12.11,1.68.03.39.33.45.69.34.29.21.63.31.98.39.41.09.82.13,1.24.14.38.01.75-.02,1.13-.09.24-.04.48-.08.71-.17.29-.11.53-.26.79-.43.22-.14.43-.46.4-.73-.03-.26-.24-.37-.5-.36-.16,0-.31.01-.47.04-.13.02-.26.05-.39.08-.02,0-.02,0-.03,0-.03,0-.07.01-.1.02-.33.05-.67.08-1,.09-.31,0-.5,0-.89-.06-.23-.03-.45-.08-.67-.11.59-7.33.27-14.78.26-22.13,0-7.37-.02-14.73-.02-22.1-.02-14.71-.17-29.43-.25-44.14-.05-8.33.06-16.68-.15-25.01,0-.02,0-.03-.01-.04.09-.01.17-.02.26-.03.44-.04.88-.01,1.32,0,1.03,0,2.06.14,3.09.15.31,0,.66-.29.79-.56.11-.23.09-.55-.22-.6Zm-9.56,112.29c-1.67-.06-3.37.11-5.04.19-1.69.08-3.37.16-5.06.23-1.65.08-3.33.21-4.98.18-1.36-.03-2.56-1.12-2.27-2.57.04-.21-.05-.3-.19-.32-.06-9.72-.1-70.76.84-71.7,1.01-1,2.64-1.05,3.96-1.08,3.26-.06,6.52-.07,9.79-.1.05,0,.1-.02.15-.03.04,1.39,2.71,66.48,3.06,75.38-.04-.1-.11-.17-.26-.18Zm2.51-65.93c-.09,14.76-.17,29.51-.18,44.27,0,4.09,0,8.19,0,12.28,0,3.12-.04,6.25.1,9.36,0,0-.01,0-.02,0-.22.01-.43.07-.65.12-.04,0-.07.02-.11.03-.09-10.75-3.27-87.53-3.99-95.34,0-.06-.03-.1-.06-.14.02,0,.05.01.07.02.07,0,.14,0,.21.01.2,0,.39,0,.59,0,.15,0,.3-.02.45-.03.1,0,2.4-.01,3.61-.03-.04,9.82.05,19.64,0,29.45Z"/><path d="m595.28,358.1c-.07-1.39-.14-2.78-.22-4.18-.15-2.66-.1-5.45-.55-8.08-.08-.46-.85.06-.86.36-.16,2.77.17,5.62.3,8.39.07,1.39.14,2.78.22,4.18.07,1.24-.08,2.74.3,3.93.16.52.89-.08.94-.39.22-1.33-.06-2.86-.13-4.2Z"/><path d="m637.74,310.29c0-.25-.41-.06-.41.13-.15,6.25-.13,12.52-.04,18.77,0,.31.51.07.51-.16.08-6.24.1-12.5-.05-18.74Z"/><path d="m704.38,180.47c-6.77-.11-13.54-.02-20.31-.02-3.35,0-6.69,0-10.04,0-2.93,0-5.96-.17-8.9.06-.04-.05-.09-.09-.18-.11-2.31-.5-4.9-.04-6.69,1.57-.82.74-1.46,1.68-1.75,2.75-.25.9-.36,2.19.27,2.98-.4,9.39-.21,18.82-.21,28.22,0,9.6,0,19.2,0,28.8,0,5.4-.03,15.73.13,21.13.02.66,1.05.15,1.07-.33.27-9.6.12-24.15.12-33.76,0-9.6-.01-19.19-.02-28.79,0-5.24,0-10.49-.23-15.73,0,0,0-.01,0-.02,0,0,0-.02,0-.03,0-.13,0-.26-.01-.4,0-.08-.03-.13-.07-.17-.04-.24-.07-.48-.07-.73,0-.43.06-.86.19-1.27.24-.76.67-1.49,1.28-2.02,1.14-.99,2.71-1.3,4.22-1.29.03.03.07.06.15.07,3.2.48,6.59.21,9.81.21h10.28c6.85,0,13.71.09,20.57-.03.58,0,1.25-1.1.39-1.11Z"/><path d="m788.14,5.34c-.64,18.96-1.07,37.93-1.38,56.91-.31,18.96-.51,37.91-.56,56.87-.03,10.65-1.08,57.77-.86,68.42.02.93,1.5.22,1.51-.47.27-18.96,1.11-74.39,1.26-93.36.14-18.95.42-37.89.75-56.83.18-10.65.41-21.3.62-31.95.02-.81-1.31-.19-1.33.41Z"/><path d="m753.19,36.84c-.02-.82-1.36-.2-1.35.42.1,4.52-2.08,169.63-2.1,174.15,0,.8,1.25.17,1.3-.4.39-4.49,2.27-169.66,2.15-174.16Z"/><path d="m814.34,176.05c-.58-.16-1.26.17-1.82.34-.63.19-1.26.38-1.89.58-1.3.41-2.59.85-3.85,1.35-1.79.7-3.63,1.48-5.3,2.49-.31-21.48,2.32-146.62,2.12-165.32-.11-10.44-.2-20.87-.26-31.31.07-.14.08-.27,0-.39,0-.15,0-.3,0-.45.05-.12.12-.22.21-.31.32-.36.75-.66,1.12-.97.85-.69,1.73-1.33,2.67-1.88,1.93-1.13,3.99-1.82,6.11-2.5.44-.14.91-.53,1-1,.08-.4-.19-.74-.63-.67-2.82.4-5.53,1.76-7.88,3.32-1.18.78-2.27,1.67-3.27,2.67-.43.43-.86.91-1,1.52-.06.26-.08.54.03.79.05.1.12.16.21.22,0,4.54,0,9.08,0,13.62-.1-.16-.29-.26-.54-.24-1.15.08-2.29.32-3.43.48-1.21.17-2.42.3-3.64.41-1.18.11-2.35.18-3.53.22-.59.02-1.18.03-1.77.04-.27,0-.55,0-.82.02-.14.01-.26.05-.38.09-.26-.35-.83-.29-1.17-.08-1.08.66-2.07,1.52-3.05,2.32-.96.78-1.92,1.57-2.86,2.38-1.61,1.37-3.23,2.77-4.71,4.29-.38.04-.88.43-.91.79,0,.12-.01.24-.02.36,0,.03,0,.06,0,.08-.27,3.42-.34,6.85-.43,10.28-2.22.8-4.34,1.91-6.36,3.12-1.74,1.04-4.1,2.24-4.7,4.35-.11.38.06.54.31.56-.06,2.32-.12,4.63-.18,6.95-1.88-.08-3.75-.07-5.63-.06-2.1.02-4.22-.03-6.31.19-.19-.14-.47-.17-.79.03-2.03,1.28-20.83,13.25-21.41,14.29-.14.24-.13.41-.05.53-.22.17-.39.39-.4.61-.27,3.87-.27,12.77-.26,17.21-3.09,1.55-5.95,3.45-8.62,5.63-.16.13-.35.36-.38.59-.06.09-.1.18-.11.27-.14,2.07-.15,4.14-.16,6.22,0,0,0,0-.01,0-.75-.07-1.49-.11-2.24-.14-.34-.01-.68-.02-1.03-.02-.18,0-.37,0-.55,0-.23,0-.43.07-.64.15-.16-.06-.36-.06-.53,0-1.22.47-2.36,1.12-3.48,1.8-1.12.68-2.19,1.42-3.23,2.22-.24.18-.54.58-.37.89.01.02.04.03.05.05-.04,5.11-.25,10.22-.3,15.34-.05,5.13.17,131.45.25,136.58.01.87,1.41.21,1.42-.44.07-5.18.29-131.55.24-136.72-.05-5-.26-10.01-.3-15.01.85-.53,1.72-1.04,2.6-1.53,1.06-.59,2.17-1.09,3.24-1.67.06-.03.13-.08.19-.13.26.04.53,0,.79,0,.34,0,.69,0,1.03,0,.7,0,1.23.03,1.96.08.32.02.66-.1.9-.33,0,.12,0,.24,0,.36-.02,2.55-1.02,145.99-.92,148.54.03.91,1.45.2,1.47-.45.09-2.56,1.06-146.01,1.04-148.57-.02-2.46,0-4.91-.16-7.37,2.49-1.79,5.14-3.36,7.86-4.77,0,1.02,0,2.01,0,2.92-.03,5.25-.03,10.49-.04,15.74-.02,10.33-2.15,121.44-1.86,134.4-.19.08-.37.22-.47.4-.16.28-.15.57.19.67.01,0,.03,0,.04.01.11.23.41.31.67.2,0,0,0,0,.01,0,.81.24,1.63.46,2.46.6.43.07.94-.24,1.15-.61.19-.33.2-.75-.24-.86-.59-.14-1.19-.24-1.79-.31.13-.13.26-.26.41-.38.75-.66,1.56-1.26,2.41-1.78,1.69-1.04,3.52-1.83,5.37-2.52,3.75-1.4,8.12-3.5,12.1-1.88.83.33,2.54-1.05,1.55-1.7-1.96-1.29-4.38-1.12-6.58-.64-2.36.51-4.67,1.38-6.91,2.25-2.11.82-4.19,1.73-6.1,2.94-.84.53-1.63,1.12-2.38,1.77.44-17.75,2.05-123.1,2.03-133.17-.01-5.24-.02-10.48-.05-15.71-.03-5.21.11-16.36-.27-21.56,0-.08-.03-.14-.06-.19.95-.68,19.34-11.98,20.98-13.58,1.92.2,3.87.15,5.8.17,2.13.02,4.25.04,6.37-.07.01,0,.02,0,.03,0-.03,1.31-.08,4.65-.14,9.51-.01,0-.03,0-.04,0-.78.17-1.53.62-2.26.96-.73.35-1.45.7-2.17,1.07-1.44.73-4.82,2.49-6.2,3.32-.27.17-.37.62-.26.98.1.36.28.18.53.04,1.41-.76,4.8-2.49,6.24-3.19.72-.35,1.45-.7,2.18-1.03.66-.3,1.34-.57,1.97-.94-.42,36.51-1.35,149.13-1.45,158.47,0,.8,1.3.19,1.32-.41.41-13.68,1.62-164.34,1.82-178.03,0-.07-.02-.11-.03-.16.91-1.32,2.62-2.11,3.97-2.86,1.78-.99,3.62-1.83,5.46-2.69,0,.28-.01.55-.02.83-.13,4.43-.24,8.85-.33,13.28-.17,8.68-.28,17.35-.3,26.03-.01,4.98-1.94,131.16-1.88,136.14,0,.65.7.54,1.17.18.04.03.08.07.13.08.06.02.12.03.18.05.14.04.28.07.41.11.26.06.53.1.79.12.6.06,1.21.08,1.82.04.46-.03.99-.42,1.12-.87.05-.17.09-.39-.05-.54-.13-.15-.32-.2-.51-.18-.55.06-1.11.08-1.67.07-.01,0-.23,0-.07,0-.06,0-.13,0-.19,0-.1,0-.19-.01-.29-.02-.03,0-.03,0-.04,0-.04,0-.09,0-.13,0-.11,0-.22-.01-.32-.02.12-.08.25-.16.35-.22.5-.27,1.01-.54,1.51-.8,1.05-.54,2.12-1.06,3.19-1.55,1.06-.48,2.13-.95,3.22-1.38.79-.32,2.04-1.09,2.86-.57.76.49,2.32-.97,1.46-1.61-1.29-.97-3.12-.04-4.4.47-1.65.66-3.27,1.38-4.86,2.17-1.36.67-2.76,1.36-4.06,2.17.28-23.53,2.29-154.76,2.55-171.7.07-4.73.28-9.49.18-14.22,1.77-1.35,3.46-2.81,5.19-4.2.91-.73,1.83-1.45,2.76-2.16.91-.7,1.91-1.35,2.78-2.11.07.03.13.07.22.08.25.04.54.03.79.05.61.03,1.22.04,1.84.03,1.21,0,2.43-.05,3.64-.13,2.44-.16,5.05-.39,7.38-1.14.37-.12.75-.42.91-.79,0,14.02-2.55,172.03-2.26,183.34-.49.49-.27,1.27.48.91.04.07.06.14.11.2.1.13.23.25.38.33.32.17.67.24,1.03.22.21-.01.45-.13.61-.26.1-.07.18-.15.25-.25.07-.08.12-.17.16-.27.05-.16.08-.36-.04-.49-.12-.13-.29-.18-.46-.16-.02,0-.04,0-.07,0-.1,0-.19-.02-.28-.05-.06-.02-.11-.05-.17-.07,1.74-.93,3.49-1.77,5.37-2.44,1.16-.41,2.33-.79,3.5-1.14.63-.19,1.26-.37,1.89-.56.66-.19,1.31-.32,1.86-.76.37-.3.77-1.05.09-1.24Z"/><path d="m708.19,164.46c-7.27-.39-63.76-2.94-70.94-3.04-.53,0-1.38,1.17-.6,1.24,7.14.62,63.47,2.88,70.67,3.21.7.03,1.8-1.37.87-1.41Z"/><path d="m637.85,180.5c-.01-5.29.06-10.6-.15-15.88-.03-.79-1.26-.18-1.28.4-.37,9.31-.15,18.67-.17,27.98-.02,9.23,0,18.46.01,27.68.01,5.3-.93,49.03-.9,54.33,0,.9,1.47.22,1.47-.45.09-18.54,1.07-75.51,1.03-94.06Z"/><path d="m705.83,166.73c-5.18-.64-51.81-1.71-57.01-2-.16,0-.38.14-.51.31-.48.03-1.03.11-1.17.15-.34.08-4.58,1.18-4.9,1.3-.32.12-.64.23-.96.34-.66.22-1.32.43-1.98.63-.31.09-.66.4-.68.74-.02.35.33.42.6.35.68-.19,1.35-.39,2.02-.6.33-.11.67-.22,1-.34.36-.13,4.58-1.25,4.92-1.43.19-.1,1.13-.39,1.64-.67,5.06.46,51.52,2.05,56.61,2.16.39,0,1.05-.86.45-.93Z"/><path d="m650.4,166.03c.02-.6-.97-.15-.99.31-.24,6.85-2.2,94.32-1.75,101.14.04.58.97.14.95-.29-.33-6.84,1.6-94.31,1.79-101.15Z"/><path d="m636.74,161.48c-1.05.24-2.03.67-3.03,1.06-1.01.39-2.02.8-3.02,1.2-2.01.82-4.02,1.66-5.97,2.6-.27.13-.59.47-.55.79,0,.07.04.12.07.17-.01.04-.03.07-.03.11-.12,2.57-.19,5.14-.23,7.72-1.06.16-2.1.41-3.15.62-.12.02-.23.09-.33.18-.36.07-.87.49-.89.77-.06.66-.1,1.33-.14,1.99-.01,0-.03.01-.05.02-1.39.73-2.91,1.12-4.41,1.56-1.56.45-3.06.95-4.51,1.67-.19.1-.43.32-.48.56-.08.11-.13.22-.13.34.12,4.62.22,9.25.31,13.87-4.12-.02-13.26-.27-13.65-.17-1.83.46-3.56,1.22-5.23,2.1-.85.44-1.66.94-2.46,1.46-.77.5-1.71,1.02-2.28,1.75-.15.2-.33.47-.2.73,0,.01.02.02.03.03-.07,1.88-.09,3.76-.1,5.64-.01,2,.93,94.66,1.01,96.66.02.62.99.14,1.01-.31.13-3.75-.89-98.2-1.05-101.96.72-.32,1.36-.84,2.03-1.24.75-.45,1.53-.88,2.31-1.28,1.55-.79,3.18-1.42,4.8-2.05.2-.08.64-.09.86-.08,4.3.18,8.63.32,12.93.04.06,2.84.11,5.69.16,8.53.02.9.02,1.79.03,2.69-.52-.21-1.14-.21-1.69-.22-.63-.01-1.26-.02-1.9-.03-.98,0-1.96,0-2.94.04.05-.24-.09-.44-.47-.26-.2.1-.38.21-.54.33-.26.08-.51.29-.62.53-.03.06-.04.13-.05.2-.54.82-.7,1.87-.7,2.9,0,2.72.18,5.44.27,8.16.19,5.72.39,11.44.59,17.16.39,11.44.79,22.87,1.19,34.31.23,6.53.38,16.03.71,22.55.04.73,1.21.17,1.19-.37-.21-10.78-.74-24.53-1.13-35.31-.39-10.86-.78-21.72-1.17-32.58-.11-3.02-.22-6.04-.33-9.06-.05-1.47-.11-2.94-.16-4.41-.03-.82-.14-2.05.23-2.93,1.11.06,2.21.07,3.32.06.62,0,1.23-.02,1.85-.03.65-.01,1.33-.03,1.96-.21.1-.03.27-.16.4-.32.07,6.83,1.01,74.75,1.26,81.57.03.88,1.41.2,1.42-.44.2-7.89-1.07-76.91-1.22-84.8-.14-7.81-.38-15.63-.67-23.44,1.27-.53,2.67-.83,3.99-1.15,1.43-.34,2.85-.77,4.19-1.4-.08,2.5-.05,5-.05,7.5,0,3.53-.01,7.06-.02,10.58-.01,7.14-.01,14.27-.02,21.41,0,14.11-.04,28.21-.01,42.32.02,8.01-.05,16.04.2,24.05.03.94,1.5.21,1.52-.47.22-7.23.12-14.47.18-21.7.05-7.05.05-14.11.03-21.17-.04-14.26-.05-28.52-.07-42.78,0-3.93-.02-7.87-.03-11.8,0-3.73.1-7.51-.22-11.23,1.02-.14,2.04-.27,3.05-.48-.06,4.59-.05,9.19-.06,13.77-.02,7.53-.02,15.06-.02,22.59,0,15.06.01,30.11.03,45.17.01,8.5.01,17.01.08,25.51,0,1.05,1.71.25,1.71-.53.24-30.12.11-60.25.06-90.37-.01-8.41.09-16.88-.32-25.29,1.79-.68,3.57-1.4,5.35-2.11,2-.79,4.13-1.42,6.04-2.41.61-.32.91-1.42-.09-1.19Z"/><path d="m598.64,200.13c0-.5-.83-.12-.83.26,0,14.37.81,82.94.55,97.31-.01.64,1.04.16,1.05-.32.28-14.35-.67-82.89-.77-97.25Z"/><path d="m576.96,219.93c-.41.1-.83.22-1.23.35-.4.14-.83.25-1.2.45-.23.13-.44.3-.56.53-.12.21-.13.42-.13.65,0,.25,0,.49,0,.74-.11.06-.21.14-.29.22-.24.24-.35.56-.38.89-.02.22.05.59-.03.78-.05.09-.29.22-.39.29-.14.1-.29.2-.44.29-.34.21-.7.41-1.06.6-.87.47-1.73.96-2.59,1.44-.5.13-1.01.26-1.5.41-.55.17-1.09.37-1.62.59-.59.25-1.21.55-1.59,1.09-.53.75-.55,1.79-.29,2.68-.26.09-.51.19-.76.3-1.29.29-2.56.68-3.79,1.12-.94.34-2.29.66-2.69,1.69-.16.41-.11.91.04,1.39-.45-.01-.9,0-1.36.04-.55.06-1.11.14-1.65.29-.4.11-.81.23-1.17.44-.02-.02-.03-.05-.05-.07-.36-.45-1.15.06-1.34.42-.16.3-.27.59-.34.9,0,0,0,.01,0,.02-.02.11-.06.22-.07.34-.02.38-.02.77-.04,1.15-.03.71-.07,1.42-.11,2.13-.05,1.12-.23,2.29-.22,3.42-.12.04-.24.08-.36.11-.19,0-.37,0-.5.02-.72.06-1.45.32-2.06.7-.8.51-1.42,1.19-1.81,2.06-.03.06-.03.12-.03.18,0,.02-.02.05-.03.07-.36,1.96-.22,3.99-.22,5.98,0,1.89,0,3.78,0,5.67,0,3.86,0,7.71.02,11.57.01,3.77,0,7.54.06,11.31.07,3.9.38,7.79.45,11.69,0,.25.13.36.3.38,0,.14,0,.29,0,.43.02.69,1.11.16,1.13-.35.05-1.79.07-3.57.09-5.36.11-2.5.24-4.99.29-7.49.07-3.86.05-7.73.06-11.6.01-3.86.02-7.72.01-11.58,0-1.97,0-3.94,0-5.91,0-1.81.13-3.67-.22-5.45.06-.04.11-.09.17-.13,0,0,0,0,0,0,.07-.04.14-.09.22-.13.05-.03.11-.05.16-.08,0,0,.02,0,.02,0,.13-.05.26-.08.4-.12.01,0,.02,0,.03,0,.07-.01.15-.02.22-.03.07,0,.13,0,.2-.01.03,0,.07,0,.1,0,0,0,0,0,0,0,.34.03.64.02.96-.14.22-.11.45-.28.61-.5.07-.01.15-.02.22-.04,0,0,0,0,.01,0,.01,1.74.04,3.48.04,5.2,0,4.65,0,9.3,0,13.96,0,9.22,0,18.44,0,27.67,0,5.22-.02,10.44.04,15.66,0,.74,1.2.18,1.21-.37.22-18.52.02-37.06.01-55.58,0-3.05.07-6.14.05-9.22.15-.87.23-1.75.33-2.6.08-.72.14-1.44.18-2.16.02-.32.06-.66.07-.99.2-.04.4-.1.57-.12.47-.06.93-.13,1.4-.15.46-.02.85-.01,1.31.03.48.04.94.16,1.41.21.06,0,.12,0,.17-.01-.13,3.34-.02,6.71-.03,10.03-.01,4.17-.02,8.34-.04,12.51-.02,8.34-.03,16.67-.01,25.01.01,4.73.03,9.46.1,14.19.01.69,1.13.16,1.13-.35.23-16.75.09-33.51.03-50.26-.01-3.92.16-7.91-.03-11.85.17-.32.19-.64-.05-.84-.03-.41-.05-.82-.09-1.23.35-.19.71-.38,1.08-.56.08-.02.15-.05.22-.08,1.39-.45,2.82-.76,4.18-1.05.06-.01.11-.05.17-.07.57,9.2.98,84.66,1.26,84.16.26-.45.87-.49.99-.99.09-.4-.8-85.36-.99-85.72-.17-.33.26-1.04.62-1.55.68-.27,1.4-.49,2.11-.67.89-.23,1.78-.44,2.65-.73.48-.16.95-.34,1.41-.55.4-.18.86-.4,1.17-.74-.08,19.37-.11,38.74-.09,58.12,0,5.79-.11,21.46.17,27.25.03.62.99.14,1.01-.31.49-10.31.18-30.55.17-40.87-.02-10.23,0-20.47-.05-30.7-.03-5.71-.05-11.41-.08-17.12.11-.09.2-.2.22-.33.03-.4.05-.8.09-1.2,0-.09.02-.19.03-.28,0-.01.01-.09,0-.08,0,0,0,0,0,0,.35-.13.7-.23,1.05-.36.39-.15.78-.3,1.17-.47.17-.08.36-.29.34-.48-.03-.2-.22-.22-.39-.18Z"/><g><path d="m580.81,218.03c.05-.07.06-.09.04-.08-.01.02-.03.04-.04.07,0,0,0,0,0,0Z"/><g><path d="m878.05-24.94c-.85.11-64.73.35-65.58.66-1.64.6-3.24,1.47-4.7,2.24-1.11.59-2.19,1.23-3.25,1.91-1.1.71-2.36,1.41-3.25,2.39-.88.97-1.11,2.23-1.38,3.47-.3,1.38-.54,2.77-.68,4.17-.24,2.3-.38,4.79.01,7.12-.06,0-.12.01-.19.02-.7.05-1.41.11-2.11.18-1.33.13-2.65.28-3.98.47-2.38.34-5.12.53-7.22,1.8-2.07,1.25-3.89,3.05-5.72,4.61-1.73,1.47-3.81,2.92-5.29,4.69-.35.29-.62.68-.69,1.12-.27,1.64-.46,3.31-.49,4.97-.02.82-.01,1.64.04,2.46.02.38.05.76.08,1.14.02.17.06.33.1.48-1.6.72-3.14,1.64-4.65,2.51-1.71.98-3.41,2.01-5.05,3.11-.72.49-1.32,1.1-1.57,1.95-.25.84-.16,1.78-.13,2.64.04,1.5.06,3.04.25,4.54-2.19.16-4.39.32-6.58.48-2.29.17-4.73.12-6.89,1-2.17.88-4.12,2.4-6.07,3.67-2.13,1.39-4.27,2.77-6.4,4.16-2,1.3-4.16,2.49-6.03,3.97-1.79,1.41-2.05,3.06-2.16,5.23-.25,4.67-.48,9.34-.43,14.02-.38.22-.73.59-.9.97-1.96,1.89-4.8,2.36-7.02,3.84-.69.46-1.22,1.11-1.38,1.94-.16.82-.05,1.72-.05,2.55,0,.9.06,1.81.1,2.71.02.41,0,.93.06,1.42-1.25.09-2.51.11-3.75.33-1.4.24-2.73.65-4.03,1.23-1.22.54-2.53,1.22-3.43,2.22-.73.81-1.27,1.94-.73,2.95-.72,10.23-.62,20.55-.81,30.81-.19,10.35-.39,20.7-.16,31.05.06,2.93.16,5.86.3,8.79.1,2.18.15,4.41.37,6.6-18.05-1.14-36.11-2.05-54.18-2.67-5.29-.18-10.66-.52-15.95-.29-.26.01-.61.28-.84.58-.7.26-1.4.59-2.08.86-.95.38-1.91.75-2.86,1.14-.95.39-1.91.77-2.86,1.15-.76.31-1.71.58-2.43,1.05-.19-.07-.42-.06-.61,0-.45.14-.9.51-1.05.96-.25.73-.19,1.59-.23,2.36-.04.78-.04,1.56-.06,2.34l-.04,2.25c0,.41-.04.87-.01,1.31-.42-.05-.85.01-1.27.07-.6.08-1.2.2-1.78.38-.5.15-1.05.64-1.1,1.19-.04.52,0,1.07.04,1.59.02.3.06.6.11.9-.88.17-1.74.47-2.6.73-1.07.32-2.13.67-3.19,1.02-1.78.59-4.12.95-4.23,3.22-.11,2.24-.11,4.48-.09,6.72.02,1.87-.02,3.87.25,5.75-3.87-.65-8.15-.48-11.96.2-2.05.36-4.05.93-5.98,1.72-1.53.63-3.25,1.44-4.56,2.57-.1.02-.2.05-.28.08-.54.23-.97.68-1.08,1.27-.14.76-.05,1.6-.05,2.37,0,.82-.02,1.63-.01,2.45,0,.78.02,1.56.02,2.34,0,.39.02.77.05,1.16.02.21.03.42.07.63,0,0-.01.01-.02.02,0,0-.02.01-.03.02-.02.01-.05.03-.07.04-.05.03-.13.05-.18.08.02-.01.02-.01.03-.02-.14.05-.28.09-.42.13-.57.15-1.16.24-1.71.46-.58.23-1.14.52-1.48,1.08-.29.48-.2.94-.12,1.45.06.43.1.86.15,1.28-.15.06-.29.12-.44.18-.49.23-.92.55-1.31.91-.46.43-.9,1.1-.92,1.76-.17.09-.34.19-.52.27-.02,0-.02.01-.03.02-.01,0-.03,0-.05.02-.09.03-.18.07-.27.1-.4.13-.81.24-1.23.33-.89.21-1.77.42-2.61.79-.53.24-1.18.56-1.49,1.07-.17.28-.18.58-.25.9-.05.26-.1.52-.14.78-.14.95-.26,2.02.02,2.95.09.3.45.28.69.18.32-.13.55-.39.62-.73.14-.67.19-1.36.31-2.04.05-.28.11-.56.18-.84.04-.17.09-.34.14-.51,0-.03.02-.07.03-.12.04-.02.07-.04.11-.05.02,0,.22-.09.25-.1.12-.04.24-.08.37-.12.47-.14.95-.24,1.42-.35,1.09-.25,2.16-.56,3.1-1.18-.26,11.24-.17,22.49-.18,33.72,0,11.47-.02,22.94-.03,34.42,0,6.55,0,13.09.07,19.64,0,.69,1.13.17,1.13-.35.26-22.93.04-45.88-.02-68.81-.02-6.54,0-13.07-.17-19.61,0-.08-.03-.13-.06-.16.02-.05.04-.11.05-.17,0-.02,0-.04.01-.07,0-.05,0-.03-.01.05,0-.02.03-.1.03-.12.02-.07.05-.14.07-.2.01-.04.03-.07.04-.11,0,.01,0,.01-.02.03,0-.01.01-.03.02-.04,0,0,0,0,0,0,.01-.03.03-.05.04-.06.01-.03.03-.05.05-.08.04-.06.08-.13.12-.19,0,0,0-.01.01-.02.03-.03.05-.06.08-.08.23-.12.45-.25.68-.37.1-.05.19-.1.28-.16,0,0,.01,0,.02,0,.1-.04.2-.07.3-.11.12,0,.24-.02.32-.06.26-.11.48-.32.58-.59.11-.14.19-.31.2-.49,0-.1-.02-.19-.06-.27.06-.41.1-.82.13-1.24.02-.22.03-.43.04-.65,0-.05,0-.09,0-.14,0-.03,0-.06.01-.09.07-.02.14-.04.21-.06.53-.13,1.08-.21,1.6-.4.79-.3,1.74-.82,1.97-1.71.05-.18.05-.36-.02-.51.25-.71.28-1.5.32-2.25.04-.8.08-1.59.12-2.39.04-.79.06-1.58.08-2.38.02-.68.11-1.41.07-2.1,1.3-.62,2.57-1.34,3.93-1.84,1.77-.65,3.6-1.1,5.46-1.39,3.98-.62,7.8-.29,11.78,0,.62.04,1.24-.3,1.56-.84.2-.34.25-.78-.02-1.02.28-1.88.27-3.86.34-5.76.07-1.98.16-3.97.26-5.95.02-.45.05-.9.07-1.36,0-.1.06-.38.05-.53l.12-.04c.89-.14,1.85-.63,2.71-.91,1.82-.6,3.79-1.07,5.52-1.9.13-.06.27-.2.38-.35.01,0,.03,0,.04-.01.29-.12.57-.38.6-.71.06-.56.13-1.12.2-1.68.03-.22.07-.43.11-.64.13-.02.27-.05.4-.06.25-.03.51-.04.77-.07.33-.04.65-.11.97-.2.26-.07.54-.27.73-.51.31-.05.68-.38.77-.62.31-.72.36-1.56.44-2.33.08-.8.16-1.6.24-2.4.08-.77.17-1.54.22-2.31.03-.38.05-.76.08-1.14.01-.15.03-.31.04-.46.17-.04.34-.1.5-.15.48-.15.95-.31,1.43-.47.98-.33,1.97-.67,2.95-1,.95-.33,1.9-.67,2.85-1.01,1.01-.36,2.08-.67,3.04-1.15.22-.11.46-.3.64-.54,4.02.34,8.1.39,12.12.54,4.63.18,9.26.37,13.89.58,9.19.41,18.38.85,27.57,1.37,5.2.29,10.41.61,15.61.94.18.01.36-.02.53-.06.31.62,1.72-.26,1.71-.88-.02-2.6-.32-5.22-.45-7.82-.13-2.52-.22-5.04-.29-7.57-.14-5.13-.17-10.26-.14-15.4.05-10.28.29-20.56.47-30.84.1-5.7.27-11.42.07-17.12.02-.07.02-.14,0-.21-.01-.05,0-.09-.02-.14,0-.04,0-.07,0-.11,0-.03-.01-.04-.02-.06,0-.73.62-1.33,1.21-1.72.89-.6,1.93-1.04,2.95-1.38,1.01-.33,2.05-.56,3.11-.66,1.26-.12,2.47-.05,3.6-.73.08-.05.17-.11.25-.18.31.14.8-.17.94-.44.39-.77.4-1.62.44-2.48.04-.88.07-1.76.08-2.64.01-.8-.03-1.61,0-2.42,0-.13,0-.29.04-.41.01,0,.02-.02.05-.03.27-.18.59-.31.88-.45,2.28-1.09,4.66-1.98,6.52-3.71.83-.34,1.54-1.5,1.08-2,.52-4.25.83-8.51,1.08-12.78.06-1.09.08-2.2.19-3.29.13-1.21.55-1.73,1.51-2.39,1.93-1.31,3.92-2.54,5.88-3.81,1.93-1.25,3.85-2.51,5.78-3.76,1.82-1.18,3.71-2.74,5.78-3.45,1.98-.68,4.38-.56,6.45-.72,2.28-.17,4.55-.34,6.83-.5.26-.02.53-.17.76-.37.16-.13.29-.27.35-.4.24-.35.34-.74.17-.96.2-1.5.27-3.03.29-4.54.01-.85-.02-1.72.04-2.57.03-.36.06-.53.33-.76.3-.25.69-.45,1.02-.66,1.42-.9,2.86-1.76,4.32-2.59,1.5-.85,3.08-1.57,4.57-2.44.42-.24.99-.77.83-1.32-.03-.11-.09-.18-.15-.24.07-.27.14-.53.18-.82.05-.4.08-.8.13-1.2.1-.86.19-1.71.29-2.57.21-1.68.42-3.36.69-5.03.01-.07,0-.13,0-.18.54-.4,1.05-.82,1.58-1.22,1.14-.86,2.28-1.73,3.41-2.61,2.16-1.67,4.1-3.77,6.87-4.24,2.78-.47,5.57-.85,8.39-1.08,1.72-.14,5.65-.01,5.24-2.8-.04-.28-.17-.43-.35-.5.11-2.16.08-4.32.29-6.47.11-1.14.26-2.27.46-3.4.1-.6.22-1.21.35-1.8.09-.42.15-1.08.41-1.43.26-.34.85-.62,1.2-.86.45-.31.9-.6,1.36-.89.91-.56,1.84-1.09,2.79-1.59,1.55-.82,3.23-1.42,4.82-2.17.46-.22,63.94-.45,64.39-.7.46-.26,1-.75,1.02-1.33.02-.49-.38-.81-.86-.75Z"/><path d="m585.45,211.16s0,0,0,0c.1-.03.19-.13,0,0Z"/></g></g><path d="m690.81,329.85c-.01-7.05-.03-14.1-.05-21.16,0-.71-1.16-.17-1.16.36-.06,24.79-.97,130.82-.9,137.86,0,.63,1.03.15,1.03-.32.25-24.79,1.13-91.96,1.08-116.75Z"/><path d="m685.16,320.3c-1.66-.07-3.33.13-4.97.34-1.66.21-3.31.46-4.95.81-.22-.07-.63.29-.66.49-.17,1.03-.14,2.1-.17,3.14-.03.99-.04,1.99-.04,2.99-.02,1.89-.89,104.61-.91,118.75,0,0,0,0-.01,0-1.88.39-3.75.71-5.68.61-.03,0-.05,0-.08,0-.01-.07-.05-.13-.12-.16-.09-.03-.2-.08-.29-.1-.09-.02-.2,0-.3,0-.18,0-.36,0-.54,0-.33,0-.66-.01-.99-.05-.66-.06-1.33-.17-1.98-.31.27-21.85,2.14-94.06,2.5-114.03.1-5.3.2-10.6.24-15.9.32-.12.65-.49.63-.76.59-.34,1.17-.71,1.7-1.13.09-.07.16-.16.23-.25.02,0,.03.01.05.02,1.14.16,2.34.1,3.49.1,1.23,0,2.47.01,3.7.01,2.47,0,4.94,0,7.42-.01.65,0,1.39-1.25.44-1.24-2.44.02-4.87.07-7.31.11-1.2.02-2.39.05-3.59.07-1.24.03-2.53-.01-3.76.16-.09.01-.23.1-.35.22,0,0,0-.02,0-.03-.23-.26-.66-.11-.89.08-.2.16-.4.31-.61.46-.1.07-.21.15-.31.22-.05.03-.1.07-.16.1-.01,0-.03.02-.04.03-.23.14-.47.26-.7.39-.2-.15-.69.13-.73.42-.02.01-.03.02-.05.04-1.18.05-2.37.19-3.53.31-.75.08-1.49.16-2.23.25-.37.05-.75.09-1.12.14-.37.05-.94.24-1.31.14-.43-.12-.92.37-.98.76-.1.6.02,1.27.06,1.88.03.59.06,1.18.09,1.77.03.54.06,1.09.09,1.63-.05-.04-.12-.08-.22-.1-1.07-.25-2.32-.14-3.41-.13-1.13.01-2.26.07-3.38.16-1.13.09-2.25.23-3.37.42-1.08.17-2.29.3-3.28.79-.06.03-.13.09-.2.17-.25.01-.6.26-.61.52-.03,2.05-2.15,107.65-2.04,121.69-.06.11-.08.22,0,.3,0,.03,0,.07,0,.09,0,.4.42.34.72.12,1.04.23,2.13.26,3.18.16.58-.05,1.14-.17,1.71-.28.46-.08.72-.12,1.08.15.2.16.39.31.62.43,1.01.52,2.21.55,3.32.59,1.35.05,2.8.12,4.12-.15.3-.06.72-.48.74-.76.09-.1.15-.21.15-.33,0-1.26,1.95-124.7,1.95-125.96,0-.6,0-1.2-.01-1.79,0-.39.03-.82.01-1.23.21-.01.43-.01.59-.03.37-.04.74-.08,1.11-.11.77-.08,1.54-.15,2.31-.21,1.27-.11,2.55-.15,3.82-.28-.93,19.92-.98,39.92-.93,59.85.02,5.49-1.8,60.85-1.84,70.4-.02.05-.03.09-.03.14-.98-.09-1.97-.12-2.96-.16-1.21-.04-2.41-.08-3.62-.11-.33,0-.86.73-.37.77,2.32.18,4.68.46,7.01.44.13.34.83-.02.84-.38,0-.02,0-.05,0-.08.43.14.87.26,1.32.33.72.11,1.55.23,2.26,0,.03.06.08.1.18.11,2.05.22,4.22.13,6.17-.6.03-.01.06-.03.09-.04,0,.38,0,.64,0,.72,0,.07.02.11.04.15-.15.18-.19.38.02.52.7.44,1.62.64,2.42.82.83.18,1.68.3,2.53.36,1.71.11,3.52.03,5.15-.53.28-.1.58-.33.64-.64.05-.26-.12-.47-.4-.43-1.62.24-3.2.51-4.85.43-.8-.04-1.6-.14-2.39-.29-.73-.14-1.44-.38-2.16-.53.03-.06.05-.12.06-.18.1-2.07,1.08-118.43,1.06-120.5,0-1.03-.02-2.05-.05-3.07-.02-.72,0-1.48-.08-2.21,1.43-.12,2.85-.26,4.28-.38,1.62-.13,3.25-.19,4.86-.44.33-.05.65-.26.79-.57.1-.21.1-.59-.22-.6Zm-30.62,126.38c-1.2,0-2.4.13-3.61.08-1.2-.05-2.36-.12-3.36-.86-.98-.73-1.91-.16-3.02,0-1.22.18-2.42.13-3.64.02.16-14.08,1.92-119.14,1.89-121.2.9.04,1.88-.23,2.77-.35,1.11-.15,2.23-.26,3.34-.34.11,0,.21,0,.32-.01-.05.07-.1.15-.1.22-.07,1.97-.14,44.34-.21,46.31-.02.57.93.14.94-.29.05-1.96.1-44.31.15-46.27.72-.03,1.43-.08,2.15-.08,1.12,0,2.28.16,3.39.05.27-.03.69-.35.88-.68,0,.07-1.84,118.33-1.89,123.39Z"/><path d="m801.37,259.71c.68-.03,1.34-.22,1.89-.63.29-.22.55-.48.74-.79.01-.02.02-.05.03-.07.36-.02.74-.02,1.06-.06.73-.07,1.46-.14,2.19-.21,1.46-.14,68.59-.23,70.04-.44.68-.1,1.4-.57,1.62-1.25.2-.62-.16-1.07-.81-1.04-.11,0-.23.02-.34.02-.05-.05-.11-.1-.2-.1-.85-.05-67.39.19-68.24.34-.89.1-1.77.2-2.66.29-.94.09-1.91.13-2.84.29-.67.11-1.66.68-1.93,1.42-.02,0-.05,0-.07,0-.44,0-.87,0-1.3.04-.92.07-1.84.24-2.74.48-.63.17-1.22.38-1.63.79-.15.09-.29.23-.31.37-.22.18-.39.45-.36.72,0,.08.04.16.06.25-.06.24-.11.48-.14.73,0,0-.01,0-.02,0-.35.11-.71.18-1.07.26-.81.17-1.57.37-2.33.72-1.09.51-2.32,1.31-2.99,2.39-.24,0-.48-.02-.73-.07-.47-.09-.93-.23-1.4-.34-1.11-.27-2.14-.29-3.26-.05-1.11.24-2.19.5-3.31.65-1.12.15-2.33.23-3.41.6-1.22.41-2,1.34-2.26,2.58-.25,1.18-.43,2.38-.55,3.58-.16,1.68-.29,3.42-.21,5.12-.15.05-.29.09-.41.13-.85.23-1.69.49-2.53.78-1.57.54-3.41,1.07-4.71,2.14-1.52,1.25-1.58,3.2-1.73,5.02-.07.88-.13,1.76-.12,2.64,0,.31,0,.62.02.93-1.33-.1-2.72.04-4.02.08-1.63.04-3.27.09-4.9.13-3.51.1-7.03.19-10.54.29-5.5.15-11.61.31-16.53,3.09-.11-.03-.21-.06-.35-.06-.19,0-.37,0-.56,0-.44,0-.87,0-1.31,0-.82,0-1.63,0-2.45.03-.82.02-1.64.03-2.47.03-.9,0-1.83.01-2.71.26-.02,0-.05.02-.08.04-.31-.12-.73-.02-1.01.11-.27.14-.54.27-.81.41-.04.02-.09.04-.13.07-.98.5-1.97,1-2.99,1.41-.68.28-1.37.53-2.07.76-.83.28-1.69.5-2.32,1.15-1.05,1.09-.94,2.6-.96,4-.02,1.24.07,2.47.26,3.68-.8-.02-1.65.11-2.35.11-1.47,0-2.95-.08-4.42-.18-2.78-.18-5.55-.43-8.34-.5-2.21-.05-4.87-.26-6.76,1.11-.54.39-1.22,1.22-1.55,2.07-7.99.94-16.01,1.85-24.07,1.75-4.11-.06-8.2-.42-12.3-.63-4.12-.21-8.35-.47-12.43.28-.15.03-.31.12-.47.23-1.13.17-2.24.75-2.87,1.69-.49.74-.6,1.6-.69,2.47-.12,1.16-.22,2.32-.28,3.48-.21,3.88-.25,7.8.07,11.69-5.62-.27-11.26.66-16.82,1.39-.65.09-1.42.64-1.48,1.35-.19,2.38-.4,4.75-.56,7.13-.07,1.12-.15,2.24-.21,3.36-.05,1.11-.24,2.35.02,3.44.18.75,1.28-.06,1.41-.44.38-1.09.44-2.3.58-3.44.14-1.19.25-2.4.37-3.59.2-1.99.36-3.99.52-5.98,1.9-.26,3.82-.54,5.74-.79-.44,7.32-.21,14.71-.22,22.05,0,7.53,0,15.05,0,22.58,0,14.88.04,29.77.04,44.65,0,8.51,0,17.01,0,25.52,0,.03.01.05.02.07-.18.19-.26.44.02.51,2.62.64,5.34.31,7.99,0,.27-.03.55-.23.63-.49.07-.23-.06-.44-.32-.41-2.39.28-4.8.53-7.19.24.08-.1.13-.21.13-.33-.01-29.94.01-59.88,0-89.82,0-8.2.29-16.49-.22-24.69,1.52-.18,3.05-.32,4.57-.4,1.74.02,4.72.04,6.13.08,0,0,.01,0,.02,0-.18,12.76-.28,25.23-.44,38.57-.07,5.63-1.08,71.69-1.12,77.96-.13.16-.17.34.03.45.42.24,1.03.27,1.51.33.49.07.97.13,1.46.17,1.04.09,2.08.09,3.11,0,.26-.02.53-.23.61-.47.05-.01.11-.03.16-.04.08-.03.16-.07.23-.12.03-.03.07-.06.1-.09.06-.06.1-.13.13-.21.02-.05.03-.1.02-.15,0-.05-.01-.09-.04-.13-.03-.04-.07-.06-.11-.07-.05-.02-.1-.03-.15-.02-.08,0-.16.03-.23.07-.11.05-.21.1-.32.15-.06.03-.11.06-.15.11-.03.03-.05.06-.08.09-.93-.03-1.86-.07-2.78-.14-.5-.03-.99-.08-1.48-.14-.34-.04-.7-.11-1.05-.14.38-20.19,1.52-100.9,1.73-120.81.06-5.47.12-9.12.14-14.47.03-.05.05-.1.09-.14.34-.34,1.13-.29,1.57-.38.28-.06.55-.17.77-.34.03,0,.06,0,.1,0,.08,0,1.2,0,3.04,0,2.68.03,5.36.07,8.05.25,4.03.26,8.07.57,12.11.63,5.43.08,10.85-.31,16.26-.85,4.91,0,8.3,0,8.44-.01.25-.02.5-.21.61-.44.01-.03.02-.07.03-.1-.07,9.03-1.25,138.6-.98,141.4.05.56,1.31.89,1.52.62,1.81.06,3.61.03,5.42-.13.32-.03.66-.28.77-.59.1-.28-.08-.52-.38-.49-1.9.18-3.82.23-5.72.15.3-12.72,1.09-139.69.96-141.84.4-2.55,1.07-1.86,1.9-1.87.9,0,1.79.02,2.69.03,1.94.02,3.88.04,5.83.06,1.94.02,3.88.04,5.83.06,1.92.02,3.94.21,5.85,0,.08,0,.18-.05.28-.1.01,1.39.03,2.78.03,4.16,0,.14,0,.44,0,.85-.03,0-.05,0-.08,0h0c.02.16.02.33.01.5,0,.1-.03.3-.05.47.04-.02.09-.05.13-.08.17,15.18,1.71,120.74,1.95,138.83-.43.05-.85.09-1.28.08-.35,0-.7-.05-1.04-.09-.39-.05-.79-.1-1.16-.2-.02,0-.04,0-.05,0,0-.17.02-.5.02-.95.02-.08.03-.16,0-.22,0-.15,0-.33,0-.51-.04.01-.08.02-.12.03.23-4.45.14-8.95.15-13.4.02-4.94.06-9.88-.11-14.82-.02-.63-1.01-.14-1.02.32-.17,4.96-.12,9.92-.11,14.89.02,4.44-.08,8.92.16,13.36-2.09.07-4.17.18-6.26.28-1.14.05-2.28.11-3.41.17-1.13.06-2.28.14-3.34-.33-.47-.21-1.35.66-.82.91.97.45,1.99.51,3.04.49,1.2-.03,2.41-.09,3.61-.14,2.41-.1,4.82-.19,7.23-.33,0,.13,0,.25.02.38,0,.06.02.11.04.14,0,.01,0,.03,0,.05,0,.23.15.29.33.25,0,.06.04.11.11.13.39.14.75.29,1.15.38.37.08.75.13,1.12.16.58.04,1.17.04,1.75-.06.01.82.02,1.38.02,1.59,0,.42.42.4.75.2,1.11.33,2.2.56,3.37.6,1.21.04,2.42-.06,3.6-.33-.05.1-.08.2-.05.3l.02.06c.04.13.14.2.27.23.48.1,1,.09,1.48.1.51,0,1.02,0,1.53-.03,1.03-.05,2.05-.19,3.06-.4.22-.04.45-.23.58-.44,0,.63,0,1.1,0,1.34,0,.21.12.29.28.3.02.02.04.04.08.06,1.64.65,3.52.85,5.27.92,1.82.07,3.65-.06,5.41-.53.06-.02.13-.05.19-.08,0,.18,0,.35,0,.53-.03.05-.06.1-.08.15-.15.48.03.95.43,1.23.45.31,1.07.3,1.59.35.61.06,1.21.11,1.82.17.67.06,1.33.15,2,.08.12-.01.24-.06.35-.13,1.26-.02,2.52-.12,3.75-.36.13-.03.26-.08.36-.17,0,.39,0,.68,0,.85,0,.14.06.22.13.28-.12.15-.16.33.02.45.2.14.41.27.62.4-.06.12-.05.24.1.29.29.1.59.18.89.25.49.22,1,.39,1.55.45.44.04.86.01,1.26-.08.2.02.4.03.59.05,1.37.12,2.74.21,4.12.24,1.1.03,2.19.02,3.29-.01.03,0,.06,0,.09,0,.29,0,.59,0,.89-.03,1.45-.06,2.89-.18,4.33-.36.02.36.02.73.04,1.09.01.18.09.28.2.32-.05.12-.05.24.07.33.73.52,1.55.9,2.43,1.06.44.08.89.11,1.33.11.51,0,1.11-.03,1.53-.34.03-.02.06-.05.09-.08.39-.03.79-.06,1.18-.1.11-.01.21-.06.31-.12,0,.35,0,.61,0,.75,0,.28.18.37.39.35,1.16.42,2.39.62,3.61.75.35.04.7.04,1.05.06,5.4,1.31,11.02,1.64,16.55.91.17-.02.34-.09.51-.17-.03.31-.04.62.04.85.21.6,1.18.62,1.7.74,1.71.4,3.42.81,5.15,1.13,3.5.65,7.07.81,10.62.54.68-.05,1.48-1.39.47-1.32-3.13.2-6.25,0-9.34-.6-1.48-.29-2.94-.65-4.41-.97l-2.14-.47c-.47-.1-.5-.1-.56-.57-.04-.31-.03-.62-.08-.94-.08-.46-.54-.27-.88.03-.11-.07-.24-.11-.42-.09-3.74.42-7.49.45-11.21.11.01-.22-.14-.37-.38-.35-.14.01-.27.03-.4.06-.04.01-.09.02-.13.03,0,0-.02,0-.04,0-.19.04-.38.07-.58.09-.01,0-.02,0-.04,0-2.43-.29-4.85-.73-7.24-1.34-.35-.09-.81.23-1.02.58.23-20.44,3.02-158.66,2.98-178.38,0-4.88-.03-9.75-.1-14.63.08-.52.16-1.03.26-1.55,0-.04.02-.1.04-.16.95-.36,1.89-.73,2.86-1.03.04-.01.09-.02.13-.03.41-.06.82-.12,1.23-.2.93-.18,1.88-.55,2.83-.58-.24,8.68-3.05,180.4-3.02,183.46,0,.64,1.04.15,1.04-.32.03-2.97,2.9-172.94,2.89-183.09,1.23.17,2.4.6,3.61.43-.11,17.06-.15,34.12,0,51.17,0,.65,1.06.16,1.07-.33.13-17.04.09-34.1-.03-51.14.01,0,.02,0,.04-.01.52-.25,1.01-1.03.82-1.49.2-.15.41-.31.62-.45.04-.03.11-.07.12-.08.05-.03.09-.06.14-.08.15-.08.29-.16.44-.23.07-.03.13-.06.2-.09.03-.01.03-.01.03-.02.01,0,.02,0,.05-.02.16-.06.31-.11.47-.16.73-.22,1.25-.29,2.04-.45.35-.07.68-.16,1-.28-.16,2.41-.29,4.82-.4,7.23.36-.03.73-.03,1.09,0,.11-2.57.21-5.14.28-7.71.18-.12.36-.26.53-.43.25-.25.48-.74.3-1.07-.04-.08-.11-.14-.17-.19.07-.14.15-.29.22-.43,1.29-.28,2.54-.36,3.89-.42Zm-75.22,193.08c-.08-.08-.19-.12-.33-.1-1.03.12-2.06.22-3.09.28-.51.03-1.03.04-1.54.05-.34,0-.69-.01-1.02.03.04-.07.06-.15.07-.23.01-.32-.28-.36-.53-.31-2.29.47-4.72.54-7.01-.01,0-.3,0-.83-.01-1.52.03-.05.06-.11.07-.17.02-.11,0-.21-.07-.27-.18-18.06-1.93-137-1.93-141.17,0-3.91.13-7.87-.13-11.78,0-.05,0-.09,0-.14.01-.2.04-.4.07-.61.55-.06,1.21-.41,1.73-.6.66-.25,1.32-.51,1.96-.79.83-.36,1.65-.76,2.44-1.19.04,3.85.17,7.69.24,11.54.08,4.25.17,8.5.27,12.76.05,2.38-.09,4.76.23,7.14.02.12.87.03.89-.06.27-2.13.13-4.26.12-6.39,0-2.11.02-4.22-.01-6.33-.06-4.25-.27-8.5-.46-12.75-.1-2.14-.21-4.27-.38-6.41.07-.04.15-.08.22-.12.16-.1.33-.23.49-.38.3,0,.61,0,.89,0,.02,0,.04,0,.06,0,.34.05.69.09,1.01.12.78.08,1.56.15,2.34.22.79.07,1.58.1,2.38.13.41.02.81.03,1.22.03.1.09.27.13.52.05.06-.02.13-.04.19-.06.18-.02.35-.05.52-.08.3,5.81.25,11.65.31,17.46.06,5.83-1.64,124.24-1.74,141.65Zm21.81-26.68c-2.8-25.87-12.28-114.13-13.48-124.57.45-.21.89-.43,1.34-.63.55-.24,1.13-.45,1.7-.68.49,8.96,9.45,96.75,10.28,105.67.02.22.21.26.42.19-.1,7.05-.19,13.83-.27,20.03Zm.37-26.8c-1.98-20.15-8.22-82.68-8.59-86.66-.41-4.29-.72-8.62-1.27-12.9,3.57.25,7.16.39,10.74.37.09.04.2.07.35.07.01,0,.02,0,.03,0-.18,4.63-.06,9.3-.07,13.93,0,2.73-.65,46.58-1.18,85.19Zm17.11-100.41c-.02,5.82-.05,11.64-.06,17.47-.02,11.72-.06,23.44-.07,35.17-.03,23.35-.02,46.7-.01,70.05v19.66c0,5.9-.1,11.82.14,17.73-.7.06-1.41.1-2.12.15-.07-.1-.19-.17-.32-.14-.33.06-.66.15-1,.22-.71.03-1.43.06-2.14.07-.1-.01-.21-.03-.31-.04-.02.02-.04.03-.07.05-.62,0-1.25.01-1.87,0-1.5-.02-3.01-.09-4.51-.2-.06-.07-.12-.12-.18-.19-.11.05-.23.1-.36.14-.86-.08-1.73-.2-2.59-.25-.49-.18-.97-.4-1.43-.62.15-.13.26-.29.26-.45.32-19.41,2.14-152.41,1.94-157.59,2.09-.04,4.17-.12,6.25-.28.12,0,.24-.07.36-.15,0,.49-.01.98-.02,1.46.35-.09.7-.14,1.06-.15-.02-1.56-.03-3.12-.07-4.69,1.06-.12,2.14-.2,3.2-.25.7-.03,1.39-.04,2.09-.03.61.01,1.23.09,1.83.07,0,.94,0,1.87,0,2.81Zm0-3.91c-.49-.04-.99-.02-1.46-.02-.7,0-1.4.01-2.1.05-1.46.08-2.88.35-4.31.64-.34.07-.7.83-.18.75-.02.74-.02,1.49-.04,2.23-2.28.06-4.57.1-6.85.13-.09-.07-.21-.12-.41-.12-.14,0-.28.06-.41.13-3.72.04-7.44.02-11.16-.14-.09,0-.19.03-.29.08-.21-.09-.64.16-.74.41-.64.23-1.27.52-1.88.8-.78.36-1.55.75-2.3,1.17-.25.14-.57.44-.48.76.08.28.39.25.61.17,1.29,11.63,12.86,128.42,14.2,140.05.01.11.06-.16.12-.67-.09,7.27-.15,12.67-.16,15.21-.03,0-.05-.01-.09,0-1.29.15-2.57.29-3.85.36-.02,0-.03-.02-.06-.03-.53-.16-1.08-.16-1.62-.2-.52-.04-1.04-.07-1.57-.1-.49-.03-.98-.04-1.46-.11-.17-.03-.39-.08-.55-.19.01-.04.03-.07.03-.11.14-23.14.07-46.28-.02-69.43-.03-6.55-.05-13.11-.12-19.66,0-.49-.8-.12-.8.25-.24,23.16-.24,46.33-.19,69.49.01,5.86.04,11.71.08,17.57-1.67.25-3.33.46-5.02.42-1.75-.04-3.41-.41-5.13-.71-.03-8.54,1.81-137.41,1.71-143.58-.05-3.03-.1-6.06-.15-9.09-.04-2.64,0-5.31-.33-7.93.22-.05.44-.23.47-.42,0,0,0,0,0,0,2.1-.72,4.18-1.42,6.42-1.73,1.03-.14,2.07-.23,3.11-.29-.03,1.95-.08,3.9-.08,5.85,0,.6.99.15.99-.31,0-1.86-.05-3.72-.08-5.58,1.93-.09,3.87-.1,5.8-.15,3.27-.08,6.53-.17,9.8-.25l4.9-.13c1.68-.04,3.38,0,5.02-.37.13-.03.29-.12.44-.24.07-.01.14-.03.2-.05,0,0,0,0,.01,0,0,1.7,0,3.4,0,5.11Zm7.22,166.49c-1.25.07-2.49.24-3.73.39,0,0-.01,0-.02,0-.05,0-.11,0-.16-.02-.8-.12-1.57-.36-2.28-.75.11-.11.19-.25.19-.38.31-5.91.2-11.84.2-17.76,0-5.82,0-11.63,0-17.45v-35.14c-.02-23.34-.08-46.67-.13-70.01-.01-6.55-.03-13.09-.06-19.64-.02-5.1.03-10.22-.06-15.32.04-.38.08-.76.12-1.14.09-.77.21-1.54.33-2.31.06-.41.05-1,.37-1.31.97-.43,1.95-.83,2.95-1.16.69-.23,1.38-.43,2.09-.61.56-.14,1.19-.22,1.75-.4.18.16.52.11.71.03.23-.09.43-.26.56-.46-.65,40.23-2.7,167.38-2.84,183.42Z"/><path d="m804.85,268.88c.09-3.37.19-6.74.28-10.12.02-.55-.89-.13-.91.28-.11,3.11-.21,6.22-.32,9.33.32.13.64.3.94.5Z"/><path d="m798.57,279.04c-.01-.81-1.31-.19-1.32.41-.33,19.02-1.97,163.19-1.93,182.22,0,.76,1.26.19,1.26-.39.03-19.03,2.33-163.21,1.99-182.24Z"/><path d="m672.39,482.94c.81-.05,1.81-1.58.57-1.6-8.1-.11-16.23.26-24.33.45-8.15.19-16.3.39-24.45.6-.58.02-1.24,1.01-.65,1.2-.73.15-1.41.46-2.04.93,0-.01,0-.03,0-.04-.06-.89-1.44-.2-1.45.45-.09,5.96.06,11.92-.04,17.88-.05,2.93-.11,5.87-.2,8.8-.04,1.47-.09,2.93-.15,4.4-.05,1.41-.26,7.82-.07,9.23.13.96,1.58-.21,1.68-.7.29-1.42.21-7.9.26-9.35.05-1.46.09-2.93.13-4.39.07-2.93.12-5.86.14-8.78.02-5.08.05-10.19-.18-15.28.56.26,1.19.36,1.8.44,1.34.18,2.67.34,4.01.51,2.67.34,5.35.65,8.03.88-.06,3.6-.13,7.19-.18,10.79-.03,1.88-.03,3.76-.04,5.64-.01,1.75-.19,3.59.13,5.31.16.85,1.42-.16,1.5-.62.3-1.85.13-3.79.11-5.66-.01-1.8-.02-3.6-.05-5.39-.06-3.45-.12-6.9-.18-10.34.13-.11.25-.22.33-.37.03-.04.04-.09.06-.14,2.04.09,4.09.09,6.13.11,3.16.04,6.32.07,9.48.09,6.34.03,12.69.09,19.03,0,1.05-.01,2.27-2,.72-2.02-6.26-.08-12.53-.03-18.79,0-6.28.04-12.69-.22-18.93.42-.12.01-.27.1-.42.23-1.75-.24-3.5-.46-5.26-.66-1.25-.14-2.51-.28-3.76-.42-.78-.09-1.67-.1-2.41-.44.61-.34,1.31-.49,2-.38.53.08,1.38-.88.78-1.11,7.44.03,14.87,0,22.31-.09,8.12-.1,16.28-.09,24.38-.61Z"/><path d="m617.36,492.45c-1.58.09-3.17.18-4.75.26.22-9.79.18-19.61.05-29.4.04-.05.07-.09.11-.14h0s.05-.06.07-.09c.02-.02.04-.05.07-.07.06-.04.15-.15.22-.16-.12.08-.13.09-.04.03.04-.02.08-.05.12-.07.05-.03.11-.06.16-.09,0,0,.01,0,.06-.02.04-.02.09-.03.13-.05.08-.03.16-.05.23-.07.03,0,.25-.05.12-.03.12-.02.23-.04.35-.06.24-.04.47-.06.71-.07.49-.02.97,0,1.45-.04.35-.04.7-.28.84-.6.13-.29.08-.54-.24-.64-.53-.17-1.1-.2-1.65-.22-.57-.02-1.13.05-1.67.23-.93.31-1.96.98-2.38,1.92-.18.17-.31.38-.32.58-.12,9.7-.17,19.43.06,29.13-8.08.41-16.16.69-24.25.73-.1,0-.21.04-.31.1-.02,0-.03,0-.05,0-.63-.08-1.27-.15-1.91-.11-1.18.07-2.37.45-3.39,1.06-1.84,1.12-3.14,2.97-3.5,5.08-.05.08-.08.16-.09.24-.36,3.85-.5,7.71-.53,11.58-.03,3.7-.2,7.57.36,11.23.13.83,1.55-.09,1.57-.65.15-3.76-.22-7.56-.23-11.33,0-3.75.11-7.5.21-11.26,0-.01,0-.02,0-.03.36-1.76,1.47-3.32,3.15-4.07.89-.4,1.89-.53,2.85-.43,1.24.13,2.36.32,3.54-.19.01,0,.02-.01.03-.02,9.43.14,18.87-.05,28.28-.73.79-.06,1.72-1.61.55-1.54Z"/><path d="m665.24,495.23c-5.04-.27-10.11-.07-15.16-.08-.07,0-.15.02-.22.05-.06-.02-.12-.03-.19-.02-.85.08-1.47.85-1.55,1.67-.04.45.02.93.04,1.39.02.55.04,1.09.07,1.64.08,2.04.06,4.15.44,6.16.14.77,1.39-.1,1.42-.59.13-1.67-.02-3.37-.1-5.04-.04-.83-.09-1.66-.14-2.49-.02-.38-.04-.77-.06-1.15,0-.11,0-.22,0-.33,4.93.07,9.87.35,14.8.18.57-.02,1.54-1.33.67-1.38Z"/><path d="m611.91,479.18c-6.49.36-16.94.66-23.44.86-3.17.1-6.34.17-9.51.23-1.63.03-3.26.05-4.88.08-1.72.03-3.49-.06-5.19.21-.33.05-1.09.77-.66,1.01-.25.16-.46.4-.47.64-.4,6.85-.23,13.78-.19,20.64.04,6.86.19,24.56.46,31.42.04.99,1.64.24,1.63-.5-.17-6.86-.33-24.56-.42-31.43-.09-6.47.08-12.96-.1-19.43.11.07.22.13.32.19.42.26.84.52,1.27.76.43.24.88.46,1.33.67.48.23.98.5,1.51.58.55.08,1.56-.75.95-1.25-.39-.32-.91-.47-1.36-.68-.44-.2-.87-.42-1.3-.64-.43-.22-.87-.44-1.29-.67-.03-.01-.05-.03-.08-.04.78.01,1.57,0,2.34,0,1.62,0,3.24,0,4.87-.02,3.33-.04,6.66-.1,9.99-.19,6.58-.17,17.09-.44,23.66-.81.83-.05,1.78-1.67.57-1.6Z"/><path d="m611.43,484.26c-6.05.71-28.91,1.02-35,.86-.54-.01-1.33,1.18-.59,1.22,6.15.28,29.03.05,35.13-.78.65-.09,1.44-1.42.46-1.3Z"/><path d="m530.51,527.33c-1.36-.03-2.69-.14-4-.51-1.31-.38-2.57-1.01-3.67-1.81-.51-.37-1.61.66-1.02,1.13,2.26,1.8,5.42,2.85,8.3,2.31.33-.06.68-.27.79-.61.1-.32-.08-.5-.39-.51Z"/><path d="m574.96,488.34c0-.59-.97-.14-.97.3-.03,12.84-.3,25.71-.04,38.54.01.65,1.06.15,1.07-.33.25-12.83-.02-25.68-.06-38.51Z"/><path d="m504.61,453.02c0-.58-.95-.14-.95.29-.03,15.95-.22,43.72,0,59.67,0,.6.98.14.98-.3.21-15.94.01-43.72-.03-59.66Z"/><path d="m547.11,453.25c-11.81.28-23.61.76-35.42,1.1-.4.01-.86.79-.27.77,11.78-.34,23.57-.53,35.35-.92.49-.02,1.06-.97.34-.95Z"/><path d="m611.49,473.3c-11.27.51-30.43.78-41.71.89-.17,0-.35.1-.5.23-2.08-.25-4.15-.64-6.16-1.22-.12-.03-.28,0-.43.09,0-.19,0-.39.02-.58.01-.21-.09-.28-.23-.29-.06-.05-.13-.1-.22-.12-1.08-.32-2.19-.57-3.27-.87-.2-.06-.39-.12-.59-.18,7.43.1,14.87-.1,22.3-.23,4.17-.08,8.34-.14,12.51-.25,4.27-.12,13.5-.12,17.76-.51.49-.05,1.45-1.24.62-1.27-4.11-.17-13.18.04-17.3.12-.82.02-1.64.04-2.46.06.22-.19.38-.44.29-.64-1.6-3.61-6.81-2.36-9.86-2.17-3.6.22-7.2.39-10.81.54.04-.64.1-1.27.1-1.92v-2.17c-.01-.72-.02-1.44-.03-2.17,0-.69.02-1.4-.05-2.09-.02-.18-.15-.22-.3-.18.04-.18-.04-.33-.34-.32-14.58.63-34.08.33-48.65,1.02-.21.01-.44.25-.51.45-.16-.04-.38.06-.53.21-.58-.16-1.04-.53-1.56-.83-.59-.34-1.08-.4-1.75-.37-1.05.04-1.83-.32-2.79-.69-.86-.32-1.72-.63-2.58-.94-.75-.27-1.59-.47-2.29-.85-.77-.41.01-1.01-.36-1.61-.07-.11-.22-.22-.42-.33,0-.06,0-.13,0-.19,0-.38-.42-.31-.69-.1-.96-.33-2.24-.63-2.83-.95,14.35-.16,28.72-.42,43.07-.85.02,0,.04-.01.06-.02.06.04.12.08.19.11.14.08.27.16.41.24-.07.14-.09.31.07.39.51.23,1.03.47,1.46.82.44.36.7.88,1.16,1.22.4.29.9.44,1.38.55.26.06.53.11.79.17.11.02.23.04.34.08.05.02.1.06.15.08,0,0,0,.01.01.02-.04.06-.07.13-.09.19-11.61.9-23.24,1.38-34.89,1.55-.41,0-.89.79-.28.79,12.38.1,24.77-.48,37.1-1.56.14-.01.29-.11.41-.23,3.3.5,6.59,1.06,9.86,1.74.48.1,1.23-.83.59-.96-3.4-.69-6.83-1.24-10.29-1.61-.11-.01-.23.04-.35.12-.2.02-.41.03-.61.04,0-.1-.03-.18-.15-.23-.09-.04-.18-.07-.27-.1.01-.09,0-.18-.02-.27-.1-.32-.42-.44-.71-.51-.58-.15-1.2-.2-1.75-.43-.26-.11-.51-.25-.71-.46-.24-.26-.43-.56-.69-.8-.31-.27-.66-.47-1.03-.65.07-.15.09-.32-.08-.42-.36-.2-.73-.4-1.1-.59-.1-.05-.21-.11-.31-.16-.04-.06-.11-.09-.22-.11,0,0-.01,0-.02-.01-.09-.04-.18-.09-.26-.13-.12-.06-.25-.09-.38-.13-.16-.05-.4.1-.5.21-.02.02-.02.04-.04.06-14.28.19-28.56.55-42.83,1-.21,0-.43.2-.54.4-.24.23-.32.58-.11.92.4.65,1.71.83,2.37,1.06.4.14,1,.24,1.37.48,0,11.49-.1,46.63-.04,58.13,0,.63,1.03.15,1.03-.32.05-10.71-.03-45.07-.05-55.78.23.11.48.19.68.26,1.99.7,3.97,1.46,6,2.03.96.27,1.92-.07,2.83.4.67.35,1.25.8,2.03.89.02,0,.05,0,.07,0,.02,5.58.75,49.69.67,62.03-2.08-.05-4.15-.26-6.2-.59-.4-.06-1.08.68-.51.83,2.18.59,4.45.81,6.71.73,0,.72-.02,1.28-.04,1.66-.03.6.97.14,1-.31.35-6.25-.57-58.82-.8-65.07.03,0,.05.01.08.01,14.55-.57,34.02-.16,48.57-.79.01,0,.03,0,.04-.01-.06.7-.03,1.42-.04,2.12,0,.7-.02,1.4-.02,2.09,0,.7,0,1.39,0,2.09,0,.55.05,1.08.08,1.62-.84.03-1.68.08-2.52.11-9.49.35-18.99.49-28.48.43-1.31,0-2.62-.03-3.93-.03-.88,0-1.78.01-2.59.38-1.18.54-2.1,1.97-1.27,3.16-.16.09-.3.25-.29.4.05,2.73-.02,54.73-.04,57.46,0,.3.27.29.51.16,2.61.34,5.35.16,7.97.17,2.86,0,5.72-.02,8.58-.07.14,0,.27-.07.4-.17.18,5.98.4,17.49.66,21.54.06.93,1.54.22,1.52-.47-.43-16.43-1.34-42.72-2.19-59.14-.23-4.4-.46-8.79-.71-13.19,1.88.14,3.78.15,5.66.05.37-.02.75-.33.87-.67.12-.34-.1-.56-.43-.56-2.12.01-4.24-.03-6.36-.03-.1,0-.19.03-.29.08-.39.06-.87.44-.86.81.54,16.45,1.33,32.89,2.05,49.33.02.4.04.88.05,1.42,0,0,0,0-.01,0-2.79-.04-5.58-.08-8.37-.07-2.71,0-5.49-.14-8.19.18.15-5.45.1-54.43,0-57.07,0-.04-.02-.07-.03-.1.21-.14.38-.39.27-.59-1.07-2.02,2.09-2.03,3.23-2.01,1.31.02,2.62.03,3.93.04,2.46.02,4.91.02,7.37,0,5.07-.02,10.15-.11,15.22-.25,5.07-.14,10.14-.33,15.21-.58,2.45-.12,4.9-.26,7.35-.39,2.21-.12,4.85-.3,6.05,1.94-3.11.07-6.23.15-9.34.22-8.53.19-17.08.21-25.61.64-.55.03-1.2.97-.6,1.15-.02.1-.02.21,0,.32.01.05.04.09.06.14-.35.07-.76.4-.75.73.35,10.41,1.38,69.72,1.84,74.78.07.72,1.37-.07,1.4-.58.29-5.23-1.4-64.23-1.98-74.45.25.14.53.21.8.3.32.1.63.21.95.31,1.24.39,2.49.77,3.77.99.08.01.15,0,.23,0-.85,6.75-.5,60.63-.52,67.93,0,.64,1.04.15,1.05-.32.19-7.2.23-60.27.5-66.87,1.03.4,2.07.72,3.15.96,1.25.28,2.48.4,3.75.44.29,0,.61-.22.79-.48,10.9.15,29.67-.02,40.57-.45.85-.03,1.81-1.68.58-1.62Z"/><path d="m515.02,485.05c-.03-7.87-.06-15.73-.13-23.59,0-.5-.82-.12-.82.25-.07,7.89-.1,15.78-.12,23.67-.02,7.87-.14,15.74.09,23.61.02.56.89.13.91-.28.22-7.88.1-15.77.08-23.66Z"/><path d="m752.27,581.28c-.03-7.27-.09-14.55-.14-21.82,0-.8-1.32-.2-1.32.41-.04,25.83.71,131.36,1.54,138.54.08.69,1.44-.03,1.41-.59-.75-12.89-1.43-103.72-1.49-116.54Z"/><path d="m774.67,508.85c-.3-1.52-.74-2.91-1.61-4.21-1.89-2.82-4.67-3.57-7.91-3.63-8.03-.15-16.09-.35-24.12-.25-.5,0-1.32,1.14-.57,1.18,7.22.41,14.46.49,21.69.7,3.32.1,6.63.03,8.83,2.92.89,1.16,1.53,2.59,1.87,4.01.41,1.69.23,3.43.55,5.11.17.88,1.47-.17,1.55-.64.27-1.64.03-3.56-.29-5.18Z"/><path d="m829.05,516.78c0-.47,0-.94-.01-1.4,0,0,0-.02,0-.03-9.99-.4-47.52.02-57.04.12-9.89.1-19.77.28-29.65.45-.62.01-1.33,1.18-.42,1.19,9.75.02,19.49.06,29.24.02,9.77-.04,48.07.24,57.82-.33.02,0,.04-.01.06-.02Z"/><path d="m834.28,519.93c0-.41.01-.82.02-1.23-8.57-.32-39.1.22-47.68.51-8.82.3-17.63.67-26.44,1.13-5.07.26-10.14.52-15.2.9-.61.05-1.36,1.24-.43,1.21,17.5-.6,34.98-1.45,52.48-1.86,4.99-.12,31.88-.12,36.86-.48.12,0,.25-.08.39-.18Z"/><path d="m760.99,532.36c0-.13,0-.25,0-.38,0-.25.01-.5.03-.75.02-.25.05-.5.09-.75,0-.06.02-.11.03-.17h0c.22-.04.45-.07.67-.1.53-.07,84.35-1.14,84.87-1.24.13-.02.24-.08.34-.15.02-.34.04-.68.05-1.02-3.19,0-84.37.93-84.96.99-.3.03-.6.06-.89.1-.54.07-1,.27-1.34.72-.24.31-.3.7-.36,1.08-.04.28-.07.57-.08.86,0,.31,0,.64.05.95.02.14.04.28.08.41.02.07.05.14.09.2.34,8.68.37,145.68.18,169.44-.23-.07-.48-.12-.7-.17-.31-.07-.61-.17-.92-.26-.07-.02-.14-.04-.21-.06-.03,0-.06-.02-.09-.03,0,0-.01,0-.04-.01-.15-.05-.29-.11-.44-.17-.31-.11-.61-.24-.9-.39-.08-.04-.18-.05-.27-.05-1.72-.63-3.43-1.29-5.11-2.01-.54-.23-1.07-.47-1.6-.7-.4-.18-1-.34-1.33-.62-.35-.3-.21-.79-.38-1.19-.17-.39-.49-.67-.81-.93-1.31-1.04-3.14-1.37-4.25-2.67-1.22-1.43-.96-3.5-.73-5.22.03-.24-.15-.35-.34-.37.21-9.77.02-19.57,0-29.33-.02-11.26-.14-22.53-.2-33.79-.03-6.37-.07-12.73-.12-19.1,0-.85-1.39-.2-1.4.43-.18,22.6-.36,45.2-.29,67.79.01,4.68-.04,9.37.02,14.05-.44-.08-.89-.14-1.33-.2-.92-.14-1.84-.27-2.75-.41-.63-.1-1.17-.3-1.43-.93-.19-.44-.21-.93-.18-1.4.17-.17.29-.37.3-.57.2-8.22.02-16.47.01-24.7,0-8.23-.02-16.45-.05-24.68-.02-4.72-.05-9.43-.11-14.15-.01-.85-1.38-.2-1.38.43-.2,16.48-.14,32.96-.15,49.43,0,2.6-.03,5.21-.03,7.82-1.74-.34-3.48-.66-5.22-.97-.19-.21-.42-.39-.68-.55-.54-.34-.98-.57-1.35-1.11,0-.01-.02-.02-.02-.04.06-.08.1-.17.1-.26.21-7.61.43-15.22.56-22.84.14-7.57.54-15.2.35-22.77-.02-.94-1.49-.2-1.52.47-.43,7.57-.28,15.2-.39,22.78-.1,7.1-.13,14.19-.17,21.29-.05-.05-.1-.1-.16-.14-.53-.41-1.15-.69-1.74-1.01-1.09-.6-2.17-1.27-3.1-2.11-.44-.4-.84-.84-1.19-1.32-.36-.49-.57-1.16-.97-1.59-.1-.11-.22-.13-.34-.11.27-9.07.27-18.21-.39-27.26-.07-.9-1.49-.21-1.47.45.2,8.75.49,17.5.57,26.26-.59-.15-1.22-.23-1.77-.34-1.36-.27-2.13-.68-2.74-1.97-.13-.26-.27-.49-.43-.69-.07-6.76.24-13.51.51-20.26.03-.84-1.31-.18-1.37.42-.59,6.27-.62,12.59-.43,18.88-.1-.04-.18-.09-.28-.12-1.15-.4-2.38-.52-3.08-1.64-.62-.98-.68-2.26-.68-3.38,0-1.63.06-3.26.08-4.89.05-3.42.06-6.83.09-10.25,0-.85-1.36-.19-1.38.43-.17,3.7-.35,7.4-.5,11.1-.1,2.51-.72,5.86.61,8.17.57.99,1.5,1.48,2.56,1.78.6.17,1.26.26,1.79.6.6.39.75.98,1.07,1.56.53.94,1.4,1.41,2.42,1.69,1.17.32,2.37.56,3.55.85,0,.09,0,.17,0,.26,0,.42.38.42.72.25.28.79.83,1.56,1.31,2.1.84.94,1.88,1.68,2.94,2.34.56.34,1.14.64,1.69,1,.57.36.95.8,1.31,1.37.34.54.72.98,1.27,1.32.41.25,1.08.45,1.28.93.26.63,1.12.32,1.55-.19,1.38.33,2.76.67,4.14.99.31.07.65-.1.9-.32,0,1.73.01,3.46.06,5.19,0,.1.03.16.06.23-.1.65-.16,1.33-.02,1.97.18.84.77,1.33,1.58,1.56.93.26,1.94.36,2.89.53.85.15,1.72.33,2.58.38.02,1.13.04,2.25.08,3.38.02.5.39.58.78.45.08.26.18.51.31.75.89,1.66,2.75,2.11,4.23,3.06.37.24.83.52.98.96.15.44.02.88.35,1.27.29.34.77.5,1.16.68.53.25,1.06.49,1.59.73,2.22.99,4.47,1.89,6.76,2.7.24.08.48.07.7,0,.14.07.27.14.41.2.33.13.67.24,1.02.32.36.09.76.18,1.13.11.2-.04.4-.12.57-.23,0,.41,0,.77-.01,1.08-.04.03-.08.06-.11.1-.16.18-.35.59-.05.74.05.03.11.05.16.07-.01.11.01.22.13.29.42.26.86.48,1.32.65.26.1.53.21.8.24.29.03.59.06.88.05.11,0,.23-.05.33-.11,1.21.2,2.44.22,3.64.02,0,1.42,0,2.85.02,4.27-.11.13-.19.25-.21.35-.12.77.37,1.19.95,1.6.82.58,1.67,1.1,2.53,1.62,1.72,1.03,3.5,1.98,5.36,2.75,3.23,1.34,7.06,2.39,10.59,1.78.03,2.09.04,4.19.09,6.28,0,.2.08.31.19.38-.15.16-.37.49-.17.68,1.57,1.49,3.62,2.35,5.77,2.57.05,0,.09,0,.14,0,1.96.15,3.93.1,5.88-.05.96-.07,1.92-.17,2.88-.3,1-.13,2.12-.2,3.07-.55.51-.19,1.32-1.3.29-1.31-.94-.01-1.92.29-2.85.43-.96.14-1.93.25-2.9.34-1.75.16-3.5.22-5.25.28-.03-.17-.13-.31-.35-.32-2-.15-3.87-.88-5.56-1.95.24-.18.43-.42.43-.67.28-12.15.08-24.33.07-36.48,0-12.23,0-24.47,0-36.7,0-24.3-.04-48.59-.08-72.89-.01-6.81-.03-13.62-.04-20.43-.02-6.87.1-13.77-.16-20.64,0-.01,0-.01,0-.02.74.12,1.47.26,2.2.43.77.19,1.52.42,2.28.66-.05.18,0,.33.26.34,6.2.26,64.1-.06,70.28-.49.18-.01.36-.11.52-.23.02-.42.04-.84.06-1.26-.02,0-.02,0-.04,0-5.88.38-63.41.53-69.29.84,0-.12-.04-.23-.18-.28-.98-.42-2.02-.71-3.08-.92,3.44-.19,6.89-.39,10.34-.56,3.56-.17,58.76-.32,62.31-.53.03-.54.06-1.07.09-1.61-3.47.13-58.59.33-62.06.5-2.44.12-4.87.25-7.31.39-2.32.12-4.78.1-7,.88-.43.15-1.09,1.1-.32,1.13,0,0,0,0,0,.01-.09.2-.08.45.13.55-.21.14-.39.36-.4.57-.09,2.51-.15,5.02-.19,7.54-3.51-.34-7.26.05-10.71.59-1.83.29-3.66.65-5.45,1.11-.96.25-2.82.71-2.89,1.95-.03.07-.05.13-.06.2-.32,5.24-.17,10.54-.17,15.79l-.02,15.99c-.01,10.57,0,21.15,0,31.72,0,21.07,0,42.13.01,63.2,0,9.69-.04,19.38,0,29.08-.9.09-1.8.13-2.71.03-1.05-.11-2.1-.32-3.1-.65.22-12.04.07-162.77-.36-171.76.07-.1.13-.21.16-.34.03-.13.07-.27.08-.41Zm8.95,16.59c.74-.17,1.47-.34,2.22-.48,1.57-.3,3.14-.53,4.73-.71,3.11-.36,6.18-.26,9.3-.36-.01.98-.02,1.96-.02,2.93-1.13,0-2.26.11-3.39.12-1.35.02-2.7,0-4.05-.08-2.68-.14-5.33-.51-7.98-.93-.54-.09-1.47.94-.7,1.13,2.67.66,5.4,1,8.15,1.17,2.59.16,5.38.3,7.95-.16-.03,7.75.08,15.51.07,23.24-.01,12.24-.03,24.48-.04,36.72-.03,24.31,0,48.61,0,72.92,0,11.1-.14,22.21-.02,33.32-1.41.01-2.8.02-4.21-.22-1.74-.3-3.43-.81-5.07-1.46-1.61-.64-3.17-1.41-4.68-2.25-.7-.38-1.38-.79-2.06-1.19-.38-.23-1.01-.49-1.49-.84.05-.1.08-.2.08-.3.16-21.15,0-42.3,0-63.45,0-21.07-.01-42.13-.01-63.2,0-5.9-.02-11.8-.02-17.7,0-5.91.19-11.89-.18-17.79.37-.3,1.03-.34,1.45-.43Z"/><path d="m846.33,530.34c-3.66.27-67.94,1.51-71.6,1.74-3.38.21-7.18.88-10.42-.38-.48-.19-1.43.69-.86.95,3.19,1.47,6.54,1.19,9.94.89,3.96-.35,68.55-1.68,72.52-2,.61-.05,1.33-1.27.43-1.2Z"/><path d="m875.37,545.47c.64-.03,1.4-1.22.44-1.24-1.26-.04-66.41-.03-67.67,0-1.17.02-2.39-.03-3.55.19-1.05.2-2.09.68-2.67,1.62-.46.75-.62,1.72-.08,2.47-.3,17.83-.31,35.67-.33,53.51-.02,18.27.07,36.55.17,54.82.05,10.06,1.98,71.49,2.08,83.34-.22.19-.61.66-.33.96,1.44,1.54,3.41,2.62,5.48,3.01.43.08.9-.25,1.11-.59.2-.32.18-.72-.23-.83-1.67-.43-3.2-1.21-4.53-2.28.01-.05.04-.09.04-.14.05-18.23-1.85-89.66-1.77-107.89.08-18.28.06-36.57-.06-54.85-.06-9.96-.09-19.92-.27-29.88.83.26,2,.24,2.49.26,1.85.11,67.64.2,69.48-.06.34-.05.66-.26.81-.58.1-.22.1-.59-.23-.62-1.53-.1-66.96-.02-68.49-.06-.77-.02-1.55-.05-2.32-.11-.29-.02-.6-.01-.87-.1-.1-.03-.2-.08-.29-.13-.04-.02-.14-.14-.15-.07.03-.11.02-.21-.01-.29.58-.25,1.31-.25,1.91-.27,1.99-.06,67.87-.08,69.86-.16Z"/></g></svg>