<?xml version="1.0" encoding="UTF-8"?><svg xmlns="http://www.w3.org/2000/svg" viewBox="0 0 940 799"><defs><style>.d{fill:#fff;}.e{fill:#b5d7c6;}</style></defs><g id="a"><polyline class="d" points="136.42 596.87 357.27 778.26 381.09 779.41 880 655 895.64 613.34 685.52 204.81 665.32 204.42 166.67 218.56 159.07 238.38 162.1 274.41 125.95 287.92 136.42 596.87"/></g><g id="c"><path class="e" d="m708,536.65l-4.52,6.2s29.45,59.51,32.98,60.83,48-8.35,48-8.35l4.22-9.29-32.77-56.5-47.91,7.11Z"/><path class="e" d="m664.53,199.45c.52-.02,1.05.05,1.55.2,3.39,1,17.02,5,17.44,5.17.35.14,89.93,164.07,139.73,255.24.94,1.72,2.82,2.72,4.77,2.54,5.19-.48,10.39-.92,15.59-1.31,2.71-.21,4.73-2.55,4.55-5.26-11.48-176.21-146.58-332.96-255.16-390.02C397-37,60.76,3.58,42,306c-5.76,92.81,12.9,177.24,48.4,249.44.9,1.84,2.86,2.92,4.9,2.72,14.2-1.37,34.5-7.7,48.69-9.17.45-.05-.17,2.21-.33-.43-5.16-81.43-16.56-268.21-12.66-270.12,3.78-1.85,22.95-6.63,32.06-8.85,2.66-.65,4.28-3.34,3.61-6l-7.2-28.58c-.27-1.07-.17-2.2.27-3.2l5.99-13.51c.77-1.73,2.46-2.87,4.35-2.93l494.44-15.93Z"/><g><path d="m876.92,623.54c-98.87,25.44-197.79,50.65-296.63,76.18-28.3,7.31-173.54,46.82-201.86,54.04-1.61.41-2.52,3.29-.22,2.71,98.94-24.63,314.92-81.04,413.64-106.55,28.24-7.3,56.48-14.62,84.72-21.95,2.62-.68,4.12-5.4.35-4.44Z"/><path d="m733.24,416.33c-101.03,14.65-208.09,29.07-309.11,43.81-28.92,4.22-57.81,8.65-86.74,12.78-1.64.23-2.86,2.99-.51,2.67,101.02-13.83,202.05-27.45,302.94-42.18,28.87-4.22,63.73-8.45,92.59-12.71,2.68-.4,4.67-4.93.83-4.37Z"/><path d="m335.56,472.63c-14.9-36.73-89.62-220.28-99.56-247.63-.71-1.97-3.61-1.69-3,0,11.73,32.36,82.13,213.67,98.91,249.54.86,1.83,4.3-.32,3.65-1.92Z"/><path d="m365.56,448.63c-14.9-36.73-77.62-185.28-87.56-212.63-.71-1.97-3.61-1.69-3,0,11.73,32.36,70.13,178.67,86.91,214.54.86,1.83,4.3-.32,3.65-1.92Z"/><path d="m697.08,402.77c-15.68-31.26-81.53-157.7-92.06-180.98-.76-1.67-3.65-1.43-3,0,12.42,27.54,73.9,152.07,91.44,182.61.9,1.56,4.29-.27,3.61-1.63Z"/><path d="m695.38,401c-34.73,4.12-307.03,45.06-332.49,47.05-1.83.14-2.59,2.94-1.02,2.82,30.12-2.31,299.14-39.8,333.82-45.92,1.77-.31,1.2-4.13-.31-3.95Z"/><path d="m734.77,416.5c-18.71-34.94-95.46-182.54-108.25-208.68-.92-1.88-3.77-1.29-2.98.32,15.1,30.93,87.31,176.77,107.8,210.66,1.05,1.73,4.24-.77,3.43-2.29Z"/><path d="m362.53,740.18c-14.58-36.86-175.91-486.28-185.62-513.71-.7-1.97-3.6-1.72-3-.03,11.45,32.46,168.48,479.61,184.95,515.62.84,1.84,4.3-.28,3.67-1.88Z"/><path d="m580.69,497.08c-2.5-8.27-6.38-16.62-10.71-24.05-.38-.65-1.47-.16-2.01.51-.16-.1-.39-.16-.73-.14-11.06.54-22.17,2.82-32.89,5.53-.21-.8-1.77-.29-2.3.24-1,.97-1.6,2.16-1.97,3.49-.14.51-.32,1.13-.39,1.73-.32.33-.52.74-.4,1.07,2.53,7.33,6.22,14.38,9.51,21.4,1.66,3.56,3.36,7.53,7.91,6.18.45-.13.98-.7,1.23-1.25,9.36-.64,18.77-2.9,27.92-4.84.47-.1.88-.4,1.18-.77.44-.23.85-.56.97-.73.79-1.08,1.24-2.41,1.81-3.62.56-1.18,1.34-2.32,1.66-3.59.22-.87-.2-1.18-.78-1.17Zm-3.95,4.81c-.3.71-.62,1.48-.82,2.25-9.47,2-19.17,3.24-28.58,5.51-.41.1-.87.54-1.13,1-4.26-1.01-7.1-11.01-8.58-14.18-1.74-3.72-3.4-7.52-5.41-11.11.51-.92.61-1.98.95-2.97.14-.42.32-.82.5-1.22,10.81-2.23,21.69-3.52,32.61-5.06.56-.08,1.2-.61,1.59-1.18,3.17,8.01,6.55,16.2,10.38,23.91-.62.95-1.07,2-1.52,3.05Z"/><path d="m600.69,535.08c-2.5-8.27-6.38-16.62-10.71-24.05-.38-.65-1.47-.16-2.01.51-.16-.1-.39-.16-.73-.14-11.06.54-22.17,2.82-32.89,5.53-.21-.8-1.77-.29-2.3.24-1,.97-1.6,2.16-1.97,3.49-.14.51-.32,1.13-.39,1.73-.32.33-.52.74-.4,1.07,2.53,7.33,6.22,14.38,9.51,21.4,1.66,3.56,3.36,7.53,7.91,6.18.45-.13.98-.7,1.23-1.25,9.36-.64,18.77-2.9,27.92-4.84.47-.1.88-.4,1.18-.77.44-.23.85-.56.97-.73.79-1.08,1.24-2.41,1.81-3.62.56-1.18,1.34-2.32,1.66-3.59.22-.87-.2-1.18-.78-1.17Zm-3.95,4.81c-.3.71-.62,1.48-.82,2.25-9.47,2-19.17,3.24-28.58,5.51-.41.1-.87.54-1.13,1-4.26-1.01-7.1-11.01-8.58-14.18-1.74-3.72-3.4-7.52-5.41-11.11.51-.92.61-1.98.95-2.97.14-.42.32-.82.5-1.22,10.81-2.23,21.69-3.52,32.61-5.06.56-.08,1.2-.61,1.59-1.18,3.17,8.01,6.55,16.2,10.38,23.91-.62.95-1.07,2-1.52,3.05Z"/><path d="m618.69,580.08c-2.5-8.27-6.38-16.62-10.71-24.05-.38-.65-1.47-.16-2.01.51-.16-.1-.39-.16-.73-.14-11.06.54-22.17,2.82-32.89,5.53-.21-.8-1.77-.29-2.3.24-1,.97-1.6,2.16-1.97,3.49-.14.51-.32,1.13-.39,1.73-.32.33-.52.74-.4,1.07,2.53,7.33,6.22,14.38,9.51,21.4,1.66,3.56,3.36,7.53,7.91,6.18.45-.13.98-.7,1.23-1.25,9.36-.64,18.77-2.9,27.92-4.84.47-.1.88-.4,1.18-.77.44-.23.85-.56.97-.73.79-1.08,1.24-2.41,1.81-3.62.56-1.18,1.34-2.32,1.66-3.59.22-.87-.2-1.18-.78-1.17Zm-3.95,4.81c-.3.71-.62,1.48-.82,2.25-9.47,2-19.17,3.24-28.58,5.51-.41.1-.87.54-1.13,1-4.26-1.01-7.1-11.01-8.58-14.18-1.74-3.72-3.4-7.52-5.41-11.11.51-.92.61-1.98.95-2.97.14-.42.32-.82.5-1.22,10.81-2.23,21.69-3.52,32.61-5.06.56-.08,1.2-.61,1.59-1.18,3.17,8.01,6.55,16.2,10.38,23.91-.62.95-1.07,2-1.52,3.05Z"/><path d="m627.68,489.12c-2.4-7.95-6.13-15.97-10.29-23.11-.36-.62-1.41-.15-1.93.49-.15-.1-.37-.15-.7-.14-10.62.52-21.3,2.71-31.6,5.32-.2-.77-1.7-.27-2.21.23-.96.94-1.54,2.07-1.89,3.36-.14.49-.31,1.08-.38,1.66-.31.32-.5.71-.39,1.03,2.43,7.05,5.98,13.82,9.14,20.57,1.6,3.42,3.23,7.24,7.6,5.94.43-.13.94-.68,1.19-1.2,8.99-.61,18.04-2.79,26.83-4.65.45-.1.84-.38,1.13-.74.42-.22.81-.54.93-.7.76-1.04,1.19-2.32,1.74-3.48.53-1.13,1.28-2.23,1.6-3.45.22-.83-.2-1.13-.75-1.13Zm-3.8,4.62c-.29.69-.6,1.42-.79,2.17-9.1,1.92-18.42,3.12-27.46,5.29-.4.1-.84.52-1.08.96-4.1-.97-6.82-10.58-8.24-13.62-1.67-3.58-3.27-7.23-5.2-10.68.49-.89.58-1.9.91-2.86.14-.4.31-.79.48-1.17,10.39-2.14,20.84-3.38,31.33-4.86.53-.08,1.16-.59,1.53-1.13,3.05,7.69,6.29,15.56,9.97,22.98-.59.91-1.03,1.92-1.46,2.93Z"/><path d="m646.9,528.64c-2.4-7.95-6.13-15.97-10.29-23.11-.36-.62-1.41-.15-1.93.49-.15-.1-.37-.15-.7-.14-10.62.52-21.3,2.71-31.6,5.32-.2-.77-1.7-.27-2.21.23-.96.94-1.54,2.07-1.89,3.36-.14.49-.31,1.08-.38,1.66-.31.32-.5.71-.39,1.03,2.43,7.05,5.98,13.82,9.14,20.57,1.6,3.42,3.23,7.24,7.6,5.94.43-.13.94-.68,1.19-1.2,8.99-.61,18.04-2.79,26.83-4.65.45-.1.84-.38,1.13-.74.42-.22.81-.54.93-.7.76-1.04,1.19-2.32,1.74-3.48.53-1.13,1.28-2.23,1.6-3.45.22-.83-.2-1.13-.75-1.13Zm-3.8,4.62c-.29.69-.6,1.42-.79,2.17-9.1,1.92-18.42,3.12-27.46,5.29-.4.1-.84.52-1.08.96-4.1-.97-6.82-10.58-8.24-13.62-1.67-3.58-3.27-7.23-5.2-10.68.49-.89.58-1.9.91-2.86.14-.4.31-.79.48-1.17,10.39-2.14,20.84-3.38,31.33-4.86.53-.08,1.16-.59,1.53-1.13,3.05,7.69,6.29,15.56,9.97,22.98-.59.91-1.03,1.92-1.46,2.93Z"/><path d="m664.19,568.88c-2.4-7.95-6.13-15.97-10.29-23.11-.36-.62-1.41-.15-1.93.49-.15-.1-.37-.15-.7-.14-10.62.52-21.3,2.71-31.6,5.32-.2-.77-1.7-.27-2.21.23-.96.94-1.54,2.07-1.89,3.36-.14.49-.31,1.08-.38,1.66-.31.32-.5.71-.39,1.03,2.43,7.05,5.98,13.82,9.14,20.57,1.6,3.42,3.23,7.24,7.6,5.94.43-.13.94-.68,1.19-1.2,8.99-.61,18.04-2.79,26.83-4.65.45-.1.84-.38,1.13-.74.42-.22.81-.54.93-.7.76-1.04,1.19-2.32,1.74-3.48.53-1.13,1.28-2.23,1.6-3.45.22-.83-.2-1.13-.75-1.13Zm-3.8,4.62c-.29.69-.6,1.42-.79,2.17-9.1,1.92-18.42,3.12-27.46,5.29-.4.1-.84.52-1.08.96-4.1-.97-6.82-10.58-8.24-13.62-1.67-3.58-3.27-7.23-5.2-10.68.49-.89.58-1.9.91-2.86.14-.4.31-.79.48-1.17,10.39-2.14,20.84-3.38,31.33-4.86.53-.08,1.16-.59,1.53-1.13,3.05,7.69,6.29,15.56,9.97,22.98-.59.91-1.03,1.92-1.46,2.93Z"/><path d="m685.19,608.88c-2.4-7.95-6.13-15.97-10.29-23.11-.36-.62-1.41-.15-1.93.49-.15-.1-.37-.15-.7-.14-10.62.52-21.3,2.71-31.6,5.32-.2-.77-1.7-.27-2.21.23-.96.94-1.54,2.07-1.89,3.36-.14.49-.31,1.08-.38,1.66-.31.32-.5.71-.39,1.03,2.43,7.05,5.98,13.82,9.14,20.57,1.6,3.42,3.23,7.24,7.6,5.94.43-.13.94-.68,1.19-1.2,8.99-.61,18.04-2.79,26.83-4.65.45-.1.84-.38,1.13-.74.42-.22.81-.54.93-.7.76-1.04,1.19-2.32,1.74-3.48.53-1.13,1.28-2.23,1.6-3.45.22-.83-.2-1.13-.75-1.13Zm-3.8,4.62c-.29.69-.6,1.42-.79,2.17-9.1,1.92-18.42,3.12-27.46,5.29-.4.1-.84.52-1.08.96-4.1-.97-6.82-10.58-8.24-13.62-1.67-3.58-3.27-7.23-5.2-10.68.49-.89.58-1.9.91-2.86.14-.4.31-.79.48-1.17,10.39-2.14,20.84-3.38,31.33-4.86.53-.08,1.16-.59,1.53-1.13,3.05,7.69,6.29,15.56,9.97,22.98-.59.91-1.03,1.92-1.46,2.93Z"/><path d="m670.97,480.31c-2.32-7.67-5.92-15.42-9.93-22.31-.35-.6-1.36-.15-1.86.47-.15-.09-.36-.15-.68-.13-10.26.5-20.56,2.62-30.51,5.13-.19-.74-1.64-.26-2.14.22-.92.9-1.48,2-1.83,3.24-.13.47-.3,1.04-.36,1.61-.3.31-.48.69-.37.99,2.35,6.8,5.77,13.34,8.82,19.86,1.54,3.3,3.12,6.99,7.34,5.73.42-.12.91-.65,1.14-1.16,8.68-.59,17.42-2.69,25.9-4.49.44-.09.81-.37,1.09-.71.41-.21.78-.52.9-.67.73-1,1.15-2.24,1.68-3.36.52-1.09,1.24-2.16,1.54-3.33.21-.8-.19-1.09-.72-1.09Zm-3.66,4.46c-.28.66-.57,1.37-.76,2.09-8.79,1.86-17.79,3.01-26.51,5.11-.38.09-.81.5-1.04.93-3.95-.94-6.59-10.22-7.96-13.15-1.61-3.45-3.16-6.98-5.02-10.31.47-.85.56-1.84.88-2.76.13-.39.3-.76.46-1.13,10.03-2.07,20.12-3.26,30.25-4.7.52-.07,1.12-.56,1.48-1.09,2.94,7.43,6.07,15.03,9.63,22.19-.57.88-.99,1.85-1.41,2.83Z"/><path d="m730.97,472.31c-2.32-7.67-5.92-15.42-9.93-22.31-.35-.6-1.36-.15-1.86.47-.15-.09-.36-.15-.68-.13-10.26.5-37.56,4.62-47.51,7.13-.19-.74-1.64-.26-2.14.22-.92.9-1.48,2-1.83,3.24-.13.47-.3,1.04-.36,1.61-.3.31-.48.69-.37.99,2.35,6.8,5.77,13.34,8.82,19.86,1.54,3.3,3.12,6.99,7.34,5.73.42-.12.91-.65,1.14-1.16,8.68-.59,34.42-4.69,42.9-6.49.44-.09.81-.37,1.09-.71.41-.21.78-.52.9-.67.73-1,1.15-2.24,1.68-3.36.52-1.09,1.24-2.16,1.54-3.33.21-.8-.19-1.09-.72-1.09Zm-3.66,4.46c-.28.66-.57,1.37-.76,2.09-8.79,1.86-34.79,5.01-43.51,7.11-.38.09-.81.5-1.04.93-3.95-.94-6.59-10.22-7.96-13.15-1.61-3.45-3.16-6.98-5.02-10.31.47-.85.56-1.84.88-2.76.13-.39.3-.76.46-1.13,10.03-2.07,37.12-5.26,47.25-6.7.52-.07,1.12-.56,1.48-1.09,2.94,7.43,6.07,15.03,9.63,22.19-.57.88-.99,1.85-1.41,2.83Z"/><path d="m747.97,508.31c-2.32-7.67-5.92-15.42-9.93-22.31-.35-.6-1.36-.15-1.86.47-.15-.09-.36-.15-.68-.13-10.26.5-37.56,4.62-47.51,7.13-.19-.74-1.64-.26-2.14.22-.92.9-1.48,2-1.83,3.24-.13.47-.3,1.04-.36,1.61-.3.31-.48.69-.37.99,2.35,6.8,5.77,13.34,8.82,19.86,1.54,3.3,3.12,6.99,7.34,5.73.42-.12.91-.65,1.14-1.16,8.68-.59,34.42-4.69,42.9-6.49.44-.09.81-.37,1.09-.71.41-.21.78-.52.9-.67.73-1,1.15-2.24,1.68-3.36.52-1.09,1.24-2.16,1.54-3.33.21-.8-.19-1.09-.72-1.09Zm-3.66,4.46c-.28.66-.57,1.37-.76,2.09-8.79,1.86-34.79,5.01-43.51,7.11-.38.09-.81.5-1.04.93-3.95-.94-6.59-10.22-7.96-13.15-1.61-3.45-3.16-6.98-5.02-10.31.47-.85.56-1.84.88-2.76.13-.39.3-.76.46-1.13,10.03-2.07,37.12-5.26,47.25-6.7.52-.07,1.12-.56,1.48-1.09,2.94,7.43,6.07,15.03,9.63,22.19-.57.88-.99,1.85-1.41,2.83Z"/><path d="m788.68,586.04c-2.54-7.6-26.66-51.55-30.87-58.32-.37-.59-1.37-.11-1.85.53-.15-.09-.36-.14-.68-.11-10.24.8-37.41,5.71-47.28,8.51-.22-.74-1.64-.22-2.13.29-.9.93-1.42,2.04-1.73,3.29-.12.48-.27,1.05-.32,1.62-.29.32-.46.7-.34,1,2.55,6.73,26.45,49.47,29.69,55.9,1.64,3.25,3.32,6.9,7.5,5.51.41-.14.89-.68,1.11-1.19,8.66-.85,34.26-5.69,42.69-7.74.43-.11.8-.39,1.07-.74.4-.22.77-.54.88-.7.7-1.02,1.08-2.27,1.58-3.4.48-1.11,1.18-2.19,1.45-3.38.18-.81-.22-1.09-.76-1.07Zm-3.53,4.57c-.26.67-.53,1.39-.7,2.11-8.73,2.11-34.63,6.02-43.29,8.38-.38.1-.79.52-1.02.96-3.98-.82-27.18-46.33-28.63-49.22-1.71-3.41-3.36-6.88-5.32-10.16.45-.87.51-1.85.8-2.78.12-.39.27-.77.43-1.15,9.97-2.36,36.95-6.34,47.03-8.07.51-.09,1.1-.6,1.45-1.14,3.16,7.34,26.8,51.15,30.57,58.2-.55.9-.94,1.88-1.32,2.87Z"/><path d="m689.52,519.57c-2.32-7.67-5.92-15.42-9.93-22.31-.35-.6-1.36-.15-1.86.47-.15-.09-.36-.15-.68-.13-10.26.5-20.56,2.62-30.51,5.13-.19-.74-1.64-.26-2.14.22-.92.9-1.48,2-1.83,3.24-.13.47-.3,1.04-.36,1.61-.3.31-.48.69-.37.99,2.35,6.8,5.77,13.34,8.82,19.86,1.54,3.3,3.12,6.99,7.34,5.73.42-.12.91-.65,1.14-1.16,8.68-.59,17.42-2.69,25.9-4.49.44-.09.81-.37,1.09-.71.41-.21.78-.52.9-.67.73-1,1.15-2.24,1.68-3.36.52-1.09,1.24-2.16,1.54-3.33.21-.8-.19-1.09-.72-1.09Zm-3.66,4.46c-.28.66-.57,1.37-.76,2.09-8.79,1.86-17.79,3.01-26.51,5.11-.38.09-.81.5-1.04.93-3.95-.94-6.59-10.22-7.96-13.15-1.61-3.45-3.16-6.98-5.02-10.31.47-.85.56-1.84.88-2.76.13-.39.3-.76.46-1.13,10.03-2.07,20.12-3.26,30.25-4.7.52-.07,1.12-.56,1.48-1.09,2.94,7.43,6.07,15.03,9.63,22.19-.57.88-.99,1.85-1.41,2.83Z"/><path d="m708.62,559.58c-2.57-7.86-6.48-15.77-10.81-22.79-.38-.61-1.43-.13-1.95.52-.16-.09-.38-.15-.71-.12-10.75.7-21.53,3.06-31.92,5.83-.22-.76-1.72-.24-2.24.27-.95.95-1.52,2.09-1.86,3.37-.13.49-.3,1.08-.35,1.66-.31.33-.49.72-.37,1.03,2.59,6.96,6.29,13.63,9.6,20.28,1.68,3.37,3.39,7.14,7.8,5.77.43-.13.94-.69,1.18-1.21,9.09-.77,18.22-3.08,27.09-5.09.46-.1.85-.4,1.13-.75.42-.23.81-.55.93-.71.75-1.04,1.16-2.32,1.7-3.49.52-1.14,1.26-2.24,1.56-3.46.2-.83-.22-1.12-.78-1.11Zm-3.77,4.66c-.28.69-.58,1.42-.76,2.17-9.19,2.07-18.61,3.42-27.72,5.74-.4.1-.84.53-1.08.97-4.16-.89-7.09-10.4-8.58-13.4-1.75-3.53-3.43-7.13-5.45-10.52.48-.89.56-1.9.88-2.86.13-.4.3-.79.46-1.18,10.49-2.31,21.05-3.72,31.65-5.38.54-.08,1.16-.6,1.53-1.15,3.22,7.59,6.63,15.36,10.49,22.67-.58.92-1.01,1.93-1.43,2.94Z"/><path d="m906.54,610.61c-.09-.21-.22-.36-.35-.5-14.04-32.29-214.98-399.13-220.67-405.29-3.42-3.7-9.12-9.53-14.72-10.01-.27-.36-.78-.59-1.63-.58-67.67,1.38-503.87,13.9-505.16,14.77-7.47,5.03-14.09,22.12-13.42,30.66.47,5.97,3.29,11.83,5.29,17.41,2.08,5.78,4.16,11.56,6.23,17.34-3.99.98-8,2.45-11.74,3.46-6.47,1.76-13.03,3.34-19.36,5.57-2.2.14-5.1,2.33-5.06,4.48,1.52,83.33,6.12,166.68,9.45,249.97.94,23.49-.39,58.16,1.03,58.98.42.24,195.25,172.67,209.58,184.13,5,4,11,8,14,7,3,0,486.03-123.91,520-133,.54-.14,16.32-16.84,24-29,5.22-8.27,3.83-12.57,2.54-15.39Zm-23.13,21c-5.09,4.94-10.12,9.93-15.08,15-68.9,15.64-475.52,123.64-509.23,132.81-.04-.11-.1-.23-.19-.34-.36-.48-1.01-.66-1.64-.81-23.18-22.5-211.2-187.22-211.21-187.44-1.38-82.52-8.55-302.16-9.06-301.82-.03-.47,6.81-2.59,11.88-3.9,4.85-1.25,10.06-2.16,14.9-3.79,1.61-.54,168.82,443.75,185.22,478.7,1.3,2.78,12.04,5.36,11,3-27.58-62.56-66.31-159.62-89.9-223.78-23.6-64.18-45.94-128.81-69.56-192.98-6.56-17.82-13.18-35.62-19.89-53.38-6.88-18.21-13.42-36.81-21.58-54.48,1.2-2.62,2.14-5.35,3.28-8,1.41-3.27,3.82-6.45,4.66-9.89.23-.96.06-1.57-.33-1.92,67.32-1.19,134.62-4.21,201.92-6.52,67.35-2.32,134.7-4.52,202.06-6.63,38.23-1.19,56.45.5,94.68-.99.32-.01.64-.1.96-.24,2.19.88,4.28,1.74,6.33,3.31,3.09,2.37,5.85,5.16,8.23,8.24,4.54,5.86,202.04,371.36,214.8,397.6-.19,8.35-6.58,12.78-12.23,18.27Z"/><path d="m627.27,206.76c-102.01,4.06-204.02,7.88-306.02,12.03-29.2,1.19-58.4,2.59-87.6,3.68-1.66.06-3.16,2.68-.78,2.61,101.91-3.25,203.81-6.27,305.69-10.43,29.15-1.19,58.29-2.4,87.44-3.63,2.71-.11,5.16-4.42,1.28-4.26Z"/><path d="m601.94,220.61c-34.96,1.07-299.79,12.1-325.33,11.85-1.84-.02-2.84,2.7-1.26,2.72,30.21.32,291.47-7.54,326.55-10.61,1.79-.16,1.56-4.01.04-3.96Z"/></g><path d="m525.33,264.37c-33.08,33.25-59.23,72.16-84.96,111.14-1.15,1.74,1.56,1.6,2.36.41,25.82-38.49,51.74-77.39,84.26-110.64,1.31-1.34-.62-1.96-1.65-.92Z"/><path d="m553.78,267.04c-43.64,50.64-84.34,103.68-121.82,159.04-1.32,1.95,1.75,1.81,2.66.47,37.23-55.08,77.55-108.11,120.83-158.58,1.22-1.42-.68-2.08-1.67-.93Z"/></g></svg>