<svg xmlns="http://www.w3.org/2000/svg" width="512" height="512"><path fill="#FFF" d="M481.7 68.5c-3.2-3.2-7-4.8-11.3-4.8h-128c-4.4 0-8.2 1.6-11.4 4.8-3 3.2-4.7 7-4.7 11.3 0 4.3 1.6 8 4.7 11.2l38.2 38.2-153.7 153.3c-14.3 14.3-14.3 37.4 0 51.7 14.3 14.3 37.4 14.3 51.7 0L421 181l38 38c3.3 3.3 7 5 11.4 5 4.3 0 8-1.7 11.3-5 3-3 4.7-6.8 4.7-11V79.7c0-4.4-1.6-8-4.7-11.3z"/><path fill="#FFF" d="M110 462c-23.5 0-44-8.5-60.7-25.2C32.6 420 24 399.6 24 376V167.8c0-23.6 8.6-44 25.3-60.8C66 90.3 86.5 81.8 110 81.8h146.3c6 0 11.5 2.2 15.6 6.3 4 4.6 6 10 6 16v16c0 6-2 11.6-6.4 15.7-4.2 4.2-9.7 6.4-15.7 6.4H110c-7.2 0-13 2.4-18.2 7.7-5.3 5.2-7.7 11-7.7 18.3v208c0 7.2 2.8 13 8 18.3 5 5.2 11 7.6 18.4 7.6h208.3c7.3 0 13-2.6 18.4-7.8 5-5.3 7.6-11 7.6-18.4v-40c0-6.3 2.2-11.7 6.4-15.8 4-4.2 9.3-6.4 15.4-6.4h16c6 0 11.5 2 15.7 6.2 4 4 6.5 9.5 6.5 15.6v40c0 23.6-8.4 44-25.2 60.8-16.6 16.7-37 25.2-60.7 25.2H110z"/></svg>