<?xml version="1.0" encoding="UTF-8"?><svg id="b" xmlns="http://www.w3.org/2000/svg" viewBox="0 0 940 668"><defs><style>.c{fill:#fff;}.d{fill:#ffc363;}</style></defs><path class="d" d="M679,107C504.64-.03,426,36,309,67,155.25,107.74,66,333,85,532c-27.66-6.83-50.04,49.65-26,57,278,85,770,21,770,21,0,0,96-352-150-503Zm-90.84,412.42l-424.98,10.52L418.61,90.98l285.6,496.02-116.05-67.58Z"/><path class="c" d="M526.35,119h29.39l-42.74-96,76.9,96h71.75c7.37,0,13.35,5.98,13.35,13.35v135.3c0,7.37-5.98,13.35-13.35,13.35h-135.3c-7.37,0-13.35-5.98-13.35-13.35V132.35c0-7.37,5.98-13.35,13.35-13.35h0Z"/><path class="c" d="M198.97,239.04V127.97c0-6.05,4.87-10.96,10.88-10.96h74.15S322,0,322,0l-22.16,117.01h20.28c6.01,0,10.88,4.91,10.88,10.96v111.07c0,6.05-4.87,10.96-10.88,10.96h-110.27c-6.01,0-10.88-4.91-10.88-10.96h0Z"/><path class="c" d="M204.89,417h-54.62l-80.28,110,54.58-110h-16.82c-5.29,0-9.58-4.29-9.58-9.58v-97.13c0-5.29,4.29-9.58,9.58-9.58h97.13c5.29,0,9.58,4.29,9.58,9.58v97.13c0,5.29-4.29,9.58-9.58,9.58Z"/><path class="c" d="M631.35,337h135.3c7.37,0,13.35,5.98,13.35,13.35v85.01l120,50.64-120-18.54v18.19c0,7.37-5.98,13.35-13.35,13.35h-135.3c-7.37,0-13.35-5.98-13.35-13.35v-135.3c0-7.37,5.98-13.35,13.35-13.35h0Z"/><path class="d" d="M255.28,223.13c2.9,2.17,6.14,3.83,9.59,4.94,7.18,2.27,15.16,1.92,23.17-1.49,.54-.24,1.15-.26,1.71-.07l10.25,3.42-1.15-8.33c-.11-.82,.21-1.64,.85-2.16,2.1-1.63,3.92-3.59,5.39-5.81,2.09-3.13,2.92-6.94,2.33-10.65-.75-3.95-2.52-7.63-5.13-10.68-.51-.65-1.07-1.28-1.64-1.91h0c.51-1.85,.87-3.73,1.08-5.63,1.53,1.41,2.96,2.94,4.27,4.56,3.12,3.71,5.22,8.17,6.1,12.93,.78,4.84-.28,9.81-2.97,13.91-1.49,2.28-3.3,4.33-5.37,6.08l1.38,10.59c.26,1.29-.57,2.55-1.86,2.81-.4,.08-.82,.06-1.22-.07l-13.02-4.27c-8.12,3.44-17.2,3.9-25.63,1.31-5.82-1.89-11.11-5.14-15.43-9.48,.56,0,1.14,.05,1.76,.08,1.86,.05,3.71,0,5.52-.09h.02Zm13.76-48.63c3.01,0,5.46,2.44,5.47,5.45s-2.44,5.46-5.45,5.47c-3.01,0-5.46-2.44-5.47-5.45h0c0-3.01,2.44-5.45,5.45-5.46h0Zm-36.03,0c3.01,0,5.46,2.44,5.47,5.45,0,3.01-2.44,5.46-5.45,5.47-3.01,0-5.46-2.44-5.47-5.45h0c0-3.01,2.44-5.45,5.45-5.46h0Zm18.02,0c3.01,0,5.46,2.44,5.47,5.45,0,3.01-2.44,5.46-5.45,5.47-3.01,0-5.46-2.44-5.47-5.45h0c0-3.01,2.43-5.45,5.43-5.46h.02Zm1.09-30.1h.04c11.91,.39,22.59,4.63,30.23,11.18,7.82,6.7,12.5,15.81,12.18,25.77h0c-.31,9.96-5.54,18.79-13.75,25.03-8.04,6.1-18.98,9.7-30.89,9.4-3.23-.09-6.44-.48-9.6-1.16-2.75-.59-5.44-1.41-8.06-2.45l-19.5,7.69,6.54-15.54c-3.52-3.04-6.42-6.73-8.54-10.88-2.32-4.51-3.47-9.54-3.32-14.62,.32-9.97,5.54-18.81,13.76-25.03,8.05-6.13,18.98-9.72,30.9-9.4h.01Zm-.15,5.43h-.04c-10.64-.3-20.36,2.9-27.46,8.24-6.93,5.3-11.35,12.67-11.59,20.9-.11,4.17,.83,8.3,2.73,12.01,2.1,4.05,5.06,7.59,8.66,10.39l1.61,1.29-3.12,7.41,9.58-3.77,1.03,.44c2.61,1.11,5.32,1.97,8.09,2.56,2.84,.61,5.74,.96,8.65,1.05,10.65,.31,20.38-2.87,27.47-8.25,6.93-5.26,11.35-12.64,11.59-20.87h0c.28-8.26-3.72-15.86-10.31-21.52-6.76-5.79-16.23-9.53-26.87-9.86l-.02-.03h0Z"/><g><path class="d" d="M157.41,336.05c-10.93,0-19.81,8.89-19.81,19.81,0,4.47,1.46,8.69,4.24,12.22,.55,.7,1.12,1.36,1.73,2.07l.04,.04c1.86,2.16,3.79,4.39,4.51,7.03,.17,.6,.19,1.76,.18,2.65v1.51c0,1.39,1.12,2.51,2.51,2.51h13.14c1.39,0,2.51-1.12,2.51-2.51v-1.53c0-1.16,.05-2.01,.17-2.46,.73-2.61,2.86-5.13,4.76-7.36l.08-.09c.55-.65,1.07-1.25,1.54-1.85,2.78-3.52,4.24-7.75,4.24-12.23,0-10.93-8.89-19.81-19.81-19.81h0Zm11.63,28.94c-.42,.52-.9,1.1-1.41,1.7l-.1,.12c-2.22,2.61-4.73,5.57-5.75,9.25-.14,.52-.3,1.31-.34,2.81h-8.13c-.04-1.6-.2-2.42-.34-2.97-1.02-3.73-3.53-6.65-5.55-8.99l-.04-.04c-.57-.66-1.11-1.29-1.59-1.9-2.07-2.63-3.17-5.78-3.17-9.12,0-8.16,6.64-14.8,14.8-14.8s14.8,6.64,14.8,14.8c0,3.34-1.1,6.49-3.17,9.12h0Z"/><path class="d" d="M163.92,386.04h-13.14c-1.39,0-2.51,1.12-2.51,2.51s1.12,2.51,2.51,2.51h13.14c1.39,0,2.51-1.12,2.51-2.51s-1.12-2.51-2.51-2.51Z"/><path class="d" d="M160.64,393.2h-6.57c-1.39,0-2.51,1.12-2.51,2.51s1.12,2.51,2.51,2.51h6.57c1.39,0,2.51-1.12,2.51-2.51s-1.12-2.51-2.51-2.51Z"/><path class="d" d="M192.03,353.36h-8.65c-1.39,0-2.51,1.12-2.51,2.51s1.12,2.51,2.51,2.51h8.65c1.39,0,2.51-1.12,2.51-2.51s-1.12-2.51-2.51-2.51Z"/><path class="d" d="M133.95,355.87c0-1.39-1.12-2.51-2.51-2.51h-8.66c-1.39,0-2.51,1.12-2.51,2.51s1.12,2.51,2.51,2.51h8.66c1.39,0,2.51-1.12,2.51-2.51Z"/><path class="d" d="M157.41,332.42c1.39,0,2.51-1.12,2.51-2.51v-8.66c0-1.39-1.12-2.51-2.51-2.51s-2.51,1.12-2.51,2.51v8.66c0,1.39,1.12,2.51,2.51,2.51Z"/><path class="d" d="M177.54,372.45c-.98-.98-2.57-.98-3.55,0-.98,.98-.98,2.57,0,3.55l6.12,6.12c.49,.49,1.13,.73,1.77,.73s1.29-.24,1.77-.73c.98-.98,.98-2.57,0-3.55l-6.12-6.12h0Z"/><path class="d" d="M137.28,339.28c.49,.49,1.13,.73,1.77,.73s1.29-.24,1.77-.73c.98-.98,.98-2.57,0-3.55l-6.12-6.12c-.98-.98-2.57-.98-3.55,0-.98,.98-.98,2.57,0,3.55l6.12,6.12h0Z"/><path class="d" d="M137.28,372.45l-6.12,6.12c-.98,.98-.98,2.57,0,3.55,.49,.49,1.13,.73,1.77,.73s1.29-.24,1.77-.73l6.12-6.12c.98-.98,.98-2.57,0-3.55-.98-.98-2.57-.98-3.55,0h0Z"/><path class="d" d="M175.76,340.02c.64,0,1.29-.24,1.77-.73l6.12-6.12c.98-.98,.98-2.57,0-3.55-.98-.98-2.57-.98-3.55,0l-6.12,6.12c-.98,.98-.98,2.57,0,3.55,.49,.49,1.13,.73,1.77,.73h0Z"/></g><path class="d" d="M555.58,250.67c-6.11,0-11.07-4.97-11.07-11.07v-32.24c0-6.11,4.97-11.07,11.07-11.07h20.15c1.01,0,1.9,.5,2.45,1.26l10.65-23.09v-13.44c0-.92,.41-1.78,1.12-2.35,.14-.11,3.38-2.68,7.93-2.68,5.17,0,13.09,7.67,13.09,17.12,0,5.05-1.62,11.21-2.83,15.12h23.52c5.93,0,10.99,4.41,11.5,10.04,.25,2.79-.56,5.57-2.25,7.76,1.48,1.79,2.29,4.02,2.29,6.37,0,3.48-1.78,6.65-4.7,8.48,.44,1.14,.67,2.35,.67,3.6,0,3.49-1.78,6.66-4.7,8.49,.71,1.85,.86,3.85,.42,5.84-1,4.53-5.25,7.82-10.1,7.82h-36.99c-2.55,0-6.67-.72-10.15-2.28-1.83,3.81-5.72,6.3-10,6.3h-12.09l.02,.02Zm-.45-48.33c-2.57,.23-4.59,2.4-4.59,5.02v32.24c0,2.78,2.26,5.04,5.04,5.04h12.09c2.78,0,5.04-2.26,5.04-5.04v-36.03h0v-1.22h-17.58Zm23.61,35.77c2.27,1.45,6.52,2.5,9.07,2.5h36.99c2.05,0,3.82-1.3,4.22-3.09,.32-1.45-.11-2.86-1.17-3.87-.85-.79-1.16-2.03-.79-3.14s1.35-1.91,2.52-2.04c2.04-.23,3.58-1.94,3.58-3.97,0-1.11-.45-2.15-1.28-2.93-.85-.79-1.16-2.03-.79-3.14s1.35-1.91,2.52-2.04c2.04-.23,3.58-1.94,3.58-3.98,0-1.5-.85-2.87-2.21-3.56-.97-.5-1.6-1.49-1.64-2.57s.51-2.11,1.43-2.68c1.65-1.02,2.57-2.84,2.39-4.76-.24-2.56-2.65-4.56-5.5-4.56h-27.73c-.99,0-1.91-.49-2.48-1.3s-.69-1.85-.34-2.78c.04-.11,3.83-10.14,3.83-17.06,0-6.24-5.63-11.09-7.06-11.09-1.19,0-2.25,.34-3.03,.71v12.4c0,.43-.1,.87-.28,1.26l-12.09,26.19c-.29,.62-.78,1.13-1.38,1.43l-2.36,1.18v32.89Z"/><path class="d" d="M710.15,433.05c-.63,0-1.25-.17-1.8-.48l-17.67-10.09c-1.74-1-2.35-3.22-1.36-4.96,.65-1.13,1.86-1.84,3.16-1.84,.63,0,1.25,.17,1.8,.48l14.51,8.29,25.1-43.97c.65-1.13,1.86-1.84,3.16-1.84,.63,0,1.25,.17,1.8,.48,.85,.48,1.45,1.26,1.71,2.2s.13,1.92-.35,2.76l-26.91,47.13c-.48,.84-1.26,1.45-2.2,1.71-.32,.09-.64,.13-.96,.13h.01Z"/><path class="d" d="M687.45,468.74c-5.95,0-11.2-4.01-12.77-9.75l-15.17-55.53c-.93-3.4-.48-6.97,1.28-10.05,1.75-3.07,4.6-5.28,8-6.21l41.65-11.38c.32-.09,.64-.13,.96-.13,1.63,0,3.08,1.1,3.51,2.68,.53,1.94-.62,3.94-2.55,4.47l-41.65,11.38c-3.17,.87-5.04,4.15-4.18,7.31l15.17,55.53c.71,2.58,3.07,4.39,5.74,4.39,.53,0,1.06-.07,1.57-.21l55.53-15.17c3.17-.86,5.04-4.14,4.18-7.31l-7.58-27.77c-.53-1.94,.62-3.94,2.55-4.47,.32-.09,.64-.13,.96-.13,1.63,0,3.07,1.1,3.51,2.68l7.58,27.77c1.92,7.04-2.24,14.33-9.28,16.25l-55.53,15.17c-1.14,.31-2.31,.47-3.48,.47h0Z"/><path d="M690.21,587h-.05c-21.9-42.6-48.27-83.56-72.14-125.24-24.43-42.67-48.53-85.51-72.31-128.52-40.65-73.54-80.07-147.68-120.25-221.46,.07-.66-.16-1.21-.79-1.47-5.17-9.5-10.33-19.02-15.52-28.52,.12-.26,.26-.52,.37-.78,1.89-3.99-.49-4.84-3.3-4.11-1.87-1.26-5.66,1.99-5.94,4.49-23.14,35.67-42.34,73.97-63.05,110.9-21.51,38.3-43.01,76.61-64.52,114.93-40.72,72.52-81.28,145.12-120.81,218.23-.19-.07-.37-.17-.65-.17-2.13,0-5.05,4.65-2.06,4.65,.09,0,.21-.05,.3-.07-2.15,3.99,3.79,2.97,5.31,.4,28.52-48.61,189.48-332.1,236.79-416.02,7.76-13.77,12.46-22.16,13.02-23.27,.81,1.66,3.94,7.98,8.15,16.45,9.68,19.45,44.99,90.48,45.01,88.93,2.23,4.28,187.56,340.84,208.81,374.91-27.73-22.11-59.03-44.15-90.07-61.27-2.15-1.19-5.61,1.35-6.45,3.78-138.18,.59-276.41,14.63-414.29,21.47-2.27,.12-5.4,5.15-2.22,5.01,138.44-6.13,277.93-5.3,416.02-17.67,1.47-.14,3.3-1.54,4.61-3.18,27.54,23.56,60.34,45.76,91.59,64.38,2.06,1.23,5.21-.66,6.85-2.97,2.85,4.42,5.7,8.83,8.65,13.18,2.85,4.2,10.85-3.32,8.95-7.01Z"/><path d="M813.17,283.42c-35.73-88.2-77.22-127.7-80.16-130.2-35.05-41.11-92.81-74.78-96.99-77.13C549.41,27.24,445.14,9.72,347.61,39.07c-61.04,18.38-127.81,64.96-154.6,92.04-14.28,14.43-45.45,51.22-59.89,73.33-12.58,19.28-30.5,58.19-30.94,58.77-12.58,29.17-21.51,51.47-29.63,97.41-8.12,45.95-11.27,115.39-1.96,171.24-12.23-1.92-23.99,5.22-30.6,15.2-8.93,13.49-5.35,29.92,4.77,41.94,16.93,20.07,46.22,22.77,71.39,26.26,30.62,4.23,61.37,7.86,92.15,11.04,124.86,12.87,250.65,17.38,376.16,12.33,71.82-2.9,145.22-7.36,215.8-20.52,1.85-.36,4.42-2.56,6.12-4.94,.56,3.06,6.92,.48,8.25-2.94,39.74-103.61,39.02-222.77-1.47-326.8Zm-5.27,324.35c-.42-.56-1.28-.85-2.66-.75-65.81,4.49-131.15,12.06-197.14,15.08-67.42,3.06-118.93,3.54-186.4,1.38-68.1-2.18-152.06-6.79-219.76-13.96-32.66-3.47-65.46-7.08-97.9-12.02-15.27-2.33-31.68-5.22-44.02-14.56-5.77-4.37-10.85-10-13.37-16.62-6.2-16.31,7.71-30.8,25.39-26.79,.19,.05,.4,0,.61,0,1.87,.67,5.63-2.78,5.45-4.87-5.17-58.49-5.38-117.21,4.51-174.35,0,0,1.89-6.46,1.15-6.44,7.22-38.64,19.17-76.54,37.47-113.13,40.65-81.24,112.73-150.77,202.8-184.16,91.05-33.74,194.59-24.46,281.58,15.74,89.04,41.13,155.13,116.52,192.35,201.4,46.34,105.66,49.79,226.18,9.95,334.04Z"/></svg>